<?xml version="1.0" encoding="UTF-8" standalone="no"?>
<svg
   width="256"
   height="256"
   viewBox="0 0 67.733332 67.733332"
   version="1.1"
   id="svg8"
   inkscape:version="1.1.1 (3bf5ae0d25, 2021-09-20, custom)"
   sodipodi:docname="21-4.svg"
   xmlns:inkscape="http://www.inkscape.org/namespaces/inkscape"
   xmlns:sodipodi="http://sodipodi.sourceforge.net/DTD/sodipodi-0.dtd"
   xmlns="http://www.w3.org/2000/svg"
   xmlns:svg="http://www.w3.org/2000/svg"
   xmlns:rdf="http://www.w3.org/1999/02/22-rdf-syntax-ns#"
   xmlns:cc="http://creativecommons.org/ns#"
   xmlns:dc="http://purl.org/dc/elements/1.1/">
  <style
     id="style847" />
  <title
     id="title856">MIL-STD-2525D Icon</title>
  <defs
     id="defs2">
    <rect
       x="23.463894"
       y="29.981363"
       width="37.028973"
       height="27.825965"
       id="rect919" />
    <rect
       id="rect839"
       height="13.148852"
       width="40.416331"
       y="3.2134565"
       x="23.31878" />
    <rect
       x="23.318781"
       y="3.2134564"
       width="40.416332"
       height="13.148852"
       id="rect839-3" />
    <rect
       x="23.318781"
       y="3.2134564"
       width="40.416332"
       height="13.148852"
       id="rect852" />
  </defs>
  <sodipodi:namedview
     inkscape:bbox-paths="true"
     inkscape:snap-others="false"
     inkscape:snap-nodes="true"
     inkscape:bbox-nodes="true"
     inkscape:snap-bbox="true"
     inkscape:snap-smooth-nodes="true"
     inkscape:snap-center="true"
     inkscape:snap-object-midpoints="true"
     inkscape:snap-midpoints="true"
     inkscape:object-paths="true"
     id="base"
     pagecolor="#ffffff"
     bordercolor="#666666"
     borderopacity="1.0"
     inkscape:pageopacity="0"
     inkscape:pageshadow="2"
     inkscape:zoom="5.656854"
     inkscape:cx="73.45072"
     inkscape:cy="59.485361"
     inkscape:document-units="px"
     inkscape:current-layer="layer1"
     inkscape:document-rotation="0"
     showgrid="false"
     inkscape:window-width="3354"
     inkscape:window-height="1380"
     inkscape:window-x="86"
     inkscape:window-y="32"
     inkscape:window-maximized="1"
     units="px"
     inkscape:pagecheckerboard="true"
     showguides="true"
     inkscape:guide-bbox="true"
     inkscape:snap-global="true"
     inkscape:snap-bbox-edge-midpoints="true">
    <sodipodi:guide
       position="33.866665,50.8"
       orientation="1,0"
       id="guide861" />
    <sodipodi:guide
       id="guide1095"
       orientation="1,0"
       position="9.9193223,33.866662" />
    <sodipodi:guide
       id="guide1097"
       orientation="1,0"
       position="57.814041,33.866664" />
    <sodipodi:guide
       id="guide1098"
       orientation="0,-1"
       position="33.866665,57.814039" />
    <sodipodi:guide
       id="guide1388"
       orientation="0,-1"
       position="35.454167,58.343206" />
  </sodipodi:namedview>
  <metadata
     id="metadata5">
    <rdf:RDF>
      <cc:Work
         rdf:about="">
        <dc:format>image/svg+xml</dc:format>
        <dc:type
           rdf:resource="http://purl.org/dc/dcmitype/StillImage" />
        <dc:title>MIL-STD-2525D Icon</dc:title>
        <dc:creator>
          <cc:Agent>
            <dc:title>Nicholas W. Royer</dc:title>
          </cc:Agent>
        </dc:creator>
        <dc:rights>
          <cc:Agent>
            <dc:title>All rights reserved</dc:title>
          </cc:Agent>
        </dc:rights>
        <dc:description>L=128px</dc:description>
      </cc:Work>
    </rdf:RDF>
  </metadata>
  <g
     inkscape:label="Symbol"
     inkscape:groupmode="layer"
     id="layer1"
     style="display:inline;opacity:1">
    <path
       id="path2029"
       style="color:#000000;fill:#ff8000;stroke-width:3.77952;stroke-linejoin:round;-inkscape-stroke:none"
       d="M 82.869141 -14.054688 C 82.535109 -14.055123 82.200642 -14.045063 81.865234 -14.025391 C 71.410498 -12.66076 63.955557 -4.3284349 57.460938 3.21875 C 52.182782 11.414721 54.384464 22.7751 60.929688 29.601562 C 54.628021 36.181909 51.876171 47.156771 57.394531 55.054688 C 61.702467 61.433876 67.659186 66.690089 74.179688 70.697266 C 81.427525 74.051094 90.721898 73.000599 96.636719 67.484375 C 103.30012 73.34197 113.94423 74.702961 121.28516 69.287109 C 123.71785 67.746608 125.8375 65.786041 127.94336 63.837891 C 133.67477 69.66153 141.9864 74.535763 150.39844 72.136719 C 153.72104 71.351356 156.79875 69.669693 159.39648 67.470703 C 166.19957 73.3952 177.20871 74.790236 184.49023 68.917969 C 190.03936 65.001883 195.21127 60.277507 199.03125 54.648438 C 203.43551 46.565638 201.80703 35.50717 194.7793 29.416016 C 201.14517 22.980174 204.17475 12.138444 198.83984 4.1601562 C 194.81754 -2.3860208 188.6672 -7.3685406 182.38672 -11.613281 C 175.08092 -15.378559 165.40321 -14.334499 159.375 -8.6289062 C 152.81348 -14.466726 142.30488 -15.89867 134.99219 -10.59375 C 132.44969 -9.0341117 130.17363 -7.0837624 128.02344 -5.0273438 C 122.30003 -10.86872 113.9496 -15.755906 105.53906 -13.306641 C 102.1961 -12.520493 99.095615 -10.835763 96.488281 -8.6152344 C 92.70651 -11.821035 87.879616 -14.048152 82.869141 -14.054688 z "
       transform="scale(0.26458333)" />
  </g>
  <g
     sodipodi:insensitive="true"
     inkscape:groupmode="layer"
     id="layer2"
     inkscape:label="Octagon"
     style="opacity:0.25">
    <path
       d="M 33.866665,9.9192931 A 11.973734,11.973734 0 0 0 21.89272,21.892723 11.973734,11.973734 0 0 0 9.9192906,33.866668 11.973734,11.973734 0 0 0 21.89272,45.840098 11.973734,11.973734 0 0 0 33.866665,57.814044 11.973734,11.973734 0 0 0 45.840095,45.840098 11.973734,11.973734 0 0 0 57.814041,33.866668 11.973734,11.973734 0 0 0 45.840095,21.892723 11.973734,11.973734 0 0 0 33.866665,9.9192931 Z"
       style="font-variation-settings:normal;display:inline;opacity:1;vector-effect:none;fill:none;fill-opacity:1;stroke:#ff0080;stroke-width:0.249999;stroke-linecap:butt;stroke-linejoin:round;stroke-miterlimit:4;stroke-dasharray:none;stroke-dashoffset:0;stroke-opacity:1;marker:none;paint-order:normal;stop-color:#000000;stop-opacity:1"
       id="path919" />
    <path
       sodipodi:type="star"
       style="opacity:1;vector-effect:none;fill:none;fill-opacity:1;stroke:#ff0080;stroke-width:0.249999;stroke-linecap:butt;stroke-linejoin:round;stroke-miterlimit:4;stroke-dasharray:none;stroke-dashoffset:0;stroke-opacity:1;marker:none;paint-order:normal;stop-color:#000000"
       id="path836"
       sodipodi:sides="8"
       sodipodi:cx="33.866665"
       sodipodi:cy="33.866665"
       sodipodi:r1="16.933332"
       sodipodi:r2="15.64436"
       sodipodi:arg1="0.78539816"
       sodipodi:arg2="1.1780972"
       inkscape:flatsided="true"
       inkscape:rounded="0"
       inkscape:randomized="0"
       d="M 45.840339,45.840339 33.866665,50.799997 21.892991,45.840339 16.933332,33.866665 21.892991,21.892991 33.866665,16.933332 45.840339,21.892991 50.799997,33.866665 Z" />
    <path
       sodipodi:nodetypes="cc"
       id="path857"
       d="M 27.093333,19.738938 V 47.994392"
       style="fill:none;stroke:#ff0080;stroke-width:0.25;stroke-linejoin:round;stop-color:#000000" />
    <path
       style="fill:none;stroke:#ff0080;stroke-width:0.25;stroke-linejoin:round;stop-color:#000000"
       d="M 40.639997,19.738938 V 47.994392"
       id="path859"
       sodipodi:nodetypes="cc" />
    <path
       sodipodi:nodetypes="cc"
       id="path861"
       d="M 47.994392,27.093332 H 19.738938"
       style="fill:none;stroke:#ff0080;stroke-width:0.25;stroke-linejoin:round;stop-color:#000000" />
    <path
       style="fill:none;stroke:#ff0080;stroke-width:0.25;stroke-linejoin:round;stop-color:#000000"
       d="M 47.994392,40.639997 H 19.738938"
       id="path863"
       sodipodi:nodetypes="cc" />
    <path
       id="rect838-7"
       style="font-variation-settings:normal;display:inline;opacity:1;vector-effect:none;fill:none;fill-opacity:1;stroke:#ff0080;stroke-width:0.249999;stroke-linecap:butt;stroke-linejoin:round;stroke-miterlimit:4;stroke-dasharray:none;stroke-dashoffset:0;stroke-opacity:1;marker:none;paint-order:normal;stop-color:#000000;stop-opacity:1"
       d="M 15.190002,15.189999 H 52.54333 V 52.543335 H 15.190002 Z" />
    <path
       d="M 33.866669,9.9193234 57.814011,33.866666 33.866664,57.814013 9.9193223,33.86667 Z"
       style="font-variation-settings:normal;display:inline;opacity:1;vector-effect:none;fill:none;fill-opacity:1;stroke:#ff0080;stroke-width:0.249999;stroke-linecap:butt;stroke-linejoin:round;stroke-miterlimit:4;stroke-dasharray:none;stroke-dashoffset:0;stroke-opacity:1;marker:none;paint-order:normal;stop-color:#000000;stop-opacity:1"
       id="rect838-3" />
    <path
       id="rect838"
       style="font-variation-settings:normal;display:inline;opacity:1;vector-effect:none;fill:none;fill-opacity:1;stroke:#ff0080;stroke-width:0.249999;stroke-linecap:butt;stroke-linejoin:round;stroke-miterlimit:4;stroke-dasharray:none;stroke-dashoffset:0;stroke-opacity:1;marker:none;paint-order:normal;stop-color:#000000;stop-opacity:1"
       d="M 8.2166646,16.933335 H 59.516663 V 50.799998 H 8.2166646 Z" />
  </g>
</svg>
