<?xml version="1.0" encoding="UTF-8" standalone="no"?>
<svg
   sodipodi:docname="22-4.svg"
   inkscape:version="1.1.1 (3bf5ae0d25, 2021-09-20, custom)"
   id="svg8"
   version="1.1"
   viewBox="0 0 67.733332 67.733332"
   height="256"
   width="256"
   xmlns:inkscape="http://www.inkscape.org/namespaces/inkscape"
   xmlns:sodipodi="http://sodipodi.sourceforge.net/DTD/sodipodi-0.dtd"
   xmlns="http://www.w3.org/2000/svg"
   xmlns:svg="http://www.w3.org/2000/svg"
   xmlns:rdf="http://www.w3.org/1999/02/22-rdf-syntax-ns#"
   xmlns:cc="http://creativecommons.org/ns#"
   xmlns:dc="http://purl.org/dc/elements/1.1/">
  <style
     id="style847" />
  <title
     id="title856">MIL-STD-2525D Icon</title>
  <defs
     id="defs2">
    <rect
       id="rect919"
       height="27.825965"
       width="37.028973"
       y="29.981363"
       x="23.463894" />
    <rect
       x="23.31878"
       y="3.2134565"
       width="40.416331"
       height="13.148852"
       id="rect839" />
    <rect
       id="rect839-3"
       height="13.148852"
       width="40.416332"
       y="3.2134564"
       x="23.318781" />
    <rect
       id="rect852"
       height="13.148852"
       width="40.416332"
       y="3.2134564"
       x="23.318781" />
  </defs>
  <sodipodi:namedview
     inkscape:snap-global="true"
     inkscape:guide-bbox="true"
     showguides="true"
     inkscape:pagecheckerboard="true"
     units="px"
     inkscape:window-maximized="1"
     inkscape:window-y="32"
     inkscape:window-x="86"
     inkscape:window-height="1380"
     inkscape:window-width="3354"
     showgrid="false"
     inkscape:document-rotation="0"
     inkscape:current-layer="layer1"
     inkscape:document-units="px"
     inkscape:cy="57.875003"
     inkscape:cx="40.125002"
     inkscape:zoom="3.9999998"
     inkscape:pageshadow="2"
     inkscape:pageopacity="0"
     borderopacity="1.0"
     bordercolor="#666666"
     pagecolor="#ffffff"
     id="base"
     inkscape:object-paths="true"
     inkscape:snap-midpoints="true"
     inkscape:snap-object-midpoints="true"
     inkscape:snap-center="true"
     inkscape:snap-smooth-nodes="true"
     inkscape:snap-bbox="true"
     inkscape:bbox-nodes="true"
     inkscape:snap-nodes="true"
     inkscape:snap-others="false"
     inkscape:bbox-paths="true"
     inkscape:snap-bbox-edge-midpoints="true">
    <sodipodi:guide
       id="guide861"
       orientation="1,0"
       position="33.866665,50.8" />
    <sodipodi:guide
       position="9.9193223,33.866662"
       orientation="1,0"
       id="guide1095" />
    <sodipodi:guide
       position="57.814041,33.866664"
       orientation="1,0"
       id="guide1097" />
    <sodipodi:guide
       position="33.866665,57.814039"
       orientation="0,-1"
       id="guide1098" />
    <sodipodi:guide
       position="35.454167,58.343206"
       orientation="0,-1"
       id="guide1388" />
  </sodipodi:namedview>
  <metadata
     id="metadata5">
    <rdf:RDF>
      <cc:Work
         rdf:about="">
        <dc:format>image/svg+xml</dc:format>
        <dc:type
           rdf:resource="http://purl.org/dc/dcmitype/StillImage" />
        <dc:title>MIL-STD-2525D Icon</dc:title>
        <dc:creator>
          <cc:Agent>
            <dc:title>Nicholas W. Royer</dc:title>
          </cc:Agent>
        </dc:creator>
        <dc:rights>
          <cc:Agent>
            <dc:title>All rights reserved</dc:title>
          </cc:Agent>
        </dc:rights>
        <dc:description>L=128px</dc:description>
      </cc:Work>
    </rdf:RDF>
  </metadata>
  <g
     style="display:inline;opacity:1"
     id="layer1"
     inkscape:groupmode="layer"
     inkscape:label="Symbol">
    <path
       id="path1630"
       style="color:#000000;fill:#ff8000;stroke-width:3.77952;stroke-linejoin:round;-inkscape-stroke:none"
       d="M 51.453125 -14.054688 C 51.118583 -14.054833 50.783225 -14.04541 50.447266 -14.025391 C 40.00454 -12.646177 32.545008 -4.3301043 26.058594 3.21875 C 20.78044 11.414721 22.982121 22.7751 29.527344 29.601562 C 23.225679 36.181909 20.473827 47.156771 25.992188 55.054688 C 30.300123 61.433876 36.256842 66.690089 42.777344 70.697266 C 50.016239 74.062852 59.320211 73.003145 65.210938 67.462891 C 71.901601 73.378959 82.634573 74.705807 89.992188 69.220703 C 92.366974 67.67454 94.479189 65.771081 96.541016 63.837891 C 102.27155 69.66192 110.57805 74.529286 118.99023 72.142578 C 122.31996 71.368255 125.38825 69.661238 127.99414 67.470703 C 134.81179 73.413285 145.73505 74.731349 153.10742 69.021484 C 155.34959 67.50383 157.36703 65.685823 159.3457 63.845703 C 165.26691 69.943884 174.16284 74.812322 182.79688 71.929688 C 185.73736 71.00571 188.41421 69.383479 190.78516 67.433594 C 197.34013 73.099669 207.75458 74.835327 215.02539 69.486328 C 220.69961 65.84374 225.5844 60.979482 229.78516 55.751953 C 234.98567 47.611512 233.46219 35.839135 226.24023 29.386719 C 232.52578 22.959494 235.53861 12.135799 230.25781 4.1816406 C 226.32077 -2.2428774 220.28646 -7.1178368 214.21289 -11.402344 C 206.84225 -15.37074 196.92606 -14.4583 190.77734 -8.6289062 C 184.24849 -14.42567 173.81849 -15.885655 166.51367 -10.673828 C 163.92416 -9.1166484 161.6349 -7.1213204 159.44922 -5.0488281 C 153.71136 -10.890968 145.40629 -15.709861 136.97852 -13.345703 C 133.66716 -12.519089 130.57279 -10.89513 127.97266 -8.6894531 C 121.20341 -14.593739 110.36566 -15.897879 103.0293 -10.253906 C 100.727 -8.7322624 98.607092 -6.9478146 96.621094 -5.0351562 C 90.881231 -10.869734 82.551085 -15.765025 74.128906 -13.298828 C 70.794101 -12.495439 67.682885 -10.841258 65.085938 -8.6074219 C 61.301732 -11.823703 56.471251 -14.052501 51.453125 -14.054688 z "
       transform="scale(0.26458333)" />
  </g>
  <g
     style="opacity:0.25"
     inkscape:label="Octagon"
     id="layer2"
     inkscape:groupmode="layer"
     sodipodi:insensitive="true">
    <path
       id="path919"
       style="font-variation-settings:normal;display:inline;opacity:1;vector-effect:none;fill:none;fill-opacity:1;stroke:#ff0080;stroke-width:0.249999;stroke-linecap:butt;stroke-linejoin:round;stroke-miterlimit:4;stroke-dasharray:none;stroke-dashoffset:0;stroke-opacity:1;marker:none;paint-order:normal;stop-color:#000000;stop-opacity:1"
       d="M 33.866665,9.9192931 A 11.973734,11.973734 0 0 0 21.89272,21.892723 11.973734,11.973734 0 0 0 9.9192906,33.866668 11.973734,11.973734 0 0 0 21.89272,45.840098 11.973734,11.973734 0 0 0 33.866665,57.814044 11.973734,11.973734 0 0 0 45.840095,45.840098 11.973734,11.973734 0 0 0 57.814041,33.866668 11.973734,11.973734 0 0 0 45.840095,21.892723 11.973734,11.973734 0 0 0 33.866665,9.9192931 Z" />
    <path
       d="M 45.840339,45.840339 33.866665,50.799997 21.892991,45.840339 16.933332,33.866665 21.892991,21.892991 33.866665,16.933332 45.840339,21.892991 50.799997,33.866665 Z"
       inkscape:randomized="0"
       inkscape:rounded="0"
       inkscape:flatsided="true"
       sodipodi:arg2="1.1780972"
       sodipodi:arg1="0.78539816"
       sodipodi:r2="15.64436"
       sodipodi:r1="16.933332"
       sodipodi:cy="33.866665"
       sodipodi:cx="33.866665"
       sodipodi:sides="8"
       id="path836"
       style="opacity:1;vector-effect:none;fill:none;fill-opacity:1;stroke:#ff0080;stroke-width:0.249999;stroke-linecap:butt;stroke-linejoin:round;stroke-miterlimit:4;stroke-dasharray:none;stroke-dashoffset:0;stroke-opacity:1;marker:none;paint-order:normal;stop-color:#000000"
       sodipodi:type="star" />
    <path
       style="fill:none;stroke:#ff0080;stroke-width:0.25;stroke-linejoin:round;stop-color:#000000"
       d="M 27.093333,19.738938 V 47.994392"
       id="path857"
       sodipodi:nodetypes="cc" />
    <path
       sodipodi:nodetypes="cc"
       id="path859"
       d="M 40.639997,19.738938 V 47.994392"
       style="fill:none;stroke:#ff0080;stroke-width:0.25;stroke-linejoin:round;stop-color:#000000" />
    <path
       style="fill:none;stroke:#ff0080;stroke-width:0.25;stroke-linejoin:round;stop-color:#000000"
       d="M 47.994392,27.093332 H 19.738938"
       id="path861"
       sodipodi:nodetypes="cc" />
    <path
       sodipodi:nodetypes="cc"
       id="path863"
       d="M 47.994392,40.639997 H 19.738938"
       style="fill:none;stroke:#ff0080;stroke-width:0.25;stroke-linejoin:round;stop-color:#000000" />
    <path
       d="M 15.190002,15.189999 H 52.54333 V 52.543335 H 15.190002 Z"
       style="font-variation-settings:normal;display:inline;opacity:1;vector-effect:none;fill:none;fill-opacity:1;stroke:#ff0080;stroke-width:0.249999;stroke-linecap:butt;stroke-linejoin:round;stroke-miterlimit:4;stroke-dasharray:none;stroke-dashoffset:0;stroke-opacity:1;marker:none;paint-order:normal;stop-color:#000000;stop-opacity:1"
       id="rect838-7" />
    <path
       id="rect838-3"
       style="font-variation-settings:normal;display:inline;opacity:1;vector-effect:none;fill:none;fill-opacity:1;stroke:#ff0080;stroke-width:0.249999;stroke-linecap:butt;stroke-linejoin:round;stroke-miterlimit:4;stroke-dasharray:none;stroke-dashoffset:0;stroke-opacity:1;marker:none;paint-order:normal;stop-color:#000000;stop-opacity:1"
       d="M 33.866669,9.9193234 57.814011,33.866666 33.866664,57.814013 9.9193223,33.86667 Z" />
    <path
       d="M 8.2166646,16.933335 H 59.516663 V 50.799998 H 8.2166646 Z"
       style="font-variation-settings:normal;display:inline;opacity:1;vector-effect:none;fill:none;fill-opacity:1;stroke:#ff0080;stroke-width:0.249999;stroke-linecap:butt;stroke-linejoin:round;stroke-miterlimit:4;stroke-dasharray:none;stroke-dashoffset:0;stroke-opacity:1;marker:none;paint-order:normal;stop-color:#000000;stop-opacity:1"
       id="rect838" />
  </g>
</svg>
