<?xml version="1.0" encoding="UTF-8" standalone="no"?>
<svg
        xmlns:dc="http://purl.org/dc/elements/1.1/"
        xmlns:cc="http://creativecommons.org/ns#"
        xmlns:rdf="http://www.w3.org/1999/02/22-rdf-syntax-ns#"
        xmlns="http://www.w3.org/2000/svg"
        xmlns:sodipodi="http://sodipodi.sourceforge.net/DTD/sodipodi-0.dtd"
        xmlns:inkscape="http://www.inkscape.org/namespaces/inkscape"
        width="256"
        height="256"
        viewBox="0 0 67.733332 67.733332"
        version="1.1"
        id="svg8"
        inkscape:version="1.0 (4035a4fb49, 2020-05-01)"
        sodipodi:docname="1:140102.svg">
  <style
     id="style843"></style>
  <title
     id="title856">MIL-STD-2525D Icon</title>
  <defs
     id="defs2">
    <rect
       x="13.789282"
       y="33.638825"
       width="47.494508"
       height="31.035343"
       id="rect938" />
    <rect
       id="rect839"
       height="13.148852"
       width="40.416331"
       y="3.2134565"
       x="23.31878" />
  </defs>
  <sodipodi:namedview
     inkscape:snap-center="true"
     inkscape:snap-object-midpoints="true"
     inkscape:snap-midpoints="true"
     inkscape:object-paths="true"
     id="base"
     pagecolor="#ffffff"
     bordercolor="#666666"
     borderopacity="1.0"
     inkscape:pageopacity="0"
     inkscape:pageshadow="2"
     inkscape:zoom="4"
     inkscape:cx="97.5627"
     inkscape:cy="159.50776"
     inkscape:document-units="px"
     inkscape:current-layer="layer1"
     inkscape:document-rotation="0"
     showgrid="false"
     inkscape:window-width="1678"
     inkscape:window-height="1385"
     inkscape:window-x="1762"
     inkscape:window-y="27"
     inkscape:window-maximized="0"
     units="px"
     inkscape:pagecheckerboard="true"
     showguides="true"
     inkscape:guide-bbox="true"
     inkscape:snap-global="false">
    <sodipodi:guide
       position="33.866665,16.933335"
       orientation="1,0"
       id="guide863" />
  </sodipodi:namedview>
  <metadata
     id="metadata5">
    <rdf:RDF>
      <cc:Work
         rdf:about="">
        <dc:format>image/svg+xml</dc:format>
        <dc:type
           rdf:resource="http://purl.org/dc/dcmitype/StillImage" />
        <dc:title>MIL-STD-2525D Icon</dc:title>
        <dc:creator>
          <cc:Agent>
            <dc:title>Nicholas W. Royer</dc:title>
          </cc:Agent>
        </dc:creator>
        <dc:rights>
          <cc:Agent>
            <dc:title>All rights reserved</dc:title>
          </cc:Agent>
        </dc:rights>
        <dc:description>L=128px</dc:description>
      </cc:Work>
    </rdf:RDF>
  </metadata>
  <g
     inkscape:label="Symbol"
     inkscape:groupmode="layer"
     id="layer1"
     style="opacity:1">
    <path
       transform="scale(0.26458333)"
       d="M 107.14844 78.160156 L 77.888672 107.41992 L 77.888672 148.79883 L 107.14844 178.05859 L 148.52734 178.05859 L 177.78711 148.79883 L 177.78711 107.41992 L 148.52734 78.160156 L 107.14844 78.160156 z M 126.1543 96.494141 C 132.75492 96.494141 137.82161 98.000904 141.35352 101.01172 C 144.88543 104.02253 146.65039 108.24879 146.65039 113.69141 C 146.65039 116.55746 146.08608 119.14883 144.95703 121.46484 C 143.82798 123.78085 142.38119 125.92202 140.61523 127.89062 C 138.84928 129.83028 136.88024 131.65522 134.70898 133.36328 C 132.56668 135.07134 130.48158 136.73622 128.45508 138.35742 C 126.42857 139.97863 124.57754 141.61351 122.89844 143.26367 C 121.24828 144.91383 120.01763 146.68075 119.20703 148.5625 L 147.60742 148.5625 L 147.60742 158.59375 L 104.78906 158.59375 L 104.78906 150.125 C 106.38132 146.62203 108.64049 143.20621 111.56445 139.87695 C 114.51736 136.54769 118.22137 133.07384 122.67969 129.45508 C 126.9643 125.98107 129.96187 123.11553 131.66992 120.85742 C 133.40693 118.59931 134.27539 116.38414 134.27539 114.21289 C 134.27539 108.88607 131.59795 106.22266 126.24219 106.22266 C 123.63668 106.22266 121.63766 106.93106 120.24805 108.34961 C 118.88739 109.73921 118.00491 111.83832 117.59961 114.64648 L 105.31055 113.95117 C 106.00534 108.27695 108.11847 103.95061 111.65039 100.96875 C 115.21125 97.986889 120.04583 96.494141 126.1543 96.494141 z "
       inkscape:transform-center-y="0.29775965"
       inkscape:transform-center-x="0.43930652"
       style="fill:#000000;stroke:none;stroke-width:6.00001;stop-color:#000000"
       id="path862" />
    <path
       sodipodi:type="star"
       style="fill:none;stroke:#000000;stroke-width:1.91975641;stop-color:#000000"
       id="path860"
       sodipodi:sides="8"
       sodipodi:cx="33.866665"
       sodipodi:cy="33.866665"
       sodipodi:r1="17.298546"
       sodipodi:r2="15.585451"
       sodipodi:arg1="2.0943951"
       sodipodi:arg2="2.4870942"
       inkscape:flatsided="true"
       inkscape:rounded="0"
       inkscape:randomized="0"
       d="m 25.217392,48.847645 -8.059839,-10.503787 1.728132,-13.126466 10.503787,-8.059839 13.126466,1.728132 8.059839,10.503787 -1.728132,13.126466 -10.503787,8.059839 z"
       inkscape:transform-center-x="0.43930652"
       inkscape:transform-center-y="0.29775965"
       transform="matrix(-0.10793574,-0.81985333,0.81985333,-0.10793574,9.7135657,65.316815)" />
  </g>
  <g
     inkscape:groupmode="layer"
     id="layer2"
     inkscape:label="Octagon"
     sodipodi:insensitive="true"
     style="opacity:0.25">
    <path
       sodipodi:type="star"
       style="opacity:1;vector-effect:none;fill:none;fill-opacity:1;stroke:#ff0080;stroke-width:0.249999;stroke-linecap:butt;stroke-linejoin:round;stroke-miterlimit:4;stroke-dasharray:none;stroke-dashoffset:0;stroke-opacity:1;marker:none;paint-order:normal;stop-color:#000000"
       id="path836"
       sodipodi:sides="8"
       sodipodi:cx="33.866665"
       sodipodi:cy="33.866665"
       sodipodi:r1="16.933332"
       sodipodi:r2="15.64436"
       sodipodi:arg1="0.78539816"
       sodipodi:arg2="1.1780972"
       inkscape:flatsided="true"
       inkscape:rounded="0"
       inkscape:randomized="0"
       d="M 45.840339,45.840339 33.866665,50.799997 21.892991,45.840339 16.933332,33.866665 21.892991,21.892991 33.866665,16.933332 45.840339,21.892991 50.799997,33.866665 Z" />
    <path
       sodipodi:nodetypes="cc"
       id="path857"
       d="M 27.093333,19.738938 V 47.994392"
       style="fill:none;stroke:#ff0080;stroke-width:0.25;stroke-linejoin:round;stop-color:#000000" />
    <path
       style="fill:none;stroke:#ff0080;stroke-width:0.25;stroke-linejoin:round;stop-color:#000000"
       d="M 40.639997,19.738938 V 47.994392"
       id="path859"
       sodipodi:nodetypes="cc" />
    <path
       sodipodi:nodetypes="cc"
       id="path861"
       d="M 47.994392,27.093332 H 19.738938"
       style="fill:none;stroke:#ff0080;stroke-width:0.25;stroke-linejoin:round;stop-color:#000000" />
    <path
       style="fill:none;stroke:#ff0080;stroke-width:0.25;stroke-linejoin:round;stop-color:#000000"
       d="M 47.994392,40.639997 H 19.738938"
       id="path863"
       sodipodi:nodetypes="cc" />
  </g>
</svg>
