<?xml version="1.0" encoding="UTF-8" standalone="no"?>
<svg
        xmlns:dc="http://purl.org/dc/elements/1.1/"
        xmlns:cc="http://creativecommons.org/ns#"
        xmlns:rdf="http://www.w3.org/1999/02/22-rdf-syntax-ns#"
        xmlns="http://www.w3.org/2000/svg"
        xmlns:sodipodi="http://sodipodi.sourceforge.net/DTD/sodipodi-0.dtd"
        xmlns:inkscape="http://www.inkscape.org/namespaces/inkscape"
        sodipodi:docname="1:140105.svg"
        inkscape:version="1.0 (4035a4fb49, 2020-05-01)"
        id="svg8"
        version="1.1"
        viewBox="0 0 67.733332 67.733332"
        height="256"
        width="256">
  <style
     id="style843"></style>
  <title
     id="title856">MIL-STD-2525D Icon</title>
  <defs
     id="defs2">
    <rect
       id="rect938"
       height="31.035343"
       width="47.494508"
       y="33.638825"
       x="13.789282" />
    <rect
       x="23.31878"
       y="3.2134565"
       width="40.416331"
       height="13.148852"
       id="rect839" />
  </defs>
  <sodipodi:namedview
     inkscape:snap-global="false"
     inkscape:guide-bbox="true"
     showguides="true"
     inkscape:pagecheckerboard="true"
     units="px"
     inkscape:window-maximized="0"
     inkscape:window-y="27"
     inkscape:window-x="1762"
     inkscape:window-height="1385"
     inkscape:window-width="1678"
     showgrid="false"
     inkscape:document-rotation="0"
     inkscape:current-layer="layer1"
     inkscape:document-units="px"
     inkscape:cy="146.61634"
     inkscape:cx="116.7458"
     inkscape:zoom="4"
     inkscape:pageshadow="2"
     inkscape:pageopacity="0"
     borderopacity="1.0"
     bordercolor="#666666"
     pagecolor="#ffffff"
     id="base"
     inkscape:object-paths="true"
     inkscape:snap-midpoints="true"
     inkscape:snap-object-midpoints="true"
     inkscape:snap-center="true">
    <sodipodi:guide
       id="guide863"
       orientation="1,0"
       position="33.866665,16.933335" />
  </sodipodi:namedview>
  <metadata
     id="metadata5">
    <rdf:RDF>
      <cc:Work
         rdf:about="">
        <dc:format>image/svg+xml</dc:format>
        <dc:type
           rdf:resource="http://purl.org/dc/dcmitype/StillImage" />
        <dc:title>MIL-STD-2525D Icon</dc:title>
        <dc:creator>
          <cc:Agent>
            <dc:title>Nicholas W. Royer</dc:title>
          </cc:Agent>
        </dc:creator>
        <dc:rights>
          <cc:Agent>
            <dc:title>All rights reserved</dc:title>
          </cc:Agent>
        </dc:rights>
        <dc:description>L=128px</dc:description>
      </cc:Work>
    </rdf:RDF>
  </metadata>
  <g
     style="opacity:1"
     id="layer1"
     inkscape:groupmode="layer"
     inkscape:label="Symbol">
    <path
       transform="scale(0.26458333)"
       d="M 107.14844 78.160156 L 77.888672 107.41992 L 77.888672 148.79883 L 107.14844 178.05859 L 148.52734 178.05859 L 177.78711 148.79883 L 177.78711 107.41992 L 148.52734 78.160156 L 107.14844 78.160156 z M 108.34961 97.40625 L 145.13086 97.40625 L 145.13086 106.48242 L 119.42383 106.48242 L 118.42383 121.94141 C 121.37673 119.33589 125.06868 118.0332 129.49805 118.0332 C 135.31702 118.0332 139.96348 119.84412 143.4375 123.46289 C 146.94046 127.08165 148.69141 132.00229 148.69141 138.22656 C 148.69141 144.71139 146.6663 149.87815 142.61328 153.72852 C 138.58922 157.54993 133.05831 159.46094 126.02344 159.46094 C 119.88601 159.46094 114.96538 158.0862 111.25977 155.33594 C 107.5831 152.55672 105.30991 148.54661 104.44141 143.30664 L 116.64453 142.30859 C 117.28143 144.9141 118.41005 146.8111 120.03125 147.99805 C 121.65246 149.185 123.69354 149.77734 126.1543 149.77734 C 129.19406 149.77734 131.61134 148.8088 133.40625 146.86914 C 135.23011 144.92948 136.14258 142.13404 136.14258 138.48633 C 136.14258 135.27287 135.28813 132.71149 133.58008 130.80078 C 131.87203 128.86113 129.48277 127.89062 126.41406 127.89062 C 123.0269 127.89063 120.2634 129.20929 118.12109 131.84375 L 106.22266 131.84375 L 108.34961 97.40625 z "
       inkscape:transform-center-y="0.29775965"
       inkscape:transform-center-x="0.43930652"
       style="fill:#000000;stroke:none;stroke-width:6.00001;stop-color:#000000"
       id="path862" />
    <path
       transform="matrix(-0.10793574,-0.81985333,0.81985333,-0.10793574,9.7135657,65.316815)"
       inkscape:transform-center-y="0.29775965"
       inkscape:transform-center-x="0.43930652"
       d="m 25.217392,48.847645 -8.059839,-10.503787 1.728132,-13.126466 10.503787,-8.059839 13.126466,1.728132 8.059839,10.503787 -1.728132,13.126466 -10.503787,8.059839 z"
       inkscape:randomized="0"
       inkscape:rounded="0"
       inkscape:flatsided="true"
       sodipodi:arg2="2.4870942"
       sodipodi:arg1="2.0943951"
       sodipodi:r2="15.585451"
       sodipodi:r1="17.298546"
       sodipodi:cy="33.866665"
       sodipodi:cx="33.866665"
       sodipodi:sides="8"
       id="path860"
       style="fill:none;stroke:#000000;stroke-width:1.91975641;stop-color:#000000"
       sodipodi:type="star" />
  </g>
  <g
     style="opacity:0.25"
     sodipodi:insensitive="true"
     inkscape:label="Octagon"
     id="layer2"
     inkscape:groupmode="layer">
    <path
       d="M 45.840339,45.840339 33.866665,50.799997 21.892991,45.840339 16.933332,33.866665 21.892991,21.892991 33.866665,16.933332 45.840339,21.892991 50.799997,33.866665 Z"
       inkscape:randomized="0"
       inkscape:rounded="0"
       inkscape:flatsided="true"
       sodipodi:arg2="1.1780972"
       sodipodi:arg1="0.78539816"
       sodipodi:r2="15.64436"
       sodipodi:r1="16.933332"
       sodipodi:cy="33.866665"
       sodipodi:cx="33.866665"
       sodipodi:sides="8"
       id="path836"
       style="opacity:1;vector-effect:none;fill:none;fill-opacity:1;stroke:#ff0080;stroke-width:0.249999;stroke-linecap:butt;stroke-linejoin:round;stroke-miterlimit:4;stroke-dasharray:none;stroke-dashoffset:0;stroke-opacity:1;marker:none;paint-order:normal;stop-color:#000000"
       sodipodi:type="star" />
    <path
       style="fill:none;stroke:#ff0080;stroke-width:0.25;stroke-linejoin:round;stop-color:#000000"
       d="M 27.093333,19.738938 V 47.994392"
       id="path857"
       sodipodi:nodetypes="cc" />
    <path
       sodipodi:nodetypes="cc"
       id="path859"
       d="M 40.639997,19.738938 V 47.994392"
       style="fill:none;stroke:#ff0080;stroke-width:0.25;stroke-linejoin:round;stop-color:#000000" />
    <path
       style="fill:none;stroke:#ff0080;stroke-width:0.25;stroke-linejoin:round;stop-color:#000000"
       d="M 47.994392,27.093332 H 19.738938"
       id="path861"
       sodipodi:nodetypes="cc" />
    <path
       sodipodi:nodetypes="cc"
       id="path863"
       d="M 47.994392,40.639997 H 19.738938"
       style="fill:none;stroke:#ff0080;stroke-width:0.25;stroke-linejoin:round;stop-color:#000000" />
  </g>
</svg>
