<?xml version="1.0" encoding="UTF-8" standalone="no"?>
<svg
        xmlns:dc="http://purl.org/dc/elements/1.1/"
        xmlns:cc="http://creativecommons.org/ns#"
        xmlns:rdf="http://www.w3.org/1999/02/22-rdf-syntax-ns#"
        xmlns="http://www.w3.org/2000/svg"
        xmlns:sodipodi="http://sodipodi.sourceforge.net/DTD/sodipodi-0.dtd"
        xmlns:inkscape="http://www.inkscape.org/namespaces/inkscape"
        sodipodi:docname="1:140202.svg"
        inkscape:version="1.0 (4035a4fb49, 2020-05-01)"
        id="svg8"
        version="1.1"
        viewBox="0 0 67.733332 67.733332"
        height="256"
        width="256">
  <style
     id="style843"></style>
  <title
     id="title856">MIL-STD-2525D Icon</title>
  <defs
     id="defs2">
    <rect
       id="rect938"
       height="31.035343"
       width="47.494508"
       y="33.638825"
       x="13.789282" />
    <rect
       x="23.31878"
       y="3.2134565"
       width="40.416331"
       height="13.148852"
       id="rect839" />
  </defs>
  <sodipodi:namedview
     inkscape:snap-global="true"
     inkscape:guide-bbox="true"
     showguides="true"
     inkscape:pagecheckerboard="true"
     units="px"
     inkscape:window-maximized="0"
     inkscape:window-y="27"
     inkscape:window-x="1762"
     inkscape:window-height="1385"
     inkscape:window-width="1678"
     showgrid="false"
     inkscape:document-rotation="0"
     inkscape:current-layer="layer1"
     inkscape:document-units="px"
     inkscape:cy="145.76241"
     inkscape:cx="113.3858"
     inkscape:zoom="5.6568542"
     inkscape:pageshadow="2"
     inkscape:pageopacity="0"
     borderopacity="1.0"
     bordercolor="#666666"
     pagecolor="#ffffff"
     id="base"
     inkscape:object-paths="true"
     inkscape:snap-midpoints="true"
     inkscape:snap-object-midpoints="true"
     inkscape:snap-center="true">
    <sodipodi:guide
       id="guide863"
       orientation="1,0"
       position="33.866665,16.933335" />
  </sodipodi:namedview>
  <metadata
     id="metadata5">
    <rdf:RDF>
      <cc:Work
         rdf:about="">
        <dc:format>image/svg+xml</dc:format>
        <dc:type
           rdf:resource="http://purl.org/dc/dcmitype/StillImage" />
        <dc:title>MIL-STD-2525D Icon</dc:title>
        <dc:creator>
          <cc:Agent>
            <dc:title>Nicholas W. Royer</dc:title>
          </cc:Agent>
        </dc:creator>
        <dc:rights>
          <cc:Agent>
            <dc:title>All rights reserved</dc:title>
          </cc:Agent>
        </dc:rights>
        <dc:description>L=128px</dc:description>
      </cc:Work>
    </rdf:RDF>
  </metadata>
  <g
     style="opacity:1"
     id="layer1"
     inkscape:groupmode="layer"
     inkscape:label="Symbol">
    <path
       transform="scale(0.26458333)"
       d="M 112.22266 77.423828 L 89.912109 99.736328 L 89.912109 131.28906 L 112.22266 153.59961 L 143.77734 153.59961 L 166.08789 131.28906 L 166.08789 99.736328 L 143.77734 77.423828 L 112.22266 77.423828 z M 126.7168 91.40625 C 131.74994 91.40625 135.61152 92.553788 138.30469 94.849609 C 140.99786 97.145425 142.3457 100.36745 142.3457 104.51758 C 142.3457 106.70302 141.91562 108.6793 141.05469 110.44531 C 140.19376 112.21133 139.08878 113.84459 137.74219 115.3457 C 136.3956 116.82474 134.89587 118.21514 133.24023 119.51758 C 131.60667 120.82001 130.01596 122.08996 128.4707 123.32617 C 126.92544 124.56238 125.51278 125.81007 124.23242 127.06836 C 122.97413 128.32664 122.03607 129.67254 121.41797 131.10742 L 143.07422 131.10742 L 143.07422 138.75586 L 110.42383 138.75586 L 110.42383 132.29883 C 111.63796 129.62773 113.36025 127.02302 115.58984 124.48438 C 117.84151 121.94573 120.66683 119.2965 124.06641 116.53711 C 127.33353 113.88809 129.61944 111.70428 130.92188 109.98242 C 132.24639 108.26055 132.9082 106.57165 132.9082 104.91602 C 132.9082 100.85418 130.86711 98.822266 126.7832 98.822266 C 124.79644 98.822266 123.2725 99.363629 122.21289 100.44531 C 121.17536 101.50492 120.50241 103.1048 120.19336 105.24609 L 110.82227 104.7168 C 111.35207 100.39006 112.96308 97.090147 115.65625 94.816406 C 118.3715 92.542663 122.05894 91.40625 126.7168 91.40625 z "
       inkscape:transform-center-y="0.22704967"
       inkscape:transform-center-x="0.33498236"
       style="fill:#000000;stroke:none;stroke-width:6;stop-color:#000000"
       id="path862" />
    <path
       transform="matrix(-0.08230369,-0.62515862,0.62515862,-0.08230369,15.481979,54.52203)"
       inkscape:transform-center-y="0.22704967"
       inkscape:transform-center-x="0.33498236"
       d="m 25.217392,48.847645 -8.059839,-10.503787 1.728132,-13.126466 10.503787,-8.059839 13.126466,1.728132 8.059839,10.503787 -1.728132,13.126466 -10.503787,8.059839 z"
       inkscape:randomized="0"
       inkscape:rounded="0"
       inkscape:flatsided="true"
       sodipodi:arg2="2.4870942"
       sodipodi:arg1="2.0943951"
       sodipodi:r2="15.585451"
       sodipodi:r1="17.298546"
       sodipodi:cy="33.866665"
       sodipodi:cx="33.866665"
       sodipodi:sides="8"
       id="path860"
       style="fill:none;stroke:#000000;stroke-width:1.67842;stop-color:#000000"
       sodipodi:type="star" />
    <rect
       style="opacity:1;fill:#000000;stroke:#000000;stroke-width:1.05833;stroke-linecap:square;stop-color:#000000"
       id="rect882"
       width="23.050417"
       height="4.3664289"
       x="22.341457"
       y="40.639996" />
  </g>
  <g
     style="opacity:0.25"
     sodipodi:insensitive="true"
     inkscape:label="Octagon"
     id="layer2"
     inkscape:groupmode="layer">
    <path
       d="M 45.840339,45.840339 33.866665,50.799997 21.892991,45.840339 16.933332,33.866665 21.892991,21.892991 33.866665,16.933332 45.840339,21.892991 50.799997,33.866665 Z"
       inkscape:randomized="0"
       inkscape:rounded="0"
       inkscape:flatsided="true"
       sodipodi:arg2="1.1780972"
       sodipodi:arg1="0.78539816"
       sodipodi:r2="15.64436"
       sodipodi:r1="16.933332"
       sodipodi:cy="33.866665"
       sodipodi:cx="33.866665"
       sodipodi:sides="8"
       id="path836"
       style="opacity:1;vector-effect:none;fill:none;fill-opacity:1;stroke:#ff0080;stroke-width:0.249999;stroke-linecap:butt;stroke-linejoin:round;stroke-miterlimit:4;stroke-dasharray:none;stroke-dashoffset:0;stroke-opacity:1;marker:none;paint-order:normal;stop-color:#000000"
       sodipodi:type="star" />
    <path
       style="fill:none;stroke:#ff0080;stroke-width:0.25;stroke-linejoin:round;stop-color:#000000"
       d="M 27.093333,19.738938 V 47.994392"
       id="path857"
       sodipodi:nodetypes="cc" />
    <path
       sodipodi:nodetypes="cc"
       id="path859"
       d="M 40.639997,19.738938 V 47.994392"
       style="fill:none;stroke:#ff0080;stroke-width:0.25;stroke-linejoin:round;stop-color:#000000" />
    <path
       style="fill:none;stroke:#ff0080;stroke-width:0.25;stroke-linejoin:round;stop-color:#000000"
       d="M 47.994392,27.093332 H 19.738938"
       id="path861"
       sodipodi:nodetypes="cc" />
    <path
       sodipodi:nodetypes="cc"
       id="path863"
       d="M 47.994392,40.639997 H 19.738938"
       style="fill:none;stroke:#ff0080;stroke-width:0.25;stroke-linejoin:round;stop-color:#000000" />
  </g>
</svg>
