<?xml version="1.0" encoding="UTF-8" standalone="no"?>
<svg
        xmlns:dc="http://purl.org/dc/elements/1.1/"
        xmlns:cc="http://creativecommons.org/ns#"
        xmlns:rdf="http://www.w3.org/1999/02/22-rdf-syntax-ns#"
        xmlns="http://www.w3.org/2000/svg"
        xmlns:sodipodi="http://sodipodi.sourceforge.net/DTD/sodipodi-0.dtd"
        xmlns:inkscape="http://www.inkscape.org/namespaces/inkscape"
        sodipodi:docname="1:140103.svg"
        inkscape:version="1.0 (4035a4fb49, 2020-05-01)"
        id="svg8"
        version="1.1"
        viewBox="0 0 67.733332 67.733332"
        height="256"
        width="256">
  <style
     id="style843"></style>
  <title
     id="title856">MIL-STD-2525D Icon</title>
  <defs
     id="defs2">
    <rect
       id="rect938"
       height="31.035343"
       width="47.494508"
       y="33.638825"
       x="13.789282" />
    <rect
       x="23.31878"
       y="3.2134565"
       width="40.416331"
       height="13.148852"
       id="rect839" />
  </defs>
  <sodipodi:namedview
     inkscape:snap-global="false"
     inkscape:guide-bbox="true"
     showguides="true"
     inkscape:pagecheckerboard="true"
     units="px"
     inkscape:window-maximized="0"
     inkscape:window-y="27"
     inkscape:window-x="1762"
     inkscape:window-height="1385"
     inkscape:window-width="1678"
     showgrid="false"
     inkscape:document-rotation="0"
     inkscape:current-layer="layer1"
     inkscape:document-units="px"
     inkscape:cy="150.0062"
     inkscape:cx="114.47615"
     inkscape:zoom="4"
     inkscape:pageshadow="2"
     inkscape:pageopacity="0"
     borderopacity="1.0"
     bordercolor="#666666"
     pagecolor="#ffffff"
     id="base"
     inkscape:object-paths="true"
     inkscape:snap-midpoints="true"
     inkscape:snap-object-midpoints="true"
     inkscape:snap-center="true">
    <sodipodi:guide
       id="guide863"
       orientation="1,0"
       position="33.866665,16.933335" />
  </sodipodi:namedview>
  <metadata
     id="metadata5">
    <rdf:RDF>
      <cc:Work
         rdf:about="">
        <dc:format>image/svg+xml</dc:format>
        <dc:type
           rdf:resource="http://purl.org/dc/dcmitype/StillImage" />
        <dc:title>MIL-STD-2525D Icon</dc:title>
        <dc:creator>
          <cc:Agent>
            <dc:title>Nicholas W. Royer</dc:title>
          </cc:Agent>
        </dc:creator>
        <dc:rights>
          <cc:Agent>
            <dc:title>All rights reserved</dc:title>
          </cc:Agent>
        </dc:rights>
        <dc:description>L=128px</dc:description>
      </cc:Work>
    </rdf:RDF>
  </metadata>
  <g
     style="opacity:1"
     id="layer1"
     inkscape:groupmode="layer"
     inkscape:label="Symbol">
    <path
       transform="scale(0.26458333)"
       d="M 107.14844 78.160156 L 77.888672 107.41992 L 77.888672 148.79883 L 107.14844 178.05859 L 148.52734 178.05859 L 177.78711 148.79883 L 177.78711 107.41992 L 148.52734 78.160156 L 107.14844 78.160156 z M 125.98047 96.494141 C 132.37844 96.494141 137.37308 97.942878 140.96289 100.83789 C 144.58166 103.70395 146.39062 107.68408 146.39062 112.7793 C 146.39062 116.60071 145.26202 119.74237 143.00391 122.20312 C 140.77475 124.66388 137.54702 126.29877 133.32031 127.10938 L 133.32031 127.2832 C 138.01023 127.83329 141.61416 129.38211 144.13281 131.92969 C 146.68042 134.44835 147.95312 137.67607 147.95312 141.61328 C 147.95312 147.3454 146.07211 151.77573 142.30859 154.90234 C 138.54508 158.02896 133.19021 159.5918 126.24219 159.5918 C 119.67052 159.5918 114.44377 158.08699 110.56445 155.07617 C 106.68514 152.03642 104.41195 147.66411 103.74609 141.96094 L 116.16602 140.875 C 116.94767 146.75187 120.29144 149.69141 126.19727 149.69141 C 129.12122 149.69141 131.39442 148.96703 133.01562 147.51953 C 134.63683 146.07203 135.44727 143.85686 135.44727 140.875 C 135.44727 138.15369 134.46274 136.07055 132.49414 134.62305 C 130.52553 133.17554 127.60197 132.45117 123.72266 132.45117 L 119.4668 132.45117 L 119.4668 122.59375 L 123.46289 122.59375 C 126.96585 122.59375 129.59928 121.8834 131.36523 120.46484 C 133.13119 119.01734 134.01367 116.96224 134.01367 114.29883 C 134.01367 111.78017 133.30528 109.81114 131.88672 108.39258 C 130.49711 106.94508 128.45603 106.22266 125.76367 106.22266 C 123.24501 106.22266 121.20393 106.91704 119.64062 108.30664 C 118.10627 109.69624 117.22379 111.66528 116.99219 114.21289 L 104.78906 113.34375 C 105.42596 108.07483 107.61114 103.95061 111.3457 100.96875 C 115.08027 97.986892 119.95885 96.494141 125.98047 96.494141 z "
       inkscape:transform-center-y="0.29775965"
       inkscape:transform-center-x="0.43930652"
       style="fill:#000000;stroke:none;stroke-width:6.00001;stop-color:#000000"
       id="path862" />
    <path
       transform="matrix(-0.10793574,-0.81985333,0.81985333,-0.10793574,9.7135657,65.316815)"
       inkscape:transform-center-y="0.29775965"
       inkscape:transform-center-x="0.43930652"
       d="m 25.217392,48.847645 -8.059839,-10.503787 1.728132,-13.126466 10.503787,-8.059839 13.126466,1.728132 8.059839,10.503787 -1.728132,13.126466 -10.503787,8.059839 z"
       inkscape:randomized="0"
       inkscape:rounded="0"
       inkscape:flatsided="true"
       sodipodi:arg2="2.4870942"
       sodipodi:arg1="2.0943951"
       sodipodi:r2="15.585451"
       sodipodi:r1="17.298546"
       sodipodi:cy="33.866665"
       sodipodi:cx="33.866665"
       sodipodi:sides="8"
       id="path860"
       style="fill:none;stroke:#000000;stroke-width:1.91975641;stop-color:#000000"
       sodipodi:type="star" />
  </g>
  <g
     style="opacity:0.25"
     sodipodi:insensitive="true"
     inkscape:label="Octagon"
     id="layer2"
     inkscape:groupmode="layer">
    <path
       d="M 45.840339,45.840339 33.866665,50.799997 21.892991,45.840339 16.933332,33.866665 21.892991,21.892991 33.866665,16.933332 45.840339,21.892991 50.799997,33.866665 Z"
       inkscape:randomized="0"
       inkscape:rounded="0"
       inkscape:flatsided="true"
       sodipodi:arg2="1.1780972"
       sodipodi:arg1="0.78539816"
       sodipodi:r2="15.64436"
       sodipodi:r1="16.933332"
       sodipodi:cy="33.866665"
       sodipodi:cx="33.866665"
       sodipodi:sides="8"
       id="path836"
       style="opacity:1;vector-effect:none;fill:none;fill-opacity:1;stroke:#ff0080;stroke-width:0.249999;stroke-linecap:butt;stroke-linejoin:round;stroke-miterlimit:4;stroke-dasharray:none;stroke-dashoffset:0;stroke-opacity:1;marker:none;paint-order:normal;stop-color:#000000"
       sodipodi:type="star" />
    <path
       style="fill:none;stroke:#ff0080;stroke-width:0.25;stroke-linejoin:round;stop-color:#000000"
       d="M 27.093333,19.738938 V 47.994392"
       id="path857"
       sodipodi:nodetypes="cc" />
    <path
       sodipodi:nodetypes="cc"
       id="path859"
       d="M 40.639997,19.738938 V 47.994392"
       style="fill:none;stroke:#ff0080;stroke-width:0.25;stroke-linejoin:round;stop-color:#000000" />
    <path
       style="fill:none;stroke:#ff0080;stroke-width:0.25;stroke-linejoin:round;stop-color:#000000"
       d="M 47.994392,27.093332 H 19.738938"
       id="path861"
       sodipodi:nodetypes="cc" />
    <path
       sodipodi:nodetypes="cc"
       id="path863"
       d="M 47.994392,40.639997 H 19.738938"
       style="fill:none;stroke:#ff0080;stroke-width:0.25;stroke-linejoin:round;stop-color:#000000" />
  </g>
</svg>
