<?xml version="1.0" encoding="UTF-8" standalone="no"?>
<svg
        xmlns:dc="http://purl.org/dc/elements/1.1/"
        xmlns:cc="http://creativecommons.org/ns#"
        xmlns:rdf="http://www.w3.org/1999/02/22-rdf-syntax-ns#"
        xmlns="http://www.w3.org/2000/svg"
        xmlns:sodipodi="http://sodipodi.sourceforge.net/DTD/sodipodi-0.dtd"
        xmlns:inkscape="http://www.inkscape.org/namespaces/inkscape"
        sodipodi:docname="1:160000.svg"
        inkscape:version="1.0 (4035a4fb49, 2020-05-01)"
        id="svg8"
        version="1.1"
        viewBox="0 0 67.733332 67.733332"
        height="256"
        width="256">
  <style
     id="style843"></style>
  <title
     id="title856">MIL-STD-2525D Icon</title>
  <defs
     id="defs2">
    <rect
       id="rect880"
       height="36.890258"
       width="42.480562"
       y="39.217546"
       x="6.7321309" />
    <rect
       x="23.31878"
       y="3.2134565"
       width="40.416331"
       height="13.148852"
       id="rect839" />
  </defs>
  <sodipodi:namedview
     inkscape:snap-global="true"
     inkscape:guide-bbox="true"
     showguides="true"
     inkscape:pagecheckerboard="true"
     units="px"
     inkscape:window-maximized="0"
     inkscape:window-y="27"
     inkscape:window-x="1762"
     inkscape:window-height="1385"
     inkscape:window-width="1678"
     showgrid="false"
     inkscape:document-rotation="0"
     inkscape:current-layer="layer1"
     inkscape:document-units="px"
     inkscape:cy="122.40693"
     inkscape:cx="154.46766"
     inkscape:zoom="2.0000001"
     inkscape:pageshadow="2"
     inkscape:pageopacity="0"
     borderopacity="1.0"
     bordercolor="#666666"
     pagecolor="#ffffff"
     id="base"
     inkscape:object-paths="true"
     inkscape:snap-midpoints="true"
     inkscape:snap-object-midpoints="true"
     inkscape:snap-center="true">
    <sodipodi:guide
       id="guide863"
       orientation="1,0"
       position="33.866665,16.933335" />
  </sodipodi:namedview>
  <metadata
     id="metadata5">
    <rdf:RDF>
      <cc:Work
         rdf:about="">
        <dc:format>image/svg+xml</dc:format>
        <dc:type
           rdf:resource="http://purl.org/dc/dcmitype/StillImage" />
        <dc:title>MIL-STD-2525D Icon</dc:title>
        <dc:creator>
          <cc:Agent>
            <dc:title>Nicholas W. Royer</dc:title>
          </cc:Agent>
        </dc:creator>
        <dc:rights>
          <cc:Agent>
            <dc:title>All rights reserved</dc:title>
          </cc:Agent>
        </dc:rights>
        <dc:description>L=128px</dc:description>
      </cc:Work>
    </rdf:RDF>
  </metadata>
  <g
     style="opacity:1"
     id="layer1"
     inkscape:groupmode="layer"
     inkscape:label="Symbol">
    <path
       transform="scale(0.26458333)"
       d="M 107.4668 78.429688 L 78.429688 107.4668 L 78.429688 148.5332 L 107.4668 177.57031 L 148.5332 177.57031 L 177.57031 148.5332 L 177.57031 107.4668 L 148.5332 78.429688 L 107.4668 78.429688 z M 90.738281 108.82031 L 99.910156 108.82031 L 116.86914 138.59766 C 116.54251 135.85751 116.37891 133.36347 116.37891 131.11328 L 116.37891 108.82031 L 123.50977 108.82031 L 123.50977 147.17383 L 114.0918 147.17383 L 97.378906 117.63867 C 97.705531 120.50584 97.869141 122.81065 97.869141 124.55273 L 97.869141 147.17383 L 90.738281 147.17383 L 90.738281 108.82031 z M 130.99609 108.82031 L 150.1582 108.82031 C 154.73116 108.82031 158.26195 109.80912 160.74805 111.78711 C 163.23414 113.74695 164.47656 116.56818 164.47656 120.25195 C 164.47656 122.93766 163.71377 125.26086 162.18945 127.2207 C 160.66513 129.1624 158.60669 130.44161 156.01172 131.05859 L 166.38281 147.17383 L 157.3457 147.17383 L 148.44336 132.60938 L 139.02539 132.60938 L 139.02539 147.17383 L 130.99609 147.17383 L 130.99609 108.82031 z M 139.02539 115.05273 L 139.02539 126.37695 L 149.5332 126.37695 C 151.78339 126.37695 153.489 125.86778 154.65039 124.85156 C 155.81178 123.83535 156.39258 122.41095 156.39258 120.57812 C 156.39258 116.89436 154.03258 115.05273 149.31445 115.05273 L 139.02539 115.05273 z "
       style="fill:#000000;stroke-width:6;stop-color:#000000"
       id="path865" />
    <path
       id="path873"
       style="color:#000000;font-style:normal;font-variant:normal;font-weight:normal;font-stretch:normal;font-size:medium;line-height:normal;font-family:sans-serif;font-variant-ligatures:normal;font-variant-position:normal;font-variant-caps:normal;font-variant-numeric:normal;font-variant-alternates:normal;font-variant-east-asian:normal;font-feature-settings:normal;font-variation-settings:normal;text-indent:0;text-align:start;text-decoration:none;text-decoration-line:none;text-decoration-style:solid;text-decoration-color:#000000;letter-spacing:normal;word-spacing:normal;text-transform:none;writing-mode:lr-tb;direction:ltr;text-orientation:mixed;dominant-baseline:auto;baseline-shift:baseline;text-anchor:start;white-space:normal;shape-padding:0;shape-margin:0;inline-size:0;clip-rule:nonzero;display:inline;overflow:visible;visibility:visible;opacity:1;isolation:auto;mix-blend-mode:normal;color-interpolation:sRGB;color-interpolation-filters:linearRGB;solid-color:#000000;solid-opacity:1;vector-effect:none;fill:#000000;fill-opacity:1;fill-rule:nonzero;stroke:none;stroke-width:6;stroke-linecap:butt;stroke-linejoin:miter;stroke-miterlimit:4;stroke-dasharray:none;stroke-dashoffset:0;stroke-opacity:1;color-rendering:auto;image-rendering:auto;shape-rendering:auto;text-rendering:auto;enable-background:accumulate;stop-color:#000000;stop-opacity:1"
       d="M 149.58008 75.876953 L 132.01367 75.878906 L 132.01367 81.876953 L 147.0957 81.876953 L 157.76953 92.552734 L 162.01172 88.308594 L 149.58008 75.876953 z M 123.98633 75.878906 L 106.41992 75.880859 L 105.53711 76.759766 L 93.986328 88.308594 L 98.228516 92.550781 L 108.90234 81.876953 L 123.98633 81.876953 L 123.98633 75.878906 z M 88.308594 93.986328 L 75.890625 106.40039 L 75.890625 123.98633 L 81.890625 123.98633 L 81.890625 108.88672 L 92.550781 98.228516 L 88.308594 93.986328 z M 167.69141 93.988281 L 163.44727 98.230469 L 174.10547 108.89062 L 174.10547 123.98633 L 180.10547 123.98633 L 180.10742 106.4043 L 167.69141 93.988281 z M 75.890625 132.01367 L 75.890625 149.57227 L 88.320312 162.00195 L 92.564453 157.75781 L 81.892578 147.08594 L 81.892578 132.01367 L 75.890625 132.01367 z M 174.10547 132.01367 L 174.10547 147.08203 L 163.43359 157.75586 L 167.67578 161.99805 L 180.10352 149.56836 L 180.10547 132.01367 L 174.10547 132.01367 z M 98.242188 163.43555 L 94 167.67773 L 106.41406 180.0918 L 123.98633 180.0918 L 123.98633 174.09375 L 108.89844 174.0918 L 98.242188 163.43555 z M 157.75781 163.43555 L 147.10156 174.0957 L 132.01367 174.09375 L 132.01367 180.0918 L 149.58398 180.0918 L 161.99805 167.67578 L 157.75781 163.43555 z "
       transform="scale(0.26458333)" />
  </g>
  <g
     style="opacity:0.25"
     sodipodi:insensitive="true"
     inkscape:label="Octagon"
     id="layer2"
     inkscape:groupmode="layer">
    <path
       d="M 45.840339,45.840339 33.866665,50.799997 21.892991,45.840339 16.933332,33.866665 21.892991,21.892991 33.866665,16.933332 45.840339,21.892991 50.799997,33.866665 Z"
       inkscape:randomized="0"
       inkscape:rounded="0"
       inkscape:flatsided="true"
       sodipodi:arg2="1.1780972"
       sodipodi:arg1="0.78539816"
       sodipodi:r2="15.64436"
       sodipodi:r1="16.933332"
       sodipodi:cy="33.866665"
       sodipodi:cx="33.866665"
       sodipodi:sides="8"
       id="path836"
       style="opacity:1;vector-effect:none;fill:none;fill-opacity:1;stroke:#ff0080;stroke-width:0.249999;stroke-linecap:butt;stroke-linejoin:round;stroke-miterlimit:4;stroke-dasharray:none;stroke-dashoffset:0;stroke-opacity:1;marker:none;paint-order:normal;stop-color:#000000"
       sodipodi:type="star" />
    <path
       style="fill:none;stroke:#ff0080;stroke-width:0.25;stroke-linejoin:round;stop-color:#000000"
       d="M 27.093333,19.738938 V 47.994392"
       id="path857"
       sodipodi:nodetypes="cc" />
    <path
       sodipodi:nodetypes="cc"
       id="path859"
       d="M 40.639997,19.738938 V 47.994392"
       style="fill:none;stroke:#ff0080;stroke-width:0.25;stroke-linejoin:round;stop-color:#000000" />
    <path
       style="fill:none;stroke:#ff0080;stroke-width:0.25;stroke-linejoin:round;stop-color:#000000"
       d="M 47.994392,27.093332 H 19.738938"
       id="path861"
       sodipodi:nodetypes="cc" />
    <path
       sodipodi:nodetypes="cc"
       id="path863"
       d="M 47.994392,40.639997 H 19.738938"
       style="fill:none;stroke:#ff0080;stroke-width:0.25;stroke-linejoin:round;stop-color:#000000" />
  </g>
</svg>
