<?xml version="1.0" encoding="UTF-8" standalone="no"?>
<svg
        xmlns:dc="http://purl.org/dc/elements/1.1/"
        xmlns:cc="http://creativecommons.org/ns#"
        xmlns:rdf="http://www.w3.org/1999/02/22-rdf-syntax-ns#"
        xmlns="http://www.w3.org/2000/svg"
        xmlns:sodipodi="http://sodipodi.sourceforge.net/DTD/sodipodi-0.dtd"
        xmlns:inkscape="http://www.inkscape.org/namespaces/inkscape"
        width="256"
        height="256"
        viewBox="0 0 67.733332 67.733332"
        version="1.1"
        id="svg8"
        inkscape:version="1.0 (4035a4fb49, 2020-05-01)"
        sodipodi:docname="1:170000.svg">
  <style
     id="style843"></style>
  <title
     id="title856">MIL-STD-2525D Icon</title>
  <defs
     id="defs2">
    <rect
       x="13.789282"
       y="33.638825"
       width="47.494508"
       height="31.035343"
       id="rect938" />
    <rect
       id="rect839"
       height="13.148852"
       width="40.416331"
       y="3.2134565"
       x="23.31878" />
  </defs>
  <sodipodi:namedview
     inkscape:snap-center="true"
     inkscape:snap-object-midpoints="true"
     inkscape:snap-midpoints="true"
     inkscape:object-paths="true"
     id="base"
     pagecolor="#ffffff"
     bordercolor="#666666"
     borderopacity="1.0"
     inkscape:pageopacity="0"
     inkscape:pageshadow="2"
     inkscape:zoom="4"
     inkscape:cx="130.87108"
     inkscape:cy="141.50652"
     inkscape:document-units="px"
     inkscape:current-layer="layer1"
     inkscape:document-rotation="0"
     showgrid="false"
     inkscape:window-width="1678"
     inkscape:window-height="1385"
     inkscape:window-x="1762"
     inkscape:window-y="27"
     inkscape:window-maximized="0"
     units="px"
     inkscape:pagecheckerboard="true"
     showguides="true"
     inkscape:guide-bbox="true"
     inkscape:snap-global="false">
    <sodipodi:guide
       position="33.866665,16.933335"
       orientation="1,0"
       id="guide863" />
  </sodipodi:namedview>
  <metadata
     id="metadata5">
    <rdf:RDF>
      <cc:Work
         rdf:about="">
        <dc:format>image/svg+xml</dc:format>
        <dc:type
           rdf:resource="http://purl.org/dc/dcmitype/StillImage" />
        <dc:title>MIL-STD-2525D Icon</dc:title>
        <dc:creator>
          <cc:Agent>
            <dc:title>Nicholas W. Royer</dc:title>
          </cc:Agent>
        </dc:creator>
        <dc:rights>
          <cc:Agent>
            <dc:title>All rights reserved</dc:title>
          </cc:Agent>
        </dc:rights>
        <dc:description>L=128px</dc:description>
      </cc:Work>
    </rdf:RDF>
  </metadata>
  <g
     inkscape:label="Symbol"
     inkscape:groupmode="layer"
     id="layer1"
     style="opacity:1">
    <path
       transform="scale(0.26458333)"
       d="M 105.90625 75.158203 L 74.890625 106.17773 L 74.888672 150.04102 L 105.9043 181.05859 L 149.77148 181.05859 L 180.78906 150.04297 L 180.78711 148.80078 L 180.78906 106.17578 L 149.76953 75.158203 L 105.90625 75.158203 z M 105.81445 107.87109 C 112.00835 107.87109 116.84433 109.64538 120.32031 113.19531 C 123.81478 116.74525 125.5625 121.6186 125.5625 127.8125 C 125.5625 131.88013 124.757 135.45722 123.14844 138.54492 C 121.53987 141.63263 119.2394 143.99899 116.24414 145.64453 C 113.24888 147.27159 109.75344 148.08594 105.75977 148.08594 C 99.62133 148.08594 94.805012 146.28314 91.310547 142.67773 C 87.834563 139.05384 86.095703 134.09884 86.095703 127.8125 C 86.095703 121.54464 87.834563 116.65359 91.310547 113.14062 C 94.786526 109.62766 99.620561 107.87109 105.81445 107.87109 z M 131.74609 108.45312 L 149.63477 108.45312 C 154.40499 108.45313 158.01059 109.28519 160.45117 110.94922 C 162.91024 112.59476 164.13867 115.03586 164.13867 118.27148 C 164.13867 120.49019 163.52003 122.36773 162.28125 123.90234 C 161.06096 125.41846 159.19423 126.44428 156.67969 126.98047 C 159.84135 127.35025 162.24508 128.34756 163.89062 129.97461 C 165.55467 131.58317 166.38672 133.71841 166.38672 136.38086 C 166.38672 139.93079 165.05503 142.67777 162.39258 144.61914 C 159.73013 146.56051 156.03207 147.53125 151.29883 147.53125 L 131.74609 147.53125 L 131.74609 108.45312 z M 105.81445 114.30469 C 102.15358 114.30469 99.324965 115.4977 97.328125 117.88281 C 95.331287 120.24944 94.333984 123.55997 94.333984 127.8125 C 94.333984 132.102 95.350946 135.48533 97.384766 137.96289 C 99.437072 140.42196 102.22832 141.65039 105.75977 141.65039 C 109.42064 141.65039 112.2404 140.44853 114.21875 138.04492 C 116.21559 135.64132 117.21484 132.23143 117.21484 127.8125 C 117.21484 123.59695 116.21559 120.29527 114.21875 117.91016 C 112.22191 115.50656 109.41986 114.30469 105.81445 114.30469 z M 139.92773 114.52734 L 139.92773 124.20703 L 149.30273 124.20703 C 151.61389 124.20703 153.28687 123.80871 154.32227 123.01367 C 155.37616 122.20015 155.90234 120.98943 155.90234 119.38086 C 155.90234 117.62438 155.33879 116.37629 154.21094 115.63672 C 153.10158 114.89715 151.44631 114.52734 149.24609 114.52734 L 139.92773 114.52734 z M 139.92773 130.25195 L 139.92773 141.45703 L 150.60547 141.45703 C 153.23094 141.45703 155.1439 140.98592 156.3457 140.04297 C 157.56599 139.08153 158.17773 137.64853 158.17773 135.74414 C 158.17773 132.08327 155.55173 130.25195 150.30078 130.25195 L 139.92773 130.25195 z "
       style="color:#000000;font-style:normal;font-variant:normal;font-weight:normal;font-stretch:normal;font-size:medium;line-height:normal;font-family:sans-serif;font-variant-ligatures:normal;font-variant-position:normal;font-variant-caps:normal;font-variant-numeric:normal;font-variant-alternates:normal;font-variant-east-asian:normal;font-feature-settings:normal;font-variation-settings:normal;text-indent:0;text-align:start;text-decoration:none;text-decoration-line:none;text-decoration-style:solid;text-decoration-color:#000000;letter-spacing:normal;word-spacing:normal;text-transform:none;writing-mode:lr-tb;direction:ltr;text-orientation:mixed;dominant-baseline:auto;baseline-shift:baseline;text-anchor:start;white-space:normal;shape-padding:0;shape-margin:0;inline-size:0;clip-rule:nonzero;display:inline;overflow:visible;visibility:visible;isolation:auto;mix-blend-mode:normal;color-interpolation:sRGB;color-interpolation-filters:linearRGB;solid-color:#000000;solid-opacity:1;vector-effect:none;fill:#000000;fill-opacity:1;fill-rule:nonzero;stroke:none;stroke-width:6;stroke-linecap:butt;stroke-linejoin:miter;stroke-miterlimit:4;stroke-dasharray:none;stroke-dashoffset:0;stroke-opacity:1;color-rendering:auto;image-rendering:auto;shape-rendering:auto;text-rendering:auto;enable-background:accumulate;stop-color:#000000"
       id="path869" />
  </g>
  <g
     inkscape:groupmode="layer"
     id="layer2"
     inkscape:label="Octagon"
     sodipodi:insensitive="true"
     style="opacity:0.25">
    <path
       sodipodi:type="star"
       style="opacity:1;vector-effect:none;fill:none;fill-opacity:1;stroke:#ff0080;stroke-width:0.249999;stroke-linecap:butt;stroke-linejoin:round;stroke-miterlimit:4;stroke-dasharray:none;stroke-dashoffset:0;stroke-opacity:1;marker:none;paint-order:normal;stop-color:#000000"
       id="path836"
       sodipodi:sides="8"
       sodipodi:cx="33.866665"
       sodipodi:cy="33.866665"
       sodipodi:r1="16.933332"
       sodipodi:r2="15.64436"
       sodipodi:arg1="0.78539816"
       sodipodi:arg2="1.1780972"
       inkscape:flatsided="true"
       inkscape:rounded="0"
       inkscape:randomized="0"
       d="M 45.840339,45.840339 33.866665,50.799997 21.892991,45.840339 16.933332,33.866665 21.892991,21.892991 33.866665,16.933332 45.840339,21.892991 50.799997,33.866665 Z" />
    <path
       sodipodi:nodetypes="cc"
       id="path857"
       d="M 27.093333,19.738938 V 47.994392"
       style="fill:none;stroke:#ff0080;stroke-width:0.25;stroke-linejoin:round;stop-color:#000000" />
    <path
       style="fill:none;stroke:#ff0080;stroke-width:0.25;stroke-linejoin:round;stop-color:#000000"
       d="M 40.639997,19.738938 V 47.994392"
       id="path859"
       sodipodi:nodetypes="cc" />
    <path
       sodipodi:nodetypes="cc"
       id="path861"
       d="M 47.994392,27.093332 H 19.738938"
       style="fill:none;stroke:#ff0080;stroke-width:0.25;stroke-linejoin:round;stop-color:#000000" />
    <path
       style="fill:none;stroke:#ff0080;stroke-width:0.25;stroke-linejoin:round;stop-color:#000000"
       d="M 47.994392,40.639997 H 19.738938"
       id="path863"
       sodipodi:nodetypes="cc" />
  </g>
</svg>
