<?xml version="1.0" encoding="UTF-8" standalone="no"?>
<svg
        xmlns:dc="http://purl.org/dc/elements/1.1/"
        xmlns:cc="http://creativecommons.org/ns#"
        xmlns:rdf="http://www.w3.org/1999/02/22-rdf-syntax-ns#"
        xmlns="http://www.w3.org/2000/svg"
        xmlns:sodipodi="http://sodipodi.sourceforge.net/DTD/sodipodi-0.dtd"
        xmlns:inkscape="http://www.inkscape.org/namespaces/inkscape"
        width="256"
        height="256"
        viewBox="0 0 67.733332 67.733332"
        version="1.1"
        id="svg8"
        inkscape:version="1.0 (4035a4fb49, 2020-05-01)"
        sodipodi:docname="120801.svg">
  <style
     id="style852"></style>
  <title
     id="title856">MIL-STD-2525D Icon</title>
  <defs
     id="defs2">
    <rect
       id="rect892"
       height="12.796874"
       width="22.429246"
       y="50.051264"
       x="23.922071" />
    <rect
       x="23.463894"
       y="29.981363"
       width="36.782529"
       height="31.925096"
       id="rect919" />
    <rect
       id="rect839"
       height="13.148852"
       width="40.416331"
       y="3.2134565"
       x="23.31878" />
  </defs>
  <sodipodi:namedview
     inkscape:snap-center="true"
     inkscape:snap-object-midpoints="true"
     inkscape:snap-midpoints="true"
     inkscape:object-paths="true"
     id="base"
     pagecolor="#ffffff"
     bordercolor="#666666"
     borderopacity="1.0"
     inkscape:pageopacity="0"
     inkscape:pageshadow="2"
     inkscape:zoom="2.8284271"
     inkscape:cx="93.277311"
     inkscape:cy="158.15115"
     inkscape:document-units="px"
     inkscape:current-layer="g879"
     inkscape:document-rotation="0"
     showgrid="false"
     inkscape:window-width="1678"
     inkscape:window-height="1385"
     inkscape:window-x="1762"
     inkscape:window-y="27"
     inkscape:window-maximized="0"
     units="px"
     inkscape:pagecheckerboard="true"
     showguides="true"
     inkscape:guide-bbox="true"
     inkscape:snap-global="true"
     inkscape:snap-intersection-paths="true">
    <sodipodi:guide
       position="33.866665,50.8"
       orientation="1,0"
       id="guide861" />
  </sodipodi:namedview>
  <metadata
     id="metadata5">
    <rdf:RDF>
      <cc:Work
         rdf:about="">
        <dc:format>image/svg+xml</dc:format>
        <dc:type
           rdf:resource="http://purl.org/dc/dcmitype/StillImage" />
        <dc:title>MIL-STD-2525D Icon</dc:title>
        <dc:creator>
          <cc:Agent>
            <dc:title>Nicholas W. Royer</dc:title>
          </cc:Agent>
        </dc:creator>
        <dc:rights>
          <cc:Agent>
            <dc:title>All rights reserved</dc:title>
          </cc:Agent>
        </dc:rights>
        <dc:description>L=128px</dc:description>
      </cc:Work>
    </rdf:RDF>
  </metadata>
  <g
     inkscape:label="Symbol"
     inkscape:groupmode="layer"
     id="layer1"
     style="display:inline;opacity:1">
    <g
       style="stroke-width:0.996622"
       transform="matrix(1.0033928,0,0,1.0033928,0.91694216,-7.1098999)"
       id="g879">
      <path
         transform="matrix(0.26368869,0,0,0.26368869,-0.91384168,7.085859)"
         d="M 88.851562 128.13281 L 102.40039 151.59961 L 128 151.59961 L 153.59961 151.59961 L 167.14844 128.13281 L 128 128.13281 L 88.851562 128.13281 z M 113.87305 132.57031 L 121.16406 132.57031 C 122.90402 132.57031 124.24743 132.94662 125.19336 133.69922 C 126.13929 134.44491 126.61133 135.51829 126.61133 136.91992 C 126.61133 137.9418 126.32217 138.82462 125.74219 139.57031 C 125.1622 140.3091 124.37798 140.7965 123.39062 141.03125 L 127.33789 147.16211 L 123.89844 147.16211 L 120.51172 141.62109 L 116.92773 141.62109 L 116.92773 147.16211 L 113.87305 147.16211 L 113.87305 132.57031 z M 129.19141 132.57031 L 135.87109 132.57031 C 137.65247 132.57031 138.99875 132.88054 139.91016 133.50195 C 140.82846 134.11646 141.28711 135.02803 141.28711 136.23633 C 141.28711 137.06488 141.05636 137.76481 140.59375 138.33789 C 140.13805 138.90407 139.44097 139.28805 138.50195 139.48828 C 139.68264 139.62637 140.58081 139.99982 141.19531 140.60742 C 141.81672 141.20812 142.12695 142.00574 142.12695 143 C 142.12695 144.32568 141.62902 145.34924 140.63477 146.07422 C 139.64051 146.7992 138.25976 147.16211 136.49219 147.16211 L 129.19141 147.16211 L 129.19141 132.57031 z M 132.24609 134.83789 L 132.24609 138.45312 L 135.74609 138.45312 C 136.60917 138.45312 137.23444 138.30471 137.62109 138.00781 C 138.01465 137.70401 138.21094 137.25109 138.21094 136.65039 C 138.21094 135.99446 138.00126 135.52814 137.58008 135.25195 C 137.1658 134.97577 136.54821 134.83789 135.72656 134.83789 L 132.24609 134.83789 z M 116.92773 134.94141 L 116.92773 139.25 L 120.92578 139.25 C 121.78195 139.25 122.43115 139.05658 122.87305 138.66992 C 123.31494 138.28327 123.53711 137.74228 123.53711 137.04492 C 123.53711 135.64329 122.63894 134.94141 120.84375 134.94141 L 116.92773 134.94141 z M 132.24609 140.71094 L 132.24609 144.89453 L 136.23438 144.89453 C 137.21482 144.89453 137.92816 144.71932 138.37695 144.36719 C 138.83266 144.00815 139.06055 143.47289 139.06055 142.76172 C 139.06055 141.39461 138.08004 140.71094 136.11914 140.71094 L 132.24609 140.71094 z "
         style="fill:#000000;stroke-width:3.99998;stroke-linejoin:round;stop-color:#000000"
         id="path865" />
      <path
         sodipodi:nodetypes="cccccc"
         id="path870"
         d="m 25.560503,40.873032 1.622783,-6.056302 h 2.872315 l -1.622779,6.056302 -1.447077,1.246148 z"
         style="fill:#000000;stroke-width:1.05475;stroke-linejoin:round;stop-color:#000000" />
      <g
         style="font-style:normal;font-variant:normal;font-weight:bold;font-stretch:normal;font-size:10.2875px;line-height:1.25;font-family:'Liberation Sans';-inkscape-font-specification:'Liberation Sans Bold';font-variant-ligatures:normal;font-variant-position:normal;font-variant-caps:normal;font-variant-numeric:normal;font-variant-alternates:normal;font-variant-east-asian:normal;font-feature-settings:normal;font-variation-settings:normal;text-indent:0;text-align:start;text-decoration:none;text-decoration-line:none;text-decoration-style:solid;text-decoration-color:#000000;letter-spacing:0px;word-spacing:0px;text-transform:none;writing-mode:lr-tb;direction:ltr;text-orientation:mixed;dominant-baseline:auto;baseline-shift:baseline;text-anchor:start;white-space:pre;shape-inside:url(#rect892);shape-padding:0;shape-margin:0;inline-size:0;opacity:1;vector-effect:none;fill:#000000;fill-opacity:1;stroke:none;stroke-width:1.83311;stroke-linecap:butt;stroke-linejoin:miter;stroke-miterlimit:4;stroke-dasharray:none;stroke-dashoffset:0;stroke-opacity:1;stop-color:#000000;stop-opacity:1"
         id="text890"
         transform="matrix(0.54367541,0,0,0.54367541,15.733364,13.641624)"
         aria-label="RB" />
    </g>
  </g>
  <g
     sodipodi:insensitive="true"
     inkscape:groupmode="layer"
     id="layer2"
     inkscape:label="Octagon"
     style="opacity:0.25">
    <path
       d="M 33.866665,9.9192931 A 11.973734,11.973734 0 0 0 21.89272,21.892723 11.973734,11.973734 0 0 0 9.9192906,33.866668 11.973734,11.973734 0 0 0 21.89272,45.840098 11.973734,11.973734 0 0 0 33.866665,57.814044 11.973734,11.973734 0 0 0 45.840095,45.840098 11.973734,11.973734 0 0 0 57.814041,33.866668 11.973734,11.973734 0 0 0 45.840095,21.892723 11.973734,11.973734 0 0 0 33.866665,9.9192931 Z"
       style="font-variation-settings:normal;display:inline;opacity:1;vector-effect:none;fill:none;fill-opacity:1;stroke:#ff0080;stroke-width:0.249999;stroke-linecap:butt;stroke-linejoin:round;stroke-miterlimit:4;stroke-dasharray:none;stroke-dashoffset:0;stroke-opacity:1;marker:none;paint-order:normal;stop-color:#000000;stop-opacity:1"
       id="path919" />
    <path
       sodipodi:type="star"
       style="opacity:1;vector-effect:none;fill:none;fill-opacity:1;stroke:#ff0080;stroke-width:0.249999;stroke-linecap:butt;stroke-linejoin:round;stroke-miterlimit:4;stroke-dasharray:none;stroke-dashoffset:0;stroke-opacity:1;marker:none;paint-order:normal;stop-color:#000000"
       id="path836"
       sodipodi:sides="8"
       sodipodi:cx="33.866665"
       sodipodi:cy="33.866665"
       sodipodi:r1="16.933332"
       sodipodi:r2="15.64436"
       sodipodi:arg1="0.78539816"
       sodipodi:arg2="1.1780972"
       inkscape:flatsided="true"
       inkscape:rounded="0"
       inkscape:randomized="0"
       d="M 45.840339,45.840339 33.866665,50.799997 21.892991,45.840339 16.933332,33.866665 21.892991,21.892991 33.866665,16.933332 45.840339,21.892991 50.799997,33.866665 Z" />
    <path
       sodipodi:nodetypes="cc"
       id="path857"
       d="M 27.093333,19.738938 V 47.994392"
       style="fill:none;stroke:#ff0080;stroke-width:0.25;stroke-linejoin:round;stop-color:#000000" />
    <path
       style="fill:none;stroke:#ff0080;stroke-width:0.25;stroke-linejoin:round;stop-color:#000000"
       d="M 40.639997,19.738938 V 47.994392"
       id="path859"
       sodipodi:nodetypes="cc" />
    <path
       sodipodi:nodetypes="cc"
       id="path861"
       d="M 47.994392,27.093332 H 19.738938"
       style="fill:none;stroke:#ff0080;stroke-width:0.25;stroke-linejoin:round;stop-color:#000000" />
    <path
       style="fill:none;stroke:#ff0080;stroke-width:0.25;stroke-linejoin:round;stop-color:#000000"
       d="M 47.994392,40.639997 H 19.738938"
       id="path863"
       sodipodi:nodetypes="cc" />
    <path
       d="M 8.2166664,16.933333 H 59.516663 V 50.799998 H 8.2166664 Z"
       style="font-variation-settings:normal;display:inline;opacity:1;vector-effect:none;fill:none;fill-opacity:1;stroke:#ff0080;stroke-width:0.249999;stroke-linecap:butt;stroke-linejoin:round;stroke-miterlimit:4;stroke-dasharray:none;stroke-dashoffset:0;stroke-opacity:1;marker:none;paint-order:normal;stop-color:#000000;stop-opacity:1"
       id="rect838" />
    <path
       id="rect838-7"
       style="font-variation-settings:normal;display:inline;opacity:1;vector-effect:none;fill:none;fill-opacity:1;stroke:#ff0080;stroke-width:0.249999;stroke-linecap:butt;stroke-linejoin:round;stroke-miterlimit:4;stroke-dasharray:none;stroke-dashoffset:0;stroke-opacity:1;marker:none;paint-order:normal;stop-color:#000000;stop-opacity:1"
       d="M 15.190002,15.189999 H 52.54333 V 52.543335 H 15.190002 Z" />
    <path
       d="M 33.866669,9.9193234 57.814011,33.866666 33.866664,57.814013 9.9193223,33.86667 Z"
       style="font-variation-settings:normal;display:inline;opacity:1;vector-effect:none;fill:none;fill-opacity:1;stroke:#ff0080;stroke-width:0.249999;stroke-linecap:butt;stroke-linejoin:round;stroke-miterlimit:4;stroke-dasharray:none;stroke-dashoffset:0;stroke-opacity:1;marker:none;paint-order:normal;stop-color:#000000;stop-opacity:1"
       id="rect838-3" />
  </g>
</svg>
