<?xml version="1.0" encoding="UTF-8" standalone="no"?>
<svg
   sodipodi:docname="130803.svg"
   inkscape:version="1.4 (e7c3feb100, 2024-10-09)"
   id="svg8"
   version="1.1"
   viewBox="0 0 67.733332 67.733332"
   height="256"
   width="256"
   xmlns:inkscape="http://www.inkscape.org/namespaces/inkscape"
   xmlns:sodipodi="http://sodipodi.sourceforge.net/DTD/sodipodi-0.dtd"
   xmlns="http://www.w3.org/2000/svg"
   xmlns:svg="http://www.w3.org/2000/svg"
   xmlns:rdf="http://www.w3.org/1999/02/22-rdf-syntax-ns#"
   xmlns:cc="http://creativecommons.org/ns#"
   xmlns:dc="http://purl.org/dc/elements/1.1/">
  <title
     id="title856">MIL-STD-2525D Icon</title>
  <defs
     id="defs2">
    <rect
       id="rect919"
       height="27.825965"
       width="37.028973"
       y="29.981363"
       x="23.463894" />
    <rect
       x="23.31878"
       y="3.2134565"
       width="40.416331"
       height="13.148852"
       id="rect839" />
  </defs>
  <sodipodi:namedview
     inkscape:guide-bbox="true"
     showguides="true"
     inkscape:pagecheckerboard="true"
     units="px"
     inkscape:window-maximized="0"
     inkscape:window-y="32"
     inkscape:window-x="1762"
     inkscape:window-height="1371"
     inkscape:window-width="1678"
     showgrid="false"
     inkscape:document-rotation="0"
     inkscape:current-layer="layer1"
     inkscape:document-units="px"
     inkscape:cy="257.25"
     inkscape:cx="196.75"
     inkscape:zoom="2"
     inkscape:pageshadow="2"
     inkscape:pageopacity="0"
     borderopacity="1.0"
     bordercolor="#666666"
     pagecolor="#ffffff"
     id="base"
     inkscape:object-paths="true"
     inkscape:snap-midpoints="true"
     inkscape:snap-object-midpoints="true"
     inkscape:snap-center="true"
     inkscape:snap-smooth-nodes="true"
     inkscape:showpageshadow="2"
     inkscape:deskcolor="#d1d1d1">
    <sodipodi:guide
       id="guide861"
       orientation="1,0"
       position="33.866665,50.8"
       inkscape:locked="false" />
  </sodipodi:namedview>
  <metadata
     id="metadata5">
    <rdf:RDF>
      <cc:Work
         rdf:about="">
        <dc:format>image/svg+xml</dc:format>
        <dc:type
           rdf:resource="http://purl.org/dc/dcmitype/StillImage" />
        <dc:title>MIL-STD-2525D Icon</dc:title>
        <dc:creator>
          <cc:Agent>
            <dc:title>Nicholas W. Royer</dc:title>
          </cc:Agent>
        </dc:creator>
        <dc:rights>
          <cc:Agent>
            <dc:title>All rights reserved</dc:title>
          </cc:Agent>
        </dc:rights>
        <dc:description>L=128px</dc:description>
      </cc:Work>
    </rdf:RDF>
  </metadata>
  <g
     style="display:inline;opacity:1"
     id="layer1"
     inkscape:groupmode="layer"
     inkscape:label="Symbol">
    <path
       id="path916"
       style="color:#000000;font-style:normal;font-variant:normal;font-weight:normal;font-stretch:normal;font-size:medium;line-height:normal;font-family:sans-serif;font-variant-ligatures:normal;font-variant-position:normal;font-variant-caps:normal;font-variant-numeric:normal;font-variant-alternates:normal;font-variant-east-asian:normal;font-feature-settings:normal;font-variation-settings:normal;text-indent:0;text-align:start;text-decoration:none;text-decoration-line:none;text-decoration-style:solid;text-decoration-color:#000000;letter-spacing:normal;word-spacing:normal;text-transform:none;writing-mode:lr-tb;direction:ltr;text-orientation:mixed;dominant-baseline:auto;baseline-shift:baseline;text-anchor:start;white-space:normal;shape-padding:0;shape-margin:0;inline-size:0;clip-rule:nonzero;display:inline;overflow:visible;visibility:visible;opacity:1;isolation:auto;mix-blend-mode:normal;color-interpolation:sRGB;color-interpolation-filters:linearRGB;solid-color:#000000;solid-opacity:1;vector-effect:none;fill:#000000;fill-opacity:1;fill-rule:nonzero;stroke:none;stroke-width:1.05833;stroke-linecap:butt;stroke-linejoin:miter;stroke-miterlimit:4;stroke-dasharray:none;stroke-dashoffset:0;stroke-opacity:1;color-rendering:auto;image-rendering:auto;shape-rendering:auto;text-rendering:auto;enable-background:accumulate;stop-color:#000000;stop-opacity:1"
       d="m 33.867182,25.067616 -2.972427,2.972946 0.747758,0.747757 1.695503,-1.694987 v 5.928836 c -1.289556,0.24932 -2.271694,1.389118 -2.271694,2.748672 0,1.540454 1.260406,2.800861 2.80086,2.800861 1.540455,0 2.800863,-1.260407 2.800863,-2.800861 0,-1.359554 -0.982138,-2.499352 -2.271696,-2.748672 v -5.928836 l 1.695505,1.694987 0.747758,-0.747757 z m 0,8.96121 c 0.968492,0 1.742014,0.773523 1.742014,1.742014 0,0.968489 -0.773522,1.742527 -1.742014,1.742527 -0.968491,0 -1.742011,-0.774038 -1.742011,-1.742527 0,-0.968491 0.77352,-1.742014 1.742011,-1.742014 z" />
    <path
       id="path971"
       d="M 24.165966 36.646341 C 23.108748 36.646341 22.239986 37.515104 22.239986 38.572322 C 22.239986 39.629539 23.108748 40.498302 24.165966 40.498302 C 25.039906 40.498302 25.783364 39.904468 26.014949 39.101488 L 33.867183 39.101488 L 41.719416 39.101488 C 41.951001 39.904469 42.694458 40.498302 43.568399 40.498302 C 44.625617 40.498302 45.49438 39.629539 45.49438 38.572322 C 45.49438 37.515104 44.625617 36.646341 43.568399 36.646341 C 42.694458 36.646341 41.951001 37.240174 41.719416 38.043155 L 33.867183 38.043155 L 26.014949 38.043155 C 25.783364 37.240175 25.039906 36.646342 24.165966 36.646341 z M 24.165966 37.705191 C 24.651219 37.705191 25.033097 38.087069 25.033097 38.572322 C 25.033097 39.057575 24.651219 39.439452 24.165966 39.439452 C 23.680712 39.439452 23.296769 39.057575 23.296769 38.572322 C 23.296769 38.087068 23.680712 37.705191 24.165966 37.705191 z M 43.568399 37.705191 C 44.053653 37.705191 44.437597 38.087068 44.437597 38.572322 C 44.437597 39.057575 44.053653 39.439452 43.568399 39.439452 C 43.083146 39.439452 42.701269 39.057575 42.701269 38.572322 C 42.701269 38.087068 43.083146 37.705191 43.568399 37.705191 z " />
  </g>
  <g
     style="opacity:0.25"
     inkscape:label="Octagon"
     id="layer2"
     inkscape:groupmode="layer"
     sodipodi:insensitive="true">
    <path
       id="path919"
       style="font-variation-settings:normal;display:inline;opacity:1;vector-effect:none;fill:none;fill-opacity:1;stroke:#ff0080;stroke-width:0.249999;stroke-linecap:butt;stroke-linejoin:round;stroke-miterlimit:4;stroke-dasharray:none;stroke-dashoffset:0;stroke-opacity:1;marker:none;paint-order:normal;stop-color:#000000;stop-opacity:1"
       d="M 33.866665,9.9192931 A 11.973734,11.973734 0 0 0 21.89272,21.892723 11.973734,11.973734 0 0 0 9.9192906,33.866668 11.973734,11.973734 0 0 0 21.89272,45.840098 11.973734,11.973734 0 0 0 33.866665,57.814044 11.973734,11.973734 0 0 0 45.840095,45.840098 11.973734,11.973734 0 0 0 57.814041,33.866668 11.973734,11.973734 0 0 0 45.840095,21.892723 11.973734,11.973734 0 0 0 33.866665,9.9192931 Z" />
    <path
       d="M 45.840339,45.840339 33.866665,50.799997 21.892991,45.840339 16.933332,33.866665 21.892991,21.892991 33.866665,16.933332 45.840339,21.892991 50.799997,33.866665 Z"
       inkscape:randomized="0"
       inkscape:rounded="0"
       inkscape:flatsided="true"
       sodipodi:arg2="1.1780972"
       sodipodi:arg1="0.78539816"
       sodipodi:r2="15.64436"
       sodipodi:r1="16.933332"
       sodipodi:cy="33.866665"
       sodipodi:cx="33.866665"
       sodipodi:sides="8"
       id="path836"
       style="opacity:1;vector-effect:none;fill:none;fill-opacity:1;stroke:#ff0080;stroke-width:0.249999;stroke-linecap:butt;stroke-linejoin:round;stroke-miterlimit:4;stroke-dasharray:none;stroke-dashoffset:0;stroke-opacity:1;marker:none;paint-order:normal;stop-color:#000000"
       sodipodi:type="star" />
    <path
       style="fill:none;stroke:#ff0080;stroke-width:0.25;stroke-linejoin:round;stop-color:#000000"
       d="M 27.093333,19.738938 V 47.994392"
       id="path857"
       sodipodi:nodetypes="cc" />
    <path
       sodipodi:nodetypes="cc"
       id="path859"
       d="M 40.639997,19.738938 V 47.994392"
       style="fill:none;stroke:#ff0080;stroke-width:0.25;stroke-linejoin:round;stop-color:#000000" />
    <path
       style="fill:none;stroke:#ff0080;stroke-width:0.25;stroke-linejoin:round;stop-color:#000000"
       d="M 47.994392,27.093332 H 19.738938"
       id="path861"
       sodipodi:nodetypes="cc" />
    <path
       sodipodi:nodetypes="cc"
       id="path863"
       d="M 47.994392,40.639997 H 19.738938"
       style="fill:none;stroke:#ff0080;stroke-width:0.25;stroke-linejoin:round;stop-color:#000000" />
    <path
       id="rect838"
       style="font-variation-settings:normal;display:inline;opacity:1;vector-effect:none;fill:none;fill-opacity:1;stroke:#ff0080;stroke-width:0.249999;stroke-linecap:butt;stroke-linejoin:round;stroke-miterlimit:4;stroke-dasharray:none;stroke-dashoffset:0;stroke-opacity:1;marker:none;paint-order:normal;stop-color:#000000;stop-opacity:1"
       d="M 8.2166664,16.933333 H 59.516663 V 50.799998 H 8.2166664 Z" />
    <path
       d="M 15.190002,15.189999 H 52.54333 V 52.543335 H 15.190002 Z"
       style="font-variation-settings:normal;display:inline;opacity:1;vector-effect:none;fill:none;fill-opacity:1;stroke:#ff0080;stroke-width:0.249999;stroke-linecap:butt;stroke-linejoin:round;stroke-miterlimit:4;stroke-dasharray:none;stroke-dashoffset:0;stroke-opacity:1;marker:none;paint-order:normal;stop-color:#000000;stop-opacity:1"
       id="rect838-7" />
    <path
       id="rect838-3"
       style="font-variation-settings:normal;display:inline;opacity:1;vector-effect:none;fill:none;fill-opacity:1;stroke:#ff0080;stroke-width:0.249999;stroke-linecap:butt;stroke-linejoin:round;stroke-miterlimit:4;stroke-dasharray:none;stroke-dashoffset:0;stroke-opacity:1;marker:none;paint-order:normal;stop-color:#000000;stop-opacity:1"
       d="M 33.866669,9.9193234 57.814011,33.866666 33.866664,57.814013 9.9193223,33.86667 Z" />
  </g>
</svg>
