<?xml version="1.0" encoding="UTF-8" standalone="no"?>
<svg
        xmlns:dc="http://purl.org/dc/elements/1.1/"
        xmlns:cc="http://creativecommons.org/ns#"
        xmlns:rdf="http://www.w3.org/1999/02/22-rdf-syntax-ns#"
        xmlns="http://www.w3.org/2000/svg"
        xmlns:sodipodi="http://sodipodi.sourceforge.net/DTD/sodipodi-0.dtd"
        xmlns:inkscape="http://www.inkscape.org/namespaces/inkscape"
        sodipodi:docname="200200.svg"
        inkscape:version="1.0 (4035a4fb49, 2020-05-01)"
        id="svg8"
        version="1.1"
        viewBox="0 0 67.733332 67.733332"
        height="256"
        width="256">
  <title
     id="title856">MIL-STD-2525D Icon</title>
  <defs
     id="defs2">
    <rect
       id="rect919"
       height="29.471949"
       width="42.493049"
       y="29.981363"
       x="23.463894" />
    <rect
       x="23.31878"
       y="3.2134565"
       width="40.416331"
       height="13.148852"
       id="rect839" />
  </defs>
  <sodipodi:namedview
     inkscape:snap-global="true"
     inkscape:guide-bbox="true"
     showguides="true"
     inkscape:pagecheckerboard="true"
     units="px"
     inkscape:window-maximized="0"
     inkscape:window-y="27"
     inkscape:window-x="1762"
     inkscape:window-height="1385"
     inkscape:window-width="1678"
     showgrid="false"
     inkscape:document-rotation="0"
     inkscape:current-layer="layer1"
     inkscape:document-units="px"
     inkscape:cy="133.27613"
     inkscape:cx="80.931056"
     inkscape:zoom="1.4142136"
     inkscape:pageshadow="2"
     inkscape:pageopacity="0"
     borderopacity="1.0"
     bordercolor="#666666"
     pagecolor="#ffffff"
     id="base"
     inkscape:object-paths="true"
     inkscape:snap-midpoints="true"
     inkscape:snap-object-midpoints="true"
     inkscape:snap-center="true" />
  <metadata
     id="metadata5">
    <rdf:RDF>
      <cc:Work
         rdf:about="">
        <dc:format>image/svg+xml</dc:format>
        <dc:type
           rdf:resource="http://purl.org/dc/dcmitype/StillImage" />
        <dc:title>MIL-STD-2525D Icon</dc:title>
        <dc:creator>
          <cc:Agent>
            <dc:title>Nicholas W. Royer</dc:title>
          </cc:Agent>
        </dc:creator>
        <dc:rights>
          <cc:Agent>
            <dc:title>All rights reserved</dc:title>
          </cc:Agent>
        </dc:rights>
        <dc:description>L=128px</dc:description>
      </cc:Work>
    </rdf:RDF>
  </metadata>
  <g
     style="display:inline;opacity:1"
     id="layer1"
     inkscape:groupmode="layer"
     inkscape:label="Symbol">
    <path
       id="path1006"
       d="m 43.135179,27.705193 -5.131155,7.181351 4.278626,0 v 1.870294 h -5.703024 l 0.07561,8.147377 h 2.705883 l 0.704779,-5.923994 h 0.924647 l 0.527648,5.829379 h 2.650318 c 0,0 0,-15.319301 0,-15.869401 0,-0.550098 -0.591206,-1.104101 -1.033333,-1.235006"
       style="fill:#000000;stroke-width:1.05833;stop-color:#000000;stroke:none" />
    <path
       id="path1008"
       d="m 36.741877,34.807331 4.806339,-7.176687 c 0,0 -3.556529,0 -4.44954,0 -0.893011,0 -1.302771,0.434027 -1.784046,0.834212 -0.481272,0.400183 -1.917557,1.527509 -1.917557,1.527509 L 31.2944,26.946426 c 0,0 -0.499094,-1.064042 -1.653905,-0.438894 -1.154808,0.625147 0.08693,1.805866 0.493538,2.510131 0.406609,0.704266 1.808652,2.451278 2.063369,2.726645 0.254717,0.275371 0.864127,0.889043 1.904132,0.04126 1.040008,-0.847778 2.476601,-1.686562 2.476601,-1.686562 z"
       style="fill:#000000;stroke:none;stroke-width:1.05833;stop-color:#000000" />
    <path
       transform="scale(0.26458333)"
       d="M 152.57422 78.480469 C 148.44558 78.480469 145.09765 81.669065 144.82617 85.726562 L 160.32422 85.726562 C 160.05259 81.669065 156.70286 78.480469 152.57422 78.480469 z M 133.25977 89.345703 L 133.25977 91.349609 L 144.80078 91.349609 L 144.80078 93.744141 C 144.80078 98.051593 148.26677 101.51953 152.57422 101.51953 C 156.88167 101.51953 160.34961 98.051593 160.34961 93.744141 L 160.34961 91.349609 L 171.65234 91.349609 L 171.65234 89.345703 L 162.7832 89.345703 L 160.34961 89.345703 L 144.80078 89.345703 L 142.12695 89.345703 L 133.25977 89.345703 z "
       style="fill:#000000;stroke:none;stroke-width:0.1;stop-color:#000000"
       id="rect1012" />
    <path
       transform="scale(0.26458333)"
       d="M 120.44531 140.66797 C 116.05878 140.66797 112.52734 144.20148 112.52734 148.58984 L 112.52734 169.18555 L 128.36328 169.18555 L 128.36328 148.58984 C 128.36328 144.20148 124.83184 140.66797 120.44531 140.66797 z "
       style="fill:#000000;stroke:none;stroke-width:0.0999999;stop-color:#000000"
       id="rect1023" />
    <path
       transform="scale(0.26458333)"
       d="M 75.261719 111.12891 L 74.978516 111.54297 L 69.283203 119.89062 L 125.05859 157.94727 L 131.03711 149.18555 L 75.261719 111.12891 z M 76.544922 113.21094 L 83.210938 117.75977 L 83.210938 128.18945 L 76.544922 123.64062 L 76.544922 113.21094 z M 90.011719 122.39844 L 97.113281 127.24414 L 97.113281 137.67383 L 90.011719 132.82812 L 90.011719 122.39844 z M 103.91602 131.88672 L 111.25391 136.89258 L 111.25391 147.32227 L 103.91602 142.31641 L 103.91602 131.88672 z M 118.05469 141.5332 L 129.64648 149.44336 L 124.79102 156.55859 L 118.05469 151.96289 L 118.05469 141.5332 z "
       style="fill:#000000;stroke:none;stroke-width:0.999999;stop-color:#000000"
       id="path1036" />
  </g>
  <g
     style="opacity:0.25"
     inkscape:label="Octagon"
     id="layer2"
     inkscape:groupmode="layer"
     sodipodi:insensitive="true">
    <path
       id="path919"
       style="font-variation-settings:normal;display:inline;opacity:1;vector-effect:none;fill:none;fill-opacity:1;stroke:#ff0080;stroke-width:0.249999;stroke-linecap:butt;stroke-linejoin:round;stroke-miterlimit:4;stroke-dasharray:none;stroke-dashoffset:0;stroke-opacity:1;marker:none;paint-order:normal;stop-color:#000000;stop-opacity:1"
       d="M 33.866665,9.9192931 A 11.973734,11.973734 0 0 0 21.89272,21.892723 11.973734,11.973734 0 0 0 9.9192906,33.866668 11.973734,11.973734 0 0 0 21.89272,45.840098 11.973734,11.973734 0 0 0 33.866665,57.814044 11.973734,11.973734 0 0 0 45.840095,45.840098 11.973734,11.973734 0 0 0 57.814041,33.866668 11.973734,11.973734 0 0 0 45.840095,21.892723 11.973734,11.973734 0 0 0 33.866665,9.9192931 Z" />
    <path
       d="M 45.840339,45.840339 33.866665,50.799997 21.892991,45.840339 16.933332,33.866665 21.892991,21.892991 33.866665,16.933332 45.840339,21.892991 50.799997,33.866665 Z"
       inkscape:randomized="0"
       inkscape:rounded="0"
       inkscape:flatsided="true"
       sodipodi:arg2="1.1780972"
       sodipodi:arg1="0.78539816"
       sodipodi:r2="15.64436"
       sodipodi:r1="16.933332"
       sodipodi:cy="33.866665"
       sodipodi:cx="33.866665"
       sodipodi:sides="8"
       id="path836"
       style="opacity:1;vector-effect:none;fill:none;fill-opacity:1;stroke:#ff0080;stroke-width:0.249999;stroke-linecap:butt;stroke-linejoin:round;stroke-miterlimit:4;stroke-dasharray:none;stroke-dashoffset:0;stroke-opacity:1;marker:none;paint-order:normal;stop-color:#000000"
       sodipodi:type="star" />
    <path
       style="fill:none;stroke:#ff0080;stroke-width:0.25;stroke-linejoin:round;stop-color:#000000"
       d="M 27.093333,19.738938 V 47.994392"
       id="path857"
       sodipodi:nodetypes="cc" />
    <path
       sodipodi:nodetypes="cc"
       id="path859"
       d="M 40.639997,19.738938 V 47.994392"
       style="fill:none;stroke:#ff0080;stroke-width:0.25;stroke-linejoin:round;stop-color:#000000" />
    <path
       style="fill:none;stroke:#ff0080;stroke-width:0.25;stroke-linejoin:round;stop-color:#000000"
       d="M 47.994392,27.093332 H 19.738938"
       id="path861"
       sodipodi:nodetypes="cc" />
    <path
       sodipodi:nodetypes="cc"
       id="path863"
       d="M 47.994392,40.639997 H 19.738938"
       style="fill:none;stroke:#ff0080;stroke-width:0.25;stroke-linejoin:round;stop-color:#000000" />
    <path
       id="rect838"
       style="font-variation-settings:normal;display:inline;opacity:1;vector-effect:none;fill:none;fill-opacity:1;stroke:#ff0080;stroke-width:0.249999;stroke-linecap:butt;stroke-linejoin:round;stroke-miterlimit:4;stroke-dasharray:none;stroke-dashoffset:0;stroke-opacity:1;marker:none;paint-order:normal;stop-color:#000000;stop-opacity:1"
       d="M 8.2166664,16.933333 H 59.516663 V 50.799998 H 8.2166664 Z" />
    <path
       d="M 15.190002,15.189999 H 52.54333 V 52.543335 H 15.190002 Z"
       style="font-variation-settings:normal;display:inline;opacity:1;vector-effect:none;fill:none;fill-opacity:1;stroke:#ff0080;stroke-width:0.249999;stroke-linecap:butt;stroke-linejoin:round;stroke-miterlimit:4;stroke-dasharray:none;stroke-dashoffset:0;stroke-opacity:1;marker:none;paint-order:normal;stop-color:#000000;stop-opacity:1"
       id="rect838-7" />
    <path
       id="rect838-3"
       style="font-variation-settings:normal;display:inline;opacity:1;vector-effect:none;fill:none;fill-opacity:1;stroke:#ff0080;stroke-width:0.249999;stroke-linecap:butt;stroke-linejoin:round;stroke-miterlimit:4;stroke-dasharray:none;stroke-dashoffset:0;stroke-opacity:1;marker:none;paint-order:normal;stop-color:#000000;stop-opacity:1"
       d="M 33.866669,9.9193234 57.814011,33.866666 33.866664,57.814013 9.9193223,33.86667 Z" />
  </g>
</svg>
