<?xml version="1.0" encoding="UTF-8" standalone="no"?>
<svg
        xmlns:dc="http://purl.org/dc/elements/1.1/"
        xmlns:cc="http://creativecommons.org/ns#"
        xmlns:rdf="http://www.w3.org/1999/02/22-rdf-syntax-ns#"
        xmlns="http://www.w3.org/2000/svg"
        xmlns:sodipodi="http://sodipodi.sourceforge.net/DTD/sodipodi-0.dtd"
        xmlns:inkscape="http://www.inkscape.org/namespaces/inkscape"
        width="256"
        height="256"
        viewBox="0 0 67.733332 67.733332"
        version="1.1"
        id="svg8"
        inkscape:version="1.0 (4035a4fb49, 2020-05-01)"
        sodipodi:docname="120101.svg">
  <style
     id="style935"></style>
  <title
     id="title856">MIL-STD-2525D Icon</title>
  <defs
     id="defs2">
    <rect
       id="rect1122"
       height="24.881891"
       width="51.688027"
       y="57.899029"
       x="19.49881" />
    <rect
       id="rect866"
       height="18.856221"
       width="48.891039"
       y="53.929386"
       x="13.70593" />
    <rect
       x="23.463894"
       y="29.981363"
       width="37.028973"
       height="27.825965"
       id="rect919" />
    <rect
       id="rect839"
       height="13.148852"
       width="40.416331"
       y="3.2134565"
       x="23.31878" />
  </defs>
  <sodipodi:namedview
     inkscape:snap-intersection-paths="true"
     inkscape:snap-center="true"
     inkscape:snap-object-midpoints="true"
     inkscape:snap-midpoints="true"
     inkscape:object-paths="true"
     id="base"
     pagecolor="#ffffff"
     bordercolor="#666666"
     borderopacity="1.0"
     inkscape:pageopacity="0"
     inkscape:pageshadow="2"
     inkscape:zoom="2.8284271"
     inkscape:cx="156.85681"
     inkscape:cy="196.05329"
     inkscape:document-units="px"
     inkscape:current-layer="layer1"
     inkscape:document-rotation="0"
     showgrid="false"
     inkscape:window-width="1678"
     inkscape:window-height="1385"
     inkscape:window-x="1762"
     inkscape:window-y="27"
     inkscape:window-maximized="0"
     units="px"
     inkscape:pagecheckerboard="true"
     showguides="true"
     inkscape:guide-bbox="true"
     inkscape:snap-global="true">
    <sodipodi:guide
       position="33.866665,50.8"
       orientation="1,0"
       id="guide861" />
  </sodipodi:namedview>
  <metadata
     id="metadata5">
    <rdf:RDF>
      <cc:Work
         rdf:about="">
        <dc:format>image/svg+xml</dc:format>
        <dc:type
           rdf:resource="http://purl.org/dc/dcmitype/StillImage" />
        <dc:title>MIL-STD-2525D Icon</dc:title>
        <dc:creator>
          <cc:Agent>
            <dc:title>Nicholas W. Royer</dc:title>
          </cc:Agent>
        </dc:creator>
        <dc:rights>
          <cc:Agent>
            <dc:title>All rights reserved</dc:title>
          </cc:Agent>
        </dc:rights>
        <dc:description>L=128px</dc:description>
      </cc:Work>
    </rdf:RDF>
  </metadata>
  <g
     inkscape:label="Symbol"
     inkscape:groupmode="layer"
     id="layer1"
     style="display:inline;opacity:1">
    <path
       id="path1118"
       d="m 36.475797,27.380274 c 0.06495,-5.010963 -1.111269,-7.466443 -2.609131,-7.609124 -1.497864,-0.142682 -1.784334,2.396321 -2.176901,7.767622 1.531863,2.315089 2.1769,4.244685 2.1769,4.244685 0,0 1.649379,-4.435275 2.609132,-4.403183 z"
       style="fill:#ffffff;stroke:none;stroke-width:0.264583;stop-color:#000000" />
    <path
       sodipodi:nodetypes="ssscssssscsscs"
       id="path1061"
       d="m 32.059522,34.276302 c 0,-0.951825 -0.0658,-3.436517 -0.715264,-3.575277 -0.649459,-0.138764 -1.790189,2.136616 -2.036495,3.045761 -0.246303,0.909143 -0.626687,1.360832 -0.626687,1.360832 0,0 -1.155583,-2.122845 0.05376,-4.867725 1.209347,-2.744878 2.811597,-3.387503 3.666638,-2.13455 0.855038,1.252953 1.059992,3.032387 1.465191,2.970289 0.405196,-0.0621 0.870426,-2.965344 1.94727,-3.473823 1.076844,-0.508476 2.290778,-0.401484 3.806235,1.485064 1.515457,1.886548 0.495623,4.887913 0.495623,4.887913 0,0 -0.249767,-1.564942 -1.149514,-2.424441 -0.899748,-0.859502 -3.005021,-2.112312 -2.582458,0.661305 0.422563,2.773616 0.840109,6.966597 -2.517156,7.164604 -2.226605,-1.226973 -1.807143,-4.148127 -1.807143,-5.099952 z"
       style="fill:#000000;stroke:none;stroke-width:0.529167;stop-color:#000000" />
    <path
       style="fill:none;stroke:#000000;stroke-width:0.26458333;stop-color:#000000"
       d="m 32.059522,34.276302 c 0,-0.951825 -0.0658,-3.436517 -0.715264,-3.575277 -0.649459,-0.138764 -1.790189,2.136616 -2.036495,3.045761 -0.246303,0.909143 -0.626687,1.360832 -0.626687,1.360832 0,0 -1.155583,-2.122845 0.05376,-4.867725 1.209347,-2.744878 2.811597,-3.387503 3.666638,-2.13455 0.855038,1.252953 1.059992,3.032387 1.465191,2.970289 0.405196,-0.0621 0.870426,-2.965344 1.94727,-3.473823 1.076844,-0.508476 2.290778,-0.401484 3.806235,1.485064 1.515457,1.886548 0.495623,4.887913 0.495623,4.887913 0,0 -0.249767,-1.564942 -1.149514,-2.424441 -0.899748,-0.859502 -3.005021,-2.112312 -2.582458,0.661305 0.422563,2.773616 0.840109,6.966597 -2.517156,7.164604 -2.226605,-1.226973 -1.807143,-4.148127 -1.807143,-5.099952 z"
       id="path1065"
       sodipodi:nodetypes="ssscssssscsscs" />
    <path
       d="m 32.481292,21.151663 3.264942,0.569266 m 0.315283,1.035976 -3.811032,-0.633336 m -0.137871,0.85872 4.173998,0.972975 m -3.467137,4.894783 1.6863,0.87825 m 0.644695,-1.441728 -3.427881,-1.193236 m 0.07293,-0.95349 4.650936,1.246214 m -4.55475,-2.39147 4.57616,1.226178 m -4.461105,-2.382958 4.396729,1.178099 m -2.53682,-5.244756 c -1.180171,2.709256 -1.546489,8.223571 -1.546489,8.223571 m 3.426057,-6.27379 c -0.565724,4.229655 -0.55695,6.503541 -0.55695,6.503541 m -0.100777,-7.712251 c -0.80254,4.745319 -1.221841,10.563411 -1.221841,10.563411 M 34.367779,19.91179 c -0.912765,4.152305 -1.167402,9.882627 -1.167402,9.882627 m -1.510612,-2.255645 c 0.392567,-5.371301 0.679037,-7.910304 2.176901,-7.767622 1.497862,0.142681 2.674078,2.598161 2.609131,7.609124"
       style="fill:none;stroke:#000000;stroke-width:0.264583;stop-color:#000000"
       id="path1089" />
    <text
       transform="matrix(0.71665423,0,0,0.71665423,12.212165,-2.014794)"
       style="font-style:normal;font-variant:normal;font-weight:normal;font-stretch:normal;font-size:10.3224px;line-height:1.25;font-family:'Liberation Sans';-inkscape-font-specification:'Liberation Sans';font-variant-ligatures:normal;font-variant-position:normal;font-variant-caps:normal;font-variant-numeric:normal;font-variant-alternates:normal;font-variant-east-asian:normal;font-feature-settings:normal;text-indent:0;text-align:start;text-decoration:none;text-decoration-line:none;text-decoration-style:solid;text-decoration-color:#000000;letter-spacing:0px;word-spacing:0px;text-transform:none;writing-mode:lr-tb;direction:ltr;text-orientation:mixed;dominant-baseline:auto;baseline-shift:baseline;white-space:pre;shape-inside:url(#rect1122);shape-padding:0;shape-margin:0;inline-size:0;opacity:1;vector-effect:none;fill:#000000;fill-opacity:1;stroke:none;stroke-width:1.39538;stroke-linecap:butt;stroke-linejoin:miter;stroke-miterlimit:4;stroke-dasharray:none;stroke-dashoffset:0;stroke-opacity:1;stop-color:#000000;stop-opacity:1"
       id="text1120"
       xml:space="preserve"><tspan
         x="19.498047"
         y="67.196385"><tspan
           style="font-style:normal;font-variant:normal;font-weight:bold;font-stretch:normal;font-family:'Liberation Sans';-inkscape-font-specification:'Liberation Sans Bold';stroke-width:1.39538">LAB</tspan></tspan></text>
  </g>
  <g
     sodipodi:insensitive="true"
     inkscape:groupmode="layer"
     id="layer2"
     inkscape:label="Octagon"
     style="display:inline;opacity:0.25">
    <path
       d="M 33.866665,9.9192931 A 11.973734,11.973734 0 0 0 21.89272,21.892723 11.973734,11.973734 0 0 0 9.9192906,33.866668 11.973734,11.973734 0 0 0 21.89272,45.840098 11.973734,11.973734 0 0 0 33.866665,57.814044 11.973734,11.973734 0 0 0 45.840095,45.840098 11.973734,11.973734 0 0 0 57.814041,33.866668 11.973734,11.973734 0 0 0 45.840095,21.892723 11.973734,11.973734 0 0 0 33.866665,9.9192931 Z"
       style="font-variation-settings:normal;display:inline;opacity:1;vector-effect:none;fill:none;fill-opacity:1;stroke:#ff0080;stroke-width:0.249999;stroke-linecap:butt;stroke-linejoin:round;stroke-miterlimit:4;stroke-dasharray:none;stroke-dashoffset:0;stroke-opacity:1;marker:none;paint-order:normal;stop-color:#000000;stop-opacity:1"
       id="path919" />
    <path
       sodipodi:type="star"
       style="opacity:1;vector-effect:none;fill:none;fill-opacity:1;stroke:#ff0080;stroke-width:0.249999;stroke-linecap:butt;stroke-linejoin:round;stroke-miterlimit:4;stroke-dasharray:none;stroke-dashoffset:0;stroke-opacity:1;marker:none;paint-order:normal;stop-color:#000000"
       id="path836"
       sodipodi:sides="8"
       sodipodi:cx="33.866665"
       sodipodi:cy="33.866665"
       sodipodi:r1="16.933332"
       sodipodi:r2="15.64436"
       sodipodi:arg1="0.78539816"
       sodipodi:arg2="1.1780972"
       inkscape:flatsided="true"
       inkscape:rounded="0"
       inkscape:randomized="0"
       d="M 45.840339,45.840339 33.866665,50.799997 21.892991,45.840339 16.933332,33.866665 21.892991,21.892991 33.866665,16.933332 45.840339,21.892991 50.799997,33.866665 Z" />
    <path
       sodipodi:nodetypes="cc"
       id="path857"
       d="M 27.093333,19.738938 V 47.994392"
       style="fill:none;stroke:#ff0080;stroke-width:0.25;stroke-linejoin:round;stop-color:#000000" />
    <path
       style="fill:none;stroke:#ff0080;stroke-width:0.25;stroke-linejoin:round;stop-color:#000000"
       d="M 40.639997,19.738938 V 47.994392"
       id="path859"
       sodipodi:nodetypes="cc" />
    <path
       sodipodi:nodetypes="cc"
       id="path861"
       d="M 47.994392,27.093332 H 19.738938"
       style="fill:none;stroke:#ff0080;stroke-width:0.25;stroke-linejoin:round;stop-color:#000000" />
    <path
       style="fill:none;stroke:#ff0080;stroke-width:0.25;stroke-linejoin:round;stop-color:#000000"
       d="M 47.994392,40.639997 H 19.738938"
       id="path863"
       sodipodi:nodetypes="cc" />
    <path
       d="M 8.2166664,16.933333 H 59.516663 V 50.799998 H 8.2166664 Z"
       style="font-variation-settings:normal;display:inline;opacity:1;vector-effect:none;fill:none;fill-opacity:1;stroke:#ff0080;stroke-width:0.249999;stroke-linecap:butt;stroke-linejoin:round;stroke-miterlimit:4;stroke-dasharray:none;stroke-dashoffset:0;stroke-opacity:1;marker:none;paint-order:normal;stop-color:#000000;stop-opacity:1"
       id="rect838" />
    <path
       id="rect838-7"
       style="font-variation-settings:normal;display:inline;opacity:1;vector-effect:none;fill:none;fill-opacity:1;stroke:#ff0080;stroke-width:0.249999;stroke-linecap:butt;stroke-linejoin:round;stroke-miterlimit:4;stroke-dasharray:none;stroke-dashoffset:0;stroke-opacity:1;marker:none;paint-order:normal;stop-color:#000000;stop-opacity:1"
       d="M 15.190002,15.189999 H 52.54333 V 52.543335 H 15.190002 Z" />
    <path
       d="M 33.866669,9.9193234 57.814011,33.866666 33.866664,57.814013 9.9193223,33.86667 Z"
       style="font-variation-settings:normal;display:inline;opacity:1;vector-effect:none;fill:none;fill-opacity:1;stroke:#ff0080;stroke-width:0.249999;stroke-linecap:butt;stroke-linejoin:round;stroke-miterlimit:4;stroke-dasharray:none;stroke-dashoffset:0;stroke-opacity:1;marker:none;paint-order:normal;stop-color:#000000;stop-opacity:1"
       id="rect838-3" />
  </g>
</svg>
