<?xml version="1.0" encoding="UTF-8" standalone="no"?>
<svg
        xmlns:dc="http://purl.org/dc/elements/1.1/"
        xmlns:cc="http://creativecommons.org/ns#"
        xmlns:rdf="http://www.w3.org/1999/02/22-rdf-syntax-ns#"
        xmlns="http://www.w3.org/2000/svg"
        xmlns:sodipodi="http://sodipodi.sourceforge.net/DTD/sodipodi-0.dtd"
        xmlns:inkscape="http://www.inkscape.org/namespaces/inkscape"
        sodipodi:docname="120108.svg"
        inkscape:version="1.0 (4035a4fb49, 2020-05-01)"
        id="svg8"
        version="1.1"
        viewBox="0 0 67.733332 67.733332"
        height="256"
        width="256">
  <style
     id="style935"></style>
  <title
     id="title856">MIL-STD-2525D Icon</title>
  <defs
     id="defs2">
    <rect
       x="19.49881"
       y="57.899029"
       width="51.688027"
       height="24.881891"
       id="rect1122" />
    <rect
       x="13.70593"
       y="53.929386"
       width="48.891039"
       height="18.856221"
       id="rect866" />
    <rect
       id="rect919"
       height="27.825965"
       width="37.028973"
       y="29.981363"
       x="23.463894" />
    <rect
       x="23.31878"
       y="3.2134565"
       width="40.416331"
       height="13.148852"
       id="rect839" />
    <rect
       x="19.49881"
       y="57.899029"
       width="51.688026"
       height="24.881891"
       id="rect1122-2" />
    <rect
       x="19.49881"
       y="57.899029"
       width="51.688026"
       height="24.881891"
       id="rect865" />
    <rect
       x="23.318781"
       y="3.2134564"
       width="40.416332"
       height="13.148852"
       id="rect839-3" />
    <rect
       x="23.318781"
       y="3.2134564"
       width="40.416332"
       height="13.148852"
       id="rect860" />
  </defs>
  <sodipodi:namedview
     inkscape:snap-global="true"
     inkscape:guide-bbox="true"
     showguides="true"
     inkscape:pagecheckerboard="true"
     units="px"
     inkscape:window-maximized="0"
     inkscape:window-y="27"
     inkscape:window-x="1762"
     inkscape:window-height="1385"
     inkscape:window-width="1678"
     showgrid="false"
     inkscape:document-rotation="0"
     inkscape:current-layer="layer1"
     inkscape:document-units="px"
     inkscape:cy="202.27788"
     inkscape:cx="507.07102"
     inkscape:zoom="1"
     inkscape:pageshadow="2"
     inkscape:pageopacity="0"
     borderopacity="1.0"
     bordercolor="#666666"
     pagecolor="#ffffff"
     id="base"
     inkscape:object-paths="true"
     inkscape:snap-midpoints="true"
     inkscape:snap-object-midpoints="true"
     inkscape:snap-center="true"
     inkscape:snap-intersection-paths="true">
    <sodipodi:guide
       id="guide861"
       orientation="1,0"
       position="33.866665,50.8" />
  </sodipodi:namedview>
  <metadata
     id="metadata5">
    <rdf:RDF>
      <cc:Work
         rdf:about="">
        <dc:format>image/svg+xml</dc:format>
        <dc:type
           rdf:resource="http://purl.org/dc/dcmitype/StillImage" />
        <dc:title>MIL-STD-2525D Icon</dc:title>
        <dc:creator>
          <cc:Agent>
            <dc:title>Nicholas W. Royer</dc:title>
          </cc:Agent>
        </dc:creator>
        <dc:rights>
          <cc:Agent>
            <dc:title>All rights reserved</dc:title>
          </cc:Agent>
        </dc:rights>
        <dc:description>L=128px</dc:description>
      </cc:Work>
    </rdf:RDF>
  </metadata>
  <g
     style="display:inline;opacity:1"
     id="layer1"
     inkscape:groupmode="layer"
     inkscape:label="Symbol">
    <path
       id="path988"
       d="m 38.346397,47.8932 c 0.899085,0 1.498385,-0.317368 1.895993,-3.314253 0.397608,-2.996883 -0.731403,-11.246131 -1.014418,-12.075755 -0.283011,-0.829625 -0.09074,-2.490005 -5.361307,-2.490005 -5.270566,0 -5.078295,1.66038 -5.361306,2.490005 -0.283015,0.829624 -1.412026,9.078872 -1.014418,12.075755 0.397608,2.996885 0.996908,3.314253 1.895993,3.314253 z"
       style="fill:#ffffff;stroke:none;stroke-width:0.529167;stroke-linecap:butt;stroke-miterlimit:4;stroke-dasharray:none;stop-color:#000000"
       sodipodi:nodetypes="csszsscc" />
    <path
       d="m 36.372698,32.284327 c -0.264319,0.506431 -0.55236,0.974749 -0.844394,1.487766 -0.107289,-0.179729 -0.182417,-0.360702 -0.182417,-0.360702 0,0 -0.09354,0.313892 0.04496,0.606164 -0.171331,0.310205 -0.342787,0.6453 -0.511596,1.016476 -0.137724,-0.150389 -0.24443,-0.304374 -0.24443,-0.304374 0,0 -0.02637,0.292814 0.136943,0.542086 -0.160393,0.372676 -0.317167,0.783839 -0.467156,1.252119 -0.238287,-0.153397 -0.44545,-0.347265 -0.44545,-0.347265 0,0 0.05599,0.393586 0.355534,0.650089 -0.09653,0.322715 -0.189897,0.669425 -0.279054,1.04748 -0.213812,-0.206936 -0.388606,-0.465603 -0.388606,-0.465603 0,0 -0.04279,0.504243 0.306959,0.826823 -0.244526,1.122712 -0.454851,2.490607 -0.607717,4.215762 -0.09903,-0.465931 -0.207708,-0.89803 -0.322976,-1.30793 0.343244,-0.289677 0.353983,-0.760162 0.353983,-0.760162 0,0 -0.208309,0.251865 -0.449067,0.437701 -0.129516,-0.431083 -0.26679,-0.831604 -0.409794,-1.207678 0.364995,-0.287636 0.37362,-0.77928 0.37362,-0.77928 0,0 -0.233407,0.279763 -0.491442,0.467154 -0.127135,-0.315944 -0.25871,-0.609619 -0.391708,-0.892453 0.469109,-0.267726 0.478523,-0.850593 0.478523,-0.850593 0,0 -0.317857,0.381471 -0.622183,0.55087 -0.147794,-0.299762 -0.296963,-0.585967 -0.446485,-0.856279 0.389567,-0.237691 0.402043,-0.726569 0.402043,-0.726569 0,0 -0.276733,0.332047 -0.541571,0.479557 -0.113781,-0.200432 -0.226602,-0.395398 -0.338479,-0.584459 0.022,-0.008 0.0434,-0.01306 0.06563,-0.02429 0.374761,-0.189267 0.354502,-0.641821 0.354502,-0.641821 0,0 -0.238988,0.327435 -0.457338,0.437698 -0.02397,0.0121 -0.05137,0.02198 -0.07906,0.03152 -0.425276,-0.713968 -0.824768,-1.367608 -1.146183,-2.063959 0.351001,0.707382 0.685363,1.405353 1.00149,2.101165 -0.196284,0.0386 -0.400492,0.03927 -0.400492,0.03927 0,0 0.217085,0.172744 0.490926,0.157613 0.09464,0.210685 0.186161,0.421457 0.276985,0.632002 -0.280202,0.06068 -0.626319,0.03928 -0.626319,0.03928 0,0 0.328189,0.298894 0.738973,0.225308 0.122407,0.28915 0.240041,0.57866 0.354502,0.868683 -0.302839,0.04922 -0.635103,0.0279 -0.635103,0.0279 -3e-6,0 0.326345,0.291544 0.75034,0.266652 0.123433,0.321265 0.243427,0.643398 0.356052,0.967383 -0.318569,0.06494 -0.701767,0.04134 -0.701767,0.04134 0,0 0.35347,0.319355 0.803568,0.264065 0.137928,0.411154 0.268439,0.824799 0.387057,1.243335 -0.319318,0.06594 -0.705382,0.04238 -0.705382,0.04238 0,0 0.345358,0.310777 0.788064,0.264583 0.473445,1.75256 0.770728,3.585202 0.82269,5.596041 l 0.53485,10e-4 c -0.0045,-0.07999 -0.01057,-0.155802 -0.0155,-0.234611 l 0.01705,0.0021 c 0.301932,-2.005303 0.659998,-3.710675 1.176155,-5.264795 0.43157,0.158517 0.852146,-0.08268 0.852146,-0.08268 0,0 -0.445407,-0.06789 -0.748792,-0.223758 0.127392,-0.363474 0.265251,-0.718404 0.412896,-1.067636 0.52914,0.179724 0.974616,-0.226859 0.974616,-0.226859 0,0 -0.510833,0.03235 -0.842843,-0.07803 0.167092,-0.374959 0.346194,-0.744236 0.54157,-1.108458 0.375473,0.202197 0.774113,-0.02016 0.774113,-0.02016 0,0 -0.403341,-0.0652 -0.645956,-0.209804 0.173537,-0.311775 0.358005,-0.621186 0.555521,-0.929143 0.323885,0.263263 0.750343,0.131773 0.750343,0.131773 0,0 -0.403225,-0.156273 -0.605647,-0.35605 0.396002,-0.597844 0.838874,-1.19272 1.340485,-1.796272 -0.486582,0.509233 -0.984626,0.999522 -1.481045,1.604553 -0.124704,-0.224375 -0.200507,-0.505913 -0.200507,-0.505913 0,0 -0.166817,0.380926 0.02377,0.721921 -0.210809,0.270113 -0.420899,0.567912 -0.62942,0.898136 -0.143809,-0.182964 -0.252179,-0.392742 -0.252179,-0.392742 0,0 -0.06646,0.337251 0.115236,0.619601 -0.206674,0.344599 -0.411498,0.726051 -0.613399,1.156518 -0.236117,-0.184687 -0.439248,-0.427879 -0.439248,-0.427879 0,0 0.0123,0.425974 0.309541,0.716751 -0.138038,0.310867 -0.275042,0.640188 -0.409795,1.002522 -0.198337,-0.234373 -0.351398,-0.531233 -0.351398,-0.531233 0,0 -0.103616,0.514892 0.228925,0.876948 -0.352152,1.00013 -0.690805,2.202098 -1.010274,3.663344 0.08811,-2.272297 0.322286,-4.402047 0.73329,-6.415114 0.387779,0.03032 0.7028,-0.201019 0.7028,-0.201019 0,0 -0.341548,-0.01269 -0.64079,-0.09509 0.08169,-0.38163 0.170776,-0.758765 0.265618,-1.132229 0.489958,0.04244 0.834573,-0.353986 0.834573,-0.353986 0,0 -0.420537,0.07645 -0.754475,0.03566 0.10501,-0.395145 0.220003,-0.784538 0.340548,-1.170988 0.388085,0.139843 0.745175,-0.117822 0.745175,-0.117822 0,0 -0.409594,-0.01858 -0.667145,-0.134876 0.113366,-0.351655 0.234887,-0.699035 0.361736,-1.043863 0.367149,0.317904 0.84491,0.102319 0.84491,0.102319 0,0 -0.459026,-0.117589 -0.673343,-0.306959 -0.02334,-0.02062 -0.04602,-0.04562 -0.06822,-0.07131 0.217114,-0.570656 0.450799,-1.133433 0.706935,-1.686719 z"
       style="fill:#000000;stroke:none;stroke-width:0.529167;stroke-linecap:butt;stroke-miterlimit:4;stroke-dasharray:none;stop-color:#000000"
       id="path951" />
    <text
       xml:space="preserve"
       id="text837"
       style="font-style:normal;font-weight:normal;font-size:10.5833px;line-height:1.25;font-family:sans-serif;letter-spacing:0px;word-spacing:0px;white-space:pre;shape-inside:url(#rect839-3);display:inline;opacity:1;fill:#000000;fill-opacity:1;stroke:none;stroke-width:1.6341;"
       x="8.5937634"
       y="0"
       transform="matrix(0.61195688,0,0,0.61195688,7.2943946,18.039386)"><tspan
         x="28.922654"
         y="12.745845"><tspan
           style="font-style:normal;font-variant:normal;font-weight:bold;font-stretch:normal;font-family:'Liberation Sans';-inkscape-font-specification:'Liberation Sans Bold';text-align:center;text-anchor:middle;stroke-width:1.6341">STOR</tspan></tspan></text>
    <path
       sodipodi:nodetypes="csszsscc"
       style="fill:none;stroke:#000000;stroke-width:0.529167;stroke-linecap:butt;stroke-miterlimit:4;stroke-dasharray:none;stop-color:#000000"
       d="m 38.346397,47.8932 c 0.899085,0 1.498385,-0.317368 1.895993,-3.314253 0.397608,-2.996883 -0.731403,-11.246131 -1.014418,-12.075755 -0.283011,-0.829625 -0.09074,-2.490005 -5.361307,-2.490005 -5.270566,0 -5.078295,1.66038 -5.361306,2.490005 -0.283015,0.829624 -1.412026,9.078872 -1.014418,12.075755 0.397608,2.996885 0.996908,3.314253 1.895993,3.314253 z"
       id="path946" />
    <path
       d="m 29.008379,31.114637 c -2.356048,-0.492908 -3.719027,-0.454406 -3.562952,0.703477 0.156075,1.157883 1.691484,1.088286 3.28984,-0.08966 m 0.113748,-0.579422 c -1.907146,-2.495495 -1.422572,-3.324118 -0.559366,-3.517449 0.863206,-0.193331 1.616491,1.424272 0.559366,3.517449 z"
       style="fill:none;stroke:#000000;stroke-width:0.529167;stroke-linecap:round;stop-color:#000000"
       id="path944" />
    <path
       id="path949"
       style="fill:none;stroke:#000000;stroke-width:0.529167;stroke-linecap:round;stop-color:#000000"
       d="m 38.724953,31.114637 c 2.356048,-0.492908 3.719027,-0.454406 3.562952,0.703477 -0.156075,1.157883 -1.691484,1.088286 -3.28984,-0.08966 m -0.113748,-0.579422 c 1.907146,-2.495495 1.422572,-3.324118 0.559366,-3.517449 -0.863206,-0.193331 -1.616491,1.424272 -0.559366,3.517449 z" />
    <ellipse
       ry="0.88489532"
       rx="3.9967139"
       cy="31.248325"
       cx="33.866665"
       id="path986"
       style="fill:#000000;stroke:none;stroke-width:0.529167;stroke-linecap:butt;stroke-miterlimit:4;stroke-dasharray:none;stop-color:#000000" />
  </g>
  <g
     style="display:inline;opacity:0.25"
     inkscape:label="Octagon"
     id="layer2"
     inkscape:groupmode="layer"
     sodipodi:insensitive="true">
    <path
       id="path919"
       style="font-variation-settings:normal;display:inline;opacity:1;vector-effect:none;fill:none;fill-opacity:1;stroke:#ff0080;stroke-width:0.249999;stroke-linecap:butt;stroke-linejoin:round;stroke-miterlimit:4;stroke-dasharray:none;stroke-dashoffset:0;stroke-opacity:1;marker:none;paint-order:normal;stop-color:#000000;stop-opacity:1"
       d="M 33.866665,9.9192931 A 11.973734,11.973734 0 0 0 21.89272,21.892723 11.973734,11.973734 0 0 0 9.9192906,33.866668 11.973734,11.973734 0 0 0 21.89272,45.840098 11.973734,11.973734 0 0 0 33.866665,57.814044 11.973734,11.973734 0 0 0 45.840095,45.840098 11.973734,11.973734 0 0 0 57.814041,33.866668 11.973734,11.973734 0 0 0 45.840095,21.892723 11.973734,11.973734 0 0 0 33.866665,9.9192931 Z" />
    <path
       d="M 45.840339,45.840339 33.866665,50.799997 21.892991,45.840339 16.933332,33.866665 21.892991,21.892991 33.866665,16.933332 45.840339,21.892991 50.799997,33.866665 Z"
       inkscape:randomized="0"
       inkscape:rounded="0"
       inkscape:flatsided="true"
       sodipodi:arg2="1.1780972"
       sodipodi:arg1="0.78539816"
       sodipodi:r2="15.64436"
       sodipodi:r1="16.933332"
       sodipodi:cy="33.866665"
       sodipodi:cx="33.866665"
       sodipodi:sides="8"
       id="path836"
       style="opacity:1;vector-effect:none;fill:none;fill-opacity:1;stroke:#ff0080;stroke-width:0.249999;stroke-linecap:butt;stroke-linejoin:round;stroke-miterlimit:4;stroke-dasharray:none;stroke-dashoffset:0;stroke-opacity:1;marker:none;paint-order:normal;stop-color:#000000"
       sodipodi:type="star" />
    <path
       style="fill:none;stroke:#ff0080;stroke-width:0.25;stroke-linejoin:round;stop-color:#000000"
       d="M 27.093333,19.738938 V 47.994392"
       id="path857"
       sodipodi:nodetypes="cc" />
    <path
       sodipodi:nodetypes="cc"
       id="path859"
       d="M 40.639997,19.738938 V 47.994392"
       style="fill:none;stroke:#ff0080;stroke-width:0.25;stroke-linejoin:round;stop-color:#000000" />
    <path
       style="fill:none;stroke:#ff0080;stroke-width:0.25;stroke-linejoin:round;stop-color:#000000"
       d="M 47.994392,27.093332 H 19.738938"
       id="path861"
       sodipodi:nodetypes="cc" />
    <path
       sodipodi:nodetypes="cc"
       id="path863"
       d="M 47.994392,40.639997 H 19.738938"
       style="fill:none;stroke:#ff0080;stroke-width:0.25;stroke-linejoin:round;stop-color:#000000" />
    <path
       id="rect838"
       style="font-variation-settings:normal;display:inline;opacity:1;vector-effect:none;fill:none;fill-opacity:1;stroke:#ff0080;stroke-width:0.249999;stroke-linecap:butt;stroke-linejoin:round;stroke-miterlimit:4;stroke-dasharray:none;stroke-dashoffset:0;stroke-opacity:1;marker:none;paint-order:normal;stop-color:#000000;stop-opacity:1"
       d="M 8.2166664,16.933333 H 59.516663 V 50.799998 H 8.2166664 Z" />
    <path
       d="M 15.190002,15.189999 H 52.54333 V 52.543335 H 15.190002 Z"
       style="font-variation-settings:normal;display:inline;opacity:1;vector-effect:none;fill:none;fill-opacity:1;stroke:#ff0080;stroke-width:0.249999;stroke-linecap:butt;stroke-linejoin:round;stroke-miterlimit:4;stroke-dasharray:none;stroke-dashoffset:0;stroke-opacity:1;marker:none;paint-order:normal;stop-color:#000000;stop-opacity:1"
       id="rect838-7" />
    <path
       id="rect838-3"
       style="font-variation-settings:normal;display:inline;opacity:1;vector-effect:none;fill:none;fill-opacity:1;stroke:#ff0080;stroke-width:0.249999;stroke-linecap:butt;stroke-linejoin:round;stroke-miterlimit:4;stroke-dasharray:none;stroke-dashoffset:0;stroke-opacity:1;marker:none;paint-order:normal;stop-color:#000000;stop-opacity:1"
       d="M 33.866669,9.9193234 57.814011,33.866666 33.866664,57.814013 9.9193223,33.86667 Z" />
  </g>
</svg>
