<?xml version="1.0" encoding="UTF-8" standalone="no"?>
<svg
        xmlns:dc="http://purl.org/dc/elements/1.1/"
        xmlns:cc="http://creativecommons.org/ns#"
        xmlns:rdf="http://www.w3.org/1999/02/22-rdf-syntax-ns#"
        xmlns="http://www.w3.org/2000/svg"
        xmlns:sodipodi="http://sodipodi.sourceforge.net/DTD/sodipodi-0.dtd"
        xmlns:inkscape="http://www.inkscape.org/namespaces/inkscape"
        sodipodi:docname="120309.svg"
        inkscape:version="1.0 (4035a4fb49, 2020-05-01)"
        id="svg8"
        version="1.1"
        viewBox="0 0 67.733332 67.733332"
        height="256"
        width="256">
  <style
     id="style850"></style>
  <title
     id="title856">MIL-STD-2525D Icon</title>
  <defs
     id="defs2">
    <rect
       id="rect869"
       height="29.704905"
       width="35.123671"
       y="34.568833"
       x="8.9346486" />
    <rect
       id="rect919"
       height="30.394632"
       width="47.985423"
       y="29.981363"
       x="23.463894" />
    <rect
       x="23.31878"
       y="3.2134565"
       width="40.416331"
       height="13.148852"
       id="rect839" />
    <rect
       x="23.718187"
       y="30.203709"
       width="30.846329"
       height="20.596289"
       id="rect1094" />
    <rect
       x="23.718187"
       y="30.203709"
       width="30.846329"
       height="20.596289"
       id="rect871" />
    <rect
       x="8.9346486"
       y="34.568833"
       width="35.123671"
       height="29.704905"
       id="rect877" />
    <rect
       x="23.463894"
       y="29.981363"
       width="47.985424"
       height="30.394632"
       id="rect919-3" />
    <rect
       x="23.463894"
       y="29.981363"
       width="47.985424"
       height="30.394632"
       id="rect875" />
  </defs>
  <sodipodi:namedview
     inkscape:snap-smooth-nodes="true"
     inkscape:snap-global="false"
     inkscape:guide-bbox="true"
     showguides="false"
     inkscape:pagecheckerboard="true"
     units="px"
     inkscape:window-maximized="0"
     inkscape:window-y="27"
     inkscape:window-x="1762"
     inkscape:window-height="1385"
     inkscape:window-width="1678"
     showgrid="false"
     inkscape:document-rotation="0"
     inkscape:current-layer="layer1"
     inkscape:document-units="px"
     inkscape:cy="161.11838"
     inkscape:cx="167.72316"
     inkscape:zoom="2.8284271"
     inkscape:pageshadow="2"
     inkscape:pageopacity="0"
     borderopacity="1.0"
     bordercolor="#666666"
     pagecolor="#ffffff"
     id="base"
     inkscape:object-paths="true"
     inkscape:snap-midpoints="true"
     inkscape:snap-object-midpoints="true"
     inkscape:snap-center="true">
    <sodipodi:guide
       id="guide861"
       orientation="1,0"
       position="33.866665,50.8" />
  </sodipodi:namedview>
  <metadata
     id="metadata5">
    <rdf:RDF>
      <cc:Work
         rdf:about="">
        <dc:format>image/svg+xml</dc:format>
        <dc:type
           rdf:resource="http://purl.org/dc/dcmitype/StillImage" />
        <dc:title>MIL-STD-2525D Icon</dc:title>
        <dc:creator>
          <cc:Agent>
            <dc:title>Nicholas W. Royer</dc:title>
          </cc:Agent>
        </dc:creator>
        <dc:rights>
          <cc:Agent>
            <dc:title>All rights reserved</dc:title>
          </cc:Agent>
        </dc:rights>
        <dc:description>L=128px</dc:description>
      </cc:Work>
    </rdf:RDF>
  </metadata>
  <g
     style="display:inline;opacity:1"
     id="layer1"
     inkscape:groupmode="layer"
     inkscape:label="Symbol">
    <path
       transform="scale(0.26458333)"
       d="M 107.09375 95.738281 A 6.2145563 23.893875 0 0 0 100.88477 119.63281 A 6.2145563 23.893875 0 0 0 102.73242 136.63086 L 102.69727 136.62695 C 90.901417 136.98196 85.357042 136.07006 84.433594 136.54297 C 83.510142 137.01589 83.569784 138.96916 85.408203 139.5957 C 87.246618 140.22224 95.162684 144.51105 93.785156 145.9375 C 92.407628 147.36395 81.790831 148.26486 79.849609 148.59375 C 77.908391 148.92264 76.412113 150.03005 77.855469 151.80273 C 79.298825 153.57541 89.752531 153.98665 92.023438 155.56055 C 94.294344 157.13446 93.619468 160.32727 96 160.76367 C 98.380528 161.20006 103.44148 158.33594 108.38477 158.33594 C 113.32807 158.33594 119.10738 168.26777 125.22266 168.29688 C 131.33794 168.32598 140.41891 162.06684 143.87695 162.63867 C 147.335 163.21051 152.95396 165.52592 155.71875 165.87891 C 158.48354 166.23191 162.59916 165.06567 163.04688 164.07812 C 163.49458 163.09059 163.54158 159.79455 159.59375 157.49805 C 155.64592 155.20154 147.28031 151.17918 147.9082 149.25195 C 148.53608 147.32472 153.51114 147.92042 155.07422 147.83203 C 156.63731 147.74363 156.09375 143.5957 156.09375 143.5957 L 155.4668 143.51367 L 171.21094 143.52539 C 174.64314 143.52792 177.42578 132.82904 177.42578 119.63281 C 177.42578 106.43659 174.64314 95.738281 171.21094 95.738281 L 107.09961 95.738281 A 6.2145563 23.893875 0 0 0 107.09375 95.738281 z "
       style="fill:#ffffff;stroke:none;stroke-width:3.99999;stop-color:#000000"
       id="ellipse1258" />
    <g
       style="font-style:normal;font-variant:normal;font-weight:bold;font-stretch:normal;font-size:10.3224px;line-height:1.25;font-family:'Liberation Sans';-inkscape-font-specification:'Liberation Sans Bold';font-variant-ligatures:normal;font-variant-position:normal;font-variant-caps:normal;font-variant-numeric:normal;font-variant-alternates:normal;font-variant-east-asian:normal;font-feature-settings:normal;font-variation-settings:normal;text-indent:0;text-align:start;text-decoration:none;text-decoration-line:none;text-decoration-style:solid;text-decoration-color:#000000;letter-spacing:0px;word-spacing:0px;text-transform:none;writing-mode:lr-tb;direction:ltr;text-orientation:mixed;dominant-baseline:auto;baseline-shift:baseline;text-anchor:start;white-space:pre;shape-inside:url(#rect877);shape-padding:0;shape-margin:0;inline-size:0;opacity:1;vector-effect:none;fill:#000000;fill-opacity:1;stroke:none;stroke-width:1;stroke-linecap:butt;stroke-linejoin:miter;stroke-miterlimit:4;stroke-dasharray:none;stroke-dashoffset:0;stroke-opacity:1;stop-color:#000000;stop-opacity:1"
       id="text875"
       transform="translate(23.18982,-1.6874122)"
       aria-label="X" />
    <ellipse
       transform="rotate(-90)"
       ry="1.644268"
       rx="6.3219209"
       cy="28.336849"
       cx="-31.652704"
       id="path1113"
       style="fill:none;stroke:#000000;stroke-width:1.05833;stop-color:#000000" />
    <path
       sodipodi:nodetypes="csccc"
       d="m 28.233208,37.96206 17.066424,0.01257 c 0.908104,6.69e-4 1.644269,-2.83042 1.644269,-6.321921 0,-3.491501 -0.736165,-6.321921 -1.644269,-6.321921 H 28.336854"
       style="fill:none;stroke:#000000;stroke-width:1.05833;stop-color:#000000"
       id="ellipse1115" />
    <g
       style="stroke-width:0.919975"
       transform="matrix(1.0888397,0,0,1.0851356,0.84094667,-5.9142025)"
       id="g1162">
      <g
         id="g1153"
         transform="matrix(0.49999964,0,0,0.49999964,-5.6974019,15.509662)"
         style="stroke-width:1.83995">
        <path
           id="rect898"
           style="display:inline;opacity:1;fill:none;stroke:#000000;stroke-width:0.973639;stroke-linecap:square;stroke-miterlimit:4;stroke-dasharray:none;stop-color:#000000"
           transform="rotate(-45)"
           d="M 21.512762,75.695976 H 35.918215 V 90.101429 H 21.512762 Z" />
        <path
           id="path900"
           d="m 68.736959,38.313322 20.372385,-3e-6"
           style="font-variation-settings:normal;display:inline;opacity:1;vector-effect:none;fill:none;fill-opacity:1;stroke:#000000;stroke-width:0.973639;stroke-linecap:butt;stroke-linejoin:miter;stroke-miterlimit:4;stroke-dasharray:none;stroke-dashoffset:0;stroke-opacity:1;stop-color:#000000;stop-opacity:1" />
        <path
           sodipodi:nodetypes="cccccc"
           id="path931"
           d="m 77.596044,29.454237 v 8.858843 h 2.652494 V 29.452514 L 78.922291,28.12792 Z"
           style="color:#000000;font-style:normal;font-variant:normal;font-weight:normal;font-stretch:normal;font-size:medium;line-height:normal;font-family:sans-serif;font-variant-ligatures:normal;font-variant-position:normal;font-variant-caps:normal;font-variant-numeric:normal;font-variant-alternates:normal;font-variant-east-asian:normal;font-feature-settings:normal;font-variation-settings:normal;text-indent:0;text-align:start;text-decoration:none;text-decoration-line:none;text-decoration-style:solid;text-decoration-color:#000000;letter-spacing:normal;word-spacing:normal;text-transform:none;writing-mode:lr-tb;direction:ltr;text-orientation:mixed;dominant-baseline:auto;baseline-shift:baseline;text-anchor:start;white-space:normal;shape-padding:0;shape-margin:0;inline-size:0;clip-rule:nonzero;display:inline;overflow:visible;visibility:visible;opacity:1;isolation:auto;mix-blend-mode:normal;color-interpolation:sRGB;color-interpolation-filters:linearRGB;solid-color:#000000;solid-opacity:1;vector-effect:none;fill:#000000;fill-opacity:1;fill-rule:nonzero;stroke:none;stroke-width:2.92093;stroke-linecap:butt;stroke-linejoin:miter;stroke-miterlimit:4;stroke-dasharray:none;stroke-dashoffset:0;stroke-opacity:1;color-rendering:auto;image-rendering:auto;shape-rendering:auto;text-rendering:auto;enable-background:accumulate;stop-color:#000000;stop-opacity:1" />
        <path
           d="m 75.82685,31.223358 -2.649904,2.649904 v 4.439818 h 2.649904 z m -4.418233,4.418232 -2.653356,2.653361 v 0.01813 h 2.653356 z"
           style="color:#000000;font-style:normal;font-variant:normal;font-weight:normal;font-stretch:normal;font-size:medium;line-height:normal;font-family:sans-serif;font-variant-ligatures:normal;font-variant-position:normal;font-variant-caps:normal;font-variant-numeric:normal;font-variant-alternates:normal;font-variant-east-asian:normal;font-feature-settings:normal;font-variation-settings:normal;text-indent:0;text-align:start;text-decoration:none;text-decoration-line:none;text-decoration-style:solid;text-decoration-color:#000000;letter-spacing:normal;word-spacing:normal;text-transform:none;writing-mode:lr-tb;direction:ltr;text-orientation:mixed;dominant-baseline:auto;baseline-shift:baseline;text-anchor:start;white-space:normal;shape-padding:0;shape-margin:0;inline-size:0;clip-rule:nonzero;display:inline;overflow:visible;visibility:visible;opacity:1;isolation:auto;mix-blend-mode:normal;color-interpolation:sRGB;color-interpolation-filters:linearRGB;solid-color:#000000;solid-opacity:1;vector-effect:none;fill:#000000;fill-opacity:1;fill-rule:nonzero;stroke:none;stroke-width:2.92093;stroke-linecap:butt;stroke-linejoin:miter;stroke-miterlimit:4;stroke-dasharray:none;stroke-dashoffset:0;stroke-opacity:1;color-rendering:auto;image-rendering:auto;shape-rendering:auto;text-rendering:auto;enable-background:accumulate;stop-color:#000000;stop-opacity:1"
           id="path929" />
        <path
           id="path937"
           style="color:#000000;font-style:normal;font-variant:normal;font-weight:normal;font-stretch:normal;font-size:medium;line-height:normal;font-family:sans-serif;font-variant-ligatures:normal;font-variant-position:normal;font-variant-caps:normal;font-variant-numeric:normal;font-variant-alternates:normal;font-variant-east-asian:normal;font-feature-settings:normal;font-variation-settings:normal;text-indent:0;text-align:start;text-decoration:none;text-decoration-line:none;text-decoration-style:solid;text-decoration-color:#000000;letter-spacing:normal;word-spacing:normal;text-transform:none;writing-mode:lr-tb;direction:ltr;text-orientation:mixed;dominant-baseline:auto;baseline-shift:baseline;text-anchor:start;white-space:normal;shape-padding:0;shape-margin:0;inline-size:0;clip-rule:nonzero;display:inline;overflow:visible;visibility:visible;opacity:1;isolation:auto;mix-blend-mode:normal;color-interpolation:sRGB;color-interpolation-filters:linearRGB;solid-color:#000000;solid-opacity:1;vector-effect:none;fill:#000000;fill-opacity:1;fill-rule:nonzero;stroke:none;stroke-width:2.92093;stroke-linecap:butt;stroke-linejoin:miter;stroke-miterlimit:4;stroke-dasharray:none;stroke-dashoffset:0;stroke-opacity:1;color-rendering:auto;image-rendering:auto;shape-rendering:auto;text-rendering:auto;enable-background:accumulate;stop-color:#000000;stop-opacity:1"
           d="m 82.028452,31.223358 2.649902,2.649902 v 4.43982 h -2.649902 z m 4.418231,4.418232 2.653356,2.653361 v 0.01813 h -2.653356 z" />
      </g>
    </g>
    <path
       id="path1256"
       d="m 27.171853,36.149391 c -3.120985,0.09393 -4.587656,-0.147725 -4.831985,-0.0226 -0.24433,0.125127 -0.228606,0.642115 0.257809,0.807887 0.486414,0.165772 2.580802,1.300498 2.216331,1.677913 -0.364471,0.377415 -3.173716,0.615887 -3.687331,0.702906 -0.513614,0.08702 -0.909254,0.380084 -0.527366,0.849106 0.381888,0.469021 3.14771,0.577548 3.748554,0.993976 0.600844,0.41643 0.422188,1.261467 1.052037,1.376931 0.629848,0.115462 1.96909,-0.642686 3.277002,-0.642686 1.307915,0 2.83718,2.627934 4.455181,2.635636 1.618001,0.0077 4.020431,-1.648523 4.935371,-1.497227 0.914942,0.1513 2.401625,0.764411 3.133143,0.857806 0.731517,0.0934 1.820367,-0.215429 1.938824,-0.476716 0.118454,-0.261284 0.13109,-1.133162 -0.91344,-1.740778 -1.04453,-0.607618 -3.258052,-1.672024 -3.091923,-2.181937 0.166127,-0.509915 1.482378,-0.352083 1.895943,-0.37547 0.413568,-0.02339 0.27005,-1.121219 0.27005,-1.121219"
       style="font-variation-settings:normal;opacity:1;vector-effect:none;fill:none;fill-opacity:1;stroke:#000000;stroke-width:0.52916666;stroke-linecap:butt;stroke-linejoin:miter;stroke-miterlimit:4;stroke-dasharray:none;stroke-dashoffset:0;stroke-opacity:1;stop-color:#000000;stop-opacity:1" />
  </g>
  <g
     style="opacity:0.25"
     inkscape:label="Octagon"
     id="layer2"
     inkscape:groupmode="layer"
     sodipodi:insensitive="true">
    <path
       id="path919"
       style="font-variation-settings:normal;display:inline;opacity:1;vector-effect:none;fill:none;fill-opacity:1;stroke:#ff0080;stroke-width:0.249999;stroke-linecap:butt;stroke-linejoin:round;stroke-miterlimit:4;stroke-dasharray:none;stroke-dashoffset:0;stroke-opacity:1;marker:none;paint-order:normal;stop-color:#000000;stop-opacity:1"
       d="M 33.866665,9.9192931 A 11.973734,11.973734 0 0 0 21.89272,21.892723 11.973734,11.973734 0 0 0 9.9192906,33.866668 11.973734,11.973734 0 0 0 21.89272,45.840098 11.973734,11.973734 0 0 0 33.866665,57.814044 11.973734,11.973734 0 0 0 45.840095,45.840098 11.973734,11.973734 0 0 0 57.814041,33.866668 11.973734,11.973734 0 0 0 45.840095,21.892723 11.973734,11.973734 0 0 0 33.866665,9.9192931 Z" />
    <path
       d="M 45.840339,45.840339 33.866665,50.799997 21.892991,45.840339 16.933332,33.866665 21.892991,21.892991 33.866665,16.933332 45.840339,21.892991 50.799997,33.866665 Z"
       inkscape:randomized="0"
       inkscape:rounded="0"
       inkscape:flatsided="true"
       sodipodi:arg2="1.1780972"
       sodipodi:arg1="0.78539816"
       sodipodi:r2="15.64436"
       sodipodi:r1="16.933332"
       sodipodi:cy="33.866665"
       sodipodi:cx="33.866665"
       sodipodi:sides="8"
       id="path836"
       style="opacity:1;vector-effect:none;fill:none;fill-opacity:1;stroke:#ff0080;stroke-width:0.249999;stroke-linecap:butt;stroke-linejoin:round;stroke-miterlimit:4;stroke-dasharray:none;stroke-dashoffset:0;stroke-opacity:1;marker:none;paint-order:normal;stop-color:#000000"
       sodipodi:type="star" />
    <path
       style="fill:none;stroke:#ff0080;stroke-width:0.25;stroke-linejoin:round;stop-color:#000000"
       d="M 27.093333,19.738938 V 47.994392"
       id="path857"
       sodipodi:nodetypes="cc" />
    <path
       sodipodi:nodetypes="cc"
       id="path859"
       d="M 40.639997,19.738938 V 47.994392"
       style="fill:none;stroke:#ff0080;stroke-width:0.25;stroke-linejoin:round;stop-color:#000000" />
    <path
       style="fill:none;stroke:#ff0080;stroke-width:0.25;stroke-linejoin:round;stop-color:#000000"
       d="M 47.994392,27.093332 H 19.738938"
       id="path861"
       sodipodi:nodetypes="cc" />
    <path
       sodipodi:nodetypes="cc"
       id="path863"
       d="M 47.994392,40.639997 H 19.738938"
       style="fill:none;stroke:#ff0080;stroke-width:0.25;stroke-linejoin:round;stop-color:#000000" />
    <path
       id="rect838"
       style="font-variation-settings:normal;display:inline;opacity:1;vector-effect:none;fill:none;fill-opacity:1;stroke:#ff0080;stroke-width:0.249999;stroke-linecap:butt;stroke-linejoin:round;stroke-miterlimit:4;stroke-dasharray:none;stroke-dashoffset:0;stroke-opacity:1;marker:none;paint-order:normal;stop-color:#000000;stop-opacity:1"
       d="M 8.2166664,16.933333 H 59.516663 V 50.799998 H 8.2166664 Z" />
    <path
       d="M 15.190002,15.189999 H 52.54333 V 52.543335 H 15.190002 Z"
       style="font-variation-settings:normal;display:inline;opacity:1;vector-effect:none;fill:none;fill-opacity:1;stroke:#ff0080;stroke-width:0.249999;stroke-linecap:butt;stroke-linejoin:round;stroke-miterlimit:4;stroke-dasharray:none;stroke-dashoffset:0;stroke-opacity:1;marker:none;paint-order:normal;stop-color:#000000;stop-opacity:1"
       id="rect838-7" />
    <path
       id="rect838-3"
       style="font-variation-settings:normal;display:inline;opacity:1;vector-effect:none;fill:none;fill-opacity:1;stroke:#ff0080;stroke-width:0.249999;stroke-linecap:butt;stroke-linejoin:round;stroke-miterlimit:4;stroke-dasharray:none;stroke-dashoffset:0;stroke-opacity:1;marker:none;paint-order:normal;stop-color:#000000;stop-opacity:1"
       d="M 33.866669,9.9193234 57.814011,33.866666 33.866664,57.814013 9.9193223,33.86667 Z" />
  </g>
</svg>
