<?xml version="1.0" encoding="UTF-8" standalone="no"?>
<svg
        xmlns:dc="http://purl.org/dc/elements/1.1/"
        xmlns:cc="http://creativecommons.org/ns#"
        xmlns:rdf="http://www.w3.org/1999/02/22-rdf-syntax-ns#"
        xmlns="http://www.w3.org/2000/svg"
        xmlns:sodipodi="http://sodipodi.sourceforge.net/DTD/sodipodi-0.dtd"
        xmlns:inkscape="http://www.inkscape.org/namespaces/inkscape"
        sodipodi:docname="121308.svg"
        inkscape:version="1.0 (4035a4fb49, 2020-05-01)"
        id="svg8"
        version="1.1"
        viewBox="0 0 67.733332 67.733332"
        height="256"
        width="256">
  <style
     id="style846"></style>
  <title
     id="title856">MIL-STD-2525D Icon</title>
  <defs
     id="defs2">
    <rect
       id="rect919"
       height="23.259895"
       width="27.104025"
       y="29.981363"
       x="23.463894" />
    <rect
       x="23.31878"
       y="3.2134565"
       width="40.416331"
       height="13.148852"
       id="rect839" />
    <rect
       x="23.463894"
       y="29.981363"
       width="47.985424"
       height="30.394632"
       id="rect919-3" />
    <rect
       x="23.463894"
       y="29.981363"
       width="47.985424"
       height="30.394632"
       id="rect860" />
  </defs>
  <sodipodi:namedview
     inkscape:guide-bbox="true"
     showguides="true"
     inkscape:pagecheckerboard="true"
     units="px"
     inkscape:window-maximized="0"
     inkscape:window-y="27"
     inkscape:window-x="1762"
     inkscape:window-height="1385"
     inkscape:window-width="1678"
     showgrid="false"
     inkscape:document-rotation="0"
     inkscape:current-layer="layer1"
     inkscape:document-units="px"
     inkscape:cy="165.38482"
     inkscape:cx="149.53588"
     inkscape:zoom="2.8284271"
     inkscape:pageshadow="2"
     inkscape:pageopacity="0"
     borderopacity="1.0"
     bordercolor="#666666"
     pagecolor="#ffffff"
     id="base"
     inkscape:object-paths="true"
     inkscape:snap-midpoints="true"
     inkscape:snap-object-midpoints="true"
     inkscape:snap-center="true"
     inkscape:snap-global="true"
     inkscape:snap-smooth-nodes="true">
    <sodipodi:guide
       id="guide861"
       orientation="1,0"
       position="33.866665,50.8" />
  </sodipodi:namedview>
  <metadata
     id="metadata5">
    <rdf:RDF>
      <cc:Work
         rdf:about="">
        <dc:format>image/svg+xml</dc:format>
        <dc:type
           rdf:resource="http://purl.org/dc/dcmitype/StillImage" />
        <dc:title>MIL-STD-2525D Icon</dc:title>
        <dc:creator>
          <cc:Agent>
            <dc:title>Nicholas W. Royer</dc:title>
          </cc:Agent>
        </dc:creator>
        <dc:rights>
          <cc:Agent>
            <dc:title>All rights reserved</dc:title>
          </cc:Agent>
        </dc:rights>
        <dc:description>L=128px</dc:description>
      </cc:Work>
    </rdf:RDF>
  </metadata>
  <g
     style="display:inline;opacity:1"
     id="layer1"
     inkscape:groupmode="layer"
     inkscape:label="Symbol">
    <path
       transform="scale(0.26458333)"
       d="M 101.125 85.792969 A 6.694573 6.694573 0 0 0 94.503906 92.488281 A 6.694573 6.694573 0 0 0 101.19727 99.181641 A 6.694573 6.694573 0 0 0 107.89258 92.488281 A 6.694573 6.694573 0 0 0 101.19727 85.792969 A 6.694573 6.694573 0 0 0 101.125 85.792969 z M 87.216797 101.8125 C 86.046852 101.8125 83.035156 104.20352 83.035156 108.64648 L 83.035156 134.53125 L 87.820312 134.53125 L 87.820312 113.4043 L 91.914062 113.4043 L 91.914062 170.25391 L 99.089844 170.25391 L 99.089844 136.54297 L 103.30469 136.54297 L 103.30469 170.25391 L 110.48047 170.25391 L 110.48047 113.4043 L 114.57617 113.4043 L 114.57617 134.53125 L 119.35938 134.53125 L 119.35938 108.64648 C 119.35937 104.20352 116.34963 101.8125 115.17969 101.8125 L 105.38672 101.8125 L 97.007812 101.8125 L 87.216797 101.8125 z "
       style="fill:#000000;stroke:none;stroke-width:3.99999;stop-color:#000000"
       id="path997" />
    <path
       transform="scale(0.26458333)"
       d="M 149.88281 85.792969 C 146.21394 85.833221 143.26109 88.819188 143.26172 92.488281 C 143.26239 96.184648 146.25871 99.180975 149.95508 99.181641 C 153.6522 99.182045 156.64972 96.185408 156.65039 92.488281 C 156.6508 88.790395 153.65296 85.792564 149.95508 85.792969 C 149.93089 85.79284 149.90689 85.79284 149.88281 85.792969 z M 139.86719 101.8125 C 138.30727 101.8125 137.55906 102.44871 136.36328 105.33398 C 135.16749 108.21926 125.73047 128.29688 125.73047 128.29688 C 125.73047 128.29688 124.19541 131.31475 126.63281 132.8418 C 129.07021 134.36885 130.77165 131.39208 132.24219 128.58984 C 133.71274 125.7876 139.25586 113.90039 139.25586 113.90039 C 139.25586 113.90039 139.58129 113.4043 140.67188 113.4043 L 131.86523 144.57617 L 140.67188 144.57617 L 140.67188 170.25391 L 147.84766 170.25391 L 147.84766 144.57617 L 152.0625 144.57617 L 152.0625 170.25391 L 159.23828 170.25391 L 159.23828 144.57617 L 168.04492 144.57617 L 159.23828 113.4043 C 160.32887 113.4043 160.6543 113.90039 160.6543 113.90039 C 160.6543 113.90039 166.19742 125.7876 167.66797 128.58984 C 169.13851 131.39208 170.83994 134.36885 173.27734 132.8418 C 175.71474 131.31475 174.17969 128.29688 174.17969 128.29688 C 174.17969 128.29688 164.74266 108.21926 163.54688 105.33398 C 162.35109 102.44871 161.60289 101.8125 160.04297 101.8125 L 154.14453 101.8125 L 145.76562 101.8125 L 139.86719 101.8125 z "
       style="fill:#000000;stroke:none;stroke-width:3.99999;stop-color:#000000"
       id="path1007" />
  </g>
  <g
     style="opacity:0.25"
     inkscape:label="Octagon"
     id="layer2"
     inkscape:groupmode="layer"
     sodipodi:insensitive="true">
    <path
       id="path919"
       style="font-variation-settings:normal;display:inline;opacity:1;vector-effect:none;fill:none;fill-opacity:1;stroke:#ff0080;stroke-width:0.249999;stroke-linecap:butt;stroke-linejoin:round;stroke-miterlimit:4;stroke-dasharray:none;stroke-dashoffset:0;stroke-opacity:1;marker:none;paint-order:normal;stop-color:#000000;stop-opacity:1"
       d="M 33.866665,9.9192931 A 11.973734,11.973734 0 0 0 21.89272,21.892723 11.973734,11.973734 0 0 0 9.9192906,33.866668 11.973734,11.973734 0 0 0 21.89272,45.840098 11.973734,11.973734 0 0 0 33.866665,57.814044 11.973734,11.973734 0 0 0 45.840095,45.840098 11.973734,11.973734 0 0 0 57.814041,33.866668 11.973734,11.973734 0 0 0 45.840095,21.892723 11.973734,11.973734 0 0 0 33.866665,9.9192931 Z" />
    <path
       d="M 45.840339,45.840339 33.866665,50.799997 21.892991,45.840339 16.933332,33.866665 21.892991,21.892991 33.866665,16.933332 45.840339,21.892991 50.799997,33.866665 Z"
       inkscape:randomized="0"
       inkscape:rounded="0"
       inkscape:flatsided="true"
       sodipodi:arg2="1.1780972"
       sodipodi:arg1="0.78539816"
       sodipodi:r2="15.64436"
       sodipodi:r1="16.933332"
       sodipodi:cy="33.866665"
       sodipodi:cx="33.866665"
       sodipodi:sides="8"
       id="path836"
       style="opacity:1;vector-effect:none;fill:none;fill-opacity:1;stroke:#ff0080;stroke-width:0.249999;stroke-linecap:butt;stroke-linejoin:round;stroke-miterlimit:4;stroke-dasharray:none;stroke-dashoffset:0;stroke-opacity:1;marker:none;paint-order:normal;stop-color:#000000"
       sodipodi:type="star" />
    <path
       style="fill:none;stroke:#ff0080;stroke-width:0.25;stroke-linejoin:round;stop-color:#000000"
       d="M 27.093333,19.738938 V 47.994392"
       id="path857"
       sodipodi:nodetypes="cc" />
    <path
       sodipodi:nodetypes="cc"
       id="path859"
       d="M 40.639997,19.738938 V 47.994392"
       style="fill:none;stroke:#ff0080;stroke-width:0.25;stroke-linejoin:round;stop-color:#000000" />
    <path
       style="fill:none;stroke:#ff0080;stroke-width:0.25;stroke-linejoin:round;stop-color:#000000"
       d="M 47.994392,27.093332 H 19.738938"
       id="path861"
       sodipodi:nodetypes="cc" />
    <path
       sodipodi:nodetypes="cc"
       id="path863"
       d="M 47.994392,40.639997 H 19.738938"
       style="fill:none;stroke:#ff0080;stroke-width:0.25;stroke-linejoin:round;stop-color:#000000" />
    <path
       id="rect838"
       style="font-variation-settings:normal;display:inline;opacity:1;vector-effect:none;fill:none;fill-opacity:1;stroke:#ff0080;stroke-width:0.249999;stroke-linecap:butt;stroke-linejoin:round;stroke-miterlimit:4;stroke-dasharray:none;stroke-dashoffset:0;stroke-opacity:1;marker:none;paint-order:normal;stop-color:#000000;stop-opacity:1"
       d="M 8.2166664,16.933333 H 59.516663 V 50.799998 H 8.2166664 Z" />
    <path
       d="M 15.190002,15.189999 H 52.54333 V 52.543335 H 15.190002 Z"
       style="font-variation-settings:normal;display:inline;opacity:1;vector-effect:none;fill:none;fill-opacity:1;stroke:#ff0080;stroke-width:0.249999;stroke-linecap:butt;stroke-linejoin:round;stroke-miterlimit:4;stroke-dasharray:none;stroke-dashoffset:0;stroke-opacity:1;marker:none;paint-order:normal;stop-color:#000000;stop-opacity:1"
       id="rect838-7" />
    <path
       id="rect838-3"
       style="font-variation-settings:normal;display:inline;opacity:1;vector-effect:none;fill:none;fill-opacity:1;stroke:#ff0080;stroke-width:0.249999;stroke-linecap:butt;stroke-linejoin:round;stroke-miterlimit:4;stroke-dasharray:none;stroke-dashoffset:0;stroke-opacity:1;marker:none;paint-order:normal;stop-color:#000000;stop-opacity:1"
       d="M 33.866669,9.9193234 57.814011,33.866666 33.866664,57.814013 9.9193223,33.86667 Z" />
  </g>
</svg>
