<?xml version="1.0" encoding="UTF-8" standalone="no"?>
<svg
        xmlns:dc="http://purl.org/dc/elements/1.1/"
        xmlns:cc="http://creativecommons.org/ns#"
        xmlns:rdf="http://www.w3.org/1999/02/22-rdf-syntax-ns#"
        xmlns="http://www.w3.org/2000/svg"
        xmlns:sodipodi="http://sodipodi.sourceforge.net/DTD/sodipodi-0.dtd"
        xmlns:inkscape="http://www.inkscape.org/namespaces/inkscape"
        sodipodi:docname="121403.svg"
        inkscape:version="1.0 (4035a4fb49, 2020-05-01)"
        id="svg8"
        version="1.1"
        viewBox="0 0 67.733332 67.733332"
        height="256"
        width="256">
  <style
     id="style847"></style>
  <title
     id="title856">MIL-STD-2525D Icon</title>
  <defs
     id="defs2">
    <rect
       id="rect919"
       height="36.002764"
       width="46.479212"
       y="29.981363"
       x="23.463894" />
    <rect
       x="23.31878"
       y="3.2134565"
       width="40.416331"
       height="13.148852"
       id="rect839" />
  </defs>
  <sodipodi:namedview
     inkscape:snap-global="true"
     inkscape:snap-intersection-paths="true"
     inkscape:guide-bbox="true"
     showguides="true"
     inkscape:pagecheckerboard="true"
     units="px"
     inkscape:window-maximized="0"
     inkscape:window-y="27"
     inkscape:window-x="1762"
     inkscape:window-height="1385"
     inkscape:window-width="1678"
     showgrid="false"
     inkscape:document-rotation="0"
     inkscape:current-layer="layer1"
     inkscape:document-units="px"
     inkscape:cy="197.65109"
     inkscape:cx="171.65296"
     inkscape:zoom="2.8284271"
     inkscape:pageshadow="2"
     inkscape:pageopacity="0"
     borderopacity="1.0"
     bordercolor="#666666"
     pagecolor="#ffffff"
     id="base"
     inkscape:object-paths="true"
     inkscape:snap-midpoints="true"
     inkscape:snap-object-midpoints="true"
     inkscape:snap-center="true">
    <sodipodi:guide
       id="guide861"
       orientation="1,0"
       position="33.866665,50.8" />
  </sodipodi:namedview>
  <metadata
     id="metadata5">
    <rdf:RDF>
      <cc:Work
         rdf:about="">
        <dc:format>image/svg+xml</dc:format>
        <dc:type
           rdf:resource="http://purl.org/dc/dcmitype/StillImage" />
        <dc:title>MIL-STD-2525D Icon</dc:title>
        <dc:creator>
          <cc:Agent>
            <dc:title>Nicholas W. Royer</dc:title>
          </cc:Agent>
        </dc:creator>
        <dc:rights>
          <cc:Agent>
            <dc:title>All rights reserved</dc:title>
          </cc:Agent>
        </dc:rights>
        <dc:description>L=128px</dc:description>
      </cc:Work>
    </rdf:RDF>
  </metadata>
  <g
     style="display:inline;opacity:1"
     id="layer1"
     inkscape:groupmode="layer"
     inkscape:label="Symbol">
    <path
       sodipodi:nodetypes="cszsc"
       style="fill:#ff8000;stroke:none;stroke-width:0.529167;stop-color:#000000"
       d="m 27.97583,38.325853 c 1.387258,0 2.621679,-1.045464 2.621679,-1.515615 0,-0.470154 0.07705,-0.630629 0.323739,-0.630629 0.246689,0 0.323739,0.160475 0.323739,0.630629 0,0.470151 1.234421,1.515615 2.621679,1.515615"
       id="path1095" />
    <path
       sodipodi:nodetypes="ssscccccsssssssszssssss"
       transform="scale(0.26458333)"
       d="m 94.603516,136.74219 c -0.932368,0 -1.22461,0.60585 -1.22461,2.38281 0,1.77695 -4.665023,5.72852 -9.908203,5.72852 -1.343936,0 -2.650418,-0.25974 -3.849609,-0.67579 v 16.39258 H 128 176.37891 v -16.39258 c -1.19919,0.41605 -2.50568,0.67579 -3.84961,0.67579 -5.24318,0 -9.90821,-3.95157 -9.90821,-5.72852 0,-1.77696 -0.29224,-2.38281 -1.22461,-2.38281 -0.93236,0 -1.22265,0.60585 -1.22265,2.38281 0,1.77695 -4.66698,5.72852 -9.91016,5.72852 -5.24318,0 -9.9082,-3.95157 -9.9082,-5.72852 0,-1.77696 -0.29029,-2.38281 -1.22266,-2.38281 -0.93237,0 -1.22461,0.60585 -1.22461,2.38281 0,1.77695 -4.66502,5.72852 -9.9082,5.72852 -5.24318,0 -9.9082,-3.95157 -9.9082,-5.72852 0,-1.77696 -0.29224,-2.38281 -1.22461,-2.38281 -0.93237,0 -1.22266,0.60585 -1.22266,2.38281 0,1.77695 -4.66502,5.72852 -9.9082,5.72852 -5.24318,0 -9.910158,-3.95157 -9.910158,-5.72852 0,-1.77696 -0.290288,-2.38281 -1.222656,-2.38281 z"
       style="fill:#000000;stroke:none;stroke-width:2;stop-color:#000000"
       id="path1103" />
    <path
       transform="scale(0.26458333)"
       d="M 104.92773 95.050781 L 104.92773 96.691406 L 79.279297 96.691406 L 79.279297 114.75977 L 104.92773 114.75977 L 104.92773 116.40039 L 108.74414 116.40039 L 108.74414 95.050781 L 104.92773 95.050781 z "
       style="fill:#000000;stroke:none;stroke-width:2;stop-color:#000000"
       id="rect1108" />
    <path
       sodipodi:nodetypes="csssssc"
       id="path1115"
       d="m 30.310851,27.093333 c 0,0 5.683846,-0.03439 6.858323,0.35601 1.174475,0.390395 2.771181,1.18588 3.707602,4.255766 0.936421,3.069889 -0.177089,3.488297 -0.741448,3.488297 -0.564359,0 -1.525084,-0.02881 -1.706485,-2.022326 -0.181401,-1.993513 -0.08714,-3.715416 -1.383046,-4.472561 -1.295905,-0.757145 -3.562322,-1.559643 -6.734946,-1.605186 z"
       style="fill:#000000;stroke:none;stroke-width:0.529167;stop-color:#000000" />
  </g>
  <g
     style="opacity:0.25"
     inkscape:label="Octagon"
     id="layer2"
     inkscape:groupmode="layer"
     sodipodi:insensitive="true">
    <path
       id="path919"
       style="font-variation-settings:normal;display:inline;opacity:1;vector-effect:none;fill:none;fill-opacity:1;stroke:#ff0080;stroke-width:0.249999;stroke-linecap:butt;stroke-linejoin:round;stroke-miterlimit:4;stroke-dasharray:none;stroke-dashoffset:0;stroke-opacity:1;marker:none;paint-order:normal;stop-color:#000000;stop-opacity:1"
       d="M 33.866665,9.9192931 A 11.973734,11.973734 0 0 0 21.89272,21.892723 11.973734,11.973734 0 0 0 9.9192906,33.866668 11.973734,11.973734 0 0 0 21.89272,45.840098 11.973734,11.973734 0 0 0 33.866665,57.814044 11.973734,11.973734 0 0 0 45.840095,45.840098 11.973734,11.973734 0 0 0 57.814041,33.866668 11.973734,11.973734 0 0 0 45.840095,21.892723 11.973734,11.973734 0 0 0 33.866665,9.9192931 Z" />
    <path
       d="M 45.840339,45.840339 33.866665,50.799997 21.892991,45.840339 16.933332,33.866665 21.892991,21.892991 33.866665,16.933332 45.840339,21.892991 50.799997,33.866665 Z"
       inkscape:randomized="0"
       inkscape:rounded="0"
       inkscape:flatsided="true"
       sodipodi:arg2="1.1780972"
       sodipodi:arg1="0.78539816"
       sodipodi:r2="15.64436"
       sodipodi:r1="16.933332"
       sodipodi:cy="33.866665"
       sodipodi:cx="33.866665"
       sodipodi:sides="8"
       id="path836"
       style="opacity:1;vector-effect:none;fill:none;fill-opacity:1;stroke:#ff0080;stroke-width:0.249999;stroke-linecap:butt;stroke-linejoin:round;stroke-miterlimit:4;stroke-dasharray:none;stroke-dashoffset:0;stroke-opacity:1;marker:none;paint-order:normal;stop-color:#000000"
       sodipodi:type="star" />
    <path
       style="fill:none;stroke:#ff0080;stroke-width:0.25;stroke-linejoin:round;stop-color:#000000"
       d="M 27.093333,19.738938 V 47.994392"
       id="path857"
       sodipodi:nodetypes="cc" />
    <path
       sodipodi:nodetypes="cc"
       id="path859"
       d="M 40.639997,19.738938 V 47.994392"
       style="fill:none;stroke:#ff0080;stroke-width:0.25;stroke-linejoin:round;stop-color:#000000" />
    <path
       style="fill:none;stroke:#ff0080;stroke-width:0.25;stroke-linejoin:round;stop-color:#000000"
       d="M 47.994392,27.093332 H 19.738938"
       id="path861"
       sodipodi:nodetypes="cc" />
    <path
       sodipodi:nodetypes="cc"
       id="path863"
       d="M 47.994392,40.639997 H 19.738938"
       style="fill:none;stroke:#ff0080;stroke-width:0.25;stroke-linejoin:round;stop-color:#000000" />
    <path
       id="rect838"
       style="font-variation-settings:normal;display:inline;opacity:1;vector-effect:none;fill:none;fill-opacity:1;stroke:#ff0080;stroke-width:0.249999;stroke-linecap:butt;stroke-linejoin:round;stroke-miterlimit:4;stroke-dasharray:none;stroke-dashoffset:0;stroke-opacity:1;marker:none;paint-order:normal;stop-color:#000000;stop-opacity:1"
       d="M 8.2166664,16.933333 H 59.516663 V 50.799998 H 8.2166664 Z" />
    <path
       d="M 15.190002,15.189999 H 52.54333 V 52.543335 H 15.190002 Z"
       style="font-variation-settings:normal;display:inline;opacity:1;vector-effect:none;fill:none;fill-opacity:1;stroke:#ff0080;stroke-width:0.249999;stroke-linecap:butt;stroke-linejoin:round;stroke-miterlimit:4;stroke-dasharray:none;stroke-dashoffset:0;stroke-opacity:1;marker:none;paint-order:normal;stop-color:#000000;stop-opacity:1"
       id="rect838-7" />
    <path
       id="rect838-3"
       style="font-variation-settings:normal;display:inline;opacity:1;vector-effect:none;fill:none;fill-opacity:1;stroke:#ff0080;stroke-width:0.249999;stroke-linecap:butt;stroke-linejoin:round;stroke-miterlimit:4;stroke-dasharray:none;stroke-dashoffset:0;stroke-opacity:1;marker:none;paint-order:normal;stop-color:#000000;stop-opacity:1"
       d="M 33.866669,9.9193234 57.814011,33.866666 33.866664,57.814013 9.9193223,33.86667 Z" />
  </g>
</svg>
