<?xml version="1.0" encoding="UTF-8" standalone="no"?>
<svg
        xmlns:dc="http://purl.org/dc/elements/1.1/"
        xmlns:cc="http://creativecommons.org/ns#"
        xmlns:rdf="http://www.w3.org/1999/02/22-rdf-syntax-ns#"
        xmlns="http://www.w3.org/2000/svg"
        xmlns:sodipodi="http://sodipodi.sourceforge.net/DTD/sodipodi-0.dtd"
        xmlns:inkscape="http://www.inkscape.org/namespaces/inkscape"
        sodipodi:docname="121409.svg"
        inkscape:version="1.0 (4035a4fb49, 2020-05-01)"
        id="svg8"
        version="1.1"
        viewBox="0 0 67.733332 67.733332"
        height="256"
        width="256">
  <style
     id="style847"></style>
  <title
     id="title856">MIL-STD-2525D Icon</title>
  <defs
     id="defs2">
    <rect
       id="rect919"
       height="36.002764"
       width="46.479212"
       y="29.981363"
       x="23.463894" />
    <rect
       x="23.31878"
       y="3.2134565"
       width="40.416331"
       height="13.148852"
       id="rect839" />
  </defs>
  <sodipodi:namedview
     inkscape:snap-global="true"
     inkscape:snap-intersection-paths="true"
     inkscape:guide-bbox="true"
     showguides="true"
     inkscape:pagecheckerboard="true"
     units="px"
     inkscape:window-maximized="0"
     inkscape:window-y="27"
     inkscape:window-x="1762"
     inkscape:window-height="1385"
     inkscape:window-width="1678"
     showgrid="false"
     inkscape:document-rotation="0"
     inkscape:current-layer="layer1"
     inkscape:document-units="px"
     inkscape:cy="146.99543"
     inkscape:cx="200.61413"
     inkscape:zoom="2.8284271"
     inkscape:pageshadow="2"
     inkscape:pageopacity="0"
     borderopacity="1.0"
     bordercolor="#666666"
     pagecolor="#ffffff"
     id="base"
     inkscape:object-paths="true"
     inkscape:snap-midpoints="true"
     inkscape:snap-object-midpoints="true"
     inkscape:snap-center="true">
    <sodipodi:guide
       id="guide861"
       orientation="1,0"
       position="33.866665,50.8" />
  </sodipodi:namedview>
  <metadata
     id="metadata5">
    <rdf:RDF>
      <cc:Work
         rdf:about="">
        <dc:format>image/svg+xml</dc:format>
        <dc:type
           rdf:resource="http://purl.org/dc/dcmitype/StillImage" />
        <dc:title>MIL-STD-2525D Icon</dc:title>
        <dc:creator>
          <cc:Agent>
            <dc:title>Nicholas W. Royer</dc:title>
          </cc:Agent>
        </dc:creator>
        <dc:rights>
          <cc:Agent>
            <dc:title>All rights reserved</dc:title>
          </cc:Agent>
        </dc:rights>
        <dc:description>L=128px</dc:description>
      </cc:Work>
    </rdf:RDF>
  </metadata>
  <g
     style="display:inline;opacity:1"
     id="layer1"
     inkscape:groupmode="layer"
     inkscape:label="Symbol">
    <path
       transform="scale(0.26458333)"
       d="M 79.042969 102.23633 L 79.042969 153.76562 L 122.44922 153.76562 L 122.44922 138.91211 L 133.55273 138.91211 L 133.55273 153.76562 L 176.95898 153.76562 L 176.95898 102.23633 L 133.55273 102.23633 L 133.55273 117.08789 L 122.44922 117.08789 L 122.44922 102.23633 L 79.042969 102.23633 z "
       style="fill:#ffffff;stroke:none;stroke-width:3.99999;stop-color:#000000"
       id="rect1604" />
    <path
       d="M 20.913227,27.049795 V 40.683586 H 32.397798 V 27.049795 Z m 8.703861,2.009179 a 0.26460997,0.26460997 0 0 1 0.223758,0.12454 c 0.174858,0.278595 0.356545,0.538099 0.572058,0.71882 0.215519,0.180718 0.45424,0.290935 0.802537,0.290935 v 0.529167 c -0.469778,0 -0.852069,-0.170333 -1.142566,-0.413927 -0.194918,-0.163447 -0.318783,-0.369427 -0.456819,-0.566373 -0.138038,0.196946 -0.261906,0.402926 -0.456822,0.566373 -0.290493,0.243594 -0.672785,0.413927 -1.142566,0.413927 -0.469778,0 -0.852066,-0.170333 -1.142566,-0.413927 -0.194916,-0.163447 -0.319296,-0.369427 -0.457335,-0.566373 -0.138205,0.197292 -0.26364,0.402651 -0.458887,0.566373 -0.290496,0.243594 -0.672788,0.413927 -1.142566,0.413927 -0.469781,0 -0.852069,-0.170333 -1.142565,-0.413927 -0.194916,-0.163447 -0.318782,-0.369427 -0.45682,-0.566373 -0.138038,0.196946 -0.262421,0.402926 -0.457336,0.566373 -0.290498,0.243594 -0.672789,0.413927 -1.142566,0.413927 v -0.529167 c 0.348297,0 0.587019,-0.110217 0.802535,-0.290935 0.215517,-0.180721 0.397717,-0.440225 0.572574,-0.71882 a 0.26460997,0.26460997 0 0 1 0.232544,-0.122989 0.26460997,0.26460997 0 0 1 0.216525,0.122989 c 0.174858,0.278595 0.357059,0.538099 0.572574,0.71882 0.215517,0.180718 0.454235,0.290935 0.802535,0.290935 0.348295,0 0.587019,-0.110217 0.802536,-0.290935 0.215515,-0.180721 0.39978,-0.440225 0.574641,-0.71882 a 0.26460997,0.26460997 0 0 1 0.447003,0 c 0.174857,0.278595 0.358608,0.538099 0.574124,0.71882 0.215517,0.180718 0.454756,0.290935 0.80305,0.290935 0.348301,0 0.587021,-0.110217 0.802537,-0.290935 0.215517,-0.180721 0.397198,-0.440225 0.572058,-0.71882 a 0.26460997,0.26460997 0 0 1 0.225825,-0.12454 z m -6.415628,4.210595 a 0.26460979,0.26460979 0 0 1 0.02222,0 0.26460979,0.26460979 0 0 1 0.216525,0.125056 c 0.174858,0.278601 0.357059,0.538101 0.572574,0.71882 0.215517,0.180721 0.454235,0.290938 0.802535,0.290938 0.348295,0 0.587019,-0.110217 0.802536,-0.290938 0.215515,-0.180719 0.39978,-0.440219 0.574641,-0.71882 a 0.26460979,0.26460979 0 0 1 0.447003,0 c 0.174857,0.278601 0.358608,0.538101 0.574124,0.71882 0.215517,0.180721 0.454756,0.290938 0.80305,0.290938 0.348301,0 0.587021,-0.110217 0.802537,-0.290938 0.215517,-0.180719 0.397198,-0.440219 0.572058,-0.71882 a 0.26460979,0.26460979 0 0 1 0.449583,0 c 0.174858,0.278601 0.356545,0.538101 0.572058,0.71882 0.215519,0.180721 0.45424,0.290938 0.802537,0.290938 v 0.529167 c -0.469778,0 -0.852069,-0.1724 -1.142566,-0.415994 -0.194783,-0.163338 -0.318849,-0.367506 -0.456819,-0.564309 -0.137972,0.196803 -0.262038,0.400971 -0.456822,0.564309 -0.290493,0.243594 -0.672785,0.415994 -1.142566,0.415994 -0.469778,0 -0.852066,-0.1724 -1.142566,-0.415994 -0.195185,-0.163679 -0.319159,-0.369141 -0.457335,-0.566375 -0.138342,0.197583 -0.263368,0.402421 -0.458887,0.566375 -0.290496,0.243594 -0.672788,0.415994 -1.142566,0.415994 -0.469781,0 -0.852069,-0.1724 -1.142565,-0.415994 -0.194785,-0.163338 -0.31885,-0.367506 -0.45682,-0.564309 -0.13797,0.196803 -0.262556,0.400971 -0.457336,0.564309 -0.290498,0.243594 -0.672789,0.415994 -1.142566,0.415994 v -0.529167 c 0.348297,0 0.587019,-0.110217 0.802535,-0.290938 0.215517,-0.180719 0.397717,-0.440219 0.572574,-0.71882 a 0.26460979,0.26460979 0 0 1 0.210324,-0.125056 z m 6.415628,4.062802 a 0.26460997,0.26460997 0 0 1 0.223758,0.124539 c 0.174858,0.278598 0.356545,0.538099 0.572058,0.71882 0.215519,0.180718 0.45424,0.290939 0.802537,0.290939 v 0.529166 c -0.469778,0 -0.852069,-0.170336 -1.142566,-0.41393 -0.194918,-0.163446 -0.318783,-0.36943 -0.456819,-0.566372 -0.138038,0.196942 -0.261906,0.402926 -0.456822,0.566372 -0.290493,0.243594 -0.672785,0.41393 -1.142566,0.41393 -0.469778,0 -0.852066,-0.170336 -1.142566,-0.41393 -0.194916,-0.163446 -0.319296,-0.36943 -0.457335,-0.566372 -0.138205,0.197292 -0.26364,0.402653 -0.458887,0.566372 -0.290496,0.243594 -0.672788,0.41393 -1.142566,0.41393 -0.469781,0 -0.852069,-0.170336 -1.142565,-0.41393 -0.194916,-0.163446 -0.318782,-0.36943 -0.45682,-0.566372 -0.138038,0.196942 -0.262421,0.402926 -0.457336,0.566372 -0.290498,0.243594 -0.672789,0.41393 -1.142566,0.41393 v -0.529166 c 0.348297,0 0.587019,-0.110221 0.802535,-0.290939 0.215517,-0.180721 0.397717,-0.440222 0.572574,-0.71882 a 0.26460997,0.26460997 0 0 1 0.232544,-0.122989 0.26460997,0.26460997 0 0 1 0.216525,0.122989 c 0.174858,0.278598 0.357059,0.538099 0.572574,0.71882 0.215517,0.180718 0.454235,0.290939 0.802535,0.290939 0.348295,0 0.587019,-0.110221 0.802536,-0.290939 0.215515,-0.180721 0.39978,-0.440222 0.574641,-0.71882 a 0.26460997,0.26460997 0 0 1 0.447003,0 c 0.174857,0.278598 0.358608,0.538099 0.574124,0.71882 0.215517,0.180718 0.454756,0.290939 0.80305,0.290939 0.348301,0 0.587021,-0.110221 0.802537,-0.290939 0.215517,-0.180721 0.397198,-0.440222 0.572058,-0.71882 a 0.26460997,0.26460997 0 0 1 0.225825,-0.124539 z"
       style="fill:#000000;stroke:none;stroke-width:1.05833;stop-color:#000000"
       id="rect1573" />
    <rect
       y="27.049995"
       x="35.335423"
       height="13.633342"
       width="11.484896"
       id="rect1569"
       style="fill:none;stroke:#000000;stroke-width:1.05833;stop-color:#000000" />
    <rect
       style="fill:none;stroke:#000000;stroke-width:1.05833;stop-color:#000000"
       id="rect1571"
       width="11.484896"
       height="13.633342"
       x="20.913015"
       y="27.049995" />
    <path
       d="m 44.175889,29.058974 a 0.26460997,0.26460997 0 0 0 -0.225825,0.12454 c -0.17486,0.278595 -0.356542,0.538099 -0.572058,0.71882 -0.215516,0.180718 -0.454237,0.290935 -0.802537,0.290935 -0.348295,0 -0.587533,-0.110217 -0.80305,-0.290935 -0.215516,-0.180721 -0.399267,-0.440225 -0.574124,-0.71882 a 0.26460997,0.26460997 0 0 0 -0.447003,0 c -0.174861,0.278595 -0.359125,0.538099 -0.574641,0.71882 -0.215516,0.180718 -0.454239,0.290935 -0.802534,0.290935 -0.3483,0 -0.587021,-0.110217 -0.802537,-0.290935 -0.215516,-0.180721 -0.397716,-0.440225 -0.572574,-0.71882 a 0.26460997,0.26460997 0 0 0 -0.216525,-0.122989 0.26460997,0.26460997 0 0 0 -0.232544,0.122989 c -0.174858,0.278595 -0.357058,0.538099 -0.572575,0.71882 -0.215516,0.180718 -0.454236,0.290935 -0.802534,0.290935 v 0.529167 c 0.469778,0 0.85207,-0.170333 1.142566,-0.413927 0.194916,-0.163447 0.319297,-0.369427 0.457335,-0.566373 0.138039,0.196946 0.261906,0.402926 0.456822,0.566373 0.290496,0.243594 0.672785,0.413927 1.142566,0.413927 0.469778,0 0.852067,-0.170333 1.142563,-0.413927 0.195247,-0.163722 0.320683,-0.369081 0.458888,-0.566373 0.138039,0.196946 0.262419,0.402926 0.457335,0.566373 0.2905,0.243594 0.672788,0.413927 1.142566,0.413927 0.469781,0 0.85207,-0.170333 1.142566,-0.413927 0.194916,-0.163447 0.318784,-0.369427 0.456822,-0.566373 0.138036,0.196946 0.2619,0.402926 0.456819,0.566373 0.290497,0.243594 0.672788,0.413927 1.142566,0.413927 v -0.529167 c -0.348297,0 -0.587018,-0.110217 -0.802537,-0.290935 -0.215516,-0.180721 -0.397197,-0.440225 -0.572055,-0.71882 a 0.26460997,0.26460997 0 0 0 -0.223761,-0.12454 z m -6.415627,4.210595 a 0.26460979,0.26460979 0 0 0 -0.210325,0.125056 c -0.174858,0.278598 -0.357058,0.538101 -0.572575,0.71882 -0.215516,0.180721 -0.454236,0.290938 -0.802534,0.290938 v 0.529167 c 0.469778,0 0.85207,-0.1724 1.142566,-0.415994 0.194781,-0.163335 0.319366,-0.367506 0.457335,-0.564309 0.13797,0.196803 0.262038,0.400974 0.456822,0.564309 0.290496,0.243594 0.672785,0.415994 1.142566,0.415994 0.469778,0 0.852067,-0.1724 1.142563,-0.415994 0.195519,-0.163952 0.320546,-0.368792 0.458888,-0.566375 0.138176,0.197234 0.262147,0.402698 0.457335,0.566375 0.2905,0.243594 0.672788,0.415994 1.142566,0.415994 0.469781,0 0.85207,-0.1724 1.142566,-0.415994 0.194784,-0.163335 0.31885,-0.367506 0.456822,-0.564309 0.13797,0.196803 0.262035,0.400974 0.456819,0.564309 0.290497,0.243594 0.672788,0.415994 1.142566,0.415994 v -0.529167 c -0.348297,0 -0.587018,-0.110217 -0.802537,-0.290938 -0.215516,-0.180719 -0.397197,-0.440222 -0.572055,-0.71882 a 0.26460979,0.26460979 0 0 0 -0.449586,0 c -0.17486,0.278598 -0.356542,0.538101 -0.572058,0.71882 -0.215516,0.180721 -0.454237,0.290938 -0.802537,0.290938 -0.348295,0 -0.587533,-0.110217 -0.80305,-0.290938 -0.215516,-0.180719 -0.399267,-0.440222 -0.574124,-0.71882 a 0.26460979,0.26460979 0 0 0 -0.447003,0 c -0.174861,0.278598 -0.359125,0.538101 -0.574641,0.71882 -0.215516,0.180721 -0.454239,0.290938 -0.802534,0.290938 -0.3483,0 -0.587021,-0.110217 -0.802537,-0.290938 -0.215516,-0.180719 -0.397716,-0.440222 -0.572574,-0.71882 a 0.26460979,0.26460979 0 0 0 -0.216525,-0.125056 0.26460979,0.26460979 0 0 0 -0.02222,0 z m 6.415627,4.062802 a 0.26460997,0.26460997 0 0 0 -0.225825,0.124539 c -0.17486,0.278598 -0.356542,0.538099 -0.572058,0.71882 -0.215516,0.180718 -0.454237,0.290939 -0.802537,0.290939 -0.348295,0 -0.587533,-0.110221 -0.80305,-0.290939 -0.215516,-0.180721 -0.399267,-0.440222 -0.574124,-0.71882 a 0.26460997,0.26460997 0 0 0 -0.447003,0 c -0.174861,0.278598 -0.359125,0.538099 -0.574641,0.71882 -0.215516,0.180718 -0.454239,0.290939 -0.802534,0.290939 -0.3483,0 -0.587021,-0.110221 -0.802537,-0.290939 -0.215516,-0.180721 -0.397716,-0.440222 -0.572574,-0.71882 a 0.26460997,0.26460997 0 0 0 -0.216525,-0.122989 0.26460997,0.26460997 0 0 0 -0.232544,0.122989 c -0.174858,0.278598 -0.357058,0.538099 -0.572575,0.71882 -0.215516,0.180718 -0.454236,0.290939 -0.802534,0.290939 v 0.529166 c 0.469778,0 0.85207,-0.170336 1.142566,-0.41393 0.194916,-0.163446 0.319297,-0.36943 0.457335,-0.566372 0.138039,0.196942 0.261906,0.402926 0.456822,0.566372 0.290496,0.243594 0.672785,0.41393 1.142566,0.41393 0.469778,0 0.852067,-0.170336 1.142563,-0.41393 0.195247,-0.163719 0.320683,-0.36908 0.458888,-0.566372 0.138039,0.196942 0.262419,0.402926 0.457335,0.566372 0.2905,0.243594 0.672788,0.41393 1.142566,0.41393 0.469781,0 0.85207,-0.170336 1.142566,-0.41393 0.194916,-0.163446 0.318784,-0.36943 0.456822,-0.566372 0.138036,0.196942 0.2619,0.402926 0.456819,0.566372 0.290497,0.243594 0.672788,0.41393 1.142566,0.41393 v -0.529166 c -0.348297,0 -0.587018,-0.110221 -0.802537,-0.290939 -0.215516,-0.180721 -0.397197,-0.440222 -0.572055,-0.71882 a 0.26460997,0.26460997 0 0 0 -0.223761,-0.124539 z"
       style="color:#000000;font-style:normal;font-variant:normal;font-weight:normal;font-stretch:normal;font-size:medium;line-height:normal;font-family:sans-serif;font-variant-ligatures:normal;font-variant-position:normal;font-variant-caps:normal;font-variant-numeric:normal;font-variant-alternates:normal;font-variant-east-asian:normal;font-feature-settings:normal;font-variation-settings:normal;text-indent:0;text-align:start;text-decoration:none;text-decoration-line:none;text-decoration-style:solid;text-decoration-color:#000000;letter-spacing:normal;word-spacing:normal;text-transform:none;writing-mode:lr-tb;direction:ltr;text-orientation:mixed;dominant-baseline:auto;baseline-shift:baseline;text-anchor:start;white-space:normal;shape-padding:0;shape-margin:0;inline-size:0;clip-rule:nonzero;display:inline;overflow:visible;visibility:visible;opacity:1;isolation:auto;mix-blend-mode:normal;color-interpolation:sRGB;color-interpolation-filters:linearRGB;solid-color:#000000;solid-opacity:1;vector-effect:none;fill:#000000;fill-opacity:1;fill-rule:nonzero;stroke:none;stroke-width:0.529167;stroke-linecap:butt;stroke-linejoin:round;stroke-miterlimit:4;stroke-dasharray:none;stroke-dashoffset:0;stroke-opacity:1;color-rendering:auto;image-rendering:auto;shape-rendering:auto;text-rendering:auto;enable-background:accumulate;stop-color:#000000;stop-opacity:1"
       id="path1589" />
    <path
       d="m 32.397943,36.753798 h 2.937513 m -2.937513,-5.774216 h 2.937513"
       style="fill:none;stroke:#000000;stroke-width:1.05833;stroke-linejoin:round;stroke-miterlimit:4;stroke-dasharray:none;stop-color:#000000"
       id="path1611" />
  </g>
  <g
     style="opacity:0.25"
     inkscape:label="Octagon"
     id="layer2"
     inkscape:groupmode="layer"
     sodipodi:insensitive="true">
    <path
       id="path919"
       style="font-variation-settings:normal;display:inline;opacity:1;vector-effect:none;fill:none;fill-opacity:1;stroke:#ff0080;stroke-width:0.249999;stroke-linecap:butt;stroke-linejoin:round;stroke-miterlimit:4;stroke-dasharray:none;stroke-dashoffset:0;stroke-opacity:1;marker:none;paint-order:normal;stop-color:#000000;stop-opacity:1"
       d="M 33.866665,9.9192931 A 11.973734,11.973734 0 0 0 21.89272,21.892723 11.973734,11.973734 0 0 0 9.9192906,33.866668 11.973734,11.973734 0 0 0 21.89272,45.840098 11.973734,11.973734 0 0 0 33.866665,57.814044 11.973734,11.973734 0 0 0 45.840095,45.840098 11.973734,11.973734 0 0 0 57.814041,33.866668 11.973734,11.973734 0 0 0 45.840095,21.892723 11.973734,11.973734 0 0 0 33.866665,9.9192931 Z" />
    <path
       d="M 45.840339,45.840339 33.866665,50.799997 21.892991,45.840339 16.933332,33.866665 21.892991,21.892991 33.866665,16.933332 45.840339,21.892991 50.799997,33.866665 Z"
       inkscape:randomized="0"
       inkscape:rounded="0"
       inkscape:flatsided="true"
       sodipodi:arg2="1.1780972"
       sodipodi:arg1="0.78539816"
       sodipodi:r2="15.64436"
       sodipodi:r1="16.933332"
       sodipodi:cy="33.866665"
       sodipodi:cx="33.866665"
       sodipodi:sides="8"
       id="path836"
       style="opacity:1;vector-effect:none;fill:none;fill-opacity:1;stroke:#ff0080;stroke-width:0.249999;stroke-linecap:butt;stroke-linejoin:round;stroke-miterlimit:4;stroke-dasharray:none;stroke-dashoffset:0;stroke-opacity:1;marker:none;paint-order:normal;stop-color:#000000"
       sodipodi:type="star" />
    <path
       style="fill:none;stroke:#ff0080;stroke-width:0.25;stroke-linejoin:round;stop-color:#000000"
       d="M 27.093333,19.738938 V 47.994392"
       id="path857"
       sodipodi:nodetypes="cc" />
    <path
       sodipodi:nodetypes="cc"
       id="path859"
       d="M 40.639997,19.738938 V 47.994392"
       style="fill:none;stroke:#ff0080;stroke-width:0.25;stroke-linejoin:round;stop-color:#000000" />
    <path
       style="fill:none;stroke:#ff0080;stroke-width:0.25;stroke-linejoin:round;stop-color:#000000"
       d="M 47.994392,27.093332 H 19.738938"
       id="path861"
       sodipodi:nodetypes="cc" />
    <path
       sodipodi:nodetypes="cc"
       id="path863"
       d="M 47.994392,40.639997 H 19.738938"
       style="fill:none;stroke:#ff0080;stroke-width:0.25;stroke-linejoin:round;stop-color:#000000" />
    <path
       id="rect838"
       style="font-variation-settings:normal;display:inline;opacity:1;vector-effect:none;fill:none;fill-opacity:1;stroke:#ff0080;stroke-width:0.249999;stroke-linecap:butt;stroke-linejoin:round;stroke-miterlimit:4;stroke-dasharray:none;stroke-dashoffset:0;stroke-opacity:1;marker:none;paint-order:normal;stop-color:#000000;stop-opacity:1"
       d="M 8.2166664,16.933333 H 59.516663 V 50.799998 H 8.2166664 Z" />
    <path
       d="M 15.190002,15.189999 H 52.54333 V 52.543335 H 15.190002 Z"
       style="font-variation-settings:normal;display:inline;opacity:1;vector-effect:none;fill:none;fill-opacity:1;stroke:#ff0080;stroke-width:0.249999;stroke-linecap:butt;stroke-linejoin:round;stroke-miterlimit:4;stroke-dasharray:none;stroke-dashoffset:0;stroke-opacity:1;marker:none;paint-order:normal;stop-color:#000000;stop-opacity:1"
       id="rect838-7" />
    <path
       id="rect838-3"
       style="font-variation-settings:normal;display:inline;opacity:1;vector-effect:none;fill:none;fill-opacity:1;stroke:#ff0080;stroke-width:0.249999;stroke-linecap:butt;stroke-linejoin:round;stroke-miterlimit:4;stroke-dasharray:none;stroke-dashoffset:0;stroke-opacity:1;marker:none;paint-order:normal;stop-color:#000000;stop-opacity:1"
       d="M 33.866669,9.9193234 57.814011,33.866666 33.866664,57.814013 9.9193223,33.86667 Z" />
  </g>
</svg>
