<?xml version="1.0" encoding="UTF-8" standalone="no"?>
<svg
        xmlns:dc="http://purl.org/dc/elements/1.1/"
        xmlns:cc="http://creativecommons.org/ns#"
        xmlns:rdf="http://www.w3.org/1999/02/22-rdf-syntax-ns#"
        xmlns="http://www.w3.org/2000/svg"
        xmlns:sodipodi="http://sodipodi.sourceforge.net/DTD/sodipodi-0.dtd"
        xmlns:inkscape="http://www.inkscape.org/namespaces/inkscape"
        sodipodi:docname="110115.svg"
        inkscape:version="1.0 (4035a4fb49, 2020-05-01)"
        id="svg8"
        version="1.1"
        viewBox="0 0 67.733332 67.733332"
        height="256"
        width="256">
  <style
     id="style847"></style>
  <title
     id="title856">MIL-STD-2525D Icon</title>
  <defs
     id="defs2">
    <rect
       id="rect919"
       height="29.471949"
       width="42.493049"
       y="29.981363"
       x="23.463894" />
    <rect
       x="23.31878"
       y="3.2134565"
       width="40.416331"
       height="13.148852"
       id="rect839" />
  </defs>
  <sodipodi:namedview
     inkscape:guide-bbox="true"
     showguides="true"
     inkscape:pagecheckerboard="true"
     units="px"
     inkscape:window-maximized="0"
     inkscape:window-y="27"
     inkscape:window-x="1762"
     inkscape:window-height="1385"
     inkscape:window-width="1678"
     showgrid="false"
     inkscape:document-rotation="0"
     inkscape:current-layer="layer1"
     inkscape:document-units="px"
     inkscape:cy="12.189633"
     inkscape:cx="172.77283"
     inkscape:zoom="2"
     inkscape:pageshadow="2"
     inkscape:pageopacity="0"
     borderopacity="1.0"
     bordercolor="#666666"
     pagecolor="#ffffff"
     id="base"
     inkscape:object-paths="true"
     inkscape:snap-midpoints="true"
     inkscape:snap-object-midpoints="true"
     inkscape:snap-center="true"
     inkscape:snap-global="true">
    <sodipodi:guide
       id="guide861"
       orientation="1,0"
       position="33.866665,50.8" />
  </sodipodi:namedview>
  <metadata
     id="metadata5">
    <rdf:RDF>
      <cc:Work
         rdf:about="">
        <dc:format>image/svg+xml</dc:format>
        <dc:type
           rdf:resource="http://purl.org/dc/dcmitype/StillImage" />
        <dc:title>MIL-STD-2525D Icon</dc:title>
        <dc:creator>
          <cc:Agent>
            <dc:title>Nicholas W. Royer</dc:title>
          </cc:Agent>
        </dc:creator>
        <dc:rights>
          <cc:Agent>
            <dc:title>All rights reserved</dc:title>
          </cc:Agent>
        </dc:rights>
        <dc:description>L=128px</dc:description>
      </cc:Work>
    </rdf:RDF>
  </metadata>
  <g
     style="display:inline;opacity:1"
     id="layer1"
     inkscape:groupmode="layer"
     inkscape:label="Symbol">
    <path
       id="path1113"
       style="fill:#ffffff;stroke:none;stroke-width:2;stop-color:#000000"
       d="m 128,109.91797 c -5.74472,0 -10.40234,5.94746 -10.40234,13.2832 0,7.33574 4.65762,13.28125 10.40234,13.28125 5.74472,0 10.40234,-5.94551 10.40234,-13.28125 0,-7.33573 -4.65762,-13.2832 -10.40234,-13.2832 z m 22.96075,37.2734 c -1.01951,-2.62423 -2.18204,-5.22085 -3.23047,-6.50391 -2.56515,-3.13921 -7.84896,-3.88672 -19.73047,-3.88672 -11.88151,0 -17.16532,0.74751 -19.73047,3.88672 -1.04843,1.28306 -2.21096,3.87968 -3.23047,6.50391 l -2.63887,7.64845 -3.970203,-7.63695 c 0.704651,-1.26388 1.124891,-2.85166 1.124891,-4.5779 0,-4.124 -2.393038,-7.4668 -5.345704,-7.4668 -2.952665,0 -5.347656,3.3428 -5.347656,7.4668 0,2.29058 0.741789,4.33728 1.904297,5.70703 h -0.0059 l -2.951172,11.57813 H 168.19137 L 165.24019,148.332 h -0.006 c 1.1625,-1.36975 1.90429,-3.41645 1.90429,-5.70703 0,-4.124 -2.39499,-7.4668 -5.34765,-7.4668 -2.95267,0 -5.34571,3.3428 -5.34571,7.4668 0,1.68541 0.4006,3.23883 1.07537,4.48767 l -3.9205,7.28193 -2.63924,-7.20323"
       transform="scale(0.26458333)"
       sodipodi:nodetypes="ssssscssscccscsssccsssccccc" />
    <path
       id="rect997"
       style="fill:#000000;stroke:none;stroke-width:1.05833;stop-color:#000000"
       d="m 22.586218,24.127985 v 1.824694 h 2.228804 v 9.815422 c 0.03675,-0.004 0.07362,-0.0078 0.111105,-0.0078 0.404969,0 0.768949,0.239175 1.026811,0.620117 V 25.952679 h 4.050399 v 15.827975 h -4.050399 v -2.688725 c -0.257862,0.380944 -0.621842,0.620117 -1.026811,0.620117 -0.03749,0 -0.07435,-0.0038 -0.111105,-0.0078 v 2.07636 h -2.228804 v 1.824693 l 11.280448,-0.03876 11.28045,0.03876 v -1.824693 h -2.228805 v -2.07636 c -0.03675,0.004 -0.07362,0.0078 -0.111104,0.0078 -0.404971,0 -0.768951,-0.239173 -1.026811,-0.620117 v 2.688725 h -4.0504 V 25.952679 h 4.0504 v 10.427787 c 0.25786,-0.380942 0.62184,-0.620117 1.026811,-0.620117 0.03749,0 0.07435,0.0038 0.111104,0.0078 v -9.815422 h 2.228805 v -1.824694 h -11.28045 z m 8.555034,1.824694 h 2.725414 2.725415 v 15.827975 h -2.725415 -2.725414 z" />
    <path
       id="path1074"
       style="fill:none;stroke:#000000;stroke-width:0.529167;stop-color:#000000"
       d="m 36.618791,32.596748 a 2.7521265,3.5143354 0 0 1 -2.752126,3.514336 2.7521265,3.5143354 0 0 1 -2.752127,-3.514336 2.7521265,3.5143354 0 0 1 2.752127,-3.514335 2.7521265,3.5143354 0 0 1 2.752126,3.514335 m 4.774019,5.139421 c 0,1.091141 0.633309,1.975685 1.414535,1.975685 0.781226,0 1.414535,-0.884544 1.414535,-1.975685 0,-1.091141 -0.633309,-1.975685 -1.414535,-1.975685 -0.781226,0 -1.414535,0.884544 -1.414535,1.975685 z m 2.32678,1.509937 0.780873,3.063633 m -2.831098,-3.365245 -1.029366,2.02354 c 0,0 -0.874525,-2.913901 -1.553223,-3.744484 -0.678696,-0.830583 -2.076461,-1.02838 -5.22011,-1.02838 -3.143649,0 -4.541414,0.197797 -5.22011,1.02838 -0.678698,0.830583 -1.553223,3.744484 -1.553223,3.744484 l -1.029366,-2.02354 m 0.276555,-1.208325 c 0,1.091141 -0.633309,1.975685 -1.414535,1.975685 -0.781226,0 -1.414535,-0.884544 -1.414535,-1.975685 0,-1.091141 0.633309,-1.975685 1.414535,-1.975685 0.781226,0 1.414535,0.884544 1.414535,1.975685 z m -2.32678,1.509937 -0.780873,3.063633" />
    <path
       id="path853"
       d="m 41.617642,25.724088 -16.890625,14.6875 1.388672,1.597656 16.890625,-14.6875 z"
       style="color:#000000;font-style:normal;font-variant:normal;font-weight:normal;font-stretch:normal;font-size:medium;line-height:normal;font-family:sans-serif;font-variant-ligatures:normal;font-variant-position:normal;font-variant-caps:normal;font-variant-numeric:normal;font-variant-alternates:normal;font-variant-east-asian:normal;font-feature-settings:normal;font-variation-settings:normal;text-indent:0;text-align:start;text-decoration:none;text-decoration-line:none;text-decoration-style:solid;text-decoration-color:#000000;letter-spacing:normal;word-spacing:normal;text-transform:none;writing-mode:lr-tb;direction:ltr;text-orientation:mixed;dominant-baseline:auto;baseline-shift:baseline;text-anchor:start;white-space:normal;shape-padding:0;shape-margin:0;inline-size:0;clip-rule:nonzero;display:inline;overflow:visible;visibility:visible;opacity:1;isolation:auto;mix-blend-mode:normal;color-interpolation:sRGB;color-interpolation-filters:linearRGB;solid-color:#000000;solid-opacity:1;vector-effect:none;fill:#000000;fill-opacity:1;fill-rule:nonzero;stroke:none;stroke-width:2.11667;stroke-linecap:butt;stroke-linejoin:miter;stroke-miterlimit:4;stroke-dasharray:none;stroke-dashoffset:0;stroke-opacity:1;color-rendering:auto;image-rendering:auto;shape-rendering:auto;text-rendering:auto;enable-background:accumulate;stop-color:#000000;stop-opacity:1" />
  </g>
  <g
     style="opacity:0.25"
     inkscape:label="Octagon"
     id="layer2"
     inkscape:groupmode="layer"
     sodipodi:insensitive="true">
    <path
       id="path919"
       style="font-variation-settings:normal;display:inline;opacity:1;vector-effect:none;fill:none;fill-opacity:1;stroke:#ff0080;stroke-width:0.249999;stroke-linecap:butt;stroke-linejoin:round;stroke-miterlimit:4;stroke-dasharray:none;stroke-dashoffset:0;stroke-opacity:1;marker:none;paint-order:normal;stop-color:#000000;stop-opacity:1"
       d="M 33.866665,9.9192931 A 11.973734,11.973734 0 0 0 21.89272,21.892723 11.973734,11.973734 0 0 0 9.9192906,33.866668 11.973734,11.973734 0 0 0 21.89272,45.840098 11.973734,11.973734 0 0 0 33.866665,57.814044 11.973734,11.973734 0 0 0 45.840095,45.840098 11.973734,11.973734 0 0 0 57.814041,33.866668 11.973734,11.973734 0 0 0 45.840095,21.892723 11.973734,11.973734 0 0 0 33.866665,9.9192931 Z" />
    <path
       d="M 45.840339,45.840339 33.866665,50.799997 21.892991,45.840339 16.933332,33.866665 21.892991,21.892991 33.866665,16.933332 45.840339,21.892991 50.799997,33.866665 Z"
       inkscape:randomized="0"
       inkscape:rounded="0"
       inkscape:flatsided="true"
       sodipodi:arg2="1.1780972"
       sodipodi:arg1="0.78539816"
       sodipodi:r2="15.64436"
       sodipodi:r1="16.933332"
       sodipodi:cy="33.866665"
       sodipodi:cx="33.866665"
       sodipodi:sides="8"
       id="path836"
       style="opacity:1;vector-effect:none;fill:none;fill-opacity:1;stroke:#ff0080;stroke-width:0.249999;stroke-linecap:butt;stroke-linejoin:round;stroke-miterlimit:4;stroke-dasharray:none;stroke-dashoffset:0;stroke-opacity:1;marker:none;paint-order:normal;stop-color:#000000"
       sodipodi:type="star" />
    <path
       style="fill:none;stroke:#ff0080;stroke-width:0.25;stroke-linejoin:round;stop-color:#000000"
       d="M 27.093333,19.738938 V 47.994392"
       id="path857"
       sodipodi:nodetypes="cc" />
    <path
       sodipodi:nodetypes="cc"
       id="path859"
       d="M 40.639997,19.738938 V 47.994392"
       style="fill:none;stroke:#ff0080;stroke-width:0.25;stroke-linejoin:round;stop-color:#000000" />
    <path
       style="fill:none;stroke:#ff0080;stroke-width:0.25;stroke-linejoin:round;stop-color:#000000"
       d="M 47.994392,27.093332 H 19.738938"
       id="path861"
       sodipodi:nodetypes="cc" />
    <path
       sodipodi:nodetypes="cc"
       id="path863"
       d="M 47.994392,40.639997 H 19.738938"
       style="fill:none;stroke:#ff0080;stroke-width:0.25;stroke-linejoin:round;stop-color:#000000" />
    <path
       id="rect838"
       style="font-variation-settings:normal;display:inline;opacity:1;vector-effect:none;fill:none;fill-opacity:1;stroke:#ff0080;stroke-width:0.249999;stroke-linecap:butt;stroke-linejoin:round;stroke-miterlimit:4;stroke-dasharray:none;stroke-dashoffset:0;stroke-opacity:1;marker:none;paint-order:normal;stop-color:#000000;stop-opacity:1"
       d="M 8.2166664,16.933333 H 59.516663 V 50.799998 H 8.2166664 Z" />
    <path
       d="M 15.190002,15.189999 H 52.54333 V 52.543335 H 15.190002 Z"
       style="font-variation-settings:normal;display:inline;opacity:1;vector-effect:none;fill:none;fill-opacity:1;stroke:#ff0080;stroke-width:0.249999;stroke-linecap:butt;stroke-linejoin:round;stroke-miterlimit:4;stroke-dasharray:none;stroke-dashoffset:0;stroke-opacity:1;marker:none;paint-order:normal;stop-color:#000000;stop-opacity:1"
       id="rect838-7" />
    <path
       id="rect838-3"
       style="font-variation-settings:normal;display:inline;opacity:1;vector-effect:none;fill:none;fill-opacity:1;stroke:#ff0080;stroke-width:0.249999;stroke-linecap:butt;stroke-linejoin:round;stroke-miterlimit:4;stroke-dasharray:none;stroke-dashoffset:0;stroke-opacity:1;marker:none;paint-order:normal;stop-color:#000000;stop-opacity:1"
       d="M 33.866669,9.9193234 57.814011,33.866666 33.866664,57.814013 9.9193223,33.86667 Z" />
  </g>
</svg>
