<?xml version="1.0" encoding="UTF-8" standalone="no"?>
<svg
        xmlns:dc="http://purl.org/dc/elements/1.1/"
        xmlns:cc="http://creativecommons.org/ns#"
        xmlns:rdf="http://www.w3.org/1999/02/22-rdf-syntax-ns#"
        xmlns="http://www.w3.org/2000/svg"
        xmlns:sodipodi="http://sodipodi.sourceforge.net/DTD/sodipodi-0.dtd"
        xmlns:inkscape="http://www.inkscape.org/namespaces/inkscape"
        width="256"
        height="256"
        viewBox="0 0 67.733332 67.733332"
        version="1.1"
        id="svg8"
        inkscape:version="1.0 (4035a4fb49, 2020-05-01)"
        sodipodi:docname="110100.svg">
  <style
     id="style849"></style>
  <title
     id="title856">MIL-STD-2525D Icon</title>
  <defs
     id="defs2">
    <rect
       x="23.463894"
       y="29.981363"
       width="37.028973"
       height="27.825965"
       id="rect919" />
    <rect
       id="rect839"
       height="13.148852"
       width="40.416331"
       y="3.2134565"
       x="23.31878" />
  </defs>
  <sodipodi:namedview
     inkscape:snap-global="false"
     inkscape:snap-center="true"
     inkscape:snap-object-midpoints="true"
     inkscape:snap-midpoints="true"
     inkscape:object-paths="true"
     id="base"
     pagecolor="#ffffff"
     bordercolor="#666666"
     borderopacity="1.0"
     inkscape:pageopacity="0"
     inkscape:pageshadow="2"
     inkscape:zoom="2"
     inkscape:cx="125.9146"
     inkscape:cy="178.37209"
     inkscape:document-units="px"
     inkscape:current-layer="layer1"
     inkscape:document-rotation="0"
     showgrid="false"
     inkscape:window-width="1678"
     inkscape:window-height="1385"
     inkscape:window-x="1762"
     inkscape:window-y="27"
     inkscape:window-maximized="0"
     units="px"
     inkscape:pagecheckerboard="true"
     showguides="true"
     inkscape:guide-bbox="true">
    <sodipodi:guide
       position="33.866665,50.8"
       orientation="1,0"
       id="guide861" />
  </sodipodi:namedview>
  <metadata
     id="metadata5">
    <rdf:RDF>
      <cc:Work
         rdf:about="">
        <dc:format>image/svg+xml</dc:format>
        <dc:type
           rdf:resource="http://purl.org/dc/dcmitype/StillImage" />
        <dc:title>MIL-STD-2525D Icon</dc:title>
        <dc:creator>
          <cc:Agent>
            <dc:title>Nicholas W. Royer</dc:title>
          </cc:Agent>
        </dc:creator>
        <dc:rights>
          <cc:Agent>
            <dc:title>All rights reserved</dc:title>
          </cc:Agent>
        </dc:rights>
        <dc:description>L=128px</dc:description>
      </cc:Work>
    </rdf:RDF>
  </metadata>
  <g
     inkscape:label="Symbol"
     inkscape:groupmode="layer"
     id="layer1"
     style="display:inline;opacity:1">
    <path
       transform="scale(0.26458333)"
       d="M 161.42188 117 L 146.39453 117.75195 L 139.89062 120.91602 L 140.75 130.36523 C 140.75 130.36523 132.90854 137.8476 135.20898 148.07812 C 137.74913 159.37463 145.69665 163.40911 152.83984 164.37305 A 4.5800819 4.5800819 0 0 0 156.69141 166.47656 A 4.5800819 4.5800819 0 0 0 160.62109 164.24609 C 168.16682 162.79174 177.09627 156.94061 176.91016 145.4668 C 176.69785 132.37678 168.50781 127.9043 168.50781 127.9043 L 168.24609 119.45898 L 161.42188 117 z M 162.83008 119.39844 L 163.03906 124.33203 C 163.08643 125.44897 162.23396 126.38652 161.12695 126.43359 C 160.01995 126.48067 159.09034 125.6189 159.04297 124.50195 L 158.83203 119.54883 L 162.83008 119.39844 z M 154.66016 130.0918 C 165.65754 129.71732 169.93441 136.55647 170.99609 142.44141 C 171.95705 147.76807 169.87407 157.33159 160.13086 158.875 A 4.5800819 4.5800819 0 0 0 156.69141 157.31641 A 4.5800819 4.5800819 0 0 0 153.35938 158.75391 C 143.63665 157.18401 140.98815 150.13024 140.58984 144.72852 C 140.1477 138.732 144.83928 130.70926 154.66016 130.0918 z "
       style="fill:#000000;stroke:none;stroke-width:0.25;stop-color:#000000"
       id="path977" />
    <path
       transform="scale(0.26458333)"
       d="M 104.74805 94.068359 L 99.314453 100.53906 C 99.314453 100.53906 90.113587 98.981795 81.84375 109.13086 C 74.59496 118.02682 77.985828 128.14966 83.011719 133.96289 C 82.942965 134.49234 82.975608 135.01901 83.085938 135.52539 C 80.15454 139.53487 78.579215 143.46091 78.359375 147.30469 C 78.086984 152.06729 79.913565 156.42031 82.787109 160.17188 C 85.611402 163.85914 90.409484 166.64488 95.939453 167.58984 L 95.851562 167.58398 L 94.513672 169.68359 C 94.513672 169.68359 98.189751 169.57873 100.29492 167.88867 L 100.25781 167.88672 C 100.27804 167.88598 100.29812 167.88556 100.31836 167.88477 L 100.29492 167.88867 C 100.80743 169.83619 100.55273 170.69727 100.55273 170.69727 C 100.55273 170.69727 104.90205 169.08664 105.16016 167.10156 L 105.11914 167.10742 C 105.15103 167.09812 105.18297 167.0876 105.21484 167.07812 L 105.16016 167.10156 C 106.05802 168.50831 107.13672 169.48242 107.13672 169.48242 C 107.13672 169.48242 109.05963 167.02454 109.43164 165.25391 L 109.41016 165.26367 C 109.63562 165.13167 109.85762 164.98864 110.08008 164.8457 L 110.07812 164.85547 L 111.74414 165.90039 L 113.21484 162.34961 L 113.20312 162.35156 C 113.25566 162.30014 113.31106 162.25535 113.36328 162.20312 C 115.69464 159.87176 112.14212 154.94968 109.12695 157.96484 C 105.49159 161.60021 101.23308 162.37952 97.115234 161.71484 C 92.997394 161.05017 89.183217 158.65917 87.548828 156.52539 C 85.26049 153.53785 84.170171 150.71366 84.345703 147.64453 C 84.486888 145.17601 85.511473 142.35311 87.908203 139.08008 C 87.90843 139.07977 87.909929 139.08039 87.910156 139.08008 C 88.289874 139.05315 88.670848 138.98541 89.044922 138.87891 C 91.4106 138.20534 92.288334 136.09262 92.115234 134.14453 C 92.003619 132.8884 91.379013 131.73387 90.388672 130.95312 C 89.353551 130.13856 88.017842 129.80908 86.722656 130.04883 C 80.026059 122.80535 84.309263 114.00454 88.361328 110.41602 C 92.838084 106.45138 100.43077 103.72827 108.83594 110.83008 L 118.92578 120.57227 L 126.11523 112.76562 L 122.9668 106.25586 L 111.62891 96.361328 L 104.74805 94.068359 z M 109.03906 97.373047 L 112.08594 99.966797 L 108.85352 103.72656 C 108.12488 104.57441 106.86173 104.67538 106.02148 103.95312 C 105.18123 103.23088 105.09171 101.96703 105.82031 101.11914 L 109.03906 97.373047 z "
       style="fill:#000000;stroke:none;stroke-width:0.25;stop-color:#000000"
       id="path993" />
    <path
       transform="scale(0.26458333)"
       d="M 139.83984 86.992188 C 138.97482 87.034928 138.15872 87.191254 137.42383 87.457031 C 136.03753 87.958393 134.88081 88.909368 134.49414 90.253906 L 130.22266 90.255859 C 130.0987 89.562731 129.81052 88.918461 129.3125 88.390625 C 128.27753 87.293691 126.68888 87.051162 125.1582 87.367188 C 123.62753 87.683216 122.04702 88.536964 120.66406 89.841797 C 119.28111 91.146629 118.33604 92.675816 117.93164 94.185547 C 117.52724 95.69528 117.68378 97.289786 118.71875 98.386719 C 119.75372 99.483651 121.33066 99.726185 122.86133 99.410156 C 124.392 99.094128 125.97252 98.240378 127.35547 96.935547 C 128.73842 95.630715 129.68349 94.101527 130.08789 92.591797 C 130.11811 92.478993 130.13818 92.36545 130.16211 92.251953 L 134.51562 92.251953 C 134.76487 93.08013 135.28271 93.849353 135.95703 94.488281 C 137.09158 95.563284 138.69733 96.373328 140.55859 96.761719 C 142.41985 97.150109 144.21381 97.049132 145.68359 96.517578 C 145.7109 96.507702 145.73654 96.494601 145.76367 96.484375 L 149.5332 101.91602 C 148.88175 102.50221 148.40556 103.31543 148.12109 104.2168 C 147.65072 105.70729 147.62684 107.50403 148.0918 109.34766 C 148.55675 111.19129 149.42982 112.76044 150.55078 113.84961 C 151.67174 114.93877 153.13533 115.5895 154.59766 115.2207 C 156.05999 114.85191 157.04525 113.58424 157.51562 112.09375 C 157.986 110.60326 158.00402 108.80847 157.53906 106.96484 C 157.07411 105.12121 156.20689 103.54815 155.08594 102.45898 C 154.04826 101.45074 152.71394 100.83759 151.36133 101.04297 L 147.48438 95.462891 C 148.07681 94.931965 148.51352 94.267012 148.67969 93.470703 C 148.98775 91.994384 148.28493 90.563283 147.15039 89.488281 C 146.01584 88.413279 144.41204 87.603234 142.55078 87.214844 C 141.62015 87.020648 140.70487 86.949447 139.83984 86.992188 z M 139.9375 88.992188 C 140.62477 88.959172 141.37317 89.013683 142.14062 89.173828 C 143.67553 89.494122 144.96691 90.171245 145.77148 90.933594 C 146.57606 91.695946 146.84981 92.443795 146.7207 93.0625 C 146.66743 93.317781 146.52415 93.561398 146.32227 93.791016 L 146.24219 93.675781 A 1.0000006 1.0000006 0 0 0 145.40039 93.248047 A 1.0000006 1.0000006 0 0 0 144.85547 93.425781 A 1.0000006 1.0000006 0 0 0 144.56445 94.75 C 143.56774 95.018056 142.30675 95.082344 140.9668 94.802734 C 139.43189 94.482444 138.13661 93.795552 137.33203 93.033203 C 137.05242 92.768265 136.85819 92.508573 136.70117 92.251953 L 139.38477 92.251953 A 1.0000006 1.0000006 0 0 0 140.38086 91.248047 A 1.0000006 1.0000006 0 0 0 139.38477 90.251953 L 136.71875 90.253906 C 137.00255 89.895642 137.44372 89.572602 138.10352 89.333984 C 138.62467 89.145507 139.25023 89.025203 139.9375 88.992188 z M 126.32227 89.236328 C 127.01737 89.220066 127.53212 89.418891 127.85742 89.763672 C 127.98443 89.898281 128.07703 90.068859 128.15234 90.257812 L 126.80664 90.257812 A 1.0000006 1.0000006 0 0 0 125.80273 91.255859 A 1.0000006 1.0000006 0 0 0 126.80664 92.251953 L 128.0957 92.251953 C 127.77786 93.283698 127.06255 94.461354 125.98242 95.480469 C 124.84196 96.55651 123.55034 97.227059 122.46484 97.451172 C 121.37935 97.675288 120.60757 97.473381 120.17383 97.013672 C 119.74009 96.553966 119.58431 95.771816 119.87109 94.701172 C 120.15788 93.630531 120.89664 92.372917 122.03711 91.296875 C 123.17758 90.220833 124.48092 89.550288 125.56641 89.326172 C 125.83778 89.270144 126.09056 89.241749 126.32227 89.236328 z M 152.88867 103.30469 C 153.14992 103.45077 153.41699 103.63375 153.69141 103.90039 C 154.48634 104.67278 155.22399 105.93081 155.60742 107.45117 C 155.99085 108.97153 155.93905 110.43714 155.60547 111.49414 C 155.2719 112.55114 154.72026 113.12669 154.10742 113.28125 C 153.49458 113.43581 152.73635 113.19036 151.94141 112.41797 C 151.14647 111.64558 150.41468 110.37778 150.03125 108.85742 C 149.64782 107.33706 149.69182 105.88122 150.02539 104.82422 C 150.19579 104.28429 150.42412 103.87466 150.6875 103.57812 L 151.12109 104.20312 A 1.0000006 1.0000006 0 0 0 152.51758 104.45312 A 1.0000006 1.0000006 0 0 0 152.88867 103.30469 z "
       style="color:#000000;font-style:normal;font-variant:normal;font-weight:normal;font-stretch:normal;font-size:medium;line-height:normal;font-family:sans-serif;font-variant-ligatures:normal;font-variant-position:normal;font-variant-caps:normal;font-variant-numeric:normal;font-variant-alternates:normal;font-variant-east-asian:normal;font-feature-settings:normal;font-variation-settings:normal;text-indent:0;text-align:start;text-decoration:none;text-decoration-line:none;text-decoration-style:solid;text-decoration-color:#000000;letter-spacing:normal;word-spacing:normal;text-transform:none;writing-mode:lr-tb;direction:ltr;text-orientation:mixed;dominant-baseline:auto;baseline-shift:baseline;text-anchor:start;white-space:normal;shape-padding:0;shape-margin:0;inline-size:0;clip-rule:nonzero;display:inline;overflow:visible;visibility:visible;opacity:1;isolation:auto;mix-blend-mode:normal;color-interpolation:sRGB;color-interpolation-filters:linearRGB;solid-color:#000000;solid-opacity:1;vector-effect:none;fill:#000000;fill-opacity:1;fill-rule:nonzero;stroke:none;stroke-width:2;stroke-linecap:butt;stroke-linejoin:miter;stroke-miterlimit:4;stroke-dasharray:none;stroke-dashoffset:0;stroke-opacity:1;color-rendering:auto;image-rendering:auto;shape-rendering:auto;text-rendering:auto;enable-background:accumulate;stop-color:#000000;stop-opacity:1"
       id="path1032" />
  </g>
  <g
     sodipodi:insensitive="true"
     inkscape:groupmode="layer"
     id="layer2"
     inkscape:label="Octagon"
     style="opacity:0.25">
    <path
       d="M 33.866665,9.9192931 A 11.973734,11.973734 0 0 0 21.89272,21.892723 11.973734,11.973734 0 0 0 9.9192906,33.866668 11.973734,11.973734 0 0 0 21.89272,45.840098 11.973734,11.973734 0 0 0 33.866665,57.814044 11.973734,11.973734 0 0 0 45.840095,45.840098 11.973734,11.973734 0 0 0 57.814041,33.866668 11.973734,11.973734 0 0 0 45.840095,21.892723 11.973734,11.973734 0 0 0 33.866665,9.9192931 Z"
       style="font-variation-settings:normal;display:inline;opacity:1;vector-effect:none;fill:none;fill-opacity:1;stroke:#ff0080;stroke-width:0.249999;stroke-linecap:butt;stroke-linejoin:round;stroke-miterlimit:4;stroke-dasharray:none;stroke-dashoffset:0;stroke-opacity:1;marker:none;paint-order:normal;stop-color:#000000;stop-opacity:1"
       id="path919" />
    <path
       sodipodi:type="star"
       style="opacity:1;vector-effect:none;fill:none;fill-opacity:1;stroke:#ff0080;stroke-width:0.249999;stroke-linecap:butt;stroke-linejoin:round;stroke-miterlimit:4;stroke-dasharray:none;stroke-dashoffset:0;stroke-opacity:1;marker:none;paint-order:normal;stop-color:#000000"
       id="path836"
       sodipodi:sides="8"
       sodipodi:cx="33.866665"
       sodipodi:cy="33.866665"
       sodipodi:r1="16.933332"
       sodipodi:r2="15.64436"
       sodipodi:arg1="0.78539816"
       sodipodi:arg2="1.1780972"
       inkscape:flatsided="true"
       inkscape:rounded="0"
       inkscape:randomized="0"
       d="M 45.840339,45.840339 33.866665,50.799997 21.892991,45.840339 16.933332,33.866665 21.892991,21.892991 33.866665,16.933332 45.840339,21.892991 50.799997,33.866665 Z" />
    <path
       sodipodi:nodetypes="cc"
       id="path857"
       d="M 27.093333,19.738938 V 47.994392"
       style="fill:none;stroke:#ff0080;stroke-width:0.25;stroke-linejoin:round;stop-color:#000000" />
    <path
       style="fill:none;stroke:#ff0080;stroke-width:0.25;stroke-linejoin:round;stop-color:#000000"
       d="M 40.639997,19.738938 V 47.994392"
       id="path859"
       sodipodi:nodetypes="cc" />
    <path
       sodipodi:nodetypes="cc"
       id="path861"
       d="M 47.994392,27.093332 H 19.738938"
       style="fill:none;stroke:#ff0080;stroke-width:0.25;stroke-linejoin:round;stop-color:#000000" />
    <path
       style="fill:none;stroke:#ff0080;stroke-width:0.25;stroke-linejoin:round;stop-color:#000000"
       d="M 47.994392,40.639997 H 19.738938"
       id="path863"
       sodipodi:nodetypes="cc" />
    <path
       d="M 8.2166664,16.933333 H 59.516663 V 50.799998 H 8.2166664 Z"
       style="font-variation-settings:normal;display:inline;opacity:1;vector-effect:none;fill:none;fill-opacity:1;stroke:#ff0080;stroke-width:0.249999;stroke-linecap:butt;stroke-linejoin:round;stroke-miterlimit:4;stroke-dasharray:none;stroke-dashoffset:0;stroke-opacity:1;marker:none;paint-order:normal;stop-color:#000000;stop-opacity:1"
       id="rect838" />
    <path
       id="rect838-7"
       style="font-variation-settings:normal;display:inline;opacity:1;vector-effect:none;fill:none;fill-opacity:1;stroke:#ff0080;stroke-width:0.249999;stroke-linecap:butt;stroke-linejoin:round;stroke-miterlimit:4;stroke-dasharray:none;stroke-dashoffset:0;stroke-opacity:1;marker:none;paint-order:normal;stop-color:#000000;stop-opacity:1"
       d="M 15.190002,15.189999 H 52.54333 V 52.543335 H 15.190002 Z" />
    <path
       d="M 33.866669,9.9193234 57.814011,33.866666 33.866664,57.814013 9.9193223,33.86667 Z"
       style="font-variation-settings:normal;display:inline;opacity:1;vector-effect:none;fill:none;fill-opacity:1;stroke:#ff0080;stroke-width:0.249999;stroke-linecap:butt;stroke-linejoin:round;stroke-miterlimit:4;stroke-dasharray:none;stroke-dashoffset:0;stroke-opacity:1;marker:none;paint-order:normal;stop-color:#000000;stop-opacity:1"
       id="rect838-3" />
  </g>
</svg>
