<?xml version="1.0" encoding="UTF-8" standalone="no"?>
<svg
        xmlns:dc="http://purl.org/dc/elements/1.1/"
        xmlns:cc="http://creativecommons.org/ns#"
        xmlns:rdf="http://www.w3.org/1999/02/22-rdf-syntax-ns#"
        xmlns="http://www.w3.org/2000/svg"
        xmlns:sodipodi="http://sodipodi.sourceforge.net/DTD/sodipodi-0.dtd"
        xmlns:inkscape="http://www.inkscape.org/namespaces/inkscape"
        sodipodi:docname="110123.svg"
        inkscape:version="1.0 (4035a4fb49, 2020-05-01)"
        id="svg8"
        version="1.1"
        viewBox="0 0 67.733332 67.733332"
        height="256"
        width="256">
  <style
     id="style849"></style>
  <title
     id="title856">MIL-STD-2525D Icon</title>
  <defs
     id="defs2">
    <rect
       id="rect937"
       height="23.993581"
       width="42.553418"
       y="58.697551"
       x="21.839437" />
    <rect
       id="rect919"
       height="27.825965"
       width="37.028973"
       y="29.981363"
       x="23.463894" />
    <rect
       x="23.31878"
       y="3.2134565"
       width="40.416331"
       height="13.148852"
       id="rect839" />
    <rect
       x="21.839437"
       y="58.697551"
       width="42.553418"
       height="23.993581"
       id="rect893" />
  </defs>
  <sodipodi:namedview
     inkscape:guide-bbox="true"
     showguides="true"
     inkscape:pagecheckerboard="true"
     units="px"
     inkscape:window-maximized="0"
     inkscape:window-y="27"
     inkscape:window-x="1762"
     inkscape:window-height="1385"
     inkscape:window-width="1678"
     showgrid="false"
     inkscape:document-rotation="0"
     inkscape:current-layer="layer1"
     inkscape:document-units="px"
     inkscape:cy="132.33679"
     inkscape:cx="114.36412"
     inkscape:zoom="2.8284271"
     inkscape:pageshadow="2"
     inkscape:pageopacity="0"
     borderopacity="1.0"
     bordercolor="#666666"
     pagecolor="#ffffff"
     id="base"
     inkscape:object-paths="true"
     inkscape:snap-midpoints="true"
     inkscape:snap-object-midpoints="true"
     inkscape:snap-center="true"
     inkscape:snap-global="true"
     inkscape:snap-smooth-nodes="true">
    <sodipodi:guide
       id="guide861"
       orientation="1,0"
       position="33.866665,50.8" />
  </sodipodi:namedview>
  <metadata
     id="metadata5">
    <rdf:RDF>
      <cc:Work
         rdf:about="">
        <dc:format>image/svg+xml</dc:format>
        <dc:type
           rdf:resource="http://purl.org/dc/dcmitype/StillImage" />
        <dc:title>MIL-STD-2525D Icon</dc:title>
        <dc:creator>
          <cc:Agent>
            <dc:title>Nicholas W. Royer</dc:title>
          </cc:Agent>
        </dc:creator>
        <dc:rights>
          <cc:Agent>
            <dc:title>All rights reserved</dc:title>
          </cc:Agent>
        </dc:rights>
        <dc:description>L=128px</dc:description>
      </cc:Work>
    </rdf:RDF>
  </metadata>
  <g
     style="display:inline;opacity:1"
     id="layer1"
     inkscape:groupmode="layer"
     inkscape:label="Symbol">
    <text
       xml:space="preserve"
       id="text891"
       style="font-style:normal;font-variant:normal;font-weight:bold;font-stretch:normal;font-size:10.3224px;line-height:1.25;font-family:'Liberation Sans';-inkscape-font-specification:'Liberation Sans Bold';font-variant-ligatures:normal;font-variant-position:normal;font-variant-caps:normal;font-variant-numeric:normal;font-variant-alternates:normal;font-variant-east-asian:normal;font-feature-settings:normal;font-variation-settings:normal;text-indent:0;text-align:center;text-decoration:none;text-decoration-line:none;text-decoration-style:solid;text-decoration-color:#000000;letter-spacing:0px;word-spacing:0px;text-transform:none;writing-mode:lr-tb;direction:ltr;text-orientation:mixed;dominant-baseline:auto;baseline-shift:baseline;white-space:pre;shape-inside:url(#rect893);shape-padding:0;shape-margin:0;inline-size:0;opacity:1;vector-effect:none;fill:#000000;fill-opacity:1;stroke:none;stroke-width:0.861677;stroke-linecap:butt;stroke-linejoin:miter;stroke-miterlimit:4;stroke-dasharray:none;stroke-dashoffset:0;stroke-opacity:1;stop-color:#000000;stop-opacity:1;"
       transform="matrix(1.1605244,0,0,1.1605244,-16.269253,-52.414902)"
       x="14.530996"
       y="0"><tspan
         x="39.963544"
         y="67.995213"><tspan
           style="stroke-width:0.861677">?</tspan></tspan></text>
    <path
       d="m 41.759987,34.616463 -3.55789,0.178033 -1.539872,0.749128 0.203468,2.237205 c 0,0 -1.856552,1.771533 -1.311898,4.193721 0.601408,2.674573 2.483072,3.629781 4.174301,3.858004 a 1.0843848,1.0843848 0 0 0 0.911901,0.498029 1.0843848,1.0843848 0 0 0 0.930395,-0.528088 c 1.786534,-0.344334 3.90068,-1.729653 3.856616,-4.446204 -0.05026,-3.099206 -1.989349,-4.158115 -1.989349,-4.158115 l -0.06197,-1.999523 z m 0.333408,0.567857 0.04948,1.168082 c 0.01122,0.264448 -0.190616,0.486423 -0.452713,0.497567 -0.262094,0.01115 -0.48219,-0.192886 -0.493406,-0.457337 l -0.04994,-1.172706 z m -1.934319,2.531771 c 2.60375,-0.08866 3.616347,1.530581 3.867712,2.923906 0.227517,1.261146 -0.265651,3.525414 -2.572463,3.890833 a 1.0843848,1.0843848 0 0 0 -0.814328,-0.369013 1.0843848,1.0843848 0 0 0 -0.788895,0.340344 c -2.301963,-0.371691 -2.929025,-2.041748 -3.023329,-3.320665 -0.104682,-1.419743 1.006102,-3.319215 3.331303,-3.465405 z"
       style="display:inline;opacity:1;fill:#000000;stroke:none;stroke-width:0.0661458;stop-color:#000000"
       id="path977" />
    <path
       d="m 28.341835,29.187144 -1.286464,1.53201 c 0,0 -2.178406,-0.368699 -4.136381,2.034204 -1.716231,2.106216 -0.913406,4.50291 0.276529,5.879256 -0.01628,0.125353 -0.0086,0.250048 0.01758,0.369939 -0.694041,0.949288 -1.067017,1.878822 -1.119066,2.788879 -0.06449,1.127598 0.367972,2.158223 1.048315,3.046449 0.668683,0.873 1.804681,1.532554 3.113962,1.756284 l -0.02081,-0.0014 -0.316761,0.497106 c 0,0 0.870352,-0.02482 1.368775,-0.424967 l -0.0088,-4.73e-4 c 0.0047,-1.76e-4 0.0095,-2.38e-4 0.01433,-4.74e-4 l -0.0055,9.85e-4 c 0.121342,0.461096 0.06104,0.664967 0.06104,0.664967 0,0 1.02975,-0.381335 1.09086,-0.851324 l -0.0097,0.0014 c 0.0075,-0.0021 0.0151,-0.0047 0.02266,-0.007 l -0.01295,0.0055 c 0.212578,0.333064 0.467972,0.563695 0.467972,0.563695 0,0 0.45527,-0.58193 0.543348,-1.001146 l -0.0051,0.0023 c 0.05338,-0.03126 0.105941,-0.06512 0.158611,-0.09896 l -4.74e-4,0.0023 0.394449,0.247396 0.348204,-0.840686 -0.0028,4.73e-4 c 0.01243,-0.01217 0.02556,-0.02277 0.03792,-0.03514 0.551983,-0.5519 -0.289115,-1.717257 -1.002989,-1.003385 -0.860712,0.860715 -1.868962,1.045225 -2.843907,0.887855 -0.974944,-0.157369 -1.877992,-0.723464 -2.264952,-1.22866 -0.541789,-0.707333 -0.799934,-1.375991 -0.758375,-2.102642 0.03343,-0.584449 0.276009,-1.252801 0.843461,-2.027727 5.4e-5,-7.3e-5 4.03e-4,7.4e-5 4.74e-4,0 0.0899,-0.0064 0.180102,-0.02242 0.268668,-0.04763 0.5601,-0.159472 0.767914,-0.659683 0.726931,-1.120914 -0.02642,-0.297403 -0.174309,-0.57075 -0.408783,-0.755602 -0.245077,-0.192856 -0.56132,-0.270863 -0.86797,-0.2141 -1.585493,-1.714974 -0.571397,-3.798663 0.387974,-4.648284 1.059921,-0.938672 2.857573,-1.583398 4.84759,0.09803 l 2.38888,2.306571 1.702182,-1.84831 -0.745426,-1.541258 -2.68437,-2.342639 z m 1.015943,0.782422 0.721383,0.614099 -0.765311,0.890165 c -0.172513,0.200738 -0.471578,0.224643 -0.670517,0.05364 -0.198938,-0.170998 -0.220133,-0.470229 -0.04763,-0.670976 z"
       style="display:inline;opacity:1;fill:#000000;stroke:none;stroke-width:0.0661458;stop-color:#000000"
       id="path993" />
    <path
       d="m 36.650202,27.511784 c -0.204802,0.01012 -0.398023,0.04713 -0.572017,0.110056 -0.328221,0.118703 -0.602087,0.343857 -0.693636,0.662191 l -1.01132,4.74e-4 c -0.02935,-0.164106 -0.09758,-0.316644 -0.21549,-0.441615 -0.245041,-0.259711 -0.621171,-0.317132 -0.983577,-0.24231 -0.362403,0.07483 -0.736606,0.276957 -1.064036,0.585891 -0.32743,0.308933 -0.551185,0.670985 -0.646931,1.028431 -0.09575,0.357445 -0.05868,0.734962 0.186357,0.994673 0.24504,0.259711 0.618398,0.317133 0.980801,0.24231 0.362404,-0.07483 0.736609,-0.276958 1.064037,-0.585891 0.327429,-0.308933 0.551185,-0.670985 0.646931,-1.028431 0.0072,-0.02671 0.01191,-0.05359 0.01757,-0.08046 h 1.030741 c 0.05901,0.19608 0.181617,0.378203 0.341269,0.529475 0.268618,0.254519 0.648797,0.446306 1.08947,0.538262 0.440675,0.09196 0.865415,0.06805 1.213401,-0.05781 0.0064,-0.0023 0.01253,-0.0055 0.01896,-0.0079 l 0.892478,1.286002 c -0.154239,0.138787 -0.266982,0.331325 -0.334333,0.544735 -0.111365,0.35289 -0.117019,0.778288 -0.007,1.214788 0.110082,0.4365 0.316791,0.808012 0.58219,1.065886 0.2654,0.25787 0.611921,0.411938 0.958144,0.32462 0.346222,-0.08732 0.579493,-0.38745 0.690858,-0.74034 0.111368,-0.352889 0.115635,-0.777826 0.0055,-1.214326 C 40.730594,31.804017 40.52527,31.431577 40.259872,31.173704 40.01419,30.934993 39.698275,30.789822 39.37803,30.838448 l -0.917911,-1.32112 c 0.140265,-0.125704 0.24366,-0.283138 0.283003,-0.471673 0.07294,-0.349535 -0.09346,-0.688364 -0.362078,-0.942883 -0.268617,-0.254518 -0.648335,-0.446305 -1.089008,-0.53826 -0.220337,-0.04598 -0.43704,-0.06284 -0.641846,-0.05272 z m 0.02313,0.473521 c 0.162718,-0.0078 0.339911,0.0051 0.521613,0.04301 0.363407,0.07584 0.669155,0.23615 0.859646,0.416645 0.190493,0.180495 0.255306,0.357556 0.224738,0.504042 -0.01262,0.06044 -0.04653,0.118119 -0.09433,0.172484 l -0.01896,-0.02728 a 0.23676115,0.23676115 0 0 0 -0.199306,-0.101271 0.23676115,0.23676115 0 0 0 -0.129016,0.04208 0.23676115,0.23676115 0 0 0 -0.0689,0.313523 c -0.235982,0.06346 -0.534535,0.07868 -0.851783,0.01248 -0.363407,-0.07583 -0.670079,-0.238461 -0.860572,-0.418955 -0.0662,-0.06273 -0.112187,-0.124213 -0.149363,-0.18497 h 0.635372 A 0.23676115,0.23676115 0 0 0 36.7783,28.519399 0.23676115,0.23676115 0 0 0 36.542464,28.283562 l -0.63121,4.74e-4 c 0.06719,-0.08482 0.171645,-0.161306 0.32786,-0.217802 0.123388,-0.04463 0.271497,-0.07311 0.434215,-0.08092 z m -3.223556,0.05781 c 0.164573,-0.0038 0.286445,0.04322 0.363464,0.124854 0.03007,0.03187 0.052,0.07226 0.06982,0.116993 h -0.318607 a 0.23676115,0.23676115 0 0 0 -0.237687,0.236299 0.23676115,0.23676115 0 0 0 0.237687,0.235837 h 0.305198 c -0.07526,0.244276 -0.244609,0.523099 -0.500342,0.764386 -0.270016,0.254765 -0.575822,0.413525 -0.832825,0.466585 -0.257003,0.05307 -0.43973,0.0053 -0.542422,-0.103583 -0.102694,-0.108839 -0.139576,-0.294022 -0.07168,-0.547509 0.0679,-0.253487 0.24281,-0.55124 0.512828,-0.806005 0.270019,-0.254765 0.5786,-0.413524 0.835601,-0.466585 0.06425,-0.01326 0.124099,-0.01999 0.178958,-0.02127 z m 6.289888,3.33084 c 0.06185,0.03458 0.125086,0.07791 0.190058,0.141038 0.188208,0.182871 0.362855,0.480724 0.453636,0.840686 0.09078,0.359962 0.07851,0.706961 -4.73e-4,0.957217 -0.07898,0.250257 -0.209584,0.386525 -0.35468,0.423119 -0.145097,0.03659 -0.324617,-0.02152 -0.512828,-0.204391 -0.18821,-0.182872 -0.361469,-0.483038 -0.452251,-0.843 -0.09078,-0.359962 -0.08037,-0.704648 -0.0014,-0.954904 0.04035,-0.127835 0.0944,-0.224819 0.156762,-0.295028 l 0.102657,0.147975 a 0.23676115,0.23676115 0 0 0 0.330634,0.05919 0.23676115,0.23676115 0 0 0 0.08787,-0.271903 z"
       style="color:#000000;font-style:normal;font-variant:normal;font-weight:normal;font-stretch:normal;font-size:medium;line-height:normal;font-family:sans-serif;font-variant-ligatures:normal;font-variant-position:normal;font-variant-caps:normal;font-variant-numeric:normal;font-variant-alternates:normal;font-variant-east-asian:normal;font-feature-settings:normal;font-variation-settings:normal;text-indent:0;text-align:start;text-decoration:none;text-decoration-line:none;text-decoration-style:solid;text-decoration-color:#000000;letter-spacing:normal;word-spacing:normal;text-transform:none;writing-mode:lr-tb;direction:ltr;text-orientation:mixed;dominant-baseline:auto;baseline-shift:baseline;text-anchor:start;white-space:normal;shape-padding:0;shape-margin:0;inline-size:0;clip-rule:nonzero;display:inline;overflow:visible;visibility:visible;opacity:1;isolation:auto;mix-blend-mode:normal;color-interpolation:sRGB;color-interpolation-filters:linearRGB;solid-color:#000000;solid-opacity:1;vector-effect:none;fill:#000000;fill-opacity:1;fill-rule:nonzero;stroke:none;stroke-width:0.529167;stroke-linecap:butt;stroke-linejoin:miter;stroke-miterlimit:4;stroke-dasharray:none;stroke-dashoffset:0;stroke-opacity:1;color-rendering:auto;image-rendering:auto;shape-rendering:auto;text-rendering:auto;enable-background:accumulate;stop-color:#000000;stop-opacity:1"
       id="path1032" />
  </g>
  <g
     style="opacity:0.25"
     inkscape:label="Octagon"
     id="layer2"
     inkscape:groupmode="layer"
     sodipodi:insensitive="true">
    <path
       id="path919"
       style="font-variation-settings:normal;display:inline;opacity:1;vector-effect:none;fill:none;fill-opacity:1;stroke:#ff0080;stroke-width:0.249999;stroke-linecap:butt;stroke-linejoin:round;stroke-miterlimit:4;stroke-dasharray:none;stroke-dashoffset:0;stroke-opacity:1;marker:none;paint-order:normal;stop-color:#000000;stop-opacity:1"
       d="M 33.866665,9.9192931 A 11.973734,11.973734 0 0 0 21.89272,21.892723 11.973734,11.973734 0 0 0 9.9192906,33.866668 11.973734,11.973734 0 0 0 21.89272,45.840098 11.973734,11.973734 0 0 0 33.866665,57.814044 11.973734,11.973734 0 0 0 45.840095,45.840098 11.973734,11.973734 0 0 0 57.814041,33.866668 11.973734,11.973734 0 0 0 45.840095,21.892723 11.973734,11.973734 0 0 0 33.866665,9.9192931 Z" />
    <path
       d="M 45.840339,45.840339 33.866665,50.799997 21.892991,45.840339 16.933332,33.866665 21.892991,21.892991 33.866665,16.933332 45.840339,21.892991 50.799997,33.866665 Z"
       inkscape:randomized="0"
       inkscape:rounded="0"
       inkscape:flatsided="true"
       sodipodi:arg2="1.1780972"
       sodipodi:arg1="0.78539816"
       sodipodi:r2="15.64436"
       sodipodi:r1="16.933332"
       sodipodi:cy="33.866665"
       sodipodi:cx="33.866665"
       sodipodi:sides="8"
       id="path836"
       style="opacity:1;vector-effect:none;fill:none;fill-opacity:1;stroke:#ff0080;stroke-width:0.249999;stroke-linecap:butt;stroke-linejoin:round;stroke-miterlimit:4;stroke-dasharray:none;stroke-dashoffset:0;stroke-opacity:1;marker:none;paint-order:normal;stop-color:#000000"
       sodipodi:type="star" />
    <path
       style="fill:none;stroke:#ff0080;stroke-width:0.25;stroke-linejoin:round;stop-color:#000000"
       d="M 27.093333,19.738938 V 47.994392"
       id="path857"
       sodipodi:nodetypes="cc" />
    <path
       sodipodi:nodetypes="cc"
       id="path859"
       d="M 40.639997,19.738938 V 47.994392"
       style="fill:none;stroke:#ff0080;stroke-width:0.25;stroke-linejoin:round;stop-color:#000000" />
    <path
       style="fill:none;stroke:#ff0080;stroke-width:0.25;stroke-linejoin:round;stop-color:#000000"
       d="M 47.994392,27.093332 H 19.738938"
       id="path861"
       sodipodi:nodetypes="cc" />
    <path
       sodipodi:nodetypes="cc"
       id="path863"
       d="M 47.994392,40.639997 H 19.738938"
       style="fill:none;stroke:#ff0080;stroke-width:0.25;stroke-linejoin:round;stop-color:#000000" />
    <path
       id="rect838"
       style="font-variation-settings:normal;display:inline;opacity:1;vector-effect:none;fill:none;fill-opacity:1;stroke:#ff0080;stroke-width:0.249999;stroke-linecap:butt;stroke-linejoin:round;stroke-miterlimit:4;stroke-dasharray:none;stroke-dashoffset:0;stroke-opacity:1;marker:none;paint-order:normal;stop-color:#000000;stop-opacity:1"
       d="M 8.2166664,16.933333 H 59.516663 V 50.799998 H 8.2166664 Z" />
    <path
       d="M 15.190002,15.189999 H 52.54333 V 52.543335 H 15.190002 Z"
       style="font-variation-settings:normal;display:inline;opacity:1;vector-effect:none;fill:none;fill-opacity:1;stroke:#ff0080;stroke-width:0.249999;stroke-linecap:butt;stroke-linejoin:round;stroke-miterlimit:4;stroke-dasharray:none;stroke-dashoffset:0;stroke-opacity:1;marker:none;paint-order:normal;stop-color:#000000;stop-opacity:1"
       id="rect838-7" />
    <path
       id="rect838-3"
       style="font-variation-settings:normal;display:inline;opacity:1;vector-effect:none;fill:none;fill-opacity:1;stroke:#ff0080;stroke-width:0.249999;stroke-linecap:butt;stroke-linejoin:round;stroke-miterlimit:4;stroke-dasharray:none;stroke-dashoffset:0;stroke-opacity:1;marker:none;paint-order:normal;stop-color:#000000;stop-opacity:1"
       d="M 33.866669,9.9193234 57.814011,33.866666 33.866664,57.814013 9.9193223,33.86667 Z" />
  </g>
</svg>
