<?xml version="1.0" encoding="UTF-8" standalone="no"?>
<svg
        xmlns:dc="http://purl.org/dc/elements/1.1/"
        xmlns:cc="http://creativecommons.org/ns#"
        xmlns:rdf="http://www.w3.org/1999/02/22-rdf-syntax-ns#"
        xmlns="http://www.w3.org/2000/svg"
        xmlns:sodipodi="http://sodipodi.sourceforge.net/DTD/sodipodi-0.dtd"
        xmlns:inkscape="http://www.inkscape.org/namespaces/inkscape"
        sodipodi:docname="131403.svg"
        inkscape:version="1.0 (4035a4fb49, 2020-05-01)"
        id="svg8"
        version="1.1"
        viewBox="0 0 67.733332 67.733332"
        height="256"
        width="256">
  <style
     id="style846"></style>
  <title
     id="title856">MIL-STD-2525D Icon</title>
  <defs
     id="defs2">
    <rect
       id="rect919"
       height="27.825965"
       width="37.028973"
       y="29.981363"
       x="23.463894" />
    <rect
       x="23.31878"
       y="3.2134565"
       width="40.416331"
       height="13.148852"
       id="rect839" />
    <rect
       x="23.463894"
       y="29.981363"
       width="37.028973"
       height="27.825965"
       id="rect873" />
  </defs>
  <sodipodi:namedview
     inkscape:guide-bbox="true"
     showguides="true"
     inkscape:pagecheckerboard="true"
     units="px"
     inkscape:window-maximized="0"
     inkscape:window-y="27"
     inkscape:window-x="1763"
     inkscape:window-height="1385"
     inkscape:window-width="1677"
     showgrid="false"
     inkscape:document-rotation="0"
     inkscape:current-layer="layer1"
     inkscape:document-units="px"
     inkscape:cy="115.38507"
     inkscape:cx="119.34143"
     inkscape:zoom="4"
     inkscape:pageshadow="2"
     inkscape:pageopacity="0"
     borderopacity="1.0"
     bordercolor="#666666"
     pagecolor="#ffffff"
     id="base"
     inkscape:object-paths="true"
     inkscape:snap-midpoints="true"
     inkscape:snap-object-midpoints="true"
     inkscape:snap-center="true"
     inkscape:snap-global="true">
    <sodipodi:guide
       id="guide861"
       orientation="1,0"
       position="33.866665,50.8" />
  </sodipodi:namedview>
  <metadata
     id="metadata5">
    <rdf:RDF>
      <cc:Work
         rdf:about="">
        <dc:format>image/svg+xml</dc:format>
        <dc:type
           rdf:resource="http://purl.org/dc/dcmitype/StillImage" />
        <dc:title>MIL-STD-2525D Icon</dc:title>
        <dc:creator>
          <cc:Agent>
            <dc:title>Nicholas W. Royer</dc:title>
          </cc:Agent>
        </dc:creator>
        <dc:rights>
          <cc:Agent>
            <dc:title>All rights reserved</dc:title>
          </cc:Agent>
        </dc:rights>
        <dc:description>L=128px</dc:description>
      </cc:Work>
    </rdf:RDF>
  </metadata>
  <g
     style="display:inline;opacity:1"
     id="layer1"
     inkscape:groupmode="layer"
     inkscape:label="Symbol">
    <path
       transform="scale(0.26458333)"
       d="M 114.02734 92.03125 C 112.33271 92.03125 110.96875 93.395213 110.96875 95.089844 L 110.96875 95.615234 L 99.751953 95.615234 L 99.751953 112.875 L 110.96875 112.875 L 110.96875 113.40234 C 110.96875 115.09697 112.33271 116.46094 114.02734 116.46094 C 115.72197 116.46094 117.08594 115.09697 117.08594 113.40234 L 117.08594 113.42188 L 149.13867 109.96875 L 149.13867 110.41602 C 149.13867 111.49236 150.00569 112.35938 151.08203 112.35938 L 153.45117 112.35938 C 154.52751 112.35935 155.39453 111.49236 155.39453 110.41602 L 155.39453 98.074219 C 155.39453 96.997874 154.52751 96.130859 153.45117 96.130859 L 151.08203 96.130859 C 150.00569 96.130859 149.13867 96.997874 149.13867 98.074219 L 149.13867 98.521484 L 117.08594 95.070312 L 117.08594 95.089844 C 117.08594 93.395213 115.72197 92.03125 114.02734 92.03125 z M 158.39258 116.89648 C 159.60874 127.51856 150.84471 139.89468 148.96484 142.55859 C 147.08497 145.2225 141.69613 150.16547 147.64844 159.25 C 153.60074 168.33454 169.74566 168.76864 174.22852 158.33398 C 178.71138 147.89932 167.75625 137.90606 167.10156 133.83203 C 166.44687 129.758 163.18606 117.22743 158.39258 116.89648 z "
       style="fill:#ffffff;stroke:none;stroke-width:2;stroke-linejoin:round;stop-color:#000000"
       id="path987" />
    <rect
       ry="0.80933368"
       rx="0.80933368"
       y="24.349678"
       x="29.360558"
       height="6.4639969"
       width="1.6186674"
       id="rect939"
       style="fill:none;stroke:#000000;stroke-width:1.05833;stroke-linejoin:round;stop-color:#000000" />
    <rect
       ry="0.51404738"
       rx="0.51404738"
       y="25.434858"
       x="39.459816"
       height="4.2936354"
       width="1.6547964"
       id="rect941"
       style="fill:none;stroke:#000000;stroke-width:1.05833;stroke-linejoin:round;stop-color:#000000" />
    <path
       sodipodi:nodetypes="cc"
       id="path943"
       d="m 30.97921,25.153899 8.480605,0.91348"
       style="fill:none;stroke:#000000;stroke-width:1.05833;stroke-linejoin:round;stop-color:#000000" />
    <path
       sodipodi:nodetypes="cc"
       style="fill:none;stroke:#000000;stroke-width:1.05833;stroke-linejoin:round;stop-color:#000000"
       d="m 30.97921,30.009333 8.480605,-0.91348"
       id="path945" />
    <rect
       y="25.298391"
       x="26.392822"
       height="4.5665703"
       width="2.9677353"
       id="rect947"
       style="fill:none;stroke:#000000;stroke-width:1.05833;stroke-linejoin:round;stop-color:#000000" />
    <path
       d="m 27.349609,28.079916 v 0.529297 h 1.1875 v -0.529297 z m 0,-1.525776 v 0.529297 h 1.1875 V 26.55414 Z"
       style="color:#000000;font-style:normal;font-variant:normal;font-weight:normal;font-stretch:normal;font-size:medium;line-height:normal;font-family:sans-serif;font-variant-ligatures:normal;font-variant-position:normal;font-variant-caps:normal;font-variant-numeric:normal;font-variant-alternates:normal;font-variant-east-asian:normal;font-feature-settings:normal;font-variation-settings:normal;text-indent:0;text-align:start;text-decoration:none;text-decoration-line:none;text-decoration-style:solid;text-decoration-color:#000000;letter-spacing:normal;word-spacing:normal;text-transform:none;writing-mode:lr-tb;direction:ltr;text-orientation:mixed;dominant-baseline:auto;baseline-shift:baseline;text-anchor:start;white-space:normal;shape-padding:0;shape-margin:0;inline-size:0;clip-rule:nonzero;display:inline;overflow:visible;visibility:visible;isolation:auto;mix-blend-mode:normal;color-interpolation:sRGB;color-interpolation-filters:linearRGB;solid-color:#000000;solid-opacity:1;vector-effect:none;fill:#000000;fill-opacity:1;fill-rule:nonzero;stroke:none;stroke-width:0.529167;stroke-linecap:butt;stroke-linejoin:round;stroke-miterlimit:4;stroke-dasharray:none;stroke-dashoffset:0;stroke-opacity:1;color-rendering:auto;image-rendering:auto;shape-rendering:auto;text-rendering:auto;enable-background:accumulate;stop-color:#000000"
       id="path955" />
    <rect
       y="25.447855"
       x="21.752764"
       height="4.2676439"
       width="4.6400585"
       id="rect964"
       style="fill:#000000;stroke:none;stroke-width:0.529167;stroke-linejoin:round;stop-color:#000000" />
    <path
       id="path981"
       d="m 41.908272,30.929114 c 0.321775,2.810423 -1.997263,6.084493 -2.494645,6.789319 -0.497383,0.704826 -1.923392,2.012905 -0.34851,4.416521 1.57488,2.403617 5.846607,2.518372 7.032697,-0.242465 1.18609,-2.760839 -1.712365,-5.404924 -1.885585,-6.482844 -0.17322,-1.077921 -1.035682,-4.392967 -2.303957,-4.480531 z"
       style="fill:none;stroke:#000000;stroke-width:0.529167;stroke-linejoin:round;stop-color:#000000" />
    <path
       id="path983"
       d="m 40.639997,40.720764 c 0.399584,1.08885 1.202126,1.489662 1.202126,1.489662 0,0 -0.843087,0.548066 -1.416087,-0.17272 -0.573003,-0.720783 -0.538842,-0.972667 -0.538842,-0.972667 z"
       style="fill:#000000;stroke:none;stroke-width:0.529167;stroke-linejoin:round;stop-color:#000000" />
    <path
       style="fill:none;stroke:#000000;stroke-width:0.529167;stroke-linejoin:round;stop-color:#000000"
       d="m 41.908272,30.929114 c 0.321775,2.810423 -1.997263,6.084493 -2.494645,6.789319 -0.497383,0.704826 -1.923392,2.012905 -0.34851,4.416521 1.57488,2.403617 5.846607,2.518372 7.032697,-0.242465 1.18609,-2.760839 -1.712365,-5.404924 -1.885585,-6.482844 -0.17322,-1.077921 -1.035682,-4.392967 -2.303957,-4.480531 z"
       id="path985" />
  </g>
  <g
     style="opacity:0.25"
     inkscape:label="Octagon"
     id="layer2"
     inkscape:groupmode="layer"
     sodipodi:insensitive="true">
    <path
       id="path919"
       style="font-variation-settings:normal;display:inline;opacity:1;vector-effect:none;fill:none;fill-opacity:1;stroke:#ff0080;stroke-width:0.249999;stroke-linecap:butt;stroke-linejoin:round;stroke-miterlimit:4;stroke-dasharray:none;stroke-dashoffset:0;stroke-opacity:1;marker:none;paint-order:normal;stop-color:#000000;stop-opacity:1"
       d="M 33.866665,9.9192931 A 11.973734,11.973734 0 0 0 21.89272,21.892723 11.973734,11.973734 0 0 0 9.9192906,33.866668 11.973734,11.973734 0 0 0 21.89272,45.840098 11.973734,11.973734 0 0 0 33.866665,57.814044 11.973734,11.973734 0 0 0 45.840095,45.840098 11.973734,11.973734 0 0 0 57.814041,33.866668 11.973734,11.973734 0 0 0 45.840095,21.892723 11.973734,11.973734 0 0 0 33.866665,9.9192931 Z" />
    <path
       d="M 45.840339,45.840339 33.866665,50.799997 21.892991,45.840339 16.933332,33.866665 21.892991,21.892991 33.866665,16.933332 45.840339,21.892991 50.799997,33.866665 Z"
       inkscape:randomized="0"
       inkscape:rounded="0"
       inkscape:flatsided="true"
       sodipodi:arg2="1.1780972"
       sodipodi:arg1="0.78539816"
       sodipodi:r2="15.64436"
       sodipodi:r1="16.933332"
       sodipodi:cy="33.866665"
       sodipodi:cx="33.866665"
       sodipodi:sides="8"
       id="path836"
       style="opacity:1;vector-effect:none;fill:none;fill-opacity:1;stroke:#ff0080;stroke-width:0.249999;stroke-linecap:butt;stroke-linejoin:round;stroke-miterlimit:4;stroke-dasharray:none;stroke-dashoffset:0;stroke-opacity:1;marker:none;paint-order:normal;stop-color:#000000"
       sodipodi:type="star" />
    <path
       style="fill:none;stroke:#ff0080;stroke-width:0.25;stroke-linejoin:round;stop-color:#000000"
       d="M 27.093333,19.738938 V 47.994392"
       id="path857"
       sodipodi:nodetypes="cc" />
    <path
       sodipodi:nodetypes="cc"
       id="path859"
       d="M 40.639997,19.738938 V 47.994392"
       style="fill:none;stroke:#ff0080;stroke-width:0.25;stroke-linejoin:round;stop-color:#000000" />
    <path
       style="fill:none;stroke:#ff0080;stroke-width:0.25;stroke-linejoin:round;stop-color:#000000"
       d="M 47.994392,27.093332 H 19.738938"
       id="path861"
       sodipodi:nodetypes="cc" />
    <path
       sodipodi:nodetypes="cc"
       id="path863"
       d="M 47.994392,40.639997 H 19.738938"
       style="fill:none;stroke:#ff0080;stroke-width:0.25;stroke-linejoin:round;stop-color:#000000" />
    <path
       id="rect838"
       style="font-variation-settings:normal;display:inline;opacity:1;vector-effect:none;fill:none;fill-opacity:1;stroke:#ff0080;stroke-width:0.249999;stroke-linecap:butt;stroke-linejoin:round;stroke-miterlimit:4;stroke-dasharray:none;stroke-dashoffset:0;stroke-opacity:1;marker:none;paint-order:normal;stop-color:#000000;stop-opacity:1"
       d="M 8.2166664,16.933333 H 59.516663 V 50.799998 H 8.2166664 Z" />
    <path
       d="M 15.190002,15.189999 H 52.54333 V 52.543335 H 15.190002 Z"
       style="font-variation-settings:normal;display:inline;opacity:1;vector-effect:none;fill:none;fill-opacity:1;stroke:#ff0080;stroke-width:0.249999;stroke-linecap:butt;stroke-linejoin:round;stroke-miterlimit:4;stroke-dasharray:none;stroke-dashoffset:0;stroke-opacity:1;marker:none;paint-order:normal;stop-color:#000000;stop-opacity:1"
       id="rect838-7" />
    <path
       id="rect838-3"
       style="font-variation-settings:normal;display:inline;opacity:1;vector-effect:none;fill:none;fill-opacity:1;stroke:#ff0080;stroke-width:0.249999;stroke-linecap:butt;stroke-linejoin:round;stroke-miterlimit:4;stroke-dasharray:none;stroke-dashoffset:0;stroke-opacity:1;marker:none;paint-order:normal;stop-color:#000000;stop-opacity:1"
       d="M 33.866669,9.9193234 57.814011,33.866666 33.866664,57.814013 9.9193223,33.86667 Z" />
  </g>
</svg>
