<?xml version="1.0" encoding="UTF-8" standalone="no"?>
<svg
        xmlns:dc="http://purl.org/dc/elements/1.1/"
        xmlns:cc="http://creativecommons.org/ns#"
        xmlns:rdf="http://www.w3.org/1999/02/22-rdf-syntax-ns#"
        xmlns="http://www.w3.org/2000/svg"
        xmlns:sodipodi="http://sodipodi.sourceforge.net/DTD/sodipodi-0.dtd"
        xmlns:inkscape="http://www.inkscape.org/namespaces/inkscape"
        width="256"
        height="256"
        viewBox="0 0 67.733332 67.733332"
        version="1.1"
        id="svg8"
        inkscape:version="1.0 (4035a4fb49, 2020-05-01)"
        sodipodi:docname="140000.svg">
  <style
     id="style849"></style>
  <title
     id="title856">MIL-STD-2525D Icon</title>
  <defs
     id="defs2">
    <rect
       x="21.839437"
       y="58.697551"
       width="42.553418"
       height="23.993581"
       id="rect937" />
    <rect
       x="23.463894"
       y="29.981363"
       width="37.028973"
       height="27.825965"
       id="rect919" />
    <rect
       id="rect839"
       height="13.148852"
       width="40.416331"
       y="3.2134565"
       x="23.31878" />
  </defs>
  <sodipodi:namedview
     inkscape:snap-smooth-nodes="true"
     inkscape:snap-global="true"
     inkscape:snap-center="true"
     inkscape:snap-object-midpoints="true"
     inkscape:snap-midpoints="true"
     inkscape:object-paths="true"
     id="base"
     pagecolor="#ffffff"
     bordercolor="#666666"
     borderopacity="1.0"
     inkscape:pageopacity="0"
     inkscape:pageshadow="2"
     inkscape:zoom="4"
     inkscape:cx="131.13462"
     inkscape:cy="167.64462"
     inkscape:document-units="px"
     inkscape:current-layer="layer1"
     inkscape:document-rotation="0"
     showgrid="false"
     inkscape:window-width="1678"
     inkscape:window-height="1385"
     inkscape:window-x="1762"
     inkscape:window-y="27"
     inkscape:window-maximized="0"
     units="px"
     inkscape:pagecheckerboard="true"
     showguides="true"
     inkscape:guide-bbox="true">
    <sodipodi:guide
       position="33.866665,50.8"
       orientation="1,0"
       id="guide861" />
  </sodipodi:namedview>
  <metadata
     id="metadata5">
    <rdf:RDF>
      <cc:Work
         rdf:about="">
        <dc:format>image/svg+xml</dc:format>
        <dc:type
           rdf:resource="http://purl.org/dc/dcmitype/StillImage" />
        <dc:title>MIL-STD-2525D Icon</dc:title>
        <dc:creator>
          <cc:Agent>
            <dc:title>Nicholas W. Royer</dc:title>
          </cc:Agent>
        </dc:creator>
        <dc:rights>
          <cc:Agent>
            <dc:title>All rights reserved</dc:title>
          </cc:Agent>
        </dc:rights>
        <dc:description>L=128px</dc:description>
      </cc:Work>
    </rdf:RDF>
  </metadata>
  <g
     inkscape:label="Symbol"
     inkscape:groupmode="layer"
     id="layer1"
     style="display:inline;opacity:1">
    <path
       style="fill:#000000;stroke:none;stroke-width:0.0661458;stroke-dasharray:2.11666, 2.11666;stop-color:#000000"
       d="m 34.008304,45.893386 c -5.62193,0 -11.276801,-5.981521 -11.427074,-12.953357 2.277886,3.723197 4.236753,4.84169 4.398688,4.804992 0.161935,-0.0367 0.486065,-0.66961 0.03519,-1.281473 -0.45087,-0.611864 -1.679829,-2.202631 -1.679829,-4.739142 0,-2.53651 0.798111,-3.69288 0.798111,-3.69288 0,0 0.244063,1.876322 1.627929,3.53399 1.383866,1.657669 2.090054,1.803763 2.445708,1.628819 0.355652,-0.174942 0.207613,-2.004809 -0.334386,-3.294367 -0.541999,-1.289559 -0.880049,-2.169551 -0.741936,-2.735741 0.138114,-0.566189 1.447959,-2.14374 2.338057,-3.481417 0.890099,-1.337679 1.602393,-3.190485 1.602393,-3.190485 0,0 0.742747,1.038348 -0.07157,2.730592 -0.814313,1.692246 -1.082161,2.5452 -0.89304,3.659097 0.189122,1.113897 0.614018,1.938239 1.257885,1.87459 0.643868,-0.06365 1.651233,-1.068698 1.755379,-2.107152 0.10414,-1.038454 0.06167,-2.338931 0.06167,-2.338931 0,0 1.766396,1.964561 1.934617,2.427324 0.168222,0.462763 -0.242068,1.991511 -0.590205,3.279274 -0.348135,1.287763 -0.745331,3.038833 -0.247428,3.208172 0.497903,0.169339 2.046325,-1.052997 2.642525,-2.174115 0.596202,-1.121119 1.138009,-3.205865 1.138009,-3.205865 0,0 0.388764,0.623972 0.581003,2.99231 0.19224,2.368339 -0.698759,3.56925 -0.783457,4.291656 -0.08469,0.722407 -0.384034,1.436815 0.0829,1.648475 0.466932,0.211659 2.669646,-2.215585 3.275721,-3.443355 0.606075,-1.227769 0.818056,-1.871132 0.818056,-1.871132 0,0 0.678449,5.414188 -1.351897,8.647565 -2.030347,3.233376 -3.861243,5.782556 -8.673019,5.782556 z"
       id="path933" />
  </g>
  <g
     sodipodi:insensitive="true"
     inkscape:groupmode="layer"
     id="layer2"
     inkscape:label="Octagon"
     style="opacity:0.25">
    <path
       d="M 33.866665,9.9192931 A 11.973734,11.973734 0 0 0 21.89272,21.892723 11.973734,11.973734 0 0 0 9.9192906,33.866668 11.973734,11.973734 0 0 0 21.89272,45.840098 11.973734,11.973734 0 0 0 33.866665,57.814044 11.973734,11.973734 0 0 0 45.840095,45.840098 11.973734,11.973734 0 0 0 57.814041,33.866668 11.973734,11.973734 0 0 0 45.840095,21.892723 11.973734,11.973734 0 0 0 33.866665,9.9192931 Z"
       style="font-variation-settings:normal;display:inline;opacity:1;vector-effect:none;fill:none;fill-opacity:1;stroke:#ff0080;stroke-width:0.249999;stroke-linecap:butt;stroke-linejoin:round;stroke-miterlimit:4;stroke-dasharray:none;stroke-dashoffset:0;stroke-opacity:1;marker:none;paint-order:normal;stop-color:#000000;stop-opacity:1"
       id="path919" />
    <path
       sodipodi:type="star"
       style="opacity:1;vector-effect:none;fill:none;fill-opacity:1;stroke:#ff0080;stroke-width:0.249999;stroke-linecap:butt;stroke-linejoin:round;stroke-miterlimit:4;stroke-dasharray:none;stroke-dashoffset:0;stroke-opacity:1;marker:none;paint-order:normal;stop-color:#000000"
       id="path836"
       sodipodi:sides="8"
       sodipodi:cx="33.866665"
       sodipodi:cy="33.866665"
       sodipodi:r1="16.933332"
       sodipodi:r2="15.64436"
       sodipodi:arg1="0.78539816"
       sodipodi:arg2="1.1780972"
       inkscape:flatsided="true"
       inkscape:rounded="0"
       inkscape:randomized="0"
       d="M 45.840339,45.840339 33.866665,50.799997 21.892991,45.840339 16.933332,33.866665 21.892991,21.892991 33.866665,16.933332 45.840339,21.892991 50.799997,33.866665 Z" />
    <path
       sodipodi:nodetypes="cc"
       id="path857"
       d="M 27.093333,19.738938 V 47.994392"
       style="fill:none;stroke:#ff0080;stroke-width:0.25;stroke-linejoin:round;stop-color:#000000" />
    <path
       style="fill:none;stroke:#ff0080;stroke-width:0.25;stroke-linejoin:round;stop-color:#000000"
       d="M 40.639997,19.738938 V 47.994392"
       id="path859"
       sodipodi:nodetypes="cc" />
    <path
       sodipodi:nodetypes="cc"
       id="path861"
       d="M 47.994392,27.093332 H 19.738938"
       style="fill:none;stroke:#ff0080;stroke-width:0.25;stroke-linejoin:round;stop-color:#000000" />
    <path
       style="fill:none;stroke:#ff0080;stroke-width:0.25;stroke-linejoin:round;stop-color:#000000"
       d="M 47.994392,40.639997 H 19.738938"
       id="path863"
       sodipodi:nodetypes="cc" />
    <path
       d="M 8.2166664,16.933333 H 59.516663 V 50.799998 H 8.2166664 Z"
       style="font-variation-settings:normal;display:inline;opacity:1;vector-effect:none;fill:none;fill-opacity:1;stroke:#ff0080;stroke-width:0.249999;stroke-linecap:butt;stroke-linejoin:round;stroke-miterlimit:4;stroke-dasharray:none;stroke-dashoffset:0;stroke-opacity:1;marker:none;paint-order:normal;stop-color:#000000;stop-opacity:1"
       id="rect838" />
    <path
       id="rect838-7"
       style="font-variation-settings:normal;display:inline;opacity:1;vector-effect:none;fill:none;fill-opacity:1;stroke:#ff0080;stroke-width:0.249999;stroke-linecap:butt;stroke-linejoin:round;stroke-miterlimit:4;stroke-dasharray:none;stroke-dashoffset:0;stroke-opacity:1;marker:none;paint-order:normal;stop-color:#000000;stop-opacity:1"
       d="M 15.190002,15.189999 H 52.54333 V 52.543335 H 15.190002 Z" />
    <path
       d="M 33.866669,9.9193234 57.814011,33.866666 33.866664,57.814013 9.9193223,33.86667 Z"
       style="font-variation-settings:normal;display:inline;opacity:1;vector-effect:none;fill:none;fill-opacity:1;stroke:#ff0080;stroke-width:0.249999;stroke-linecap:butt;stroke-linejoin:round;stroke-miterlimit:4;stroke-dasharray:none;stroke-dashoffset:0;stroke-opacity:1;marker:none;paint-order:normal;stop-color:#000000;stop-opacity:1"
       id="rect838-3" />
  </g>
</svg>
