<?xml version="1.0" encoding="UTF-8" standalone="no"?>
<svg
        xmlns:dc="http://purl.org/dc/elements/1.1/"
        xmlns:cc="http://creativecommons.org/ns#"
        xmlns:rdf="http://www.w3.org/1999/02/22-rdf-syntax-ns#"
        xmlns="http://www.w3.org/2000/svg"
        xmlns:sodipodi="http://sodipodi.sourceforge.net/DTD/sodipodi-0.dtd"
        xmlns:inkscape="http://www.inkscape.org/namespaces/inkscape"
        sodipodi:docname="140200.svg"
        inkscape:version="1.0 (4035a4fb49, 2020-05-01)"
        id="svg8"
        version="1.1"
        viewBox="0 0 67.733332 67.733332"
        height="256"
        width="256">
  <style
     id="style849"></style>
  <title
     id="title856">MIL-STD-2525D Icon</title>
  <defs
     id="defs2">
    <rect
       id="rect937"
       height="23.993581"
       width="42.553418"
       y="58.697551"
       x="21.839437" />
    <rect
       id="rect919"
       height="27.825965"
       width="37.028973"
       y="29.981363"
       x="23.463894" />
    <rect
       x="23.31878"
       y="3.2134565"
       width="40.416331"
       height="13.148852"
       id="rect839" />
  </defs>
  <sodipodi:namedview
     inkscape:snap-intersection-paths="true"
     inkscape:guide-bbox="true"
     showguides="true"
     inkscape:pagecheckerboard="true"
     units="px"
     inkscape:window-maximized="0"
     inkscape:window-y="27"
     inkscape:window-x="1762"
     inkscape:window-height="1385"
     inkscape:window-width="1678"
     showgrid="false"
     inkscape:document-rotation="0"
     inkscape:current-layer="layer1"
     inkscape:document-units="px"
     inkscape:cy="131.2244"
     inkscape:cx="149.0418"
     inkscape:zoom="4"
     inkscape:pageshadow="2"
     inkscape:pageopacity="0"
     borderopacity="1.0"
     bordercolor="#666666"
     pagecolor="#ffffff"
     id="base"
     inkscape:object-paths="true"
     inkscape:snap-midpoints="true"
     inkscape:snap-object-midpoints="true"
     inkscape:snap-center="true"
     inkscape:snap-global="true"
     inkscape:snap-smooth-nodes="true">
    <sodipodi:guide
       id="guide861"
       orientation="1,0"
       position="33.866665,50.8" />
  </sodipodi:namedview>
  <metadata
     id="metadata5">
    <rdf:RDF>
      <cc:Work
         rdf:about="">
        <dc:format>image/svg+xml</dc:format>
        <dc:type
           rdf:resource="http://purl.org/dc/dcmitype/StillImage" />
        <dc:title>MIL-STD-2525D Icon</dc:title>
        <dc:creator>
          <cc:Agent>
            <dc:title>Nicholas W. Royer</dc:title>
          </cc:Agent>
        </dc:creator>
        <dc:rights>
          <cc:Agent>
            <dc:title>All rights reserved</dc:title>
          </cc:Agent>
        </dc:rights>
        <dc:description>L=128px</dc:description>
      </cc:Work>
    </rdf:RDF>
  </metadata>
  <g
     style="display:inline;opacity:1"
     id="layer1"
     inkscape:groupmode="layer"
     inkscape:label="Symbol">
    <path
       id="path977"
       style="fill:#ffffff;stroke:none;stroke-width:3.99999997;stroke-linejoin:round;stop-color:#000000"
       d="M 136.65625 83.978516 A 12.592408 12.592408 0 0 0 125.42969 91.039062 A 12.592408 12.592408 0 0 0 117.17383 87.957031 A 12.592408 12.592408 0 0 0 104.58008 100.54883 A 12.592408 12.592408 0 0 0 105.5918 105.49219 A 12.592408 12.592408 0 0 0 104.96484 105.47461 A 12.592408 12.592408 0 0 0 93.212891 113.54688 A 12.592408 12.592408 0 0 0 92.414062 113.52148 A 12.592408 12.592408 0 0 0 79.822266 126.11328 A 12.592408 12.592408 0 0 0 92.414062 138.70508 A 12.592408 12.592408 0 0 0 96.847656 137.90039 A 12.592408 12.592408 0 0 0 101.92383 144.65625 A 12.592408 12.592408 0 0 0 101.3457 148.42578 A 12.592408 12.592408 0 0 0 106.57422 158.63867 A 12.592408 12.592408 0 0 0 105.64062 163.39258 A 12.592408 12.592408 0 0 0 118.23242 175.98438 A 12.592408 12.592408 0 0 0 129.27539 169.44531 A 12.592408 12.592408 0 0 0 139.36523 174.50781 A 12.592408 12.592408 0 0 0 151.95898 161.91602 A 12.592408 12.592408 0 0 0 151.73633 159.56641 A 12.592408 12.592408 0 0 0 155.22852 150.86328 A 12.592408 12.592408 0 0 0 153.54883 144.58008 A 12.592408 12.592408 0 0 0 164.70898 132.07031 A 12.592408 12.592408 0 0 0 164.68555 131.31445 A 12.592408 12.592408 0 0 0 174.03906 119.14648 A 12.592408 12.592408 0 0 0 161.99609 106.56641 A 12.592408 12.592408 0 0 0 149.49805 95.503906 A 12.592408 12.592408 0 0 0 149.28711 95.505859 A 12.592408 12.592408 0 0 0 136.74219 83.978516 A 12.592408 12.592408 0 0 0 136.65625 83.978516 z "
       transform="scale(0.26458333)" />
    <path
       sodipodi:nodetypes="ccsssc"
       id="path933"
       d="m 33.866666,46.946118 c -1.63054,0 -3.183511,-2.772341 -2.916044,-5.593791 1.169603,2.560356 2.03335,2.432628 2.106416,2.280926 0.07306,-0.151701 -0.108929,-1.391694 -0.446856,-1.988302 -0.337928,-0.596609 -0.780738,-1.352827 0.05807,-1.984274 0.838814,-0.631446 1.077117,-1.32487 1.594759,-2.631346 0.302711,1.585955 -0.758313,2.06006 -0.683896,2.906952 0.07442,0.846892 0.711021,1.340713 1.305644,0.767246 0.594624,-0.573466 0.43397,-1.725289 0.43397,-1.725289 0,0 1.08845,0.448191 0.855394,1.616004 -0.233056,1.167813 -0.420804,1.435254 -0.400204,1.97166 0.0206,0.536406 0.191425,0.624643 0.475989,0.547943 0.284564,-0.0767 0.857774,-0.685287 1.203744,-1.440805 0.345969,-0.755518 0.340574,-1.22963 0.340574,-1.22963 0,0 0.885473,6.502706 -3.92756,6.502706 z"
       style="fill:#000000;stroke:none;stroke-width:0.198437;stroke-linejoin:round;stop-color:#000000" />
    <path
       transform="scale(0.26458333)"
       d="M 136.65625 83.978516 A 12.592408 12.592408 0 0 0 125.42969 91.039062 A 12.592408 12.592408 0 0 0 117.17383 87.957031 A 12.592408 12.592408 0 0 0 104.58008 100.54883 A 12.592408 12.592408 0 0 0 105.5918 105.49219 A 12.592408 12.592408 0 0 0 104.96484 105.47461 A 12.592408 12.592408 0 0 0 93.212891 113.54688 A 12.592408 12.592408 0 0 0 92.414062 113.52148 A 12.592408 12.592408 0 0 0 79.822266 126.11328 A 12.592408 12.592408 0 0 0 92.414062 138.70508 A 12.592408 12.592408 0 0 0 96.847656 137.90039 A 12.592408 12.592408 0 0 0 101.92383 144.65625 A 12.592408 12.592408 0 0 0 101.3457 148.42578 A 12.592408 12.592408 0 0 0 106.57422 158.63867 A 12.592408 12.592408 0 0 0 105.64062 163.39258 A 12.592408 12.592408 0 0 0 118.23242 175.98438 A 12.592408 12.592408 0 0 0 129.27539 169.44531 A 12.592408 12.592408 0 0 0 139.36523 174.50781 A 12.592408 12.592408 0 0 0 151.95898 161.91602 A 12.592408 12.592408 0 0 0 151.73633 159.56641 A 12.592408 12.592408 0 0 0 155.22852 150.86328 A 12.592408 12.592408 0 0 0 153.54883 144.58008 A 12.592408 12.592408 0 0 0 164.70898 132.07031 A 12.592408 12.592408 0 0 0 164.68555 131.31445 A 12.592408 12.592408 0 0 0 174.03906 119.14648 A 12.592408 12.592408 0 0 0 161.99609 106.56641 A 12.592408 12.592408 0 0 0 149.49805 95.503906 A 12.592408 12.592408 0 0 0 149.28711 95.505859 A 12.592408 12.592408 0 0 0 136.74219 83.978516 A 12.592408 12.592408 0 0 0 136.65625 83.978516 z "
       style="fill:none;stroke:#000000;stroke-width:1.99999999;stroke-linejoin:round;stop-color:#000000"
       id="path974" />
    <path
       sodipodi:nodetypes="cssc"
       d="m 33.801285,27.14763 c 0.588628,-0.531531 1.368594,-0.855171 2.224151,-0.855171 1.833473,0 3.319796,1.486323 3.319796,3.319796 0,0.20812 -0.01915,0.411767 -0.05579,0.609275"
       style="fill:none;stroke:#000000;stroke-width:0.52916666;stroke-linejoin:round;stop-color:#000000;stroke-miterlimit:4;stroke-dasharray:none;stroke-linecap:round"
       id="path979" />
    <path
       sodipodi:nodetypes="csc"
       d="m 36.232415,30.176073 c 0.450905,-0.229058 0.961132,-0.35817 1.501514,-0.35817 1.833473,0 3.319796,1.486323 3.319796,3.319796"
       style="fill:none;stroke:#000000;stroke-width:0.52916666;stroke-linejoin:round;stop-color:#000000;stroke-miterlimit:4;stroke-dasharray:none;stroke-linecap:round"
       id="circle981" />
    <path
       sodipodi:nodetypes="cc"
       id="path985"
       style="fill:none;stroke:#000000;stroke-width:0.52916666;stroke-linejoin:round;stop-color:#000000;stroke-miterlimit:4;stroke-dasharray:none;stroke-linecap:round"
       d="m 35.503664,33.946156 c 1.488157,0 2.747614,0.979178 3.169238,2.3284" />
    <path
       sodipodi:nodetypes="csc"
       d="m 26.237535,35.476163 c 0.493015,-1.215496 1.685204,-2.072723 3.07761,-2.072723 0.268292,0 0.529152,0.03183 0.779008,0.09191"
       style="fill:none;stroke:#000000;stroke-width:0.52916666;stroke-linejoin:round;stop-color:#000000;stroke-miterlimit:4;stroke-dasharray:none;stroke-linecap:round"
       id="path987" />
    <path
       sodipodi:nodetypes="cssc"
       id="path989"
       style="fill:none;stroke:#000000;stroke-width:0.52916666;stroke-linejoin:round;stop-color:#000000;stroke-miterlimit:4;stroke-dasharray:none;stroke-linecap:round"
       d="m 27.452186,33.967101 c -0.143405,-0.371124 -0.222039,-0.774476 -0.222039,-1.196194 0,-1.833473 1.486323,-3.319796 3.319796,-3.319796 0.309263,0 0.608649,0.04229 0.892691,0.121398" />
  </g>
  <g
     style="opacity:0.25"
     inkscape:label="Octagon"
     id="layer2"
     inkscape:groupmode="layer"
     sodipodi:insensitive="true">
    <path
       id="path919"
       style="font-variation-settings:normal;display:inline;opacity:1;vector-effect:none;fill:none;fill-opacity:1;stroke:#ff0080;stroke-width:0.249999;stroke-linecap:butt;stroke-linejoin:round;stroke-miterlimit:4;stroke-dasharray:none;stroke-dashoffset:0;stroke-opacity:1;marker:none;paint-order:normal;stop-color:#000000;stop-opacity:1"
       d="M 33.866665,9.9192931 A 11.973734,11.973734 0 0 0 21.89272,21.892723 11.973734,11.973734 0 0 0 9.9192906,33.866668 11.973734,11.973734 0 0 0 21.89272,45.840098 11.973734,11.973734 0 0 0 33.866665,57.814044 11.973734,11.973734 0 0 0 45.840095,45.840098 11.973734,11.973734 0 0 0 57.814041,33.866668 11.973734,11.973734 0 0 0 45.840095,21.892723 11.973734,11.973734 0 0 0 33.866665,9.9192931 Z" />
    <path
       d="M 45.840339,45.840339 33.866665,50.799997 21.892991,45.840339 16.933332,33.866665 21.892991,21.892991 33.866665,16.933332 45.840339,21.892991 50.799997,33.866665 Z"
       inkscape:randomized="0"
       inkscape:rounded="0"
       inkscape:flatsided="true"
       sodipodi:arg2="1.1780972"
       sodipodi:arg1="0.78539816"
       sodipodi:r2="15.64436"
       sodipodi:r1="16.933332"
       sodipodi:cy="33.866665"
       sodipodi:cx="33.866665"
       sodipodi:sides="8"
       id="path836"
       style="opacity:1;vector-effect:none;fill:none;fill-opacity:1;stroke:#ff0080;stroke-width:0.249999;stroke-linecap:butt;stroke-linejoin:round;stroke-miterlimit:4;stroke-dasharray:none;stroke-dashoffset:0;stroke-opacity:1;marker:none;paint-order:normal;stop-color:#000000"
       sodipodi:type="star" />
    <path
       style="fill:none;stroke:#ff0080;stroke-width:0.25;stroke-linejoin:round;stop-color:#000000"
       d="M 27.093333,19.738938 V 47.994392"
       id="path857"
       sodipodi:nodetypes="cc" />
    <path
       sodipodi:nodetypes="cc"
       id="path859"
       d="M 40.639997,19.738938 V 47.994392"
       style="fill:none;stroke:#ff0080;stroke-width:0.25;stroke-linejoin:round;stop-color:#000000" />
    <path
       style="fill:none;stroke:#ff0080;stroke-width:0.25;stroke-linejoin:round;stop-color:#000000"
       d="M 47.994392,27.093332 H 19.738938"
       id="path861"
       sodipodi:nodetypes="cc" />
    <path
       sodipodi:nodetypes="cc"
       id="path863"
       d="M 47.994392,40.639997 H 19.738938"
       style="fill:none;stroke:#ff0080;stroke-width:0.25;stroke-linejoin:round;stop-color:#000000" />
    <path
       id="rect838"
       style="font-variation-settings:normal;display:inline;opacity:1;vector-effect:none;fill:none;fill-opacity:1;stroke:#ff0080;stroke-width:0.249999;stroke-linecap:butt;stroke-linejoin:round;stroke-miterlimit:4;stroke-dasharray:none;stroke-dashoffset:0;stroke-opacity:1;marker:none;paint-order:normal;stop-color:#000000;stop-opacity:1"
       d="M 8.2166664,16.933333 H 59.516663 V 50.799998 H 8.2166664 Z" />
    <path
       d="M 15.190002,15.189999 H 52.54333 V 52.543335 H 15.190002 Z"
       style="font-variation-settings:normal;display:inline;opacity:1;vector-effect:none;fill:none;fill-opacity:1;stroke:#ff0080;stroke-width:0.249999;stroke-linecap:butt;stroke-linejoin:round;stroke-miterlimit:4;stroke-dasharray:none;stroke-dashoffset:0;stroke-opacity:1;marker:none;paint-order:normal;stop-color:#000000;stop-opacity:1"
       id="rect838-7" />
    <path
       id="rect838-3"
       style="font-variation-settings:normal;display:inline;opacity:1;vector-effect:none;fill:none;fill-opacity:1;stroke:#ff0080;stroke-width:0.249999;stroke-linecap:butt;stroke-linejoin:round;stroke-miterlimit:4;stroke-dasharray:none;stroke-dashoffset:0;stroke-opacity:1;marker:none;paint-order:normal;stop-color:#000000;stop-opacity:1"
       d="M 33.866669,9.9193234 57.814011,33.866666 33.866664,57.814013 9.9193223,33.86667 Z" />
  </g>
</svg>
