<?xml version="1.0" encoding="UTF-8" standalone="no"?>
<svg
        xmlns:dc="http://purl.org/dc/elements/1.1/"
        xmlns:cc="http://creativecommons.org/ns#"
        xmlns:rdf="http://www.w3.org/1999/02/22-rdf-syntax-ns#"
        xmlns="http://www.w3.org/2000/svg"
        xmlns:sodipodi="http://sodipodi.sourceforge.net/DTD/sodipodi-0.dtd"
        xmlns:inkscape="http://www.inkscape.org/namespaces/inkscape"
        sodipodi:docname="150112.svg"
        inkscape:version="1.0 (4035a4fb49, 2020-05-01)"
        id="svg8"
        version="1.1"
        viewBox="0 0 67.733332 67.733332"
        height="256"
        width="256">
  <style
     id="style849"></style>
  <title
     id="title856">MIL-STD-2525D Icon</title>
  <defs
     id="defs2">
    <rect
       id="rect937"
       height="23.993581"
       width="42.553418"
       y="58.697551"
       x="21.839437" />
    <rect
       id="rect919"
       height="27.825965"
       width="37.028973"
       y="29.981363"
       x="23.463894" />
    <rect
       x="23.31878"
       y="3.2134565"
       width="40.416331"
       height="13.148852"
       id="rect839" />
  </defs>
  <sodipodi:namedview
     inkscape:guide-bbox="true"
     showguides="true"
     inkscape:pagecheckerboard="true"
     units="px"
     inkscape:window-maximized="0"
     inkscape:window-y="27"
     inkscape:window-x="1762"
     inkscape:window-height="1385"
     inkscape:window-width="1678"
     showgrid="false"
     inkscape:document-rotation="0"
     inkscape:current-layer="layer1"
     inkscape:document-units="px"
     inkscape:cy="291.72257"
     inkscape:cx="217.66327"
     inkscape:zoom="1.4142136"
     inkscape:pageshadow="2"
     inkscape:pageopacity="0"
     borderopacity="1.0"
     bordercolor="#666666"
     pagecolor="#ffffff"
     id="base"
     inkscape:object-paths="true"
     inkscape:snap-midpoints="true"
     inkscape:snap-object-midpoints="true"
     inkscape:snap-center="true"
     inkscape:snap-global="true"
     inkscape:snap-smooth-nodes="true">
    <sodipodi:guide
       id="guide861"
       orientation="1,0"
       position="33.866665,50.8" />
  </sodipodi:namedview>
  <metadata
     id="metadata5">
    <rdf:RDF>
      <cc:Work
         rdf:about="">
        <dc:format>image/svg+xml</dc:format>
        <dc:type
           rdf:resource="http://purl.org/dc/dcmitype/StillImage" />
        <dc:title>MIL-STD-2525D Icon</dc:title>
        <dc:creator>
          <cc:Agent>
            <dc:title>Nicholas W. Royer</dc:title>
          </cc:Agent>
        </dc:creator>
        <dc:rights>
          <cc:Agent>
            <dc:title>All rights reserved</dc:title>
          </cc:Agent>
        </dc:rights>
        <dc:description>L=128px</dc:description>
      </cc:Work>
    </rdf:RDF>
  </metadata>
  <g
     style="display:inline;opacity:1"
     id="layer1"
     inkscape:groupmode="layer"
     inkscape:label="Symbol">
    <path
       id="path933"
       d="m 33.866667,43.111533 c -4.390534,0 -8.806794,-4.671362 -8.924152,-10.116126 1.77895,2.907689 3.308758,3.781193 3.435224,3.752533 0.126466,-0.02866 0.3796,-0.522942 0.02748,-1.000786 -0.352114,-0.477845 -1.311889,-1.720179 -1.311889,-3.701107 0,-1.980927 0.623298,-2.884013 0.623298,-2.884013 0,0 0.190604,1.465343 1.271356,2.759925 1.080752,1.294583 1.632261,1.408677 1.910014,1.272052 0.277752,-0.136624 0.162139,-1.565687 -0.261144,-2.572788 -0.423282,-1.007101 -0.687288,-1.694344 -0.579426,-2.136519 0.107862,-0.442175 1.130806,-1.674188 1.825942,-2.718867 0.695137,-1.044682 1.251414,-2.49166 1.251414,-2.49166 0,0 0.58006,0.810914 -0.05589,2.132499 -0.63595,1.321586 -0.845131,1.987714 -0.697434,2.857629 0.147698,0.869915 0.479527,1.513698 0.982365,1.46399 0.502839,-0.04971 1.289557,-0.834616 1.370891,-1.645613 0.08133,-0.810997 0.04816,-1.826625 0.04816,-1.826625 0,0 1.379495,1.534255 1.51087,1.895657 0.131375,0.361402 -0.189047,1.555302 -0.46093,2.561 -0.271882,1.005699 -0.582078,2.373224 -0.193233,2.505472 0.388845,0.132248 1.59811,-0.822354 2.063721,-1.697909 0.465614,-0.875555 0.888746,-2.50367 0.888746,-2.50367 0,0 0.303612,0.487301 0.453744,2.336891 0.150133,1.849592 -0.545707,2.787462 -0.611853,3.351636 -0.06614,0.564175 -0.299918,1.122103 0.06474,1.287402 0.364658,0.165299 2.084902,-1.730295 2.558225,-2.689142 0.473324,-0.958845 0.638874,-1.461289 0.638874,-1.461289 0,0 0.529845,4.228294 -1.055785,6.753451 -1.585631,2.525155 -3.015498,4.515977 -6.77333,4.515977 z"
       style="fill:#000000;stroke:none;stroke-width:0.0661458;stroke-dasharray:2.11666, 2.11666;stop-color:#000000" />
    <path
       inkscape:transform-center-y="-13.593884"
       id="path865"
       d="M 33.866666,22.28676 V 18.25881"
       style="fill:none;stroke:#000000;stroke-width:1.05833;stroke-linejoin:round;stop-color:#000000" />
    <path
       inkscape:transform-center-x="-9.6123275"
       style="fill:none;stroke:#000000;stroke-width:1.05833;stroke-linejoin:round;stop-color:#000000"
       d="m 42.054898,25.678437 2.848191,-2.848191"
       id="path867"
       inkscape:transform-center-y="-9.6123275" />
    <path
       id="path869"
       d="m 45.446575,33.866669 h 4.02795"
       style="fill:none;stroke:#000000;stroke-width:1.05833;stroke-linejoin:round;stop-color:#000000"
       inkscape:transform-center-x="-13.593884" />
    <path
       inkscape:transform-center-y="9.6123275"
       inkscape:transform-center-x="-9.6123275"
       style="fill:none;stroke:#000000;stroke-width:1.05833;stroke-linejoin:round;stop-color:#000000"
       d="m 42.054898,42.054901 2.848191,2.848191"
       id="path871" />
    <path
       id="path873"
       d="m 33.866666,45.446578 v 4.02795"
       style="fill:none;stroke:#000000;stroke-width:1.05833;stroke-linejoin:round;stop-color:#000000"
       inkscape:transform-center-y="13.593884" />
    <path
       inkscape:transform-center-x="9.6123275"
       inkscape:transform-center-y="9.6123275"
       style="fill:none;stroke:#000000;stroke-width:1.05833;stroke-linejoin:round;stop-color:#000000"
       d="m 25.678434,42.054901 -2.848191,2.848191"
       id="path875" />
    <path
       id="path877"
       d="m 22.286757,33.866669 h -4.02795"
       style="fill:none;stroke:#000000;stroke-width:1.05833;stroke-linejoin:round;stop-color:#000000"
       inkscape:transform-center-x="13.593884" />
    <path
       inkscape:transform-center-y="-9.6123275"
       inkscape:transform-center-x="9.6123275"
       style="fill:none;stroke:#000000;stroke-width:1.05833;stroke-linejoin:round;stop-color:#000000"
       d="M 25.678434,25.678437 22.830243,22.830246"
       id="path879" />
  </g>
  <g
     style="opacity:0.25"
     inkscape:label="Octagon"
     id="layer2"
     inkscape:groupmode="layer"
     sodipodi:insensitive="true">
    <path
       id="path919"
       style="font-variation-settings:normal;display:inline;opacity:1;vector-effect:none;fill:none;fill-opacity:1;stroke:#ff0080;stroke-width:0.249999;stroke-linecap:butt;stroke-linejoin:round;stroke-miterlimit:4;stroke-dasharray:none;stroke-dashoffset:0;stroke-opacity:1;marker:none;paint-order:normal;stop-color:#000000;stop-opacity:1"
       d="M 33.866665,9.9192931 A 11.973734,11.973734 0 0 0 21.89272,21.892723 11.973734,11.973734 0 0 0 9.9192906,33.866668 11.973734,11.973734 0 0 0 21.89272,45.840098 11.973734,11.973734 0 0 0 33.866665,57.814044 11.973734,11.973734 0 0 0 45.840095,45.840098 11.973734,11.973734 0 0 0 57.814041,33.866668 11.973734,11.973734 0 0 0 45.840095,21.892723 11.973734,11.973734 0 0 0 33.866665,9.9192931 Z" />
    <path
       d="M 45.840339,45.840339 33.866665,50.799997 21.892991,45.840339 16.933332,33.866665 21.892991,21.892991 33.866665,16.933332 45.840339,21.892991 50.799997,33.866665 Z"
       inkscape:randomized="0"
       inkscape:rounded="0"
       inkscape:flatsided="true"
       sodipodi:arg2="1.1780972"
       sodipodi:arg1="0.78539816"
       sodipodi:r2="15.64436"
       sodipodi:r1="16.933332"
       sodipodi:cy="33.866665"
       sodipodi:cx="33.866665"
       sodipodi:sides="8"
       id="path836"
       style="opacity:1;vector-effect:none;fill:none;fill-opacity:1;stroke:#ff0080;stroke-width:0.249999;stroke-linecap:butt;stroke-linejoin:round;stroke-miterlimit:4;stroke-dasharray:none;stroke-dashoffset:0;stroke-opacity:1;marker:none;paint-order:normal;stop-color:#000000"
       sodipodi:type="star" />
    <path
       style="fill:none;stroke:#ff0080;stroke-width:0.25;stroke-linejoin:round;stop-color:#000000"
       d="M 27.093333,19.738938 V 47.994392"
       id="path857"
       sodipodi:nodetypes="cc" />
    <path
       sodipodi:nodetypes="cc"
       id="path859"
       d="M 40.639997,19.738938 V 47.994392"
       style="fill:none;stroke:#ff0080;stroke-width:0.25;stroke-linejoin:round;stop-color:#000000" />
    <path
       style="fill:none;stroke:#ff0080;stroke-width:0.25;stroke-linejoin:round;stop-color:#000000"
       d="M 47.994392,27.093332 H 19.738938"
       id="path861"
       sodipodi:nodetypes="cc" />
    <path
       sodipodi:nodetypes="cc"
       id="path863"
       d="M 47.994392,40.639997 H 19.738938"
       style="fill:none;stroke:#ff0080;stroke-width:0.25;stroke-linejoin:round;stop-color:#000000" />
    <path
       id="rect838"
       style="font-variation-settings:normal;display:inline;opacity:1;vector-effect:none;fill:none;fill-opacity:1;stroke:#ff0080;stroke-width:0.249999;stroke-linecap:butt;stroke-linejoin:round;stroke-miterlimit:4;stroke-dasharray:none;stroke-dashoffset:0;stroke-opacity:1;marker:none;paint-order:normal;stop-color:#000000;stop-opacity:1"
       d="M 8.2166664,16.933333 H 59.516663 V 50.799998 H 8.2166664 Z" />
    <path
       d="M 15.190002,15.189999 H 52.54333 V 52.543335 H 15.190002 Z"
       style="font-variation-settings:normal;display:inline;opacity:1;vector-effect:none;fill:none;fill-opacity:1;stroke:#ff0080;stroke-width:0.249999;stroke-linecap:butt;stroke-linejoin:round;stroke-miterlimit:4;stroke-dasharray:none;stroke-dashoffset:0;stroke-opacity:1;marker:none;paint-order:normal;stop-color:#000000;stop-opacity:1"
       id="rect838-7" />
    <path
       id="rect838-3"
       style="font-variation-settings:normal;display:inline;opacity:1;vector-effect:none;fill:none;fill-opacity:1;stroke:#ff0080;stroke-width:0.249999;stroke-linecap:butt;stroke-linejoin:round;stroke-miterlimit:4;stroke-dasharray:none;stroke-dashoffset:0;stroke-opacity:1;marker:none;paint-order:normal;stop-color:#000000;stop-opacity:1"
       d="M 33.866669,9.9193234 57.814011,33.866666 33.866664,57.814013 9.9193223,33.86667 Z" />
  </g>
</svg>
