<?xml version="1.0" encoding="UTF-8" standalone="no"?>
<svg
        xmlns:dc="http://purl.org/dc/elements/1.1/"
        xmlns:cc="http://creativecommons.org/ns#"
        xmlns:rdf="http://www.w3.org/1999/02/22-rdf-syntax-ns#"
        xmlns="http://www.w3.org/2000/svg"
        xmlns:sodipodi="http://sodipodi.sourceforge.net/DTD/sodipodi-0.dtd"
        xmlns:inkscape="http://www.inkscape.org/namespaces/inkscape"
        width="256"
        height="256"
        viewBox="0 0 67.733332 67.733332"
        version="1.1"
        id="svg8"
        inkscape:version="1.0 (4035a4fb49, 2020-05-01)"
        sodipodi:docname="150113.svg">
  <style
     id="style849"></style>
  <title
     id="title856">MIL-STD-2525D Icon</title>
  <defs
     id="defs2">
    <rect
       x="21.839437"
       y="58.697551"
       width="42.553418"
       height="23.993581"
       id="rect937" />
    <rect
       x="23.463894"
       y="29.981363"
       width="37.028973"
       height="27.825965"
       id="rect919" />
    <rect
       id="rect839"
       height="13.148852"
       width="40.416331"
       y="3.2134565"
       x="23.31878" />
  </defs>
  <sodipodi:namedview
     inkscape:snap-smooth-nodes="true"
     inkscape:snap-global="false"
     inkscape:snap-center="true"
     inkscape:snap-object-midpoints="true"
     inkscape:snap-midpoints="true"
     inkscape:object-paths="true"
     id="base"
     pagecolor="#ffffff"
     bordercolor="#666666"
     borderopacity="1.0"
     inkscape:pageopacity="0"
     inkscape:pageshadow="2"
     inkscape:zoom="4.0000001"
     inkscape:cx="170.33565"
     inkscape:cy="125.23964"
     inkscape:document-units="px"
     inkscape:current-layer="layer1"
     inkscape:document-rotation="0"
     showgrid="false"
     inkscape:window-width="1678"
     inkscape:window-height="1385"
     inkscape:window-x="1762"
     inkscape:window-y="27"
     inkscape:window-maximized="0"
     units="px"
     inkscape:pagecheckerboard="true"
     showguides="true"
     inkscape:guide-bbox="true">
    <sodipodi:guide
       position="33.866665,50.8"
       orientation="1,0"
       id="guide861" />
  </sodipodi:namedview>
  <metadata
     id="metadata5">
    <rdf:RDF>
      <cc:Work
         rdf:about="">
        <dc:format>image/svg+xml</dc:format>
        <dc:type
           rdf:resource="http://purl.org/dc/dcmitype/StillImage" />
        <dc:title>MIL-STD-2525D Icon</dc:title>
        <dc:creator>
          <cc:Agent>
            <dc:title>Nicholas W. Royer</dc:title>
          </cc:Agent>
        </dc:creator>
        <dc:rights>
          <cc:Agent>
            <dc:title>All rights reserved</dc:title>
          </cc:Agent>
        </dc:rights>
        <dc:description>L=128px</dc:description>
      </cc:Work>
    </rdf:RDF>
  </metadata>
  <g
     inkscape:label="Symbol"
     inkscape:groupmode="layer"
     id="layer1"
     style="display:inline;opacity:1">
    <path
       d="m 31.439951,41.877758 a 5.6313665,2.0144482 19.570488 0 0 -5.98078,0.01221 5.6313665,2.0144482 19.570488 0 0 4.63113,3.784234 5.6313665,2.0144482 19.570488 0 0 5.980605,-0.01172 5.6313665,2.0144482 19.570488 0 0 -4.630955,-3.784722 z m -0.478983,1.191516 a 2.1185358,0.73164712 19.570488 0 1 0.04918,0.01749 2.1185358,0.73164712 19.570488 0 1 1.751226,1.399171 2.1185358,0.73164712 19.570488 0 1 -2.241269,-0.02073 2.1185358,0.73164712 19.570488 0 1 -1.751399,-1.398682 2.1185358,0.73164712 19.570488 0 1 2.192263,0.0028 z"
       style="fill:#000000;stroke:none;stroke-width:0.132292;stroke-linejoin:round;stop-color:#000000"
       id="path941" />
    <path
       d="m 25.796627,40.940736 c 0.372105,-1.048623 3.049959,-1.05409 5.980779,-0.01221 2.930796,1.041947 5.004276,2.736533 4.630956,3.784722 l 1.753023,-4.931093 c 0.373319,-1.048191 -1.700161,-2.742776 -4.630957,-3.784724 -2.930819,-1.041878 -5.608674,-1.03641 -5.980778,0.01221 z"
       style="fill:#000000;stroke:none;stroke-width:0.132292;stroke-linejoin:round;stop-color:#000000"
       id="path950"
       sodipodi:nodetypes="ccccccc" />
    <path
       d="m 39.167398,21.585139 c -1.308096,-0.504823 -2.967808,-0.688538 -4.566771,-0.02204 -2.842597,1.184893 -4.218752,3.070291 -4.676124,4.356839 -0.457372,1.286546 1.175745,4.860345 1.3711,5.717432 0.195353,0.857085 -0.851746,2.780026 -0.851746,2.780026 0,0 0.886314,-1.001187 3.995207,0.104036 2.482643,0.836966 3.072199,2.215949 3.072199,2.215949 0,0 0.296658,-1.1718 0.45704,-1.436796 0.160378,-0.265 1.628376,-0.895339 2.351777,-2.033415 0.723395,-1.13808 1.303647,-2.6977 1.765142,-4.877258 0.461499,-2.179559 0.215447,-4.076697 -0.69646,-5.293318 -0.398959,-0.532271 -1.203955,-1.11882 -2.221364,-1.51146 z m -1.546726,3.547041 c 1.174421,0.385058 1.457153,1.902386 1.476932,2.431459 0.0226,0.604657 -0.01202,2.480101 -1.949311,2.607574 -1.937287,0.127476 -2.657596,-1.459195 -2.580273,-2.609259 0.07733,-1.150061 0.574805,-2.494932 2.492826,-2.519653 0.205992,0.0026 0.392051,0.03487 0.559826,0.08988 z m -5.571135,-0.526075 a 1.3240943,2.1988285 1.7838604 0 1 1.003131,2.190628 1.3240943,2.1988285 1.7838604 0 1 -1.391836,2.156393 1.3240943,2.1988285 1.7838604 0 1 -1.255189,-2.239099 1.3240943,2.1988285 1.7838604 0 1 1.391837,-2.156396 1.3240943,2.1988285 1.7838604 0 1 0.252057,0.04848 z"
       style="fill:#000000;stroke:none;stroke-width:0.132292;stroke-linejoin:round;stop-color:#000000"
       id="path952" />
  </g>
  <g
     sodipodi:insensitive="true"
     inkscape:groupmode="layer"
     id="layer2"
     inkscape:label="Octagon"
     style="opacity:0.25">
    <path
       d="M 33.866665,9.9192931 A 11.973734,11.973734 0 0 0 21.89272,21.892723 11.973734,11.973734 0 0 0 9.9192906,33.866668 11.973734,11.973734 0 0 0 21.89272,45.840098 11.973734,11.973734 0 0 0 33.866665,57.814044 11.973734,11.973734 0 0 0 45.840095,45.840098 11.973734,11.973734 0 0 0 57.814041,33.866668 11.973734,11.973734 0 0 0 45.840095,21.892723 11.973734,11.973734 0 0 0 33.866665,9.9192931 Z"
       style="font-variation-settings:normal;display:inline;opacity:1;vector-effect:none;fill:none;fill-opacity:1;stroke:#ff0080;stroke-width:0.249999;stroke-linecap:butt;stroke-linejoin:round;stroke-miterlimit:4;stroke-dasharray:none;stroke-dashoffset:0;stroke-opacity:1;marker:none;paint-order:normal;stop-color:#000000;stop-opacity:1"
       id="path919" />
    <path
       sodipodi:type="star"
       style="opacity:1;vector-effect:none;fill:none;fill-opacity:1;stroke:#ff0080;stroke-width:0.249999;stroke-linecap:butt;stroke-linejoin:round;stroke-miterlimit:4;stroke-dasharray:none;stroke-dashoffset:0;stroke-opacity:1;marker:none;paint-order:normal;stop-color:#000000"
       id="path836"
       sodipodi:sides="8"
       sodipodi:cx="33.866665"
       sodipodi:cy="33.866665"
       sodipodi:r1="16.933332"
       sodipodi:r2="15.64436"
       sodipodi:arg1="0.78539816"
       sodipodi:arg2="1.1780972"
       inkscape:flatsided="true"
       inkscape:rounded="0"
       inkscape:randomized="0"
       d="M 45.840339,45.840339 33.866665,50.799997 21.892991,45.840339 16.933332,33.866665 21.892991,21.892991 33.866665,16.933332 45.840339,21.892991 50.799997,33.866665 Z" />
    <path
       sodipodi:nodetypes="cc"
       id="path857"
       d="M 27.093333,19.738938 V 47.994392"
       style="fill:none;stroke:#ff0080;stroke-width:0.25;stroke-linejoin:round;stop-color:#000000" />
    <path
       style="fill:none;stroke:#ff0080;stroke-width:0.25;stroke-linejoin:round;stop-color:#000000"
       d="M 40.639997,19.738938 V 47.994392"
       id="path859"
       sodipodi:nodetypes="cc" />
    <path
       sodipodi:nodetypes="cc"
       id="path861"
       d="M 47.994392,27.093332 H 19.738938"
       style="fill:none;stroke:#ff0080;stroke-width:0.25;stroke-linejoin:round;stop-color:#000000" />
    <path
       style="fill:none;stroke:#ff0080;stroke-width:0.25;stroke-linejoin:round;stop-color:#000000"
       d="M 47.994392,40.639997 H 19.738938"
       id="path863"
       sodipodi:nodetypes="cc" />
    <path
       d="M 8.2166664,16.933333 H 59.516663 V 50.799998 H 8.2166664 Z"
       style="font-variation-settings:normal;display:inline;opacity:1;vector-effect:none;fill:none;fill-opacity:1;stroke:#ff0080;stroke-width:0.249999;stroke-linecap:butt;stroke-linejoin:round;stroke-miterlimit:4;stroke-dasharray:none;stroke-dashoffset:0;stroke-opacity:1;marker:none;paint-order:normal;stop-color:#000000;stop-opacity:1"
       id="rect838" />
    <path
       id="rect838-7"
       style="font-variation-settings:normal;display:inline;opacity:1;vector-effect:none;fill:none;fill-opacity:1;stroke:#ff0080;stroke-width:0.249999;stroke-linecap:butt;stroke-linejoin:round;stroke-miterlimit:4;stroke-dasharray:none;stroke-dashoffset:0;stroke-opacity:1;marker:none;paint-order:normal;stop-color:#000000;stop-opacity:1"
       d="M 15.190002,15.189999 H 52.54333 V 52.543335 H 15.190002 Z" />
    <path
       d="M 33.866669,9.9193234 57.814011,33.866666 33.866664,57.814013 9.9193223,33.86667 Z"
       style="font-variation-settings:normal;display:inline;opacity:1;vector-effect:none;fill:none;fill-opacity:1;stroke:#ff0080;stroke-width:0.249999;stroke-linecap:butt;stroke-linejoin:round;stroke-miterlimit:4;stroke-dasharray:none;stroke-dashoffset:0;stroke-opacity:1;marker:none;paint-order:normal;stop-color:#000000;stop-opacity:1"
       id="rect838-3" />
  </g>
</svg>
