<?xml version="1.0" encoding="UTF-8" standalone="no"?>
<svg
        xmlns:dc="http://purl.org/dc/elements/1.1/"
        xmlns:cc="http://creativecommons.org/ns#"
        xmlns:rdf="http://www.w3.org/1999/02/22-rdf-syntax-ns#"
        xmlns="http://www.w3.org/2000/svg"
        xmlns:sodipodi="http://sodipodi.sourceforge.net/DTD/sodipodi-0.dtd"
        xmlns:inkscape="http://www.inkscape.org/namespaces/inkscape"
        width="256"
        height="256"
        viewBox="0 0 67.733332 67.733332"
        version="1.1"
        id="svg8"
        inkscape:version="1.0 (4035a4fb49, 2020-05-01)"
        sodipodi:docname="170101.svg">
  <style
     id="style849"></style>
  <title
     id="title856">MIL-STD-2525D Icon</title>
  <defs
     id="defs2">
    <rect
       x="21.839437"
       y="58.697551"
       width="42.553418"
       height="23.993581"
       id="rect937" />
    <rect
       x="23.463894"
       y="29.981363"
       width="37.028973"
       height="27.825965"
       id="rect919" />
    <rect
       id="rect839"
       height="13.148852"
       width="40.416331"
       y="3.2134565"
       x="23.31878" />
  </defs>
  <sodipodi:namedview
     inkscape:snap-smooth-nodes="true"
     inkscape:snap-global="false"
     inkscape:snap-center="true"
     inkscape:snap-object-midpoints="true"
     inkscape:snap-midpoints="true"
     inkscape:object-paths="true"
     id="base"
     pagecolor="#ffffff"
     bordercolor="#666666"
     borderopacity="1.0"
     inkscape:pageopacity="0"
     inkscape:pageshadow="2"
     inkscape:zoom="2.8284271"
     inkscape:cx="151.71873"
     inkscape:cy="189.60403"
     inkscape:document-units="px"
     inkscape:current-layer="layer1"
     inkscape:document-rotation="0"
     showgrid="false"
     inkscape:window-width="1678"
     inkscape:window-height="1385"
     inkscape:window-x="1762"
     inkscape:window-y="27"
     inkscape:window-maximized="0"
     units="px"
     inkscape:pagecheckerboard="true"
     showguides="true"
     inkscape:guide-bbox="true">
    <sodipodi:guide
       position="33.866665,50.8"
       orientation="1,0"
       id="guide861" />
  </sodipodi:namedview>
  <metadata
     id="metadata5">
    <rdf:RDF>
      <cc:Work
         rdf:about="">
        <dc:format>image/svg+xml</dc:format>
        <dc:type
           rdf:resource="http://purl.org/dc/dcmitype/StillImage" />
        <dc:title>MIL-STD-2525D Icon</dc:title>
        <dc:creator>
          <cc:Agent>
            <dc:title>Nicholas W. Royer</dc:title>
          </cc:Agent>
        </dc:creator>
        <dc:rights>
          <cc:Agent>
            <dc:title>All rights reserved</dc:title>
          </cc:Agent>
        </dc:rights>
        <dc:description>L=128px</dc:description>
      </cc:Work>
    </rdf:RDF>
  </metadata>
  <g
     inkscape:label="Symbol"
     inkscape:groupmode="layer"
     id="layer1"
     style="display:inline;opacity:1">
    <path
       d="m 37.417434,33.866669 a 3.5507686,3.5507686 0 0 1 -3.550769,3.550768 3.5507686,3.5507686 0 0 1 -3.550769,-3.550768 3.5507686,3.5507686 0 0 1 3.550769,-3.550769 3.5507686,3.5507686 0 0 1 3.550769,3.550769 z"
       style="fill:#000000;stroke-width:1.05833;stop-color:#000000"
       id="path905" />
    <path
       transform="scale(0.26458333)"
       d="M 124.00195 101.01367 C 117.00634 102.04839 110.86767 105.75574 106.65039 111.05664 L 111.89844 114.08594 C 114.96891 110.53279 119.1885 108.00664 124.00195 107.09766 L 124.00195 101.01367 z M 132.00391 101.01562 L 132.00391 107.09766 C 136.81563 108.00677 141.03359 110.53241 144.10352 114.08398 L 149.34961 111.05664 C 145.13451 105.75629 138.99803 102.05078 132.00391 101.01562 z M 102.64062 117.97461 C 101.40569 121.08212 100.71875 124.46258 100.71875 128.00195 C 100.71875 131.53979 101.40476 134.91962 102.63867 138.02539 L 107.89258 134.99219 C 107.13617 132.80385 106.7207 130.4536 106.7207 128.00195 C 106.7207 125.54878 107.13722 123.19731 107.89453 121.00781 L 102.64062 117.97461 z M 153.35938 117.97656 L 148.10938 121.00781 C 148.86668 123.19731 149.2832 125.54878 149.2832 128.00195 C 149.2832 130.4536 148.86773 132.80385 148.11133 134.99219 L 153.36133 138.02344 C 154.59402 134.91831 155.27734 131.5389 155.27734 128.00195 C 155.27734 124.46347 154.59309 121.08343 153.35938 117.97656 z M 111.89648 141.91602 L 106.65234 144.94531 C 110.86958 150.24356 117.00709 153.9484 124.00195 154.98242 L 124.00195 148.90625 C 119.18756 147.99709 114.96711 145.47026 111.89648 141.91602 z M 144.10547 141.91797 C 141.03539 145.47065 136.81657 147.99696 132.00391 148.90625 L 132.00391 154.98047 C 138.99729 153.94601 145.1326 150.24301 149.34766 144.94531 L 144.10547 141.91797 z "
       style="color:#000000;font-style:normal;font-variant:normal;font-weight:normal;font-stretch:normal;font-size:medium;line-height:normal;font-family:sans-serif;font-variant-ligatures:normal;font-variant-position:normal;font-variant-caps:normal;font-variant-numeric:normal;font-variant-alternates:normal;font-variant-east-asian:normal;font-feature-settings:normal;font-variation-settings:normal;text-indent:0;text-align:start;text-decoration:none;text-decoration-line:none;text-decoration-style:solid;text-decoration-color:#000000;letter-spacing:normal;word-spacing:normal;text-transform:none;writing-mode:lr-tb;direction:ltr;text-orientation:mixed;dominant-baseline:auto;baseline-shift:baseline;text-anchor:start;white-space:normal;shape-padding:0;shape-margin:0;inline-size:0;clip-rule:nonzero;display:inline;overflow:visible;visibility:visible;opacity:1;isolation:auto;mix-blend-mode:normal;color-interpolation:sRGB;color-interpolation-filters:linearRGB;solid-color:#000000;solid-opacity:1;vector-effect:none;fill:#000000;fill-opacity:1;fill-rule:nonzero;stroke:none;stroke-width:6;stroke-linecap:butt;stroke-linejoin:miter;stroke-miterlimit:4;stroke-dasharray:none;stroke-dashoffset:0;stroke-opacity:1;color-rendering:auto;image-rendering:auto;shape-rendering:auto;text-rendering:auto;enable-background:accumulate;stop-color:#000000;stop-opacity:1"
       id="path932" />
    <path
       id="path947"
       d="M 34.054688 23.945312 C 33.309418 23.930208 32.56203 23.999587 31.832031 24.152344 L 32.048828 25.189453 C 32.699871 25.053219 33.367841 24.990421 34.033203 25.003906 L 34.054688 23.945312 z M 36.263672 24.236328 L 36.011719 25.263672 C 36.65658 25.422377 37.283871 25.657163 37.876953 25.958984 L 38.357422 25.015625 C 37.693122 24.67756 36.988893 24.41481 36.263672 24.236328 z M 29.714844 24.851562 C 29.036919 25.163165 28.39413 25.552922 27.804688 26.009766 L 28.453125 26.847656 C 28.97881 26.440227 29.552236 26.092083 30.15625 25.814453 L 29.714844 24.851562 z M 40.21875 26.244141 L 39.541016 27.056641 C 40.052544 27.482483 40.5177 27.966659 40.919922 28.496094 L 41.761719 27.855469 C 41.310414 27.261427 40.791527 26.720971 40.21875 26.244141 z M 26.203125 27.5625 C 25.729926 28.137249 25.319061 28.764843 24.986328 29.433594 L 25.935547 29.904297 C 26.231369 29.309732 26.597949 28.748802 27.021484 28.234375 L 26.203125 27.5625 z M 42.90625 29.769531 L 41.943359 30.207031 C 42.218569 30.812749 42.425723 31.449716 42.556641 32.101562 L 43.59375 31.894531 C 43.446813 31.162925 43.214728 30.448471 42.90625 29.769531 z M 24.220703 31.527344 C 24.044114 32.252494 23.952928 32.998673 23.945312 33.744141 L 25.003906 33.753906 C 25.010702 33.088712 25.092783 32.422943 25.25 31.777344 L 24.220703 31.527344 z M 42.732422 33.867188 C 42.732394 34.533758 42.658341 35.199768 42.509766 35.847656 L 43.541016 36.083984 C 43.707877 35.35636 43.789032 34.611651 43.789062 33.867188 L 42.732422 33.867188 z M 25.201172 35.740234 L 24.166016 35.960938 C 24.321543 36.69089 24.560754 37.403134 24.878906 38.078125 L 25.835938 37.626953 C 25.552586 37.025794 25.33964 36.390121 25.201172 35.740234 z M 41.847656 37.728516 C 41.557442 38.327656 41.20037 38.892833 40.783203 39.410156 L 41.607422 40.076172 C 42.075974 39.495126 42.475934 38.860092 42.800781 38.189453 L 41.847656 37.728516 z M 26.880859 39.324219 L 26.046875 39.976562 C 26.50578 40.563267 27.03155 41.100557 27.611328 41.570312 L 28.277344 40.748047 C 27.760816 40.329539 27.291188 39.848819 26.880859 39.324219 z M 39.367188 40.818359 C 38.846199 41.232213 38.278285 41.587389 37.677734 41.873047 L 38.132812 42.828125 C 38.806431 42.507712 39.441591 42.110232 40.025391 41.646484 L 39.367188 40.818359 z M 29.957031 41.824219 L 29.488281 42.773438 C 30.157417 43.104576 30.863755 43.357376 31.589844 43.527344 L 31.830078 42.496094 C 31.182416 42.344484 30.552469 42.118886 29.957031 41.824219 z M 35.792969 42.521484 C 35.144602 42.666452 34.478277 42.735519 33.8125 42.730469 L 33.802734 43.789062 C 34.54768 43.794714 35.294879 43.717585 36.023438 43.554688 L 35.792969 42.521484 z "
       style="color:#000000;font-style:normal;font-variant:normal;font-weight:normal;font-stretch:normal;font-size:medium;line-height:normal;font-family:sans-serif;font-variant-ligatures:normal;font-variant-position:normal;font-variant-caps:normal;font-variant-numeric:normal;font-variant-alternates:normal;font-variant-east-asian:normal;font-feature-settings:normal;font-variation-settings:normal;text-indent:0;text-align:start;text-decoration:none;text-decoration-line:none;text-decoration-style:solid;text-decoration-color:#000000;letter-spacing:normal;word-spacing:normal;text-transform:none;writing-mode:lr-tb;direction:ltr;text-orientation:mixed;dominant-baseline:auto;baseline-shift:baseline;text-anchor:start;white-space:normal;shape-padding:0;shape-margin:0;inline-size:0;clip-rule:nonzero;display:inline;overflow:visible;visibility:visible;isolation:auto;mix-blend-mode:normal;color-interpolation:sRGB;color-interpolation-filters:linearRGB;solid-color:#000000;solid-opacity:1;vector-effect:none;fill:#000000;fill-opacity:1;fill-rule:nonzero;stroke:none;stroke-width:1.05833;stroke-linecap:butt;stroke-linejoin:miter;stroke-miterlimit:4;stroke-dasharray:2.11667, 2.11667000000000005;stroke-dashoffset:0;stroke-opacity:1;color-rendering:auto;image-rendering:auto;shape-rendering:auto;text-rendering:auto;enable-background:accumulate;stop-color:#000000;stop-opacity:1;opacity:1" />
    <path
       sodipodi:nodetypes="cccccccccccccccccccccccccccccccccccccccccccccccccccccccccccccccccccccc"
       id="path942"
       d="m 33.570312,19.806641 0.02344,1.058593 c 0.678137,-0.01482 1.357148,0.02304 2.027344,0.115235 l 0.144531,-1.048828 c -0.727576,-0.100089 -1.462951,-0.141001 -2.195313,-0.125 z m -4.310546,0.769531 c -0.694198,0.238996 -1.369191,0.535637 -2.015625,0.882812 l 0.5,0.931641 c 0.596537,-0.320377 1.219509,-0.592209 1.859375,-0.8125 z m 10.701172,0.613281 -0.458985,0.953125 c 0.61147,0.29512 1.199512,0.63508 1.753906,1.021484 l 0.605469,-0.867187 c -0.603241,-0.42045 -1.241241,-0.78929 -1.90039,-1.107422 z M 23.75,24.097656 c -0.510645,0.526722 -0.977828,1.094354 -1.398438,1.695313 l 0.867188,0.607422 c 0.388359,-0.55488 0.819645,-1.080195 1.291016,-1.566407 z m 21.279297,1.216797 -0.835938,0.646485 c 0.413075,0.534936 0.780692,1.106898 1.105469,1.703124 l 0.929688,-0.505859 c -0.350112,-0.642737 -0.749878,-1.261848 -1.199219,-1.84375 z m -24.605469,4.412109 c -0.215767,0.700314 -0.377492,1.418427 -0.478516,2.146485 l 1.046876,0.146484 c 0.0929,-0.669505 0.243722,-1.332508 0.443359,-1.980469 z m 27.267578,1.560547 -1.039062,0.195313 c 0.124958,0.66458 0.194443,1.341181 0.21289,2.019531 l 1.058594,-0.0293 c -0.01991,-0.731995 -0.09664,-1.463411 -0.232422,-2.185547 z m -0.967389,4.086397 c -0.087,0.673464 -0.225293,1.339238 -0.415529,1.98861 l 1.017356,0.296395 c 0.206487,-0.704845 0.354329,-1.423939 0.448101,-2.149834 z M 21.048828,36.074219 20.005859,36.25 c 0.1216,0.72518 0.302622,1.437222 0.53711,2.130859 l 1.003906,-0.33789 c -0.217347,-0.642935 -0.386295,-1.302295 -0.498047,-1.96875 z m 24.419922,3.673828 c -0.306496,0.6046 -0.660622,1.18535 -1.058594,1.732422 l 0.855469,0.621093 c 0.432022,-0.593879 0.815066,-1.221236 1.146484,-1.875 z m -22.037109,1.880859 -0.84961,0.63086 c 0.437445,0.587099 0.920723,1.143743 1.447266,1.65625 L 24.767578,43.15625 C 24.28305,42.684638 23.8371,42.173077 23.431641,41.628906 Z m 18.121093,2.728516 c -0.54428,0.401828 -1.122141,0.759581 -1.724609,1.070312 l 0.484375,0.939454 c 0.651459,-0.335999 1.278283,-0.721989 1.869141,-1.158204 z m -13.484375,1.152344 -0.474609,0.945312 c 0.656508,0.329998 1.339688,0.606278 2.039062,0.826172 l 0.31836,-1.009766 c -0.646531,-0.203279 -1.278661,-0.458038 -1.882813,-0.761718 z m 7.91211,1.189453 c -0.667198,0.111115 -1.343674,0.168492 -2.021485,0.171875 l 0.0039,1.05664 c 0.732944,-0.0037 1.466903,-0.06294 2.191406,-0.183593 z"
       style="color:#000000;font-style:normal;font-variant:normal;font-weight:normal;font-stretch:normal;font-size:medium;line-height:normal;font-family:sans-serif;font-variant-ligatures:normal;font-variant-position:normal;font-variant-caps:normal;font-variant-numeric:normal;font-variant-alternates:normal;font-variant-east-asian:normal;font-feature-settings:normal;font-variation-settings:normal;text-indent:0;text-align:start;text-decoration:none;text-decoration-line:none;text-decoration-style:solid;text-decoration-color:#000000;letter-spacing:normal;word-spacing:normal;text-transform:none;writing-mode:lr-tb;direction:ltr;text-orientation:mixed;dominant-baseline:auto;baseline-shift:baseline;text-anchor:start;white-space:normal;shape-padding:0;shape-margin:0;inline-size:0;clip-rule:nonzero;display:inline;overflow:visible;visibility:visible;opacity:1;isolation:auto;mix-blend-mode:normal;color-interpolation:sRGB;color-interpolation-filters:linearRGB;solid-color:#000000;solid-opacity:1;vector-effect:none;fill:#000000;fill-opacity:1;fill-rule:nonzero;stroke:none;stroke-width:1.05833;stroke-linecap:butt;stroke-linejoin:miter;stroke-miterlimit:4;stroke-dasharray:2.11666, 4.23332;stroke-dashoffset:0;stroke-opacity:1;color-rendering:auto;image-rendering:auto;shape-rendering:auto;text-rendering:auto;enable-background:accumulate;stop-color:#000000;stop-opacity:1" />
  </g>
  <g
     sodipodi:insensitive="true"
     inkscape:groupmode="layer"
     id="layer2"
     inkscape:label="Octagon"
     style="opacity:0.25">
    <path
       d="M 33.866665,9.9192931 A 11.973734,11.973734 0 0 0 21.89272,21.892723 11.973734,11.973734 0 0 0 9.9192906,33.866668 11.973734,11.973734 0 0 0 21.89272,45.840098 11.973734,11.973734 0 0 0 33.866665,57.814044 11.973734,11.973734 0 0 0 45.840095,45.840098 11.973734,11.973734 0 0 0 57.814041,33.866668 11.973734,11.973734 0 0 0 45.840095,21.892723 11.973734,11.973734 0 0 0 33.866665,9.9192931 Z"
       style="font-variation-settings:normal;display:inline;opacity:1;vector-effect:none;fill:none;fill-opacity:1;stroke:#ff0080;stroke-width:0.249999;stroke-linecap:butt;stroke-linejoin:round;stroke-miterlimit:4;stroke-dasharray:none;stroke-dashoffset:0;stroke-opacity:1;marker:none;paint-order:normal;stop-color:#000000;stop-opacity:1"
       id="path919" />
    <path
       sodipodi:type="star"
       style="opacity:1;vector-effect:none;fill:none;fill-opacity:1;stroke:#ff0080;stroke-width:0.249999;stroke-linecap:butt;stroke-linejoin:round;stroke-miterlimit:4;stroke-dasharray:none;stroke-dashoffset:0;stroke-opacity:1;marker:none;paint-order:normal;stop-color:#000000"
       id="path836"
       sodipodi:sides="8"
       sodipodi:cx="33.866665"
       sodipodi:cy="33.866665"
       sodipodi:r1="16.933332"
       sodipodi:r2="15.64436"
       sodipodi:arg1="0.78539816"
       sodipodi:arg2="1.1780972"
       inkscape:flatsided="true"
       inkscape:rounded="0"
       inkscape:randomized="0"
       d="M 45.840339,45.840339 33.866665,50.799997 21.892991,45.840339 16.933332,33.866665 21.892991,21.892991 33.866665,16.933332 45.840339,21.892991 50.799997,33.866665 Z" />
    <path
       sodipodi:nodetypes="cc"
       id="path857"
       d="M 27.093333,19.738938 V 47.994392"
       style="fill:none;stroke:#ff0080;stroke-width:0.25;stroke-linejoin:round;stop-color:#000000" />
    <path
       style="fill:none;stroke:#ff0080;stroke-width:0.25;stroke-linejoin:round;stop-color:#000000"
       d="M 40.639997,19.738938 V 47.994392"
       id="path859"
       sodipodi:nodetypes="cc" />
    <path
       sodipodi:nodetypes="cc"
       id="path861"
       d="M 47.994392,27.093332 H 19.738938"
       style="fill:none;stroke:#ff0080;stroke-width:0.25;stroke-linejoin:round;stop-color:#000000" />
    <path
       style="fill:none;stroke:#ff0080;stroke-width:0.25;stroke-linejoin:round;stop-color:#000000"
       d="M 47.994392,40.639997 H 19.738938"
       id="path863"
       sodipodi:nodetypes="cc" />
    <path
       d="M 8.2166664,16.933333 H 59.516663 V 50.799998 H 8.2166664 Z"
       style="font-variation-settings:normal;display:inline;opacity:1;vector-effect:none;fill:none;fill-opacity:1;stroke:#ff0080;stroke-width:0.249999;stroke-linecap:butt;stroke-linejoin:round;stroke-miterlimit:4;stroke-dasharray:none;stroke-dashoffset:0;stroke-opacity:1;marker:none;paint-order:normal;stop-color:#000000;stop-opacity:1"
       id="rect838" />
    <path
       id="rect838-7"
       style="font-variation-settings:normal;display:inline;opacity:1;vector-effect:none;fill:none;fill-opacity:1;stroke:#ff0080;stroke-width:0.249999;stroke-linecap:butt;stroke-linejoin:round;stroke-miterlimit:4;stroke-dasharray:none;stroke-dashoffset:0;stroke-opacity:1;marker:none;paint-order:normal;stop-color:#000000;stop-opacity:1"
       d="M 15.190002,15.189999 H 52.54333 V 52.543335 H 15.190002 Z" />
    <path
       d="M 33.866669,9.9193234 57.814011,33.866666 33.866664,57.814013 9.9193223,33.86667 Z"
       style="font-variation-settings:normal;display:inline;opacity:1;vector-effect:none;fill:none;fill-opacity:1;stroke:#ff0080;stroke-width:0.249999;stroke-linecap:butt;stroke-linejoin:round;stroke-miterlimit:4;stroke-dasharray:none;stroke-dashoffset:0;stroke-opacity:1;marker:none;paint-order:normal;stop-color:#000000;stop-opacity:1"
       id="rect838-3" />
  </g>
</svg>
