<?xml version="1.0" encoding="UTF-8" standalone="no"?>
<svg
        xmlns:dc="http://purl.org/dc/elements/1.1/"
        xmlns:cc="http://creativecommons.org/ns#"
        xmlns:rdf="http://www.w3.org/1999/02/22-rdf-syntax-ns#"
        xmlns="http://www.w3.org/2000/svg"
        xmlns:sodipodi="http://sodipodi.sourceforge.net/DTD/sodipodi-0.dtd"
        xmlns:inkscape="http://www.inkscape.org/namespaces/inkscape"
        width="256"
        height="256"
        viewBox="0 0 67.733332 67.733332"
        version="1.1"
        id="svg8"
        inkscape:version="1.0 (4035a4fb49, 2020-05-01)"
        sodipodi:docname="170304.svg">
  <style
     id="style849"></style>
  <title
     id="title856">MIL-STD-2525D Icon</title>
  <defs
     id="defs2">
    <rect
       x="21.839437"
       y="58.697551"
       width="42.553418"
       height="23.993581"
       id="rect937" />
    <rect
       x="23.463894"
       y="29.981363"
       width="37.028973"
       height="27.825965"
       id="rect919" />
    <rect
       id="rect839"
       height="13.148852"
       width="40.416331"
       y="3.2134565"
       x="23.31878" />
  </defs>
  <sodipodi:namedview
     inkscape:snap-intersection-paths="true"
     inkscape:snap-smooth-nodes="true"
     inkscape:snap-global="false"
     inkscape:snap-center="true"
     inkscape:snap-object-midpoints="true"
     inkscape:snap-midpoints="true"
     inkscape:object-paths="true"
     id="base"
     pagecolor="#ffffff"
     bordercolor="#666666"
     borderopacity="1.0"
     inkscape:pageopacity="0"
     inkscape:pageshadow="2"
     inkscape:zoom="4"
     inkscape:cx="171.98986"
     inkscape:cy="145.10038"
     inkscape:document-units="px"
     inkscape:current-layer="layer1"
     inkscape:document-rotation="0"
     showgrid="false"
     inkscape:window-width="1678"
     inkscape:window-height="1385"
     inkscape:window-x="1762"
     inkscape:window-y="27"
     inkscape:window-maximized="0"
     units="px"
     inkscape:pagecheckerboard="true"
     showguides="true"
     inkscape:guide-bbox="true">
    <sodipodi:guide
       position="33.866665,50.8"
       orientation="1,0"
       id="guide861" />
  </sodipodi:namedview>
  <metadata
     id="metadata5">
    <rdf:RDF>
      <cc:Work
         rdf:about="">
        <dc:format>image/svg+xml</dc:format>
        <dc:type
           rdf:resource="http://purl.org/dc/dcmitype/StillImage" />
        <dc:title>MIL-STD-2525D Icon</dc:title>
        <dc:creator>
          <cc:Agent>
            <dc:title>Nicholas W. Royer</dc:title>
          </cc:Agent>
        </dc:creator>
        <dc:rights>
          <cc:Agent>
            <dc:title>All rights reserved</dc:title>
          </cc:Agent>
        </dc:rights>
        <dc:description>L=128px</dc:description>
      </cc:Work>
    </rdf:RDF>
  </metadata>
  <g
     inkscape:label="Symbol"
     inkscape:groupmode="layer"
     id="layer1"
     style="display:inline;opacity:1">
    <path
       transform="scale(0.26458333)"
       d="M 120.14648 91.923828 C 118.29485 91.88583 115.76168 92.381448 113.74609 93.65625 C 110.52115 95.695929 110.7807 99.746498 110.18555 100.94727 C 109.59039 102.14804 108.95808 105.60952 109.26562 108.5293 C 109.57319 111.44908 106.34293 113.24699 107.64453 115.56055 C 107.81216 115.85849 108.06326 116.15168 108.375 116.4375 C 108.0279 119.64416 106.84512 121.04205 104.60547 121.26953 C 102.15484 121.51845 100.07776 120.78809 99.789062 120.06055 C 99.500382 119.33301 99.048215 117.6018 98.652344 117.57031 C 98.256468 117.53894 98.001148 117.81882 97.703125 118.08984 C 97.405109 118.36087 97.187503 119.50781 96.46875 119.50781 C 95.750001 119.50781 93.620831 119.39757 93.791016 120.15039 C 93.961208 120.90322 93.922466 120.88088 93.580078 121.40625 C 93.237691 121.93161 94.446844 122.17294 95.785156 122.90625 C 97.123464 123.63956 93.99804 125.00917 94.236328 125.42773 C 94.474627 125.84629 96.490609 125.60233 99.480469 124.71484 C 102.47033 123.82737 109.51947 123.01367 111.50586 123.01367 C 113.49224 123.01367 113.88142 122.61601 113.76562 121.87695 C 113.67 121.26666 113.08759 120.2614 114.57227 119.83984 C 115.63729 120.3211 116.59488 120.76897 117.16992 121.14648 C 119.15579 122.45019 122.77792 124.93915 132.27734 124.93945 C 141.77677 124.93975 143.48047 124.62891 143.48047 124.62891 C 143.48047 124.62891 143.83891 124.71066 143.875 124.71875 C 144.03655 126.81043 146.70871 129.23737 147.25 129.71484 C 147.86007 130.25297 147.78601 131.77931 147.28906 131.8457 C 147.1014 131.87078 146.54206 131.62572 145.92773 131.39062 C 143.71652 129.88018 142.50113 128.13173 142.26758 128.52539 C 142.02452 128.93505 142.73225 130.86137 142.14648 130.73242 C 141.56073 130.6035 139.4928 130.33738 139.6543 130.91211 C 139.8158 131.48683 141.13849 131.61798 140.98633 132.2832 C 140.83416 132.94843 139.37353 133.00598 139.6543 133.7168 C 139.93508 134.42762 141.18485 133.82881 141.31836 134.24805 C 141.45185 134.66728 139.69774 135.59979 140.16406 136.46484 C 140.63037 137.32989 141.59503 135.55886 142.69727 135.10156 C 143.2615 134.86746 144.17528 134.79144 144.95312 134.77344 C 144.99537 134.78226 145.02633 134.79669 145.07031 134.80469 C 147.06333 135.1673 154.79678 135.42366 155.25 134.78906 C 155.70323 134.15431 151.87923 131.96505 151.25391 130.57617 C 150.7241 129.39942 150.05966 127.75846 151.30469 126.47852 C 151.54515 126.54432 151.96391 126.64676 152.04297 126.67969 C 152.74218 126.97094 163.52008 134.76132 159.85547 142.4043 C 156.19085 150.04728 146.97588 153.6129 137.02734 153.96875 C 127.0788 154.32459 115.35284 147.96533 108.42188 143.20508 C 101.49087 138.44483 94.376588 135.46107 86.46875 136.85938 C 78.560912 138.25765 73.31553 146.01541 74.308594 147.01953 C 75.301661 148.02365 78.891831 139.75028 88.212891 139.49805 C 97.53395 139.2458 110.38292 149.65046 121.83398 155.24805 C 133.28505 160.84565 147.54482 160.85685 159.37891 152.25586 C 167.12413 146.62665 168.2292 138.9223 167.34961 132.98633 C 169.75211 133.20509 169.77165 134.89483 172.14453 138.36133 C 174.72076 142.12489 179.89276 142.64718 182.74219 141.63477 C 185.59163 140.62234 185.99576 138.86343 186.04297 138.16992 C 186.09021 137.47645 184.82837 137.82417 184.44922 137.42773 C 184.07006 137.03131 184.95939 136.96152 185.52148 136.78906 C 186.08361 136.61658 186.00699 135.87634 185.78906 135.27734 C 185.57112 134.67833 181.99554 135.7255 181.45117 135.39453 C 180.90678 135.06353 181.5731 133.61033 180.69141 133.34766 C 179.80972 133.08498 179.88651 134.00713 179.07031 136.02344 C 178.25412 138.03974 177.17564 139.00925 174.51758 137.62891 C 171.85952 136.24857 170.50245 130.68955 169.96289 127.62891 C 169.45217 124.73178 167.40982 122.78151 163.42773 123.29297 C 159.65971 118.13749 151.79851 110.13578 145.17383 109.58008 C 141.42691 109.26577 137.59697 109.6832 134.31445 110.13477 C 133.68018 109.47968 133.65194 108.84854 133.60547 108.38477 C 133.54337 107.76506 134.94439 107.85847 135.92383 106.94922 C 136.90327 106.03992 133.87506 106.48633 133.96875 106.04883 C 134.06248 105.61133 134.14025 105.04028 133.82812 104.75977 C 133.51602 104.47925 132.51529 105.0369 132.07812 104.8418 C 131.64097 104.6467 132.53525 102.77775 132.21875 102.47656 C 131.90226 102.17537 131.17728 104.20938 130.37305 103.92773 C 129.56881 103.64606 129.972 102.56521 129.47266 101.81836 C 128.97329 101.07151 128.88015 102.90522 128.81836 103.25195 C 128.75662 103.59869 128.05722 104.22087 127.16406 104.3457 C 126.2709 104.47052 127.05903 105.44603 128.08203 106.43945 C 128.98659 107.31785 128.81548 109.13601 125.68359 110.61523 C 123.86442 109.85586 124.19478 108.18225 121.82422 108.27539 C 118.4053 108.22679 116.51946 106.7615 116.91016 105.73438 C 117.30086 104.70723 120.78436 100.20602 121.86133 97.783203 C 122.93831 95.360379 123.44405 93.458621 122.48242 92.515625 C 122.12181 92.162 121.25747 91.946627 120.14648 91.923828 z "
       style="fill:#000000;stroke:none;stroke-width:3.99999;stroke-linecap:round;stroke-linejoin:round;stroke-miterlimit:4;stroke-dasharray:none;stop-color:#000000"
       id="path1406" />
  </g>
  <g
     sodipodi:insensitive="true"
     inkscape:groupmode="layer"
     id="layer2"
     inkscape:label="Octagon"
     style="opacity:0.25">
    <path
       d="M 33.866665,9.9192931 A 11.973734,11.973734 0 0 0 21.89272,21.892723 11.973734,11.973734 0 0 0 9.9192906,33.866668 11.973734,11.973734 0 0 0 21.89272,45.840098 11.973734,11.973734 0 0 0 33.866665,57.814044 11.973734,11.973734 0 0 0 45.840095,45.840098 11.973734,11.973734 0 0 0 57.814041,33.866668 11.973734,11.973734 0 0 0 45.840095,21.892723 11.973734,11.973734 0 0 0 33.866665,9.9192931 Z"
       style="font-variation-settings:normal;display:inline;opacity:1;vector-effect:none;fill:none;fill-opacity:1;stroke:#ff0080;stroke-width:0.249999;stroke-linecap:butt;stroke-linejoin:round;stroke-miterlimit:4;stroke-dasharray:none;stroke-dashoffset:0;stroke-opacity:1;marker:none;paint-order:normal;stop-color:#000000;stop-opacity:1"
       id="path919" />
    <path
       sodipodi:type="star"
       style="opacity:1;vector-effect:none;fill:none;fill-opacity:1;stroke:#ff0080;stroke-width:0.249999;stroke-linecap:butt;stroke-linejoin:round;stroke-miterlimit:4;stroke-dasharray:none;stroke-dashoffset:0;stroke-opacity:1;marker:none;paint-order:normal;stop-color:#000000"
       id="path836"
       sodipodi:sides="8"
       sodipodi:cx="33.866665"
       sodipodi:cy="33.866665"
       sodipodi:r1="16.933332"
       sodipodi:r2="15.64436"
       sodipodi:arg1="0.78539816"
       sodipodi:arg2="1.1780972"
       inkscape:flatsided="true"
       inkscape:rounded="0"
       inkscape:randomized="0"
       d="M 45.840339,45.840339 33.866665,50.799997 21.892991,45.840339 16.933332,33.866665 21.892991,21.892991 33.866665,16.933332 45.840339,21.892991 50.799997,33.866665 Z" />
    <path
       sodipodi:nodetypes="cc"
       id="path857"
       d="M 27.093333,19.738938 V 47.994392"
       style="fill:none;stroke:#ff0080;stroke-width:0.25;stroke-linejoin:round;stop-color:#000000" />
    <path
       style="fill:none;stroke:#ff0080;stroke-width:0.25;stroke-linejoin:round;stop-color:#000000"
       d="M 40.639997,19.738938 V 47.994392"
       id="path859"
       sodipodi:nodetypes="cc" />
    <path
       sodipodi:nodetypes="cc"
       id="path861"
       d="M 47.994392,27.093332 H 19.738938"
       style="fill:none;stroke:#ff0080;stroke-width:0.25;stroke-linejoin:round;stop-color:#000000" />
    <path
       style="fill:none;stroke:#ff0080;stroke-width:0.25;stroke-linejoin:round;stop-color:#000000"
       d="M 47.994392,40.639997 H 19.738938"
       id="path863"
       sodipodi:nodetypes="cc" />
    <path
       d="M 8.2166664,16.933333 H 59.516663 V 50.799998 H 8.2166664 Z"
       style="font-variation-settings:normal;display:inline;opacity:1;vector-effect:none;fill:none;fill-opacity:1;stroke:#ff0080;stroke-width:0.249999;stroke-linecap:butt;stroke-linejoin:round;stroke-miterlimit:4;stroke-dasharray:none;stroke-dashoffset:0;stroke-opacity:1;marker:none;paint-order:normal;stop-color:#000000;stop-opacity:1"
       id="rect838" />
    <path
       id="rect838-7"
       style="font-variation-settings:normal;display:inline;opacity:1;vector-effect:none;fill:none;fill-opacity:1;stroke:#ff0080;stroke-width:0.249999;stroke-linecap:butt;stroke-linejoin:round;stroke-miterlimit:4;stroke-dasharray:none;stroke-dashoffset:0;stroke-opacity:1;marker:none;paint-order:normal;stop-color:#000000;stop-opacity:1"
       d="M 15.190002,15.189999 H 52.54333 V 52.543335 H 15.190002 Z" />
    <path
       d="M 33.866669,9.9193234 57.814011,33.866666 33.866664,57.814013 9.9193223,33.86667 Z"
       style="font-variation-settings:normal;display:inline;opacity:1;vector-effect:none;fill:none;fill-opacity:1;stroke:#ff0080;stroke-width:0.249999;stroke-linecap:butt;stroke-linejoin:round;stroke-miterlimit:4;stroke-dasharray:none;stroke-dashoffset:0;stroke-opacity:1;marker:none;paint-order:normal;stop-color:#000000;stop-opacity:1"
       id="rect838-3" />
  </g>
</svg>
