<?xml version="1.0" encoding="UTF-8" standalone="no"?>
<svg
        xmlns:dc="http://purl.org/dc/elements/1.1/"
        xmlns:cc="http://creativecommons.org/ns#"
        xmlns:rdf="http://www.w3.org/1999/02/22-rdf-syntax-ns#"
        xmlns="http://www.w3.org/2000/svg"
        xmlns:sodipodi="http://sodipodi.sourceforge.net/DTD/sodipodi-0.dtd"
        xmlns:inkscape="http://www.inkscape.org/namespaces/inkscape"
        width="256"
        height="256"
        viewBox="0 0 67.733332 67.733332"
        version="1.1"
        id="svg8"
        inkscape:version="1.0 (4035a4fb49, 2020-05-01)"
        sodipodi:docname="170301.svg">
  <style
     id="style849"></style>
  <title
     id="title856">MIL-STD-2525D Icon</title>
  <defs
     id="defs2">
    <rect
       x="21.839437"
       y="58.697551"
       width="42.553418"
       height="23.993581"
       id="rect937" />
    <rect
       x="23.463894"
       y="29.981363"
       width="37.028973"
       height="27.825965"
       id="rect919" />
    <rect
       id="rect839"
       height="13.148852"
       width="40.416331"
       y="3.2134565"
       x="23.31878" />
  </defs>
  <sodipodi:namedview
     inkscape:snap-intersection-paths="true"
     inkscape:snap-smooth-nodes="true"
     inkscape:snap-global="false"
     inkscape:snap-center="true"
     inkscape:snap-object-midpoints="true"
     inkscape:snap-midpoints="true"
     inkscape:object-paths="true"
     id="base"
     pagecolor="#ffffff"
     bordercolor="#666666"
     borderopacity="1.0"
     inkscape:pageopacity="0"
     inkscape:pageshadow="2"
     inkscape:zoom="1.4142136"
     inkscape:cx="51.493659"
     inkscape:cy="171.94816"
     inkscape:document-units="px"
     inkscape:current-layer="layer1"
     inkscape:document-rotation="0"
     showgrid="false"
     inkscape:window-width="1678"
     inkscape:window-height="1385"
     inkscape:window-x="1762"
     inkscape:window-y="27"
     inkscape:window-maximized="0"
     units="px"
     inkscape:pagecheckerboard="true"
     showguides="true"
     inkscape:guide-bbox="true">
    <sodipodi:guide
       position="33.866665,50.8"
       orientation="1,0"
       id="guide861" />
  </sodipodi:namedview>
  <metadata
     id="metadata5">
    <rdf:RDF>
      <cc:Work
         rdf:about="">
        <dc:format>image/svg+xml</dc:format>
        <dc:type
           rdf:resource="http://purl.org/dc/dcmitype/StillImage" />
        <dc:title>MIL-STD-2525D Icon</dc:title>
        <dc:creator>
          <cc:Agent>
            <dc:title>Nicholas W. Royer</dc:title>
          </cc:Agent>
        </dc:creator>
        <dc:rights>
          <cc:Agent>
            <dc:title>All rights reserved</dc:title>
          </cc:Agent>
        </dc:rights>
        <dc:description>L=128px</dc:description>
      </cc:Work>
    </rdf:RDF>
  </metadata>
  <g
     inkscape:label="Symbol"
     inkscape:groupmode="layer"
     id="layer1"
     style="display:inline;opacity:1">
    <path
       transform="scale(0.26458333)"
       d="M 150.82617 87.220703 C 149.8029 87.17867 148.67541 87.26327 147.45117 87.535156 C 138.82416 89.65264 137.74977 95.468317 137.03125 97.496094 C 136.31273 99.523875 133.87026 100.92905 123.58398 105.69531 C 113.29772 110.46157 112.07834 108.5716 106.4043 110.57617 C 100.73025 112.58074 95.767988 117.52802 90.865234 118.72852 C 85.96248 119.929 68.451172 121.4707 68.451172 121.4707 L 76.582031 123.125 C 76.582031 123.125 73.019652 124.52075 69.994141 125.47461 C 66.968629 126.42846 66.542969 128.19922 66.542969 128.19922 L 69.923828 128.57812 L 69.451172 129.82227 C 69.451172 129.82227 73.818765 130.90627 76.443359 130.38281 C 79.067947 129.85936 78.794922 128.29492 78.794922 128.29492 L 93.587891 128.31836 C 93.587891 128.31836 93.630564 129.14055 93.798828 130.35547 C 93.967108 131.5703 97.621094 130.33594 97.621094 130.33594 C 97.621094 130.33594 97.871996 130.86951 100.45117 132.19922 C 103.03035 133.52892 104.12891 132.5 104.12891 132.5 C 104.12891 132.5 105.70683 134.42977 107.32031 135.43164 C 108.93379 136.4334 111.15625 135.41992 111.15625 135.41992 C 111.15625 135.41992 110.77828 136.15765 111.28711 138.7832 C 111.7239 141.03696 114.23065 142.45494 116.35547 142.61719 C 116.0458 145.41621 116.23887 147.66558 116.78125 148.86719 C 117.38355 150.20148 118.96094 150.41211 118.96094 150.41211 L 120.72266 159.48438 C 120.72266 159.48438 120.41844 160.33146 119.13477 159.27734 C 117.85109 158.22321 117.42696 157.55624 116.86328 157.64062 C 116.29959 157.72502 115.9668 158.59961 115.9668 158.59961 C 115.9668 158.59961 120.43445 160.66148 120.50586 161.38672 C 120.57725 162.11196 120.47193 169.84298 120.97266 169.96484 C 121.47325 170.0867 122.23438 170.02247 122.26562 169.83398 C 122.297 169.6455 122.39648 164.86328 122.39648 164.86328 C 122.39648 164.86328 128.60122 169.92474 128.69336 169.37305 C 128.78547 168.82136 128.24219 167.7207 128.24219 167.7207 C 128.24219 167.7207 125.36292 165.12283 125.20312 164.65039 C 125.04333 164.17794 124.88126 163.63682 125.46875 163.69727 C 126.05622 163.75766 129.64648 164.45898 129.64648 164.45898 L 128.20898 162.98242 C 128.20898 162.98242 125.35972 162.27919 124.95703 162.00781 C 124.55434 161.73644 122.03516 159.51758 122.03516 159.51758 L 120.49219 150.61133 C 120.49219 150.61133 122.04457 150.4198 121.99414 147.23242 C 121.95666 144.86144 121.96983 142.93905 121.98047 141.88086 C 123.15337 141.67753 124.46777 141.42034 125.88086 141.125 C 126.21075 142.38207 126.86854 144.47904 127.78516 145.01953 C 129.10378 145.79707 129.77148 145.875 129.77148 145.875 L 134.37109 155.49219 C 134.37109 155.49219 134.90749 156.89325 133.31055 157.26367 C 131.7136 157.6341 128.02339 155.44307 128.08984 156.90625 C 136.00968 160.40331 139.75631 166.48766 140.07422 166.45703 C 140.39211 166.42642 141.35801 166.13715 141.27734 165.96484 C 141.19665 165.79254 139.07588 162.08398 139.24414 162.05273 C 139.41241 162.02136 145.26953 164.41016 145.26953 164.41016 C 145.26953 164.41016 145.97014 163.61886 143.85547 162.64844 C 141.7408 161.67803 140.78906 160.54102 140.78906 160.54102 L 144.61523 160.24414 C 144.61523 160.24414 143.82836 159.30606 141.48828 159.17578 C 139.14821 159.0455 138.34947 159.17579 138.05469 158.92578 C 137.75992 158.67577 135.17773 154.90039 135.17773 154.90039 L 131.23438 145.66992 C 131.23438 145.66992 132.68472 145.23972 132.64844 143.31836 C 132.6266 142.16186 132.90845 140.57633 133.17188 139.29297 C 136.72634 138.20848 140.13261 136.83859 142.48242 135.12305 C 149.37959 130.08757 151.90297 123.66116 155.92969 114.88281 C 159.95638 106.10446 159.21154 102.36265 160.83203 99.009766 C 162.45252 95.656886 166.43592 95.386301 170.31836 94.84375 C 174.2008 94.301195 173.19531 93.517578 173.19531 93.517578 C 173.19531 93.517578 167.68321 93.173981 167.98047 92.789062 C 168.27771 92.404133 174.65039 92.160156 174.65039 92.160156 C 174.65039 92.160156 173.50854 90.213547 170.97656 89.951172 C 168.44459 89.688873 157.74414 89.960938 157.74414 89.960938 C 157.74414 89.960938 155.26034 87.402845 150.82617 87.220703 z "
       style="fill:#000000;stroke:none;stroke-width:3.99999;stop-color:#000000"
       id="path1122" />
  </g>
  <g
     sodipodi:insensitive="true"
     inkscape:groupmode="layer"
     id="layer2"
     inkscape:label="Octagon"
     style="opacity:0.25">
    <path
       d="M 33.866665,9.9192931 A 11.973734,11.973734 0 0 0 21.89272,21.892723 11.973734,11.973734 0 0 0 9.9192906,33.866668 11.973734,11.973734 0 0 0 21.89272,45.840098 11.973734,11.973734 0 0 0 33.866665,57.814044 11.973734,11.973734 0 0 0 45.840095,45.840098 11.973734,11.973734 0 0 0 57.814041,33.866668 11.973734,11.973734 0 0 0 45.840095,21.892723 11.973734,11.973734 0 0 0 33.866665,9.9192931 Z"
       style="font-variation-settings:normal;display:inline;opacity:1;vector-effect:none;fill:none;fill-opacity:1;stroke:#ff0080;stroke-width:0.249999;stroke-linecap:butt;stroke-linejoin:round;stroke-miterlimit:4;stroke-dasharray:none;stroke-dashoffset:0;stroke-opacity:1;marker:none;paint-order:normal;stop-color:#000000;stop-opacity:1"
       id="path919" />
    <path
       sodipodi:type="star"
       style="opacity:1;vector-effect:none;fill:none;fill-opacity:1;stroke:#ff0080;stroke-width:0.249999;stroke-linecap:butt;stroke-linejoin:round;stroke-miterlimit:4;stroke-dasharray:none;stroke-dashoffset:0;stroke-opacity:1;marker:none;paint-order:normal;stop-color:#000000"
       id="path836"
       sodipodi:sides="8"
       sodipodi:cx="33.866665"
       sodipodi:cy="33.866665"
       sodipodi:r1="16.933332"
       sodipodi:r2="15.64436"
       sodipodi:arg1="0.78539816"
       sodipodi:arg2="1.1780972"
       inkscape:flatsided="true"
       inkscape:rounded="0"
       inkscape:randomized="0"
       d="M 45.840339,45.840339 33.866665,50.799997 21.892991,45.840339 16.933332,33.866665 21.892991,21.892991 33.866665,16.933332 45.840339,21.892991 50.799997,33.866665 Z" />
    <path
       sodipodi:nodetypes="cc"
       id="path857"
       d="M 27.093333,19.738938 V 47.994392"
       style="fill:none;stroke:#ff0080;stroke-width:0.25;stroke-linejoin:round;stop-color:#000000" />
    <path
       style="fill:none;stroke:#ff0080;stroke-width:0.25;stroke-linejoin:round;stop-color:#000000"
       d="M 40.639997,19.738938 V 47.994392"
       id="path859"
       sodipodi:nodetypes="cc" />
    <path
       sodipodi:nodetypes="cc"
       id="path861"
       d="M 47.994392,27.093332 H 19.738938"
       style="fill:none;stroke:#ff0080;stroke-width:0.25;stroke-linejoin:round;stop-color:#000000" />
    <path
       style="fill:none;stroke:#ff0080;stroke-width:0.25;stroke-linejoin:round;stop-color:#000000"
       d="M 47.994392,40.639997 H 19.738938"
       id="path863"
       sodipodi:nodetypes="cc" />
    <path
       d="M 8.2166664,16.933333 H 59.516663 V 50.799998 H 8.2166664 Z"
       style="font-variation-settings:normal;display:inline;opacity:1;vector-effect:none;fill:none;fill-opacity:1;stroke:#ff0080;stroke-width:0.249999;stroke-linecap:butt;stroke-linejoin:round;stroke-miterlimit:4;stroke-dasharray:none;stroke-dashoffset:0;stroke-opacity:1;marker:none;paint-order:normal;stop-color:#000000;stop-opacity:1"
       id="rect838" />
    <path
       id="rect838-7"
       style="font-variation-settings:normal;display:inline;opacity:1;vector-effect:none;fill:none;fill-opacity:1;stroke:#ff0080;stroke-width:0.249999;stroke-linecap:butt;stroke-linejoin:round;stroke-miterlimit:4;stroke-dasharray:none;stroke-dashoffset:0;stroke-opacity:1;marker:none;paint-order:normal;stop-color:#000000;stop-opacity:1"
       d="M 15.190002,15.189999 H 52.54333 V 52.543335 H 15.190002 Z" />
    <path
       d="M 33.866669,9.9193234 57.814011,33.866666 33.866664,57.814013 9.9193223,33.86667 Z"
       style="font-variation-settings:normal;display:inline;opacity:1;vector-effect:none;fill:none;fill-opacity:1;stroke:#ff0080;stroke-width:0.249999;stroke-linecap:butt;stroke-linejoin:round;stroke-miterlimit:4;stroke-dasharray:none;stroke-dashoffset:0;stroke-opacity:1;marker:none;paint-order:normal;stop-color:#000000;stop-opacity:1"
       id="rect838-3" />
  </g>
</svg>
