<?xml version="1.0" encoding="UTF-8" standalone="no"?>
<svg
        xmlns:dc="http://purl.org/dc/elements/1.1/"
        xmlns:cc="http://creativecommons.org/ns#"
        xmlns:rdf="http://www.w3.org/1999/02/22-rdf-syntax-ns#"
        xmlns="http://www.w3.org/2000/svg"
        xmlns:sodipodi="http://sodipodi.sourceforge.net/DTD/sodipodi-0.dtd"
        xmlns:inkscape="http://www.inkscape.org/namespaces/inkscape"
        width="256"
        height="256"
        viewBox="0 0 67.733332 67.733332"
        version="1.1"
        id="svg8"
        inkscape:version="1.0 (4035a4fb49, 2020-05-01)"
        sodipodi:docname="170302.svg">
  <style
     id="style849"></style>
  <title
     id="title856">MIL-STD-2525D Icon</title>
  <defs
     id="defs2">
    <rect
       x="21.839437"
       y="58.697551"
       width="42.553418"
       height="23.993581"
       id="rect937" />
    <rect
       x="23.463894"
       y="29.981363"
       width="37.028973"
       height="27.825965"
       id="rect919" />
    <rect
       id="rect839"
       height="13.148852"
       width="40.416331"
       y="3.2134565"
       x="23.31878" />
  </defs>
  <sodipodi:namedview
     inkscape:snap-intersection-paths="true"
     inkscape:snap-smooth-nodes="true"
     inkscape:snap-global="true"
     inkscape:snap-center="true"
     inkscape:snap-object-midpoints="true"
     inkscape:snap-midpoints="true"
     inkscape:object-paths="true"
     id="base"
     pagecolor="#ffffff"
     bordercolor="#666666"
     borderopacity="1.0"
     inkscape:pageopacity="0"
     inkscape:pageshadow="2"
     inkscape:zoom="2"
     inkscape:cx="286.75863"
     inkscape:cy="204.56"
     inkscape:document-units="px"
     inkscape:current-layer="layer1"
     inkscape:document-rotation="0"
     showgrid="false"
     inkscape:window-width="1678"
     inkscape:window-height="1385"
     inkscape:window-x="1762"
     inkscape:window-y="27"
     inkscape:window-maximized="0"
     units="px"
     inkscape:pagecheckerboard="true"
     showguides="true"
     inkscape:guide-bbox="true">
    <sodipodi:guide
       position="33.866665,50.8"
       orientation="1,0"
       id="guide861" />
  </sodipodi:namedview>
  <metadata
     id="metadata5">
    <rdf:RDF>
      <cc:Work
         rdf:about="">
        <dc:format>image/svg+xml</dc:format>
        <dc:type
           rdf:resource="http://purl.org/dc/dcmitype/StillImage" />
        <dc:title>MIL-STD-2525D Icon</dc:title>
        <dc:creator>
          <cc:Agent>
            <dc:title>Nicholas W. Royer</dc:title>
          </cc:Agent>
        </dc:creator>
        <dc:rights>
          <cc:Agent>
            <dc:title>All rights reserved</dc:title>
          </cc:Agent>
        </dc:rights>
        <dc:description>L=128px</dc:description>
      </cc:Work>
    </rdf:RDF>
  </metadata>
  <g
     inkscape:label="Symbol"
     inkscape:groupmode="layer"
     id="layer1"
     style="display:inline;opacity:1">
    <path
       transform="scale(0.26458333)"
       d="M 130.86328 94.556641 C 130.07061 94.596288 129.50438 94.912152 129.11328 95.396484 A 1.0000006 1.0000006 0 0 0 128.55469 95.277344 A 1.0000006 1.0000006 0 0 0 127.89844 95.603516 L 109.87305 115.36133 C 109.69548 115.16028 109.49548 114.94544 109.36523 114.77344 C 107.64161 112.49722 103.66213 106.96246 102.30664 106.33984 C 101.6289 106.02854 100.79661 105.81348 100.08008 105.87695 C 99.363543 105.94043 98.761887 106.28173 98.541016 107.08398 C 98.415877 107.53852 98.552932 108.02981 98.859375 108.54883 L 90.605469 130.42773 L 90.228516 130.41602 A 1.0000006 1.0000006 0 0 0 89.195312 131.38281 A 1.0000006 1.0000006 0 0 0 89.876953 132.35742 L 81.148438 155.49219 L 79.503906 155.75781 A 1.0000006 1.0000006 0 0 0 78.675781 156.90234 A 1.0000006 1.0000006 0 0 0 79.820312 157.72852 L 82.035156 157.375 A 1.0001007 1.0001007 0 0 0 82.810547 156.74023 L 91.972656 132.4707 L 96.363281 132.62305 A 1.0001007 1.0001007 0 0 0 97.130859 132.29883 L 100.76172 128.32031 C 102.75438 129.75044 109.57584 134.1273 119.63086 134.91992 C 118.89535 133.82683 118.12176 132.66289 117.29102 131.42773 C 116.36479 130.05061 115.40441 128.64603 114.48828 127.35547 L 101.24023 127.79492 L 110.05664 118.12891 C 111.31944 119.33128 112.58457 120.65747 113.84766 122.1582 C 117.15538 126.08827 122.09437 134.14055 124.2168 136.86719 C 126.33923 139.59383 128.82665 142.8365 130.81055 142.59766 C 132.79445 142.35883 132.82031 141.73242 132.82031 141.73242 C 134.24891 139.17743 131.84485 135.76472 129.82812 133.75781 C 127.8114 131.75089 123.99909 129.53835 120.61328 125.77734 C 118.03305 122.91117 113.8651 119.35276 111.25977 116.81055 L 128.38281 98.041016 C 128.38218 98.697186 128.45872 99.37207 128.5957 100 C 129.10224 102.32204 130.64258 114.92507 130.64258 116.75781 C 130.64258 118.59054 128.19141 126.90234 128.19141 126.90234 L 125.69727 126.98438 C 127.85361 128.78022 129.99653 130.22736 131.67773 131.90039 C 131.99303 132.21415 132.31555 132.55735 132.63672 132.92188 C 139.49894 130.34182 144.31836 126.31641 144.31836 126.31641 C 144.31836 126.31641 138.71074 126.21269 137.1582 125.8125 C 135.60567 125.41231 133.70981 119.09657 133.28125 116.65625 C 132.85271 114.21594 132.42744 103.77134 132.60742 100.64844 C 132.78741 97.525533 133.42246 94.428628 130.86328 94.556641 z M 100.35742 110.25781 C 101.31785 111.13266 102.56066 112.07459 103.94922 113.08789 C 105.48361 114.2076 107.02851 115.42058 108.57617 116.7832 L 95.964844 130.60742 L 92.716797 130.49805 L 100.35742 110.25781 z M 183.10547 113.73242 A 1.0000006 1.0000006 0 0 0 182.15625 114.51562 C 181.64654 116.80409 179.82978 118.88596 177.43945 120.56836 C 175.04912 122.25076 172.13084 123.50767 169.69531 124.20703 A 1.0000006 1.0000006 0 0 0 169.61719 124.23438 A 1.0000006 1.0000006 0 0 0 169.46289 124.30664 A 1.0000006 1.0000006 0 0 0 169.31641 124.41211 C 168.76193 123.84204 168.02019 123.17837 167.47656 122.7793 C 166.16133 121.95275 165.04395 121.65476 164.2207 121.62695 C 163.39746 121.59914 162.86868 121.84164 162.73242 122.09375 C 162.45992 122.59797 159.51738 130.28964 159.25195 132.18945 C 158.98652 134.08925 158.979 135.36088 160.03711 136.05273 C 161.09525 136.7446 165.99319 132.3847 167.5293 130.33398 C 168.60108 128.90317 169.52043 127.23816 169.86914 126.16602 A 1.0000006 1.0000006 0 0 0 169.99805 126.17188 A 1.0000006 1.0000006 0 0 0 170.04688 126.16992 C 175.274 126.01811 179.27484 125.04832 181.97852 124.10352 C 184.69085 123.15568 186.15625 122.19336 186.15625 122.19336 A 1.0000006 1.0000006 0 0 0 186.44531 120.8125 A 1.0000006 1.0000006 0 0 0 185.61719 120.36133 A 1.0000006 1.0000006 0 0 0 185.05664 120.52344 C 185.05664 120.52344 183.85012 121.32875 181.31445 122.21484 C 180.05342 122.65551 178.47811 123.10707 176.5957 123.4668 C 177.27874 123.07842 177.94737 122.65923 178.58984 122.20703 C 181.21892 120.35659 183.44261 117.95348 184.11133 114.95117 A 1.0000006 1.0000006 0 0 0 183.35156 113.75586 A 1.0000006 1.0000006 0 0 0 183.18945 113.73242 A 1.0000006 1.0000006 0 0 0 183.10547 113.73242 z M 145.33594 121.54883 C 145.33594 121.54883 144.98325 127.17178 143.96484 129.11719 C 143.24239 130.49728 139.06196 133.22441 134.21289 135.00977 C 134.49368 135.45369 134.75852 135.91815 134.99219 136.41016 C 135.86671 138.2516 136.37878 140.74999 135.11914 143.00977 L 135.11914 143.01758 C 135.10553 143.04596 135.10969 143.06377 135.0957 143.08984 C 134.86144 143.51995 134.50798 143.90594 134.10742 144.19727 C 133.30631 144.77993 132.38538 145.05724 131.125 145.20898 C 128.60315 145.51259 127.04415 144.03015 125.71289 142.71484 C 124.38163 141.39954 123.19736 139.84189 122.14062 138.48438 C 121.89869 138.17352 121.62406 137.79059 121.3457 137.40234 C 116.62712 137.97559 112.08921 138.50695 108.93359 138.80078 C 104.26715 139.2353 100.11433 138.85465 98.029297 138.20117 C 95.944268 137.54767 93.462736 139.77554 95.773438 141.30078 C 98.084139 142.82602 105.90123 146.05078 117.11133 146.3125 C 124.77611 146.49146 132.76237 146.23387 137.22266 146.05078 C 135.7429 147.62015 133.74915 149.09668 131.95898 150.23633 C 129.5711 151.75649 127.57422 152.69531 127.57422 152.69531 A 1.0000006 1.0000006 0 0 0 127.43945 152.77148 A 1.9197406 1.9197406 0 0 0 127.20703 152.75781 A 1.9197406 1.9197406 0 0 0 125.28711 154.67773 A 1.9197406 1.9197406 0 0 0 127.20703 156.59766 A 1.9197406 1.9197406 0 0 0 129.125 154.67773 A 1.9197406 1.9197406 0 0 0 129.06055 154.18164 C 129.74429 153.84532 131.11962 153.14648 133.03711 151.92578 C 135.02752 150.65866 137.27492 149.01812 138.97852 147.08984 C 138.79814 147.80289 138.58501 148.58871 138.33594 149.46094 C 137.80137 151.33296 137.1926 153.32735 136.88477 155.00977 A 1.9197406 1.9197406 0 0 0 135.76562 156.75391 A 1.9197406 1.9197406 0 0 0 137.68359 158.67383 A 1.9197406 1.9197406 0 0 0 139.60352 156.75391 A 1.9197406 1.9197406 0 0 0 138.90234 155.27148 C 139.19613 153.81458 139.74451 151.8259 140.26367 150.00781 C 140.63167 148.7191 140.97511 147.50786 141.17773 146.53125 C 141.27904 146.04295 141.34602 145.61889 141.35547 145.2168 C 141.35974 145.03475 141.35296 144.85221 141.30664 144.64453 L 142.82227 140.81836 L 156.82031 140.62891 C 156.82031 140.62891 156.79458 140.61588 156.79297 140.61523 L 165.03711 140.83203 C 164.95592 142.13263 164.75692 146.61172 166.02344 151.31055 A 1.9197406 1.9197406 0 0 0 165.83203 152.14844 A 1.9197406 1.9197406 0 0 0 167.75195 154.06641 A 1.9197406 1.9197406 0 0 0 169.66992 152.14844 A 1.9197406 1.9197406 0 0 0 167.80078 150.22852 C 167.25519 147.91262 167.05737 145.52212 167 143.61523 C 168.8488 146.49299 170.84617 148.60873 172.10352 149.81445 A 1.9197406 1.9197406 0 0 0 172.06836 150.17773 A 1.9197406 1.9197406 0 0 0 173.98828 152.09766 A 1.9197406 1.9197406 0 0 0 175.9082 150.17773 A 1.9197406 1.9197406 0 0 0 173.98828 148.25781 A 1.9197406 1.9197406 0 0 0 173.45117 148.33594 C 171.85971 146.80142 168.96908 143.67186 166.95898 139.44727 A 1.0001 1.0001 0 0 0 166.69336 139.09766 A 1.0000006 1.0000006 0 0 0 166.64453 139.05859 A 1.0001 1.0001 0 0 0 166.62695 139.04688 A 1.0000006 1.0000006 0 0 0 166.57617 139.01172 A 1.0001 1.0001 0 0 0 166.55664 139 A 1.0000006 1.0000006 0 0 0 166.54688 138.99414 A 1.0001 1.0001 0 0 0 166.48438 138.96094 A 1.0000006 1.0000006 0 0 0 166.42578 138.93555 A 1.0001 1.0001 0 0 0 166.40625 138.92773 A 1.0000006 1.0000006 0 0 0 166.3457 138.90625 A 1.0001 1.0001 0 0 0 166.32617 138.90039 A 1.0000006 1.0000006 0 0 0 166.26562 138.88477 A 1.0001 1.0001 0 0 0 166.16211 138.86719 A 1.0000006 1.0000006 0 0 0 166.1582 138.86719 A 1.0001 1.0001 0 0 0 166.07812 138.86133 A 1.0000006 1.0000006 0 0 0 166.07031 138.86133 L 155.08789 138.56836 C 154.91293 137.99688 154.83488 137.29274 154.96875 136.4043 C 155.46891 133.08492 158.80217 124.61156 158.38086 121.66211 C 157.71549 121.66211 145.33594 121.54883 145.33594 121.54883 z M 165.68359 125.52734 A 1.5423203 1.5423203 0 0 1 165.70508 125.52734 A 1.5423203 1.5423203 0 0 1 167.24805 127.07031 A 1.5423203 1.5423203 0 0 1 165.70508 128.61133 A 1.5423203 1.5423203 0 0 1 164.16211 127.07031 A 1.5423203 1.5423203 0 0 1 165.68359 125.52734 z "
       style="fill:#000000;stroke:none;stroke-width:0.25;stop-color:#000000"
       id="path1213" />
  </g>
  <g
     sodipodi:insensitive="true"
     inkscape:groupmode="layer"
     id="layer2"
     inkscape:label="Octagon"
     style="opacity:0.25">
    <path
       d="M 33.866665,9.9192931 A 11.973734,11.973734 0 0 0 21.89272,21.892723 11.973734,11.973734 0 0 0 9.9192906,33.866668 11.973734,11.973734 0 0 0 21.89272,45.840098 11.973734,11.973734 0 0 0 33.866665,57.814044 11.973734,11.973734 0 0 0 45.840095,45.840098 11.973734,11.973734 0 0 0 57.814041,33.866668 11.973734,11.973734 0 0 0 45.840095,21.892723 11.973734,11.973734 0 0 0 33.866665,9.9192931 Z"
       style="font-variation-settings:normal;display:inline;opacity:1;vector-effect:none;fill:none;fill-opacity:1;stroke:#ff0080;stroke-width:0.249999;stroke-linecap:butt;stroke-linejoin:round;stroke-miterlimit:4;stroke-dasharray:none;stroke-dashoffset:0;stroke-opacity:1;marker:none;paint-order:normal;stop-color:#000000;stop-opacity:1"
       id="path919" />
    <path
       sodipodi:type="star"
       style="opacity:1;vector-effect:none;fill:none;fill-opacity:1;stroke:#ff0080;stroke-width:0.249999;stroke-linecap:butt;stroke-linejoin:round;stroke-miterlimit:4;stroke-dasharray:none;stroke-dashoffset:0;stroke-opacity:1;marker:none;paint-order:normal;stop-color:#000000"
       id="path836"
       sodipodi:sides="8"
       sodipodi:cx="33.866665"
       sodipodi:cy="33.866665"
       sodipodi:r1="16.933332"
       sodipodi:r2="15.64436"
       sodipodi:arg1="0.78539816"
       sodipodi:arg2="1.1780972"
       inkscape:flatsided="true"
       inkscape:rounded="0"
       inkscape:randomized="0"
       d="M 45.840339,45.840339 33.866665,50.799997 21.892991,45.840339 16.933332,33.866665 21.892991,21.892991 33.866665,16.933332 45.840339,21.892991 50.799997,33.866665 Z" />
    <path
       sodipodi:nodetypes="cc"
       id="path857"
       d="M 27.093333,19.738938 V 47.994392"
       style="fill:none;stroke:#ff0080;stroke-width:0.25;stroke-linejoin:round;stop-color:#000000" />
    <path
       style="fill:none;stroke:#ff0080;stroke-width:0.25;stroke-linejoin:round;stop-color:#000000"
       d="M 40.639997,19.738938 V 47.994392"
       id="path859"
       sodipodi:nodetypes="cc" />
    <path
       sodipodi:nodetypes="cc"
       id="path861"
       d="M 47.994392,27.093332 H 19.738938"
       style="fill:none;stroke:#ff0080;stroke-width:0.25;stroke-linejoin:round;stop-color:#000000" />
    <path
       style="fill:none;stroke:#ff0080;stroke-width:0.25;stroke-linejoin:round;stop-color:#000000"
       d="M 47.994392,40.639997 H 19.738938"
       id="path863"
       sodipodi:nodetypes="cc" />
    <path
       d="M 8.2166664,16.933333 H 59.516663 V 50.799998 H 8.2166664 Z"
       style="font-variation-settings:normal;display:inline;opacity:1;vector-effect:none;fill:none;fill-opacity:1;stroke:#ff0080;stroke-width:0.249999;stroke-linecap:butt;stroke-linejoin:round;stroke-miterlimit:4;stroke-dasharray:none;stroke-dashoffset:0;stroke-opacity:1;marker:none;paint-order:normal;stop-color:#000000;stop-opacity:1"
       id="rect838" />
    <path
       id="rect838-7"
       style="font-variation-settings:normal;display:inline;opacity:1;vector-effect:none;fill:none;fill-opacity:1;stroke:#ff0080;stroke-width:0.249999;stroke-linecap:butt;stroke-linejoin:round;stroke-miterlimit:4;stroke-dasharray:none;stroke-dashoffset:0;stroke-opacity:1;marker:none;paint-order:normal;stop-color:#000000;stop-opacity:1"
       d="M 15.190002,15.189999 H 52.54333 V 52.543335 H 15.190002 Z" />
    <path
       d="M 33.866669,9.9193234 57.814011,33.866666 33.866664,57.814013 9.9193223,33.86667 Z"
       style="font-variation-settings:normal;display:inline;opacity:1;vector-effect:none;fill:none;fill-opacity:1;stroke:#ff0080;stroke-width:0.249999;stroke-linecap:butt;stroke-linejoin:round;stroke-miterlimit:4;stroke-dasharray:none;stroke-dashoffset:0;stroke-opacity:1;marker:none;paint-order:normal;stop-color:#000000;stop-opacity:1"
       id="rect838-3" />
  </g>
</svg>
