<?xml version="1.0" encoding="UTF-8" standalone="no"?>
<svg
   xmlns:dc="http://purl.org/dc/elements/1.1/"
   xmlns:cc="http://creativecommons.org/ns#"
   xmlns:rdf="http://www.w3.org/1999/02/22-rdf-syntax-ns#"
   xmlns:svg="http://www.w3.org/2000/svg"
   xmlns="http://www.w3.org/2000/svg"
   xmlns:sodipodi="http://sodipodi.sourceforge.net/DTD/sodipodi-0.dtd"
   xmlns:inkscape="http://www.inkscape.org/namespaces/inkscape"
   sodipodi:docname="20-1.svg"
   inkscape:version="1.0 (4035a4fb49, 2020-05-01)"
   id="svg8"
   version="1.1"
   viewBox="0 0 67.733332 67.733332"
   height="256"
   width="256">
  <style
     id="style838"></style>
  <title
     id="title856">MIL-STD-2525D Icon</title>
  <defs
     id="defs2" />
  <sodipodi:namedview
     inkscape:pagecheckerboard="true"
     units="px"
     inkscape:window-maximized="0"
     inkscape:window-y="27"
     inkscape:window-x="1494"
     inkscape:window-height="1385"
     inkscape:window-width="1946"
     showgrid="false"
     inkscape:document-rotation="0"
     inkscape:current-layer="layer1"
     inkscape:document-units="px"
     inkscape:cy="108.38527"
     inkscape:cx="94.864463"
     inkscape:zoom="3.0648962"
     inkscape:pageshadow="2"
     inkscape:pageopacity="0"
     borderopacity="1.0"
     bordercolor="#666666"
     pagecolor="#ffffff"
     id="base"
     inkscape:object-paths="true"
     inkscape:snap-midpoints="true"
     inkscape:snap-smooth-nodes="true" />
  <metadata
     id="metadata5">
    <rdf:RDF>
      <cc:Work
         rdf:about="">
        <dc:format>image/svg+xml</dc:format>
        <dc:type
           rdf:resource="http://purl.org/dc/dcmitype/StillImage" />
        <dc:title>MIL-STD-2525D Icon</dc:title>
        <dc:creator>
          <cc:Agent>
            <dc:title>Nicholas W. Royer</dc:title>
          </cc:Agent>
        </dc:creator>
        <dc:rights>
          <cc:Agent>
            <dc:title>All rights reserved</dc:title>
          </cc:Agent>
        </dc:rights>
        <dc:description>L=128px</dc:description>
      </cc:Work>
    </rdf:RDF>
  </metadata>
  <g
     style="display:inline"
     id="layer1"
     inkscape:groupmode="layer"
     inkscape:label="Symbol">
    <path
       id="path919"
       style="fill:#ff8000;stroke:none;stroke-width:3.99999997;stroke-linejoin:round;stop-color:#000000"
       d="M 128,37.490234 A 45.255059,45.255059 0 0 0 82.744141,82.744141 45.255059,45.255059 0 0 0 37.490234,128 45.255059,45.255059 0 0 0 82.744141,173.25391 45.255059,45.255059 0 0 0 128,218.50977 45.255059,45.255059 0 0 0 173.25391,173.25391 45.255059,45.255059 0 0 0 218.50977,128 45.255059,45.255059 0 0 0 173.25391,82.744141 45.255059,45.255059 0 0 0 128,37.490234 Z"
       transform="scale(0.26458333)" />
    <path
       id="rect858"
       style="display:inline;fill:#000000;stroke:none;stroke-width:1.05833;stop-color:#000000"
       d="m 26.274099,4.5525804 h 15.185136 l 0,8.0820106 c 0,0 -2.956222,-2.7153 -7.532789,-2.7153 -4.576567,0 -7.652347,2.714876 -7.652347,2.714876 z"
       sodipodi:nodetypes="ccczcc" />
    <path
       transform="scale(0.26458333)"
       d="M 128,37.490234 A 45.255059,45.255059 0 0 0 82.744141,82.744141 45.255059,45.255059 0 0 0 37.490234,128 45.255059,45.255059 0 0 0 82.744141,173.25391 45.255059,45.255059 0 0 0 128,218.50977 45.255059,45.255059 0 0 0 173.25391,173.25391 45.255059,45.255059 0 0 0 218.50977,128 45.255059,45.255059 0 0 0 173.25391,82.744141 45.255059,45.255059 0 0 0 128,37.490234 Z"
       style="fill:none;stroke:#000000;stroke-width:3.99999997;stroke-linejoin:round;stop-color:#000000"
       id="path840" />
  </g>
  <g
     inkscape:label="Octagon"
     id="layer2"
     inkscape:groupmode="layer"
     style="opacity:0.25"
     sodipodi:insensitive="true">
    <path
       d="M 45.840339,45.840339 33.866665,50.799997 21.892991,45.840339 16.933332,33.866665 21.892991,21.892991 33.866665,16.933332 45.840339,21.892991 50.799997,33.866665 Z"
       inkscape:randomized="0"
       inkscape:rounded="0"
       inkscape:flatsided="true"
       sodipodi:arg2="1.1780972"
       sodipodi:arg1="0.78539816"
       sodipodi:r2="15.64436"
       sodipodi:r1="16.933332"
       sodipodi:cy="33.866665"
       sodipodi:cx="33.866665"
       sodipodi:sides="8"
       id="path836"
       style="opacity:1;vector-effect:none;fill:none;fill-opacity:1;stroke:#ff0080;stroke-width:0.264583;stroke-linecap:butt;stroke-linejoin:round;stroke-miterlimit:4;stroke-dasharray:none;stroke-dashoffset:0;stroke-opacity:1;marker:none;paint-order:normal;stop-color:#000000"
       sodipodi:type="star" />
    <path
       style="fill:none;stroke:#ff0080;stroke-width:0.264583;stroke-linejoin:round;stop-color:#000000"
       d="M 27.093333,19.738938 V 47.994392"
       id="path857"
       sodipodi:nodetypes="cc" />
    <path
       sodipodi:nodetypes="cc"
       id="path859"
       d="M 40.639997,19.738938 V 47.994392"
       style="fill:none;stroke:#ff0080;stroke-width:0.264583;stroke-linejoin:round;stop-color:#000000" />
    <path
       style="fill:none;stroke:#ff0080;stroke-width:0.264583;stroke-linejoin:round;stop-color:#000000"
       d="M 47.994392,27.093332 H 19.738938"
       id="path861"
       sodipodi:nodetypes="cc" />
    <path
       sodipodi:nodetypes="cc"
       id="path863"
       d="M 47.994392,40.639997 H 19.738938"
       style="fill:none;stroke:#ff0080;stroke-width:0.264583;stroke-linejoin:round;stop-color:#000000" />
  </g>
</svg>
