<?xml version="1.0" encoding="UTF-8" standalone="no"?>
<svg
        xmlns:dc="http://purl.org/dc/elements/1.1/"
        xmlns:cc="http://creativecommons.org/ns#"
        xmlns:rdf="http://www.w3.org/1999/02/22-rdf-syntax-ns#"
        xmlns="http://www.w3.org/2000/svg"
        xmlns:sodipodi="http://sodipodi.sourceforge.net/DTD/sodipodi-0.dtd"
        xmlns:inkscape="http://www.inkscape.org/namespaces/inkscape"
        width="256"
        height="256"
        viewBox="0 0 67.733332 67.733332"
        version="1.1"
        id="svg8"
        inkscape:version="1.0 (4035a4fb49, 2020-05-01)"
        sodipodi:docname="30-1.svg">
  <style></style>
  <title
     id="title856">MIL-STD-2525D Icon</title>
  <defs
     id="defs2" />
  <sodipodi:namedview
     inkscape:snap-smooth-nodes="true"
     inkscape:snap-midpoints="true"
     inkscape:object-paths="true"
     id="base"
     pagecolor="#ffffff"
     bordercolor="#666666"
     borderopacity="1.0"
     inkscape:pageopacity="0"
     inkscape:pageshadow="2"
     inkscape:zoom="4.3344178"
     inkscape:cx="101.59827"
     inkscape:cy="193.23221"
     inkscape:document-units="px"
     inkscape:current-layer="layer1"
     inkscape:document-rotation="0"
     showgrid="false"
     inkscape:window-width="1939"
     inkscape:window-height="1385"
     inkscape:window-x="1501"
     inkscape:window-y="27"
     inkscape:window-maximized="0"
     units="px"
     inkscape:pagecheckerboard="true" />
  <metadata
     id="metadata5">
    <rdf:RDF>
      <cc:Work
         rdf:about="">
        <dc:format>image/svg+xml</dc:format>
        <dc:type
           rdf:resource="http://purl.org/dc/dcmitype/StillImage" />
        <dc:title>MIL-STD-2525D Icon</dc:title>
        <dc:creator>
          <cc:Agent>
            <dc:title>Nicholas W. Royer</dc:title>
          </cc:Agent>
        </dc:creator>
        <dc:rights>
          <cc:Agent>
            <dc:title>All rights reserved</dc:title>
          </cc:Agent>
        </dc:rights>
        <dc:description>L=128px</dc:description>
      </cc:Work>
    </rdf:RDF>
  </metadata>
  <g
     inkscape:label="Symbol"
     inkscape:groupmode="layer"
     id="layer1"
     style="display:inline">
    <path
       transform="scale(0.26458333)"
       d="M 128,37.490234 A 45.255059,45.255059 0 0 0 82.744141,82.744141 45.255059,45.255059 0 0 0 37.490234,128 45.255059,45.255059 0 0 0 82.744141,173.25391 45.255059,45.255059 0 0 0 128,218.50977 45.255059,45.255059 0 0 0 173.25391,173.25391 45.255059,45.255059 0 0 0 218.50977,128 45.255059,45.255059 0 0 0 173.25391,82.744141 45.255059,45.255059 0 0 0 128,37.490234 Z"
       style="fill:#ff8000;stroke:none;stroke-width:3.99999997;stroke-linejoin:round;stop-color:#000000"
       id="path919" />
    <path
       id="path840"
       style="fill:none;stroke:#000000;stroke-width:3.99999997;stroke-linejoin:round;stop-color:#000000"
       d="M 128,37.490234 A 45.255059,45.255059 0 0 0 82.744141,82.744141 45.255059,45.255059 0 0 0 37.490234,128 45.255059,45.255059 0 0 0 82.744141,173.25391 45.255059,45.255059 0 0 0 128,218.50977 45.255059,45.255059 0 0 0 173.25391,173.25391 45.255059,45.255059 0 0 0 218.50977,128 45.255059,45.255059 0 0 0 173.25391,82.744141 45.255059,45.255059 0 0 0 128,37.490234 Z"
       transform="scale(0.26458333)" />
  </g>
  <g
     sodipodi:insensitive="true"
     style="opacity:0.25"
     inkscape:groupmode="layer"
     id="layer2"
     inkscape:label="Octagon">
    <path
       sodipodi:type="star"
       style="opacity:1;vector-effect:none;fill:none;fill-opacity:1;stroke:#ff0080;stroke-width:0.264583;stroke-linecap:butt;stroke-linejoin:round;stroke-miterlimit:4;stroke-dasharray:none;stroke-dashoffset:0;stroke-opacity:1;marker:none;paint-order:normal;stop-color:#000000"
       id="path836"
       sodipodi:sides="8"
       sodipodi:cx="33.866665"
       sodipodi:cy="33.866665"
       sodipodi:r1="16.933332"
       sodipodi:r2="15.64436"
       sodipodi:arg1="0.78539816"
       sodipodi:arg2="1.1780972"
       inkscape:flatsided="true"
       inkscape:rounded="0"
       inkscape:randomized="0"
       d="M 45.840339,45.840339 33.866665,50.799997 21.892991,45.840339 16.933332,33.866665 21.892991,21.892991 33.866665,16.933332 45.840339,21.892991 50.799997,33.866665 Z" />
    <path
       sodipodi:nodetypes="cc"
       id="path857"
       d="M 27.093333,19.738938 V 47.994392"
       style="fill:none;stroke:#ff0080;stroke-width:0.264583;stroke-linejoin:round;stop-color:#000000" />
    <path
       style="fill:none;stroke:#ff0080;stroke-width:0.264583;stroke-linejoin:round;stop-color:#000000"
       d="M 40.639997,19.738938 V 47.994392"
       id="path859"
       sodipodi:nodetypes="cc" />
    <path
       sodipodi:nodetypes="cc"
       id="path861"
       d="M 47.994392,27.093332 H 19.738938"
       style="fill:none;stroke:#ff0080;stroke-width:0.264583;stroke-linejoin:round;stop-color:#000000" />
    <path
       style="fill:none;stroke:#ff0080;stroke-width:0.264583;stroke-linejoin:round;stop-color:#000000"
       d="M 47.994392,40.639997 H 19.738938"
       id="path863"
       sodipodi:nodetypes="cc" />
  </g>
</svg>
