<?xml version="1.0" encoding="UTF-8" standalone="no"?>
<svg
        xmlns:dc="http://purl.org/dc/elements/1.1/"
        xmlns:cc="http://creativecommons.org/ns#"
        xmlns:rdf="http://www.w3.org/1999/02/22-rdf-syntax-ns#"
        xmlns="http://www.w3.org/2000/svg"
        xmlns:sodipodi="http://sodipodi.sourceforge.net/DTD/sodipodi-0.dtd"
        xmlns:inkscape="http://www.inkscape.org/namespaces/inkscape"
        width="256"
        height="256"
        viewBox="0 0 67.733332 67.733332"
        version="1.1"
        id="svg8"
        inkscape:version="1.0 (4035a4fb49, 2020-05-01)"
        sodipodi:docname="120500.svg">
  <title
     id="title856">MIL-STD-2525D Icon</title>
  <defs
     id="defs2">
    <rect
       id="rect839"
       height="13.148852"
       width="40.416331"
       y="3.2134565"
       x="23.31878" />
  </defs>
  <sodipodi:namedview
     inkscape:snap-center="true"
     inkscape:snap-object-midpoints="true"
     inkscape:snap-midpoints="true"
     inkscape:object-paths="true"
     id="base"
     pagecolor="#ffffff"
     bordercolor="#666666"
     borderopacity="1.0"
     inkscape:pageopacity="0"
     inkscape:pageshadow="2"
     inkscape:zoom="2.8284271"
     inkscape:cx="215.40582"
     inkscape:cy="134.0108"
     inkscape:document-units="px"
     inkscape:current-layer="layer1"
     inkscape:document-rotation="0"
     showgrid="false"
     inkscape:window-width="1678"
     inkscape:window-height="1385"
     inkscape:window-x="1762"
     inkscape:window-y="27"
     inkscape:window-maximized="0"
     units="px"
     inkscape:pagecheckerboard="true"
     inkscape:snap-global="true"
     inkscape:snap-smooth-nodes="true" />
  <metadata
     id="metadata5">
    <rdf:RDF>
      <cc:Work
         rdf:about="">
        <dc:format>image/svg+xml</dc:format>
        <dc:type
           rdf:resource="http://purl.org/dc/dcmitype/StillImage" />
        <dc:title>MIL-STD-2525D Icon</dc:title>
        <dc:creator>
          <cc:Agent>
            <dc:title>Nicholas W. Royer</dc:title>
          </cc:Agent>
        </dc:creator>
        <dc:rights>
          <cc:Agent>
            <dc:title>All rights reserved</dc:title>
          </cc:Agent>
        </dc:rights>
        <dc:description>L=128px</dc:description>
      </cc:Work>
    </rdf:RDF>
  </metadata>
  <g
     inkscape:label="Symbol"
     inkscape:groupmode="layer"
     id="layer1"
     style="opacity:1">
    <path
       d="m 119.20117,105.60352 c -2.48704,0.003 -4.77761,1.32646 -6.02148,3.48046 -1.93378,3.34807 -0.80116,7.58181 2.54687,9.51563 3.34885,1.93458 7.58425,0.80074 9.51758,-2.54883 0.58271,-1.00923 0.90333,-2.14942 0.93164,-3.31445 a 1.6693104,1.6693104 0 0 1 2.50195,-1.4043 l 13.88477,8.01563 0.58008,-1.00391 -20.44922,-11.80664 a 1.6693104,1.6693104 0 0 1 -0.0254,-0.0137 c -0.0128,-0.008 -0.0222,-0.015 -0.0332,-0.0215 l -0.004,-0.002 c -1.04663,-0.58995 -2.22821,-0.89809 -3.42969,-0.89648 z m -39.582029,22.23632 v 22.09375 h 34.119139 v -8.58203 a 1.6693104,1.6693104 0 0 1 1.66992,-1.66992 h 2.00586 a 1.6693104,1.6693104 0 0 1 1.66992,1.66992 v 8.58203 h 17.83204 v -8.58203 a 1.6693104,1.6693104 0 0 1 1.66992,-1.66992 h 2.01367 a 1.6693104,1.6693104 0 0 1 1.66992,1.66992 v 8.58203 h 34.11133 v -22.09375 h -34.11133 v 8.57618 a 1.6693104,1.6693104 0 0 1 -1.66992,1.66992 h -2.01367 a 1.6693104,1.6693104 0 0 1 -1.66992,-1.66992 v -8.57618 h -17.83204 v 8.57618 a 1.6693104,1.6693104 0 0 1 -1.66992,1.66992 h -2.00586 a 1.6693104,1.6693104 0 0 1 -1.66992,-1.66992 v -8.57618 z"
       transform="scale(0.26458333)"
       style="fill:#ffffff;stroke-width:3.77953;stroke-linejoin:round;stop-color:#000000"
       id="path855" />
    <path
       id="path959"
       style="fill:#000000;stroke-width:3.77953;stroke-linejoin:round;stop-color:#000000"
       d="m 119.19922,103.93359 c -3.08006,0.004 -5.92457,1.64913 -7.46484,4.31641 -2.38492,4.1292 -0.97095,9.40993 3.1582,11.79492 4.13014,2.38592 9.41249,0.97088 11.79687,-3.16015 0.72231,-1.25102 1.1192,-2.66328 1.1543,-4.10743 l 15.33008,8.84961 2.24805,-3.89453 -21.89454,-12.64062 c -0.024,-0.0144 -0.0481,-0.0288 -0.0723,-0.043 -1.29852,-0.733 -2.76474,-1.11723 -4.25586,-1.11524 z m 0.084,2.94922 c 0.95034,0.0122 1.89698,0.26324 2.4065,0.54862 0.0461,0.028 4.7771,2.75021 4.7771,2.75021 -0.93664,0.49641 -1.53416,1.45796 -1.56446,2.51758 -0.0235,0.94795 -0.28667,1.88832 -0.76172,2.70898 0,0.003 0,0.005 0,0.008 -1.48979,2.58051 -5.19134,3.57246 -7.77148,2.08203 -0.003,0 -0.005,0 -0.008,0 -2.58051,-1.4898 -3.57247,-5.1933 -2.08203,-7.77344 1.00618,-1.73991 2.99418,-2.86825 5.0039,-2.8418 z"
       transform="scale(0.26458333)"
       sodipodi:nodetypes="cccccccccccccccccccc" />
    <path
       style="color:#000000;font-style:normal;font-variant:normal;font-weight:normal;font-stretch:normal;font-size:medium;line-height:normal;font-family:sans-serif;font-variant-ligatures:normal;font-variant-position:normal;font-variant-caps:normal;font-variant-numeric:normal;font-variant-alternates:normal;font-variant-east-asian:normal;font-feature-settings:normal;font-variation-settings:normal;text-indent:0;text-align:start;text-decoration:none;text-decoration-line:none;text-decoration-style:solid;text-decoration-color:#000000;letter-spacing:normal;word-spacing:normal;text-transform:none;writing-mode:lr-tb;direction:ltr;text-orientation:mixed;dominant-baseline:auto;baseline-shift:baseline;text-anchor:start;white-space:normal;shape-padding:0;shape-margin:0;inline-size:0;clip-rule:nonzero;display:inline;overflow:visible;visibility:visible;opacity:1;isolation:auto;mix-blend-mode:normal;color-interpolation:sRGB;color-interpolation-filters:linearRGB;solid-color:#000000;solid-opacity:1;vector-effect:none;fill:#000000;fill-opacity:1;fill-rule:nonzero;stroke:none;stroke-width:1.00012;stroke-linecap:butt;stroke-linejoin:miter;stroke-miterlimit:4;stroke-dasharray:none;stroke-dashoffset:0;stroke-opacity:1;color-rendering:auto;image-rendering:auto;shape-rendering:auto;text-rendering:auto;enable-background:accumulate;stop-color:#000000;stop-opacity:1"
       d="m 20.623838,33.382457 v 0.413329 6.316179 h 9.911171 v -2.71247 h 0.531019 v 2.71247 h 5.601277 v -2.71247 h 0.532783 v 2.71247 h 9.909406 v -6.729508 h -9.909406 v 2.710855 h -0.532783 v -2.710855 h -5.601277 v 2.710855 h -0.531019 v -2.710855 z m 0.905025,0.826657 h 8.102886 v 2.363724 0.347131 2.365338 h -8.102886 z m 10.440426,0 h 3.794755 v 2.363724 0.347131 2.365338 h -3.794755 v -2.365338 -0.347131 z m 6.13406,0 h 8.102886 v 5.076193 h -8.102886 v -2.365338 -0.347131 z"
       id="path860" />
  </g>
  <g
     inkscape:groupmode="layer"
     id="layer2"
     inkscape:label="Octagon"
     sodipodi:insensitive="true"
     style="opacity:0.25">
    <path
       sodipodi:type="star"
       style="opacity:1;vector-effect:none;fill:none;fill-opacity:1;stroke:#ff0080;stroke-width:0.249999;stroke-linecap:butt;stroke-linejoin:round;stroke-miterlimit:4;stroke-dasharray:none;stroke-dashoffset:0;stroke-opacity:1;marker:none;paint-order:normal;stop-color:#000000"
       id="path836"
       sodipodi:sides="8"
       sodipodi:cx="33.866665"
       sodipodi:cy="33.866665"
       sodipodi:r1="16.933332"
       sodipodi:r2="15.64436"
       sodipodi:arg1="0.78539816"
       sodipodi:arg2="1.1780972"
       inkscape:flatsided="true"
       inkscape:rounded="0"
       inkscape:randomized="0"
       d="M 45.840339,45.840339 33.866665,50.799997 21.892991,45.840339 16.933332,33.866665 21.892991,21.892991 33.866665,16.933332 45.840339,21.892991 50.799997,33.866665 Z" />
    <path
       sodipodi:nodetypes="cc"
       id="path857"
       d="M 27.093333,19.738938 V 47.994392"
       style="fill:none;stroke:#ff0080;stroke-width:0.25;stroke-linejoin:round;stop-color:#000000" />
    <path
       style="fill:none;stroke:#ff0080;stroke-width:0.25;stroke-linejoin:round;stop-color:#000000"
       d="M 40.639997,19.738938 V 47.994392"
       id="path859"
       sodipodi:nodetypes="cc" />
    <path
       sodipodi:nodetypes="cc"
       id="path861"
       d="M 47.994392,27.093332 H 19.738938"
       style="fill:none;stroke:#ff0080;stroke-width:0.25;stroke-linejoin:round;stop-color:#000000" />
    <path
       style="fill:none;stroke:#ff0080;stroke-width:0.25;stroke-linejoin:round;stop-color:#000000"
       d="M 47.994392,40.639997 H 19.738938"
       id="path863"
       sodipodi:nodetypes="cc" />
  </g>
</svg>
