<?xml version="1.0" encoding="UTF-8" standalone="no"?>
<svg
        xmlns:dc="http://purl.org/dc/elements/1.1/"
        xmlns:cc="http://creativecommons.org/ns#"
        xmlns:rdf="http://www.w3.org/1999/02/22-rdf-syntax-ns#"
        xmlns="http://www.w3.org/2000/svg"
        xmlns:sodipodi="http://sodipodi.sourceforge.net/DTD/sodipodi-0.dtd"
        xmlns:inkscape="http://www.inkscape.org/namespaces/inkscape"
        width="256"
        height="256"
        viewBox="0 0 67.733332 67.733332"
        version="1.1"
        id="svg8"
        inkscape:version="1.0 (4035a4fb49, 2020-05-01)"
        sodipodi:docname="121000.svg">
  <title
     id="title856">MIL-STD-2525D Icon</title>
  <defs
     id="defs2">
    <rect
       id="rect884"
       height="18.3453"
       width="38.612288"
       y="21.892991"
       x="21.892991" />
    <rect
       id="rect839"
       height="13.148852"
       width="40.416331"
       y="3.2134565"
       x="23.31878" />
  </defs>
  <sodipodi:namedview
     inkscape:snap-center="true"
     inkscape:snap-object-midpoints="true"
     inkscape:snap-midpoints="true"
     inkscape:object-paths="true"
     id="base"
     pagecolor="#ffffff"
     bordercolor="#666666"
     borderopacity="1.0"
     inkscape:pageopacity="0"
     inkscape:pageshadow="2"
     inkscape:zoom="4"
     inkscape:cx="162.44258"
     inkscape:cy="183.77461"
     inkscape:document-units="px"
     inkscape:current-layer="layer1"
     inkscape:document-rotation="0"
     showgrid="false"
     inkscape:window-width="1823"
     inkscape:window-height="1385"
     inkscape:window-x="1617"
     inkscape:window-y="27"
     inkscape:window-maximized="0"
     units="px"
     inkscape:pagecheckerboard="true"
     inkscape:snap-global="true"
     inkscape:snap-smooth-nodes="true"
     showguides="true"
     inkscape:guide-bbox="true">
    <sodipodi:guide
       position="33.866665,16.933335"
       orientation="1,0"
       id="guide1700" />
  </sodipodi:namedview>
  <metadata
     id="metadata5">
    <rdf:RDF>
      <cc:Work
         rdf:about="">
        <dc:format>image/svg+xml</dc:format>
        <dc:type
           rdf:resource="http://purl.org/dc/dcmitype/StillImage" />
        <dc:title>MIL-STD-2525D Icon</dc:title>
        <dc:creator>
          <cc:Agent>
            <dc:title>Nicholas W. Royer</dc:title>
          </cc:Agent>
        </dc:creator>
        <dc:rights>
          <cc:Agent>
            <dc:title>All rights reserved</dc:title>
          </cc:Agent>
        </dc:rights>
        <dc:description>L=128px</dc:description>
      </cc:Work>
    </rdf:RDF>
  </metadata>
  <g
     inkscape:label="Symbol"
     inkscape:groupmode="layer"
     id="layer1"
     style="opacity:1">
    <path
       d="m 123.8125,105.73047 a 1.4394587,1.4394587 0 0 0 -1.43945,1.43945 v 8.27735 a 1.4394587,1.4394587 0 0 0 -0.67969,-0.10743 l -0.96875,0.0801 c -11.40212,0.94624 -18.9061,3.02779 -22.677735,7.06641 -1.521846,1.62958 -2.288107,3.45463 -2.294922,5.5625 -0.0062,1.92611 0.733526,3.74903 2.064453,5.25195 1.330927,1.50293 3.217514,2.72697 5.603514,3.7461 4.49884,1.92158 11.59553,3.13353 19.16016,3.5664 a 1.4394587,1.4394587 0 0 0 -0.20703,0.74414 v 3.78125 3.78125 a 1.4394587,1.4394587 0 0 0 1.43945,1.43946 H 128 h 4.1875 a 1.4394587,1.4394587 0 0 0 1.43945,-1.43946 v -3.78125 -3.78125 a 1.4394587,1.4394587 0 0 0 -0.2207,-0.76758 c 0.7216,-0.0325 1.73082,-0.007 2.20898,-0.0449 6.94894,-0.55735 12.51771,-1.67096 16.64063,-3.36914 4.12292,-1.69817 6.93975,-4.06527 7.76367,-7.22851 0.30864,-1.18522 0.33476,-2.53386 0.0606,-3.72461 -0.64279,-2.79098 -3.07736,-5.13901 -6.31446,-6.75 -3.83597,-1.90903 -10.10518,-3.29883 -17.02734,-3.91993 -0.5914,-0.0531 -1.14514,-0.10175 -1.5625,-0.13671 -0.20868,-0.0175 -0.38279,-0.0309 -0.51367,-0.041 -0.13088,-0.0101 -0.0481,-0.0195 -0.33399,-0.0195 -0.38771,0 -0.48959,0.21517 -0.70117,0.38281 v -8.56836 a 1.4394587,1.4394587 0 0 0 -1.43945,-1.43945 H 128 Z m -1.44141,20.36719 a 1.4394587,1.4394587 0 0 0 0.002,0 v 3.18554 a 1.4394587,1.4394587 0 0 0 0.0508,0.37305 c -3.84675,-0.2263 -7.44923,-0.59834 -10.41602,-1.27734 -0.16347,-0.0374 -0.83377,-0.25528 -1.29101,-0.39258 0.61017,-0.18557 1.82394,-0.48451 3.37304,-0.76172 1.73569,-0.3106 3.70433,-0.59486 5.23438,-0.74023 0.79941,-0.0759 1.69507,-0.1687 2.06445,-0.2129 l 0.59375,-0.0703 a 1.4394587,1.4394587 0 0 0 0.38867,-0.10351 z m 11.25586,0.008 a 1.4394587,1.4394587 0 0 0 0.37696,0.10156 l 0.53125,0.0684 c 0.38324,0.0493 1.4687,0.15913 2.57422,0.26758 2.43865,0.23922 5.90385,0.82912 7.51953,1.25976 0.17695,0.0472 0.41449,0.13474 0.61523,0.19336 -0.43778,0.13084 -1.09622,0.34397 -1.25,0.37891 -3.06917,0.69739 -6.61028,1.06619 -10.42578,1.28711 a 1.4394587,1.4394587 0 0 0 0.0586,-0.4043 z"
       transform="scale(0.26458333)"
       style="fill:#ffffff;stroke-width:3;stop-color:#000000"
       id="path851" />
    <path
       id="path911"
       d="m 32.496468,30.620869 c -1.505052,0.07687 -2.888161,0.278655 -4.00428,0.586162 -0.725868,0.199987 -1.348398,0.434589 -1.892579,0.789063 -0.544181,0.354473 -1.160157,0.952098 -1.160156,1.871094 1e-6,0.918995 0.615975,1.514667 1.160156,1.86914 0.544181,0.354473 1.166711,0.589076 1.892579,0.789063 1.451735,0.399973 3.314733,0.621093 5.375,0.621093 2.060266,0 3.923264,-0.22112 5.375,-0.621093 0.725867,-0.199987 1.348397,-0.43459 1.892578,-0.789063 0.544181,-0.354473 1.158202,-0.950145 1.158203,-1.86914 0,-0.918996 -0.614022,-1.516621 -1.158203,-1.871094 -0.544181,-0.354474 -1.166711,-0.589076 -1.892578,-0.789063 -1.112729,-0.306573 -2.505722,-0.508069 -4.005317,-0.585458 m 0,2.652162 c 1.295345,0.07695 2.472047,0.255361 3.302191,0.484077 0.133872,0.03688 0.159186,0.07018 0.275391,0.109376 -0.11597,0.0391 -0.141843,0.07063 -0.275391,0.107421 -1.119487,0.308435 -2.808588,0.527344 -4.671874,0.527344 -1.863287,0 -3.552388,-0.218909 -4.671876,-0.527344 -0.133547,-0.03679 -0.15942,-0.06832 -0.27539,-0.107421 0.116205,-0.0392 0.141519,-0.07249 0.27539,-0.109376 0.835286,-0.230133 1.995901,-0.409338 3.301156,-0.485495"
       style="color:#000000;font-style:normal;font-variant:normal;font-weight:normal;font-stretch:normal;font-size:medium;line-height:normal;font-family:sans-serif;font-variant-ligatures:normal;font-variant-position:normal;font-variant-caps:normal;font-variant-numeric:normal;font-variant-alternates:normal;font-variant-east-asian:normal;font-feature-settings:normal;font-variation-settings:normal;text-indent:0;text-align:start;text-decoration:none;text-decoration-line:none;text-decoration-style:solid;text-decoration-color:#000000;letter-spacing:normal;word-spacing:normal;text-transform:none;writing-mode:lr-tb;direction:ltr;text-orientation:mixed;dominant-baseline:auto;baseline-shift:baseline;text-anchor:start;white-space:normal;shape-padding:0;shape-margin:0;inline-size:0;clip-rule:nonzero;display:inline;overflow:visible;visibility:visible;opacity:1;isolation:auto;mix-blend-mode:normal;color-interpolation:sRGB;color-interpolation-filters:linearRGB;solid-color:#000000;solid-opacity:1;vector-effect:none;fill:none;fill-opacity:1;fill-rule:nonzero;stroke:#000000;stroke-width:0.5;stroke-linecap:butt;stroke-linejoin:miter;stroke-miterlimit:4;stroke-dasharray:none;stroke-dashoffset:0;stroke-opacity:1;color-rendering:auto;image-rendering:auto;shape-rendering:auto;text-rendering:auto;enable-background:accumulate;stop-color:#000000;stop-opacity:1"
       sodipodi:nodetypes="csssssssssssccscssscsc" />
    <path
       id="rect913"
       style="fill:none;stroke:#000000;stroke-width:0.5;stop-color:#000000"
       d="m 35.236871,37.112814 0,2.541266 h -2.740403 l 0,-2.541318 m 0,-2.650536 0,-6.382976 h 2.740403 l 0,6.383037"
       sodipodi:nodetypes="cccccccc" />
  </g>
  <g
     inkscape:groupmode="layer"
     id="layer2"
     inkscape:label="Octagon"
     sodipodi:insensitive="true"
     style="display:inline;opacity:0.25">
    <path
       sodipodi:type="star"
       style="opacity:1;vector-effect:none;fill:none;fill-opacity:1;stroke:#ff0080;stroke-width:0.249999;stroke-linecap:butt;stroke-linejoin:round;stroke-miterlimit:4;stroke-dasharray:none;stroke-dashoffset:0;stroke-opacity:1;marker:none;paint-order:normal;stop-color:#000000"
       id="path836"
       sodipodi:sides="8"
       sodipodi:cx="33.866665"
       sodipodi:cy="33.866665"
       sodipodi:r1="16.933332"
       sodipodi:r2="15.64436"
       sodipodi:arg1="0.78539816"
       sodipodi:arg2="1.1780972"
       inkscape:flatsided="true"
       inkscape:rounded="0"
       inkscape:randomized="0"
       d="M 45.840339,45.840339 33.866665,50.799997 21.892991,45.840339 16.933332,33.866665 21.892991,21.892991 33.866665,16.933332 45.840339,21.892991 50.799997,33.866665 Z" />
    <path
       sodipodi:nodetypes="cc"
       id="path857"
       d="M 27.093333,19.738938 V 47.994392"
       style="fill:none;stroke:#ff0080;stroke-width:0.25;stroke-linejoin:round;stop-color:#000000" />
    <path
       style="fill:none;stroke:#ff0080;stroke-width:0.25;stroke-linejoin:round;stop-color:#000000"
       d="M 40.639997,19.738938 V 47.994392"
       id="path859"
       sodipodi:nodetypes="cc" />
    <path
       sodipodi:nodetypes="cc"
       id="path861"
       d="M 47.994392,27.093332 H 19.738938"
       style="fill:none;stroke:#ff0080;stroke-width:0.25;stroke-linejoin:round;stop-color:#000000" />
    <path
       style="fill:none;stroke:#ff0080;stroke-width:0.25;stroke-linejoin:round;stop-color:#000000"
       d="M 47.994392,40.639997 H 19.738938"
       id="path863"
       sodipodi:nodetypes="cc" />
  </g>
</svg>
