<?xml version="1.0" encoding="UTF-8" standalone="no"?>
<svg
   width="256"
   height="256"
   viewBox="0 0 67.733332 67.733332"
   version="1.1"
   id="svg8"
   inkscape:version="1.4 (e7c3feb100, 2024-10-09)"
   sodipodi:docname="99.svg"
   xmlns:inkscape="http://www.inkscape.org/namespaces/inkscape"
   xmlns:sodipodi="http://sodipodi.sourceforge.net/DTD/sodipodi-0.dtd"
   xmlns="http://www.w3.org/2000/svg"
   xmlns:svg="http://www.w3.org/2000/svg"
   xmlns:rdf="http://www.w3.org/1999/02/22-rdf-syntax-ns#"
   xmlns:cc="http://creativecommons.org/ns#"
   xmlns:dc="http://purl.org/dc/elements/1.1/">
  <style
     id="style843" />
  <title
     id="title856">MIL-STD-2525D Icon</title>
  <defs
     id="defs2">
    <rect
       id="rect839"
       height="13.148852"
       width="40.416331"
       y="3.2134565"
       x="23.31878" />
  </defs>
  <sodipodi:namedview
     inkscape:snap-center="true"
     inkscape:snap-object-midpoints="true"
     inkscape:snap-midpoints="true"
     inkscape:object-paths="true"
     id="base"
     pagecolor="#ffffff"
     bordercolor="#666666"
     borderopacity="1.0"
     inkscape:pageopacity="0"
     inkscape:pageshadow="2"
     inkscape:zoom="1.9999999"
     inkscape:cx="125.00001"
     inkscape:cy="186.25001"
     inkscape:document-units="px"
     inkscape:current-layer="layer1"
     inkscape:document-rotation="0"
     showgrid="false"
     inkscape:window-width="1678"
     inkscape:window-height="1371"
     inkscape:window-x="1762"
     inkscape:window-y="32"
     inkscape:window-maximized="0"
     units="px"
     inkscape:pagecheckerboard="true"
     inkscape:showpageshadow="2"
     inkscape:deskcolor="#d1d1d1" />
  <metadata
     id="metadata5">
    <rdf:RDF>
      <cc:Work
         rdf:about="">
        <dc:format>image/svg+xml</dc:format>
        <dc:type
           rdf:resource="http://purl.org/dc/dcmitype/StillImage" />
        <dc:title>MIL-STD-2525D Icon</dc:title>
        <dc:creator>
          <cc:Agent>
            <dc:title>Nicholas W. Royer</dc:title>
          </cc:Agent>
        </dc:creator>
        <dc:rights>
          <cc:Agent>
            <dc:title>All rights reserved</dc:title>
          </cc:Agent>
        </dc:rights>
        <dc:description>L=128px</dc:description>
      </cc:Work>
    </rdf:RDF>
  </metadata>
  <g
     inkscape:label="Symbol"
     inkscape:groupmode="layer"
     id="layer1"
     style="opacity:1">
    <g
       id="path3"
       inkscape:transform-center-x="0.28562229"
       transform="matrix(0,-0.62901891,0.62901891,0,14.115113,45.172113)"
       style="display:inline;stroke-width:1.58978">
      <g
         id="g6"
         inkscape:transform-center-x="4.6868332"
         inkscape:transform-center-y="7.7339583e-05"
         style="stroke-width:1.58978">
        <path
           style="display:inline;opacity:1;fill:#000000;stroke:#000000;stroke-width:0.841258;stroke-linecap:round;stroke-linejoin:round"
           d="M 33.866666,39.382165 H 27.093333"
           id="path1"
           transform="rotate(90,36.90324,34.704948)" />
        <path
           id="path6"
           style="stroke-width:1.58978;stroke-linecap:round;stroke-linejoin:round"
           d="m 33.691679,24.647115 a 0.21158446,0.21158446 0 0 0 -0.0248,-0.06901 l -1.257391,-2.178848 a 0.21158446,0.21158446 0 0 0 -0.184291,-0.104542 0.21158446,0.21158446 0 0 0 -0.182639,0.104542 l -1.257396,2.178852 a 0.21158446,0.21158446 0 0 0 0.183052,0.316932 h 2.515618 a 0.21158446,0.21158446 0 0 0 0.207844,-0.247926 z" />
      </g>
      <g
         id="g8"
         inkscape:transform-center-x="-4.6868333"
         inkscape:transform-center-y="-7.7309987e-05"
         transform="rotate(180,32.226023,31.668374)"
         style="stroke-width:1.58978">
        <path
           style="display:inline;opacity:1;fill:#000000;stroke:#000000;stroke-width:0.841258;stroke-linecap:round;stroke-linejoin:round"
           d="M 33.866666,39.382165 H 27.093333"
           id="path7"
           transform="rotate(90,36.90324,34.704948)" />
        <path
           id="path8"
           style="stroke-width:1.58978;stroke-linecap:round;stroke-linejoin:round"
           d="m 33.691679,24.647115 a 0.21158446,0.21158446 0 0 0 -0.0248,-0.06901 l -1.257391,-2.178848 a 0.21158446,0.21158446 0 0 0 -0.184291,-0.104542 0.21158446,0.21158446 0 0 0 -0.182639,0.104542 l -1.257396,2.178852 a 0.21158446,0.21158446 0 0 0 0.183052,0.316932 h 2.515618 a 0.21158446,0.21158446 0 0 0 0.207844,-0.247926 z" />
      </g>
      <g
         id="g10"
         inkscape:transform-center-x="7.7269179e-05"
         inkscape:transform-center-y="-4.6868332"
         transform="rotate(90,32.226023,31.668374)"
         style="stroke-width:1.58978">
        <path
           style="display:inline;opacity:1;fill:#000000;stroke:#000000;stroke-width:0.841258;stroke-linecap:round;stroke-linejoin:round"
           d="M 33.866666,39.382165 H 27.093333"
           id="path9"
           transform="rotate(90,36.90324,34.704948)" />
        <path
           id="path10"
           style="stroke-width:1.58978;stroke-linecap:round;stroke-linejoin:round"
           d="m 33.691679,24.647115 a 0.21158446,0.21158446 0 0 0 -0.0248,-0.06901 l -1.257391,-2.178848 a 0.21158446,0.21158446 0 0 0 -0.184291,-0.104542 0.21158446,0.21158446 0 0 0 -0.182639,0.104542 l -1.257396,2.178852 a 0.21158446,0.21158446 0 0 0 0.183052,0.316932 h 2.515618 a 0.21158446,0.21158446 0 0 0 0.207844,-0.247926 z" />
      </g>
      <g
         id="g12"
         inkscape:transform-center-x="-3.3454136"
         inkscape:transform-center-y="-3.3454124"
         transform="rotate(135,32.226023,31.668374)"
         style="stroke-width:1.58978">
        <path
           style="display:inline;opacity:1;fill:#000000;stroke:#000000;stroke-width:0.841258;stroke-linecap:round;stroke-linejoin:round"
           d="M 33.866666,39.382165 H 27.093333"
           id="path11"
           transform="rotate(90,36.90324,34.704948)" />
        <path
           id="path12"
           style="stroke-width:1.58978;stroke-linecap:round;stroke-linejoin:round"
           d="m 33.691679,24.647115 a 0.21158446,0.21158446 0 0 0 -0.0248,-0.06901 l -1.257391,-2.178848 a 0.21158446,0.21158446 0 0 0 -0.184291,-0.104542 0.21158446,0.21158446 0 0 0 -0.182639,0.104542 l -1.257396,2.178852 a 0.21158446,0.21158446 0 0 0 0.183052,0.316932 h 2.515618 a 0.21158446,0.21158446 0 0 0 0.207844,-0.247926 z" />
      </g>
      <g
         id="g14"
         inkscape:transform-center-x="3.3454123"
         inkscape:transform-center-y="-3.3454135"
         transform="rotate(45,32.226023,31.668374)"
         style="stroke-width:1.58978">
        <path
           style="display:inline;opacity:1;fill:#000000;stroke:#000000;stroke-width:0.841258;stroke-linecap:round;stroke-linejoin:round"
           d="M 33.866666,39.382165 H 27.093333"
           id="path13"
           transform="rotate(90,36.90324,34.704948)" />
        <path
           id="path14"
           style="stroke-width:1.58978;stroke-linecap:round;stroke-linejoin:round"
           d="m 33.691679,24.647115 a 0.21158446,0.21158446 0 0 0 -0.0248,-0.06901 l -1.257391,-2.178848 a 0.21158446,0.21158446 0 0 0 -0.184291,-0.104542 0.21158446,0.21158446 0 0 0 -0.182639,0.104542 l -1.257396,2.178852 a 0.21158446,0.21158446 0 0 0 0.183052,0.316932 h 2.515618 a 0.21158446,0.21158446 0 0 0 0.207844,-0.247926 z" />
      </g>
    </g>
  </g>
  <g
     inkscape:groupmode="layer"
     id="layer2"
     inkscape:label="Octagon"
     sodipodi:insensitive="true"
     style="opacity:0.25">
    <path
       sodipodi:type="star"
       style="opacity:1;vector-effect:none;fill:none;fill-opacity:1;stroke:#ff0080;stroke-width:0.249999;stroke-linecap:butt;stroke-linejoin:round;stroke-miterlimit:4;stroke-dasharray:none;stroke-dashoffset:0;stroke-opacity:1;marker:none;paint-order:normal;stop-color:#000000"
       id="path836"
       sodipodi:sides="8"
       sodipodi:cx="33.866665"
       sodipodi:cy="33.866665"
       sodipodi:r1="16.933332"
       sodipodi:r2="15.64436"
       sodipodi:arg1="0.78539816"
       sodipodi:arg2="1.1780972"
       inkscape:flatsided="true"
       inkscape:rounded="0"
       inkscape:randomized="0"
       d="M 45.840339,45.840339 33.866665,50.799997 21.892991,45.840339 16.933332,33.866665 21.892991,21.892991 33.866665,16.933332 45.840339,21.892991 50.799997,33.866665 Z" />
    <path
       sodipodi:nodetypes="cc"
       id="path857"
       d="M 27.093333,19.738938 V 47.994392"
       style="fill:none;stroke:#ff0080;stroke-width:0.25;stroke-linejoin:round;stop-color:#000000" />
    <path
       style="fill:none;stroke:#ff0080;stroke-width:0.25;stroke-linejoin:round;stop-color:#000000"
       d="M 40.639997,19.738938 V 47.994392"
       id="path859"
       sodipodi:nodetypes="cc" />
    <path
       sodipodi:nodetypes="cc"
       id="path861"
       d="M 47.994392,27.093332 H 19.738938"
       style="fill:none;stroke:#ff0080;stroke-width:0.25;stroke-linejoin:round;stop-color:#000000" />
    <path
       style="fill:none;stroke:#ff0080;stroke-width:0.25;stroke-linejoin:round;stop-color:#000000"
       d="M 47.994392,40.639997 H 19.738938"
       id="path863"
       sodipodi:nodetypes="cc" />
  </g>
</svg>
