<?xml version="1.0" encoding="UTF-8" standalone="no"?>
<svg
        xmlns:dc="http://purl.org/dc/elements/1.1/"
        xmlns:cc="http://creativecommons.org/ns#"
        xmlns:rdf="http://www.w3.org/1999/02/22-rdf-syntax-ns#"
        xmlns="http://www.w3.org/2000/svg"
        xmlns:sodipodi="http://sodipodi.sourceforge.net/DTD/sodipodi-0.dtd"
        xmlns:inkscape="http://www.inkscape.org/namespaces/inkscape"
        width="256"
        height="256"
        viewBox="0 0 67.733332 67.733332"
        version="1.1"
        id="svg8"
        inkscape:version="1.0 (4035a4fb49, 2020-05-01)"
        sodipodi:docname="120400.svg">
  <title
     id="title856">MIL-STD-2525D Icon</title>
  <defs
     id="defs2">
    <rect
       x="23.463894"
       y="29.981363"
       width="32.994497"
       height="22.188978"
       id="rect919" />
    <rect
       id="rect839"
       height="13.148852"
       width="40.416331"
       y="3.2134565"
       x="23.31878" />
  </defs>
  <sodipodi:namedview
     inkscape:snap-center="true"
     inkscape:snap-object-midpoints="true"
     inkscape:snap-midpoints="true"
     inkscape:object-paths="true"
     id="base"
     pagecolor="#ffffff"
     bordercolor="#666666"
     borderopacity="1.0"
     inkscape:pageopacity="0"
     inkscape:pageshadow="2"
     inkscape:zoom="11.313708"
     inkscape:cx="131.23029"
     inkscape:cy="149.32878"
     inkscape:document-units="px"
     inkscape:current-layer="layer1"
     inkscape:document-rotation="0"
     showgrid="false"
     inkscape:window-width="1678"
     inkscape:window-height="1385"
     inkscape:window-x="1762"
     inkscape:window-y="27"
     inkscape:window-maximized="0"
     units="px"
     inkscape:pagecheckerboard="true"
     showguides="true"
     inkscape:guide-bbox="true">
    <sodipodi:guide
       position="33.866665,50.8"
       orientation="1,0"
       id="guide861" />
  </sodipodi:namedview>
  <metadata
     id="metadata5">
    <rdf:RDF>
      <cc:Work
         rdf:about="">
        <dc:format>image/svg+xml</dc:format>
        <dc:type
           rdf:resource="http://purl.org/dc/dcmitype/StillImage" />
        <dc:title>MIL-STD-2525D Icon</dc:title>
        <dc:creator>
          <cc:Agent>
            <dc:title>Nicholas W. Royer</dc:title>
          </cc:Agent>
        </dc:creator>
        <dc:rights>
          <cc:Agent>
            <dc:title>All rights reserved</dc:title>
          </cc:Agent>
        </dc:rights>
        <dc:description>L=128px</dc:description>
      </cc:Work>
    </rdf:RDF>
  </metadata>
  <g
     inkscape:label="Symbol"
     inkscape:groupmode="layer"
     id="layer1"
     style="opacity:1">
    <path
       d="m 128,103.31641 c -11.28885,0 -22.57877,8.3e-4 -0.002,0.002 a 1.8139923,1.8139923 0 0 1 0.002,0 c 22.57682,-0.001 11.28885,-0.002 0,-0.002 z m -0.002,3.63086 c -4.69438,3.9e-4 -9.36043,1.93236 -12.67969,5.25195 -3.31926,3.31959 -5.25007,7.98531 -5.25,12.67969 4.2e-4,6.99153 4.49491,13.77834 10.93164,16.50781 a 1.8139923,1.8139923 0 0 1 1.10547,1.66992 v 8.72852 h 11.78906 v -8.72657 A 1.8139923,1.8139923 0 0 1 135,141.38867 c 6.43727,-2.7297 10.93191,-9.51764 10.93164,-16.50976 7e-5,-4.69468 -1.93232,-9.36006 -5.25195,-12.67969 -3.31964,-3.31964 -7.98502,-5.25202 -12.67969,-5.25195 a 1.8139923,1.8139923 0 0 1 -0.002,0 z"
       transform="scale(0.26458333)"
       style="fill:#ffffff;stroke:none;stroke-width:3.77998;stop-color:#000000"
       id="path868" />
    <path
       transform="scale(0.26458333)"
       id="path860"
       style="fill:#000000;stroke:none;stroke-width:3.77998;stop-color:#000000"
       d="M 127.99805 105.13281 A 19.7458 19.7458 0 0 0 108.25391 124.87891 A 19.7458 19.7458 0 0 0 120.29102 143.05664 L 120.29102 153.59961 L 135.70898 153.59961 L 135.70898 143.05859 A 19.7458 19.7458 0 0 0 147.74609 124.87891 A 19.7458 19.7458 0 0 0 128 105.13281 A 19.7458 19.7458 0 0 1 127.99805 105.13281 z M 127.91797 108.92773 A 15.797143 15.797143 0 0 1 128 108.92773 A 15.797143 15.797143 0 0 1 143.79688 124.72461 A 15.797143 15.797143 0 0 1 128 140.52148 A 15.797143 15.797143 0 0 1 112.20312 124.72461 A 15.797143 15.797143 0 0 1 127.91797 108.92773 z M 122.56836 144.09375 L 133.43164 144.09375 L 133.43164 151.00977 L 122.56836 151.00977 L 122.56836 144.09375 z " />
  </g>
  <g
     inkscape:groupmode="layer"
     id="layer2"
     inkscape:label="Octagon"
     sodipodi:insensitive="true"
     style="opacity:0.25">
    <path
       sodipodi:type="star"
       style="opacity:1;vector-effect:none;fill:none;fill-opacity:1;stroke:#ff0080;stroke-width:0.249999;stroke-linecap:butt;stroke-linejoin:round;stroke-miterlimit:4;stroke-dasharray:none;stroke-dashoffset:0;stroke-opacity:1;marker:none;paint-order:normal;stop-color:#000000"
       id="path836"
       sodipodi:sides="8"
       sodipodi:cx="33.866665"
       sodipodi:cy="33.866665"
       sodipodi:r1="16.933332"
       sodipodi:r2="15.64436"
       sodipodi:arg1="0.78539816"
       sodipodi:arg2="1.1780972"
       inkscape:flatsided="true"
       inkscape:rounded="0"
       inkscape:randomized="0"
       d="M 45.840339,45.840339 33.866665,50.799997 21.892991,45.840339 16.933332,33.866665 21.892991,21.892991 33.866665,16.933332 45.840339,21.892991 50.799997,33.866665 Z" />
    <path
       sodipodi:nodetypes="cc"
       id="path857"
       d="M 27.093333,19.738938 V 47.994392"
       style="fill:none;stroke:#ff0080;stroke-width:0.25;stroke-linejoin:round;stop-color:#000000" />
    <path
       style="fill:none;stroke:#ff0080;stroke-width:0.25;stroke-linejoin:round;stop-color:#000000"
       d="M 40.639997,19.738938 V 47.994392"
       id="path859"
       sodipodi:nodetypes="cc" />
    <path
       sodipodi:nodetypes="cc"
       id="path861"
       d="M 47.994392,27.093332 H 19.738938"
       style="fill:none;stroke:#ff0080;stroke-width:0.25;stroke-linejoin:round;stop-color:#000000" />
    <path
       style="fill:none;stroke:#ff0080;stroke-width:0.25;stroke-linejoin:round;stop-color:#000000"
       d="M 47.994392,40.639997 H 19.738938"
       id="path863"
       sodipodi:nodetypes="cc" />
  </g>
</svg>
