<?xml version="1.0" encoding="UTF-8" standalone="no"?>
<svg
        xmlns:dc="http://purl.org/dc/elements/1.1/"
        xmlns:cc="http://creativecommons.org/ns#"
        xmlns:rdf="http://www.w3.org/1999/02/22-rdf-syntax-ns#"
        xmlns="http://www.w3.org/2000/svg"
        xmlns:sodipodi="http://sodipodi.sourceforge.net/DTD/sodipodi-0.dtd"
        xmlns:inkscape="http://www.inkscape.org/namespaces/inkscape"
        width="256"
        height="256"
        viewBox="0 0 67.733332 67.733332"
        version="1.1"
        id="svg8"
        inkscape:version="1.0 (4035a4fb49, 2020-05-01)"
        sodipodi:docname="120600.svg">
  <title
     id="title856">MIL-STD-2525D Icon</title>
  <defs
     id="defs2">
    <rect
       x="23.463894"
       y="29.981363"
       width="32.994497"
       height="22.188978"
       id="rect919" />
    <rect
       id="rect839"
       height="13.148852"
       width="40.416331"
       y="3.2134565"
       x="23.31878" />
  </defs>
  <sodipodi:namedview
     inkscape:snap-center="true"
     inkscape:snap-object-midpoints="true"
     inkscape:snap-midpoints="true"
     inkscape:object-paths="true"
     id="base"
     pagecolor="#ffffff"
     bordercolor="#666666"
     borderopacity="1.0"
     inkscape:pageopacity="0"
     inkscape:pageshadow="2"
     inkscape:zoom="8.0000002"
     inkscape:cx="120.02017"
     inkscape:cy="178.13392"
     inkscape:document-units="px"
     inkscape:current-layer="layer1"
     inkscape:document-rotation="0"
     showgrid="false"
     inkscape:window-width="1678"
     inkscape:window-height="1385"
     inkscape:window-x="1762"
     inkscape:window-y="27"
     inkscape:window-maximized="0"
     units="px"
     inkscape:pagecheckerboard="true"
     showguides="true"
     inkscape:guide-bbox="true">
    <sodipodi:guide
       position="33.866665,50.8"
       orientation="1,0"
       id="guide861" />
  </sodipodi:namedview>
  <metadata
     id="metadata5">
    <rdf:RDF>
      <cc:Work
         rdf:about="">
        <dc:format>image/svg+xml</dc:format>
        <dc:type
           rdf:resource="http://purl.org/dc/dcmitype/StillImage" />
        <dc:title>MIL-STD-2525D Icon</dc:title>
        <dc:creator>
          <cc:Agent>
            <dc:title>Nicholas W. Royer</dc:title>
          </cc:Agent>
        </dc:creator>
        <dc:rights>
          <cc:Agent>
            <dc:title>All rights reserved</dc:title>
          </cc:Agent>
        </dc:rights>
        <dc:description>L=128px</dc:description>
      </cc:Work>
    </rdf:RDF>
  </metadata>
  <g
     inkscape:label="Symbol"
     inkscape:groupmode="layer"
     id="layer1"
     style="opacity:1">
    <path
       transform="scale(0.26458333)"
       d="m 97.306641,143.03516 c -1.232041,0.007 -2.453104,0.51932 -3.322266,1.39257 -0.870068,0.87417 -1.376661,2.09868 -1.376953,3.33204 -1.05e-4,1.23756 0.509674,2.4667 1.384766,3.34179 0.875091,0.87509 2.10423,1.38487 3.341796,1.38477 1.237567,1e-4 2.466705,-0.50968 3.341796,-1.38477 0.87509,-0.87509 1.38487,-2.10423 1.38477,-3.34179 -3.1e-4,-1.23731 -0.50972,-2.46704 -1.38477,-3.3418 -0.875051,-0.87476 -2.104492,-1.38292 -3.341796,-1.38281 a 1.1128134,1.1128134 0 0 1 -0.002,0 c -0.0067,-2e-5 -0.0148,-2e-5 -0.02148,0 z"
       inkscape:original="M 97.304688 141.92188 A 5.8393434 5.8393434 0 0 0 91.494141 147.75977 A 5.8393434 5.8393434 0 0 0 97.333984 153.59961 A 5.8393434 5.8393434 0 0 0 103.17383 147.75977 A 5.8393434 5.8393434 0 0 0 97.333984 141.92188 A 5.8393434 5.8393434 0 0 0 97.304688 141.92188 z "
       inkscape:radius="-1.1127021"
       sodipodi:type="inkscape:offset"
       style="fill:#ffffff;stroke-width:3.77998;stop-color:#000000"
       id="path887" />
    <path
       transform="scale(0.26458333)"
       d="m 127.99805,105.13281 a 19.7458,19.7458 0 0 0 -19.74414,19.7461 19.7458,19.7458 0 0 0 12.03711,18.17773 v 10.54297 h 15.41796 V 143.05859 A 19.7458,19.7458 0 0 0 147.74609,124.87891 19.7458,19.7458 0 0 0 128,105.13281 a 19.7458,19.7458 0 0 1 -0.002,0 z"
       style="font-variation-settings:normal;opacity:1;vector-effect:none;fill:#ffffff;fill-opacity:1;stroke:none;stroke-width:3.77998;stroke-linecap:butt;stroke-linejoin:miter;stroke-miterlimit:4;stroke-dasharray:none;stroke-dashoffset:0;stroke-opacity:1;stop-color:#000000;stop-opacity:1"
       id="path860" />
    <path
       transform="scale(0.26458333)"
       d="M 97.304688 141.92188 A 5.8393434 5.8393434 0 0 0 91.494141 147.75977 A 5.8393434 5.8393434 0 0 0 97.333984 153.59961 A 5.8393434 5.8393434 0 0 0 103.17383 147.75977 A 5.8393434 5.8393434 0 0 0 97.333984 141.92188 A 5.8393434 5.8393434 0 0 0 97.304688 141.92188 z M 97.332031 143.83594 A 3.9242435 3.9242435 0 0 1 97.333984 143.83594 A 3.9242435 3.9242435 0 0 1 101.25781 147.75977 A 3.9242435 3.9242435 0 0 1 97.333984 151.68555 A 3.9242435 3.9242435 0 0 1 93.410156 147.75977 A 3.9242435 3.9242435 0 0 1 97.332031 143.83594 z "
       style="fill:#000000;stroke-width:3.77998;stop-color:#000000"
       id="path862" />
    <path
       sodipodi:nodetypes="ccccc"
       style="color:#000000;font-style:normal;font-variant:normal;font-weight:normal;font-stretch:normal;font-size:medium;line-height:normal;font-family:sans-serif;font-variant-ligatures:normal;font-variant-position:normal;font-variant-caps:normal;font-variant-numeric:normal;font-variant-alternates:normal;font-variant-east-asian:normal;font-feature-settings:normal;font-variation-settings:normal;text-indent:0;text-align:start;text-decoration:none;text-decoration-line:none;text-decoration-style:solid;text-decoration-color:#000000;letter-spacing:normal;word-spacing:normal;text-transform:none;writing-mode:lr-tb;direction:ltr;text-orientation:mixed;dominant-baseline:auto;baseline-shift:baseline;text-anchor:start;white-space:normal;shape-padding:0;shape-margin:0;inline-size:0;clip-rule:nonzero;display:inline;overflow:visible;visibility:visible;opacity:1;isolation:auto;mix-blend-mode:normal;color-interpolation:sRGB;color-interpolation-filters:linearRGB;solid-color:#000000;solid-opacity:1;vector-effect:none;fill:#000000;fill-opacity:1;fill-rule:nonzero;stroke:none;stroke-width:1.05833;stroke-linecap:butt;stroke-linejoin:miter;stroke-miterlimit:4;stroke-dasharray:none;stroke-dashoffset:0;stroke-opacity:1;color-rendering:auto;image-rendering:auto;shape-rendering:auto;text-rendering:auto;enable-background:accumulate;stop-color:#000000;stop-opacity:1"
       d="m 29.25,30.925781 -3.463927,6.919336 0.977879,0.412664 2.557226,-5.111935 z"
       id="path869" />
    <path
       d="m 33.86615,27.816389 a 5.2244095,5.2244095 0 0 0 -5.22397,5.224489 5.2244095,5.2244095 0 0 0 3.184818,4.809524 v 2.789494 h 4.079336 v -2.788978 a 5.2244095,5.2244095 0 0 0 3.184818,-4.81004 5.2244095,5.2244095 0 0 0 -5.224486,-5.224489 5.2244095,5.2244095 0 0 1 -5.29e-4,0 z m -0.02119,1.004073 a 4.1796607,4.1796607 0 0 1 0.0217,0 4.1796607,4.1796607 0 0 1 4.179591,4.179591 4.1796607,4.1796607 0 0 1 -4.179578,4.179588 4.1796607,4.1796607 0 0 1 -4.179591,-4.179588 4.1796607,4.1796607 0 0 1 4.157887,-4.179591 z m -1.415418,9.304342 h 2.874243 v 1.829864 h -2.874243 z"
       style="opacity:1;fill:#000000;stroke:none;stroke-width:1.00012;stop-color:#000000"
       id="path860-7" />
  </g>
  <g
     inkscape:groupmode="layer"
     id="layer2"
     inkscape:label="Octagon"
     sodipodi:insensitive="true"
     style="opacity:0.25">
    <path
       sodipodi:type="star"
       style="opacity:1;vector-effect:none;fill:none;fill-opacity:1;stroke:#ff0080;stroke-width:0.249999;stroke-linecap:butt;stroke-linejoin:round;stroke-miterlimit:4;stroke-dasharray:none;stroke-dashoffset:0;stroke-opacity:1;marker:none;paint-order:normal;stop-color:#000000"
       id="path836"
       sodipodi:sides="8"
       sodipodi:cx="33.866665"
       sodipodi:cy="33.866665"
       sodipodi:r1="16.933332"
       sodipodi:r2="15.64436"
       sodipodi:arg1="0.78539816"
       sodipodi:arg2="1.1780972"
       inkscape:flatsided="true"
       inkscape:rounded="0"
       inkscape:randomized="0"
       d="M 45.840339,45.840339 33.866665,50.799997 21.892991,45.840339 16.933332,33.866665 21.892991,21.892991 33.866665,16.933332 45.840339,21.892991 50.799997,33.866665 Z" />
    <path
       sodipodi:nodetypes="cc"
       id="path857"
       d="M 27.093333,19.738938 V 47.994392"
       style="fill:none;stroke:#ff0080;stroke-width:0.25;stroke-linejoin:round;stop-color:#000000" />
    <path
       style="fill:none;stroke:#ff0080;stroke-width:0.25;stroke-linejoin:round;stop-color:#000000"
       d="M 40.639997,19.738938 V 47.994392"
       id="path859"
       sodipodi:nodetypes="cc" />
    <path
       sodipodi:nodetypes="cc"
       id="path861"
       d="M 47.994392,27.093332 H 19.738938"
       style="fill:none;stroke:#ff0080;stroke-width:0.25;stroke-linejoin:round;stop-color:#000000" />
    <path
       style="fill:none;stroke:#ff0080;stroke-width:0.25;stroke-linejoin:round;stop-color:#000000"
       d="M 47.994392,40.639997 H 19.738938"
       id="path863"
       sodipodi:nodetypes="cc" />
  </g>
</svg>
